<svg width="535" height="464" viewBox="0 0 535 464" fill="none" xmlns="http://www.w3.org/2000/svg">
<g clip-path="url(#clip0_241_853)">
<g style="mix-blend-mode:multiply">
<path d="M253.102 464C392.661 464 505.797 454.554 505.797 442.901C505.797 431.248 392.661 421.802 253.102 421.802C113.543 421.802 0.407715 431.248 0.407715 442.901C0.407715 454.554 113.543 464 253.102 464Z" fill="#ABCBFF"/>
</g>
<path d="M434.503 423C434.503 423 410.144 351.48 452.068 300.397C493.993 249.313 503.987 226.773 505.809 224.402C497.626 296.597 474.401 343.984 459.64 362.125C444.879 380.267 434.503 423.013 434.503 423.013V423Z" fill="#B6D15A"/>
<path d="M434.503 423C434.503 423 420.239 365.631 462.164 314.548C504.089 263.464 503.987 226.773 505.809 224.402C497.626 296.597 474.401 343.984 459.64 362.125C444.879 380.267 434.503 423.013 434.503 423.013V423Z" fill="#A1BC33"/>
<path d="M437.193 427.131C437.193 427.131 433.063 365.759 476.759 334.397C520.455 303.035 533.062 287.405 534.987 285.927C513.381 340.988 485.159 373.37 469.748 384.537C454.337 395.705 437.193 427.131 437.193 427.131Z" fill="#B6D15A"/>
<path d="M437.193 427.131C437.193 427.131 438.034 379.017 481.731 347.643C525.427 316.281 533.062 287.406 535 285.914C513.394 340.976 485.172 373.357 469.761 384.525C454.35 395.693 437.206 427.118 437.206 427.118L437.193 427.131Z" fill="#A1BC33"/>
<path d="M149.253 287.928H136.048C131.472 287.928 127.749 284.206 127.749 279.629V267.875C121.465 266.855 115.232 265.159 109.203 262.813L103.275 273.076C102.166 275.001 100.382 276.365 98.2404 276.939C96.0989 277.513 93.8682 277.219 91.9434 276.11L80.5095 269.507C76.5452 267.212 75.1812 262.125 77.4757 258.16L83.5177 247.694C78.6866 243.665 74.2125 239.101 70.2227 234.078L59.5536 240.236C57.6288 241.345 55.3981 241.638 53.2566 241.064C51.1151 240.491 49.3305 239.114 48.2216 237.201L41.6187 225.766C39.3242 221.801 40.6881 216.714 44.6524 214.42L55.6275 208.084C53.5115 202.27 51.9819 196.164 51.0769 189.942H38.0878C33.5116 189.942 29.7896 186.22 29.7896 181.643V168.435C29.7896 163.858 33.5116 160.136 38.0878 160.136H51.5485C52.6192 154.118 54.3018 148.203 56.5325 142.53L44.6397 135.671C40.6754 133.376 39.3115 128.29 41.6059 124.325L48.2088 112.889C49.3178 110.964 51.1024 109.6 53.2438 109.026C55.3853 108.453 57.6288 108.746 59.5408 109.855L71.7906 116.931C75.6146 112.392 79.9358 108.172 84.6394 104.373L77.4629 91.9433C75.1685 87.9784 76.5324 82.8917 80.4967 80.597L91.9307 73.9932C95.895 71.7112 100.981 73.0625 103.275 77.0273L110.554 89.6358C116.137 87.5705 121.924 86.0406 127.749 85.0972V70.4618C127.749 65.885 131.472 62.1624 136.048 62.1624H149.253C153.83 62.1624 157.552 65.885 157.552 70.4618V85.0972C163.377 86.0406 169.151 87.5705 174.747 89.6358L182.026 77.0273C183.135 75.1023 184.919 73.7382 187.061 73.1645C189.202 72.5908 191.446 72.884 193.358 73.9932L204.792 80.597C208.756 82.8917 210.12 87.9784 207.825 91.9433L200.649 104.373C205.353 108.16 209.674 112.379 213.498 116.931L225.748 109.855C227.672 108.746 229.903 108.453 232.045 109.026C234.186 109.6 235.971 110.977 237.08 112.889L243.682 124.325C245.977 128.29 244.613 133.376 240.649 135.671L228.756 142.53C230.987 148.203 232.669 154.118 233.74 160.136H247.201C251.777 160.136 255.499 163.858 255.499 168.435V181.643C255.499 186.22 251.777 189.942 247.201 189.942H234.212C233.307 196.164 231.777 202.257 229.661 208.084L240.636 214.42C244.6 216.714 245.964 221.801 243.67 225.766L237.067 237.201C234.772 241.166 229.686 242.53 225.722 240.236L215.053 234.078C211.063 239.088 206.602 243.665 201.758 247.694L207.8 258.16C210.094 262.125 208.73 267.212 204.766 269.507L193.332 276.11C191.407 277.219 189.177 277.513 187.035 276.939C184.894 276.365 183.109 274.988 182 273.076L176.073 262.813C170.044 265.159 163.81 266.855 157.526 267.875V279.629C157.526 284.206 153.804 287.928 149.228 287.928H149.253ZM108.604 261.118L109.152 261.335C115.449 263.821 121.962 265.605 128.54 266.625L129.113 266.715V279.642C129.113 283.466 132.224 286.577 136.048 286.577H149.253C153.078 286.577 156.188 283.466 156.188 279.642V266.715L156.761 266.625C163.326 265.605 169.852 263.821 176.149 261.335L176.698 261.118L183.211 272.4C184.142 274.007 185.633 275.154 187.418 275.639C189.202 276.11 191.076 275.868 192.682 274.95L204.116 268.346C207.43 266.434 208.565 262.176 206.653 258.874L200.037 247.413L200.483 247.043C205.569 242.875 210.235 238.081 214.377 232.816L214.747 232.357L226.436 239.101C229.75 241.013 233.995 239.879 235.907 236.564L242.51 225.128C244.422 221.814 243.287 217.569 239.973 215.656L228.004 208.746L228.208 208.211C230.451 202.143 232.057 195.756 232.962 189.228L233.039 188.642H247.213C251.037 188.642 254.148 185.531 254.148 181.707V168.499C254.148 164.674 251.037 161.564 247.213 161.564H232.605L232.503 161.003C231.42 154.692 229.661 148.484 227.277 142.555L227.061 142.007L239.973 134.549C243.287 132.637 244.422 128.379 242.51 125.077L235.907 113.641C234.976 112.035 233.485 110.888 231.7 110.403C229.903 109.919 228.042 110.174 226.436 111.092L213.192 118.741L212.822 118.295C208.845 113.501 204.307 109.077 199.349 105.125L198.89 104.756L206.653 91.3058C208.565 87.9912 207.43 83.7459 204.116 81.8336L192.682 75.2298C191.076 74.2991 189.202 74.0569 187.418 74.5414C185.633 75.0258 184.129 76.1732 183.211 77.7795L175.346 91.3951L174.811 91.1911C168.96 88.9856 162.893 87.3793 156.774 86.4359L156.201 86.3466V70.551C156.201 66.7264 153.09 63.6158 149.266 63.6158H136.06C132.236 63.6158 129.126 66.7264 129.126 70.551V86.3466L128.552 86.4359C122.434 87.392 116.366 88.9856 110.516 91.1911L109.98 91.3951L102.115 77.7795C101.185 76.1732 99.6935 75.0258 97.909 74.5414C96.1116 74.0569 94.2506 74.3119 92.6445 75.2298L81.2105 81.8336C77.8963 83.7459 76.7619 88.0039 78.6739 91.3058L86.4368 104.756L85.9779 105.125C81.0193 109.077 76.4814 113.501 72.5044 118.295L72.1347 118.741L58.8907 111.092C57.2846 110.161 55.4108 109.919 53.6262 110.403C51.8417 110.888 50.3375 112.035 49.4198 113.641L42.8169 125.077C40.9048 128.392 42.0393 132.637 45.3535 134.549L58.2661 142.007L58.0494 142.555C55.6658 148.484 53.9067 154.692 52.8232 161.003L52.7212 161.564H38.1133C34.2892 161.564 31.179 164.674 31.179 168.499V181.707C31.179 185.531 34.2892 188.642 38.1133 188.642H52.2878L52.3643 189.228C53.2693 195.743 54.8754 202.13 57.1189 208.211L57.3228 208.746L45.3535 215.656C42.0393 217.569 40.9048 221.827 42.8169 225.128L49.4198 236.564C50.3503 238.17 51.8417 239.318 53.6262 239.802C55.4108 240.274 57.2846 240.032 58.8907 239.114L70.5796 232.37L70.9493 232.829C75.092 238.094 79.7701 242.887 84.8434 247.056L85.2895 247.426L78.6739 258.887C76.7619 262.202 77.8963 266.447 81.2105 268.359L92.6445 274.963C94.2506 275.894 96.1116 276.136 97.909 275.651C99.6935 275.167 101.198 274.02 102.115 272.413L108.629 261.131L108.604 261.118ZM142.651 227.283C114.646 227.283 91.8542 204.488 91.8542 176.48C91.8542 148.471 114.646 125.676 142.651 125.676C170.656 125.676 193.447 148.471 193.447 176.48C193.447 204.488 170.656 227.283 142.651 227.283ZM142.651 127.053C115.398 127.053 93.2181 149.236 93.2181 176.492C93.2181 203.749 115.398 225.932 142.651 225.932C169.903 225.932 192.083 203.749 192.083 176.492C192.083 149.236 169.903 127.053 142.651 127.053Z" fill="white"/>
<path d="M402.279 223.229H395.001C392.311 223.229 390.119 221.036 390.119 218.346V212.125C386.805 211.577 383.529 210.672 380.342 209.46L377.206 214.891C376.556 216.026 375.498 216.829 374.249 217.161C372.987 217.492 371.674 217.326 370.552 216.676L364.255 213.043C361.923 211.691 361.12 208.708 362.471 206.375L365.67 200.83C363.134 198.701 360.775 196.291 358.672 193.652L353.025 196.916C350.693 198.267 347.71 197.464 346.359 195.131L342.726 188.833C341.387 186.5 342.178 183.517 344.51 182.166L350.336 178.8C349.239 175.727 348.436 172.528 347.939 169.251H341.043C338.354 169.251 336.161 167.058 336.161 164.368V157.089C336.161 154.399 338.354 152.206 341.043 152.206H348.207C348.793 149.045 349.673 145.934 350.833 142.938L344.51 139.292C342.178 137.94 341.375 134.957 342.726 132.624L346.359 126.326C347.009 125.192 348.067 124.389 349.316 124.057C350.578 123.726 351.891 123.891 353.013 124.542L359.539 128.315C361.566 125.931 363.835 123.726 366.295 121.724L362.471 115.095C361.821 113.96 361.642 112.647 361.986 111.398C362.318 110.136 363.134 109.09 364.255 108.44L370.552 104.794C371.674 104.144 373 103.965 374.249 104.309C375.511 104.641 376.556 105.457 377.206 106.579L381.094 113.31C384.038 112.239 387.072 111.436 390.119 110.926V103.124C390.119 100.434 392.311 98.2411 395.001 98.2411H402.279C404.969 98.2411 407.161 100.434 407.161 103.124V110.926C410.221 111.436 413.254 112.239 416.186 113.31L420.074 106.579C421.425 104.246 424.408 103.443 426.741 104.794L433.038 108.44C434.172 109.09 434.975 110.148 435.306 111.398C435.638 112.66 435.472 113.973 434.822 115.095L430.998 121.724C433.458 123.726 435.727 125.944 437.754 128.315L444.28 124.542C445.415 123.891 446.728 123.713 447.977 124.057C449.239 124.389 450.284 125.205 450.934 126.326L454.567 132.624C455.217 133.759 455.396 135.072 455.051 136.321C454.72 137.583 453.904 138.629 452.782 139.279L446.46 142.925C447.62 145.908 448.5 149.019 449.086 152.193H456.25C458.939 152.193 461.132 154.386 461.132 157.076V164.356C461.132 167.046 458.939 169.238 456.25 169.238H449.354C448.856 172.515 448.053 175.715 446.957 178.787L452.782 182.153C453.904 182.803 454.72 183.861 455.051 185.11C455.383 186.373 455.217 187.686 454.567 188.808L450.934 195.105C449.596 197.438 446.6 198.242 444.268 196.89L438.621 193.627C436.505 196.253 434.159 198.662 431.61 200.804L434.809 206.35C435.459 207.484 435.638 208.797 435.294 210.047C434.962 211.309 434.147 212.354 433.025 213.005L426.728 216.638C424.408 217.976 421.412 217.186 420.061 214.853L416.925 209.422C413.739 210.646 410.45 211.538 407.149 212.087V218.308C407.149 220.998 404.956 223.191 402.267 223.191L402.279 223.229ZM379.756 207.765L380.304 207.982C383.745 209.346 387.327 210.315 390.922 210.875L391.495 210.965V218.346C391.495 220.284 393.076 221.865 395.014 221.865H402.292C404.23 221.865 405.81 220.284 405.81 218.346V210.965L406.384 210.875C409.978 210.315 413.548 209.346 417.002 207.982L417.55 207.765L421.272 214.203C422.241 215.886 424.395 216.459 426.078 215.49L432.375 211.857C433.191 211.385 433.764 210.633 434.019 209.728C434.261 208.823 434.134 207.867 433.662 207.064L429.889 200.524L430.335 200.154C433.114 197.872 435.676 195.246 437.945 192.364L438.315 191.905L444.981 195.756C446.664 196.724 448.818 196.151 449.787 194.468L453.42 188.17C453.891 187.354 454.019 186.411 453.777 185.506C453.535 184.6 452.948 183.836 452.132 183.377L445.313 179.437L445.517 178.902C446.753 175.587 447.62 172.081 448.117 168.512L448.194 167.925H456.275C458.213 167.925 459.793 166.344 459.793 164.407V157.127C459.793 155.189 458.213 153.609 456.275 153.609H447.964L447.862 153.048C447.263 149.58 446.307 146.189 445.007 142.951L444.79 142.402L452.132 138.157C452.948 137.685 453.522 136.933 453.777 136.028C454.019 135.123 453.891 134.18 453.42 133.364L449.787 127.066C449.315 126.25 448.563 125.676 447.658 125.421C446.753 125.179 445.797 125.307 444.994 125.778L437.473 130.126L437.104 129.679C434.924 127.053 432.438 124.631 429.723 122.464L429.264 122.094L433.675 114.457C434.147 113.641 434.274 112.698 434.032 111.793C433.79 110.888 433.203 110.123 432.387 109.664L426.09 106.018C424.408 105.049 422.254 105.623 421.285 107.305L416.823 115.031L416.275 114.827C413.076 113.616 409.749 112.749 406.397 112.226L405.823 112.137V103.162C405.823 101.224 404.242 99.6435 402.305 99.6435H395.026C393.089 99.6435 391.508 101.224 391.508 103.162V112.137L390.935 112.226C387.582 112.749 384.255 113.629 381.056 114.827L380.508 115.031L376.046 107.305C375.575 106.489 374.822 105.916 373.917 105.661C373.012 105.419 372.069 105.546 371.253 106.018L364.956 109.664C364.141 110.136 363.567 110.888 363.312 111.793C363.07 112.698 363.197 113.641 363.656 114.457L368.067 122.094L367.608 122.464C364.893 124.631 362.407 127.053 360.227 129.679L359.858 130.126L352.337 125.778C350.654 124.809 348.5 125.383 347.531 127.066L343.899 133.364C342.93 135.046 343.503 137.201 345.186 138.17L352.528 142.415L352.311 142.963C351.011 146.202 350.042 149.605 349.456 153.06L349.354 153.621H341.043C339.106 153.621 337.525 155.202 337.525 157.14V164.419C337.525 166.357 339.106 167.938 341.043 167.938H349.125L349.201 168.524C349.698 172.094 350.578 175.587 351.802 178.915L352.006 179.45L345.186 183.389C343.503 184.358 342.93 186.513 343.899 188.196L347.531 194.493C348.5 196.176 350.654 196.75 352.337 195.781L359.004 191.931L359.373 192.39C361.642 195.271 364.204 197.897 366.983 200.179L367.429 200.549L363.656 207.089C362.687 208.772 363.261 210.926 364.944 211.895L371.241 215.529C372.056 216 373 216.128 373.905 215.886C374.81 215.643 375.575 215.057 376.033 214.254L379.756 207.816V207.765ZM398.646 189.815C383.044 189.815 370.348 177.117 370.348 161.513C370.348 145.908 383.044 133.211 398.646 133.211C414.249 133.211 426.932 145.908 426.932 161.513C426.932 177.117 414.236 189.815 398.646 189.815ZM398.646 134.588C383.796 134.588 371.712 146.673 371.712 161.525C371.712 176.378 383.796 188.463 398.646 188.463C413.497 188.463 425.581 176.378 425.581 161.525C425.581 146.673 413.497 134.588 398.646 134.588Z" fill="white"/>
<path d="M319.552 23.3938C315.473 23.3938 312.159 20.0791 312.159 15.9996C312.159 11.92 315.473 8.60535 319.552 8.60535C323.631 8.60535 326.945 11.92 326.945 15.9996C326.945 20.0791 323.631 23.3938 319.552 23.3938ZM319.552 9.9822C316.238 9.9822 313.523 12.6849 313.523 16.0123C313.523 19.3397 316.225 22.0424 319.552 22.0424C322.879 22.0424 325.581 19.3397 325.581 16.0123C325.581 12.6849 322.879 9.9822 319.552 9.9822Z" fill="white"/>
<path d="M367.174 107.803H365.811V76.8234C365.811 70.551 360.712 65.4516 354.44 65.4516H331.598C324.574 65.4516 318.864 59.7402 318.864 52.7157V22.7054H320.228V52.7157C320.228 58.988 325.326 64.0875 331.598 64.0875H354.44C361.464 64.0875 367.174 69.7989 367.174 76.8234V107.803Z" fill="white"/>
<path d="M102.88 24.9746C98.801 24.9746 95.4868 21.6599 95.4868 17.5804C95.4868 13.5008 98.801 10.1862 102.88 10.1862C106.959 10.1862 110.273 13.5008 110.273 17.5804C110.273 21.6599 106.959 24.9746 102.88 24.9746ZM102.88 11.563C99.5531 11.563 96.8507 14.2657 96.8507 17.5931C96.8507 20.9205 99.5531 23.6232 102.88 23.6232C106.207 23.6232 108.909 20.9205 108.909 17.5931C108.909 14.2657 106.207 11.563 102.88 11.563Z" fill="white"/>
<path d="M153.664 47.9222C149.585 47.9222 146.271 44.6075 146.271 40.528C146.271 36.4484 149.585 33.1338 153.664 33.1338C157.743 33.1338 161.057 36.4484 161.057 40.528C161.057 44.6075 157.743 47.9222 153.664 47.9222ZM153.664 34.5106C150.337 34.5106 147.634 37.2133 147.634 40.5407C147.634 43.8681 150.337 46.5708 153.664 46.5708C156.991 46.5708 159.693 43.8681 159.693 40.5407C159.693 37.2133 156.991 34.5106 153.664 34.5106Z" fill="white"/>
<path d="M267.609 14.7757C263.53 14.7757 260.215 11.461 260.215 7.38146C260.215 3.30189 263.53 -0.0127563 267.609 -0.0127563C271.688 -0.0127563 275.002 3.30189 275.002 7.38146C275.002 11.461 271.688 14.7757 267.609 14.7757ZM267.609 1.3641C264.282 1.3641 261.579 4.06681 261.579 7.39421C261.579 10.7216 264.282 13.4243 267.609 13.4243C270.935 13.4243 273.638 10.7216 273.638 7.39421C273.638 4.06681 270.935 1.3641 267.609 1.3641Z" fill="white"/>
<path d="M301.706 104.871C298.698 104.871 296.25 102.423 296.25 99.4145C296.25 96.4058 298.698 93.9581 301.706 93.9581C304.714 93.9581 307.162 96.4058 307.162 99.4145C307.162 102.423 304.714 104.871 301.706 104.871ZM301.706 94.9525C299.259 94.9525 297.257 96.954 297.257 99.4017C297.257 101.849 299.259 103.851 301.706 103.851C304.154 103.851 306.155 101.849 306.155 99.4017C306.155 96.954 304.154 94.9525 301.706 94.9525Z" fill="white"/>
<path d="M7.3932 88.3996C3.31419 88.3996 0 85.085 0 81.0054C0 76.9259 3.31419 73.6112 7.3932 73.6112C11.4722 73.6112 14.7864 76.9259 14.7864 81.0054C14.7864 85.085 11.4722 88.3996 7.3932 88.3996ZM7.3932 74.9881C4.06626 74.9881 1.36392 77.6908 1.36392 81.0182C1.36392 84.3456 4.06626 87.0483 7.3932 87.0483C10.7201 87.0483 13.4225 84.3456 13.4225 81.0182C13.4225 77.6908 10.7201 74.9881 7.3932 74.9881Z" fill="white"/>
<path d="M502.113 98.2289C498.034 98.2289 494.72 94.9142 494.72 90.8347C494.72 86.7551 498.034 83.4404 502.113 83.4404C506.192 83.4404 509.506 86.7551 509.506 90.8347C509.506 94.9142 506.192 98.2289 502.113 98.2289ZM502.113 84.8173C498.786 84.8173 496.084 87.52 496.084 90.8474C496.084 94.1748 498.786 96.8775 502.113 96.8775C505.44 96.8775 508.142 94.1748 508.142 90.8474C508.142 87.52 505.44 84.8173 502.113 84.8173Z" fill="white"/>
<path d="M480.277 157.816C476.198 157.816 472.884 154.501 472.884 150.422C472.884 146.342 476.198 143.028 480.277 143.028C484.356 143.028 487.671 146.342 487.671 150.422C487.671 154.501 484.356 157.816 480.277 157.816ZM480.277 144.404C476.951 144.404 474.248 147.107 474.248 150.435C474.248 153.762 476.951 156.465 480.277 156.465C483.604 156.465 486.307 153.762 486.307 150.435C486.307 147.107 483.604 144.404 480.277 144.404Z" fill="white"/>
<path d="M22.1667 149.262C19.6811 149.262 17.6543 147.235 17.6543 144.749C17.6543 142.263 19.6811 140.236 22.1667 140.236C24.6523 140.236 26.6791 142.263 26.6791 144.749C26.6791 147.235 24.6523 149.262 22.1667 149.262ZM22.1667 141.077C20.1399 141.077 18.4956 142.722 18.4956 144.749C18.4956 146.776 20.1399 148.42 22.1667 148.42C24.1935 148.42 25.8378 146.776 25.8378 144.749C25.8378 142.722 24.1935 141.077 22.1667 141.077Z" fill="white"/>
<path d="M56.6217 109.383H55.2578V78.4042C55.2578 71.3797 60.9684 65.6683 67.992 65.6683H90.8344C97.1059 65.6683 102.205 60.5689 102.205 54.2965V24.2862H103.569V54.2965C103.569 61.321 97.8579 67.0324 90.8344 67.0324H67.992C61.7205 67.0324 56.6217 72.1319 56.6217 78.4042V109.383Z" fill="white"/>
<path d="M234.263 54.2583C230.184 54.2583 226.87 50.9436 226.87 46.864C226.87 42.7845 230.184 39.4698 234.263 39.4698C238.342 39.4698 241.656 42.7845 241.656 46.864C241.656 50.9436 238.342 54.2583 234.263 54.2583ZM234.263 40.8467C230.936 40.8467 228.234 43.5494 228.234 46.8768C228.234 50.2042 230.936 52.9069 234.263 52.9069C237.59 52.9069 240.292 50.2042 240.292 46.8768C240.292 43.5494 237.59 40.8467 234.263 40.8467Z" fill="white"/>
<path d="M222.217 96.3161H204.703V94.952H222.217C228.488 94.952 233.587 89.8525 233.587 83.5802V53.5698H234.951V83.5802C234.951 90.6047 229.24 96.3161 222.217 96.3161Z" fill="white"/>
<path d="M420.75 178.902H77.0295C72.1368 178.902 68.1704 182.869 68.1704 187.762V400.461C68.1704 405.354 72.1368 409.321 77.0295 409.321H420.75C425.642 409.321 429.609 405.354 429.609 400.461V187.762C429.609 182.869 425.642 178.902 420.75 178.902Z" fill="#181C8B"/>
<path d="M425.517 195.96H72.2622V388.847H425.517V195.96Z" fill="#D7F7FF"/>
<path d="M252.491 195.96H72.2622V388.847H252.491V195.96Z" fill="#FFF6F6"/>
<path d="M206.449 231.401H92.5552V234.129H206.449V231.401Z" fill="#D6E7EA"/>
<path d="M231.063 241.281H92.5552V244.29H231.063V241.281Z" fill="#D6E7EA"/>
<path d="M183.708 251.314H92.5552V254.323H183.708V251.314Z" fill="#D6E7EA"/>
<path d="M231.05 251.314H195.295V254.323H231.05V251.314Z" fill="#D6E7EA"/>
<path d="M231.063 261.335H92.5552V264.343H231.063V261.335Z" fill="#D6E7EA"/>
<path d="M231.063 271.355H92.5552V274.364H231.063V271.355Z" fill="#D6E7EA"/>
<path d="M231.063 281.388H126.883V284.397H231.063V281.388Z" fill="#D6E7EA"/>
<path d="M116.43 281.388H92.5552V284.397H116.43V281.388Z" fill="#D6E7EA"/>
<path d="M206.449 302.283H92.5552V305.012H206.449V302.283Z" fill="#D6E7EA"/>
<path d="M231.063 312.176H92.5552V315.185H231.063V312.176Z" fill="#D6E7EA"/>
<path d="M231.063 322.197H194.849V325.205H231.063V322.197Z" fill="#D6E7EA"/>
<path d="M114.148 322.197H92.5552V325.205H114.148V322.197Z" fill="#D6E7EA"/>
<path d="M182.344 322.197H126.424V325.205H182.344V322.197Z" fill="#D6E7EA"/>
<path d="M231.063 332.217H92.5552V335.226H231.063V332.217Z" fill="#D6E7EA"/>
<path d="M207.354 342.25H92.5552V345.259H207.354V342.25Z" fill="#D6E7EA"/>
<path d="M231.05 342.25H217.577V345.259H231.05V342.25Z" fill="#D6E7EA"/>
<path d="M231.063 352.271H92.5552V355.279H231.063V352.271Z" fill="#D6E7EA"/>
<path d="M380.571 302.283H266.678V305.012H380.571V302.283Z" fill="#D6E7EA"/>
<path d="M405.173 312.176H313.956V315.185H405.173V312.176Z" fill="#D6E7EA"/>
<path d="M301.451 312.176H266.678V315.185H301.451V312.176Z" fill="#D6E7EA"/>
<path d="M405.186 322.197H266.678V325.205H405.186V322.197Z" fill="#D6E7EA"/>
<path d="M329.418 332.217H266.678V335.226H329.418V332.217Z" fill="#D6E7EA"/>
<path d="M405.173 332.217H341.464V335.226H405.173V332.217Z" fill="#D6E7EA"/>
<path d="M405.186 342.25H266.678V345.259H405.186V342.25Z" fill="#D6E7EA"/>
<path d="M405.173 352.271H308.5V355.279H405.173V352.271Z" fill="#D6E7EA"/>
<path d="M296.913 352.271H266.678V355.279H296.913V352.271Z" fill="#D6E7EA"/>
<path d="M19.7578 407.804H478.034V416.906C478.034 429.566 467.76 439.829 455.115 439.829H42.6767C30.0191 439.829 19.7578 429.553 19.7578 416.906V407.804Z" fill="#181C8B"/>
<path d="M477.971 418.079C477.996 417.684 478.034 417.302 478.034 416.906V407.804H19.7578V416.906C19.7578 417.302 19.7961 417.684 19.8215 418.079H477.983H477.971Z" fill="#2A33A0"/>
<path d="M46.0037 426.238C46.0037 428.597 44.0917 430.497 41.7462 430.497C39.4008 430.497 37.4888 428.584 37.4888 426.238C37.4888 423.893 39.4008 421.98 41.7462 421.98C44.0917 421.98 46.0037 423.893 46.0037 426.238Z" fill="#010205"/>
<path d="M61.1853 426.238C61.1853 428.597 59.2733 430.497 56.9279 430.497C54.5824 430.497 52.6704 428.584 52.6704 426.238C52.6704 423.893 54.5824 421.98 56.9279 421.98C59.2733 421.98 61.1853 423.893 61.1853 426.238Z" fill="#010205"/>
<path d="M455.574 422.631H433.751V428.992H455.574V422.631Z" fill="#010205"/>
<path d="M135.614 451.608C134.607 451.608 133.804 450.792 133.804 449.798V166.689C133.804 165.682 134.62 164.878 135.614 164.878C136.609 164.878 137.424 165.694 137.424 166.689V449.798C137.424 450.805 136.609 451.608 135.614 451.608Z" fill="#FF6D5A"/>
<path d="M177.067 451.608C176.06 451.608 175.257 450.792 175.257 449.798V166.689C175.257 165.682 176.073 164.878 177.067 164.878C178.062 164.878 178.877 165.694 178.877 166.689V449.798C178.877 450.805 178.062 451.608 177.067 451.608Z" fill="#FF6D5A"/>
<path d="M177.067 189.521H135.614C134.607 189.521 133.804 188.706 133.804 187.711C133.804 186.717 134.62 185.901 135.614 185.901H177.067C178.074 185.901 178.877 186.717 178.877 187.711C178.877 188.706 178.061 189.521 177.067 189.521Z" fill="#FF6D5A"/>
<path d="M177.067 216.434H135.614C134.607 216.434 133.804 215.618 133.804 214.624C133.804 213.629 134.62 212.813 135.614 212.813H177.067C178.074 212.813 178.877 213.629 178.877 214.624C178.877 215.618 178.061 216.434 177.067 216.434Z" fill="#FF6D5A"/>
<path d="M177.067 243.359H135.614C134.607 243.359 133.804 242.543 133.804 241.549C133.804 240.554 134.62 239.738 135.614 239.738H177.067C178.074 239.738 178.877 240.554 178.877 241.549C178.877 242.543 178.061 243.359 177.067 243.359Z" fill="#FF6D5A"/>
<path d="M177.067 270.284H135.614C134.607 270.284 133.804 269.468 133.804 268.474C133.804 267.48 134.62 266.664 135.614 266.664H177.067C178.074 266.664 178.877 267.48 178.877 268.474C178.877 269.468 178.061 270.284 177.067 270.284Z" fill="#FF6D5A"/>
<path d="M177.067 297.197H135.614C134.607 297.197 133.804 296.381 133.804 295.386C133.804 294.392 134.62 293.576 135.614 293.576H177.067C178.074 293.576 178.877 294.392 178.877 295.386C178.877 296.381 178.061 297.197 177.067 297.197Z" fill="#FF6D5A"/>
<path d="M177.067 324.122H135.614C134.607 324.122 133.804 323.306 133.804 322.311C133.804 321.317 134.62 320.501 135.614 320.501H177.067C178.074 320.501 178.877 321.317 178.877 322.311C178.877 323.306 178.061 324.122 177.067 324.122Z" fill="#FF6D5A"/>
<path d="M177.067 351.034H135.614C134.607 351.034 133.804 350.218 133.804 349.224C133.804 348.229 134.62 347.414 135.614 347.414H177.067C178.074 347.414 178.877 348.229 178.877 349.224C178.877 350.218 178.061 351.034 177.067 351.034Z" fill="#FF6D5A"/>
<path d="M177.067 377.959H135.614C134.607 377.959 133.804 377.143 133.804 376.149C133.804 375.155 134.62 374.339 135.614 374.339H177.067C178.074 374.339 178.877 375.155 178.877 376.149C178.877 377.143 178.061 377.959 177.067 377.959Z" fill="#FF6D5A"/>
<path d="M177.067 404.872H135.614C134.607 404.872 133.804 404.056 133.804 403.061C133.804 402.067 134.62 401.251 135.614 401.251H177.067C178.074 401.251 178.877 402.067 178.877 403.061C178.877 404.056 178.061 404.872 177.067 404.872Z" fill="#FF6D5A"/>
<path d="M177.067 431.797H135.614C134.607 431.797 133.804 430.981 133.804 429.987C133.804 428.992 134.62 428.176 135.614 428.176H177.067C178.074 428.176 178.877 428.992 178.877 429.987C178.877 430.981 178.061 431.797 177.067 431.797Z" fill="#FF6D5A"/>
<path d="M265.493 224.045L264.639 228.94C264.639 228.94 258.635 225.893 258.393 225.014C259.043 223.662 259.361 222.553 259.361 222.553L265.493 224.045Z" fill="#FFAC83"/>
<path d="M258.571 232.727C258.571 232.727 269.125 240.835 271.471 242.581C273.816 244.315 277.806 239.177 273.816 235.774C269.826 232.357 267.009 228.048 267.124 226.046C266.372 223.917 264.014 226.276 263.313 226.633C262.612 226.99 259.45 225.638 259.157 222.999C256.582 224.874 254.938 228.928 254.938 228.928C254.938 228.928 254.938 229.947 258.571 232.739V232.727Z" fill="#FF6D5A"/>
<path d="M273.383 241.536C271.037 239.802 259.234 230.763 259.234 230.763C257.271 229.157 256.162 227.729 255.767 227.194C255.231 228.175 254.938 228.902 254.938 228.902C254.938 228.902 254.938 229.922 258.571 232.714C258.571 232.714 269.125 240.822 271.471 242.569C272.439 243.295 273.689 242.824 274.543 241.791C274.16 241.88 273.765 241.829 273.383 241.536Z" fill="#DDDDDD"/>
<path d="M239.119 224.045L239.973 228.94C239.973 228.94 245.977 225.893 246.219 225.014C245.569 223.662 245.25 222.553 245.25 222.553L239.119 224.045Z" fill="#FFAC83"/>
<path d="M246.028 232.727C246.028 232.727 235.474 240.835 233.128 242.581C230.783 244.328 226.793 239.177 230.783 235.774C234.773 232.357 237.59 228.048 237.475 226.046C238.227 223.917 240.585 226.276 241.286 226.633C241.987 226.99 245.149 225.638 245.442 222.999C248.017 224.874 249.661 228.928 249.661 228.928C249.661 228.928 249.661 229.947 246.028 232.739V232.727Z" fill="#FF6D5A"/>
<path d="M231.216 241.536C233.562 239.802 245.365 230.763 245.365 230.763C247.328 229.157 248.437 227.729 248.832 227.194C249.368 228.175 249.661 228.902 249.661 228.902C249.661 228.902 249.661 229.922 246.028 232.714C246.028 232.714 235.474 240.822 233.128 242.569C232.159 243.295 230.91 242.824 230.056 241.791C230.426 241.88 230.821 241.829 231.216 241.536Z" fill="#DDDDDD"/>
<path d="M278.15 176.9C275.907 171.584 265.722 171.673 265.722 171.673L252.453 172.298C252.453 172.298 252.414 172.528 252.351 172.897C252.287 172.528 252.249 172.298 252.249 172.298L238.979 171.673C238.979 171.673 228.246 171.431 226.003 176.747C223.759 182.064 237.602 223.433 238.979 224.682C243.963 223.739 245.684 223.114 245.684 223.114C245.684 223.114 240.368 192.288 237.704 184.932C240.368 180.865 250.999 181.388 252.249 180.98C252.287 180.967 252.325 180.929 252.351 180.903C252.389 180.929 252.414 180.967 252.453 180.98C253.702 181.388 264.588 180.483 267.239 184.55C264.575 191.893 259.017 223.101 259.017 223.101C259.017 223.101 260.738 223.726 265.722 224.67C267.111 223.42 280.406 182.217 278.15 176.9Z" fill="#12196B"/>
<path d="M234.135 137.481C234.135 137.481 227.328 151.747 232.108 163.004C236.876 174.261 241.732 175.052 241.732 175.052L243.325 165.235C243.325 165.235 232.376 159.345 240.496 143.371C239.348 137.214 234.135 137.481 234.135 137.481Z" fill="#FFAC83"/>
<path d="M270.336 137.481C270.336 137.481 277.143 151.747 272.363 163.004C267.595 174.261 262.739 175.052 262.739 175.052L261.146 165.235C261.146 165.235 272.095 159.345 263.975 143.371C265.123 137.214 270.336 137.481 270.336 137.481Z" fill="#FFAC83"/>
<path d="M230.553 141.561C230.553 141.561 236.85 143.027 239.489 146.801C242.37 134.855 248.067 125.536 248.067 125.536C248.067 125.536 237.768 125.638 234.913 133.287C233.103 138.132 230.553 141.548 230.553 141.548V141.561Z" fill="#FF6D5A"/>
<path d="M273.37 141.561C273.37 141.561 267.073 143.027 264.435 146.801C261.554 134.855 255.856 125.536 255.856 125.536C255.856 125.536 264.384 124.605 268.386 131.719C271.688 137.596 273.383 141.548 273.383 141.548L273.37 141.561Z" fill="#FF6D5A"/>
<path d="M251.917 125.039C251.917 125.039 241.452 123.7 239.527 130.61C237.602 137.52 241.26 160.735 241.26 160.735H262.191C262.191 160.735 266.996 140.21 264.97 130.406C263.912 125.039 255.562 125.077 251.917 125.039Z" fill="#FF6D5A"/>
<path d="M248.692 119.2C248.692 119.2 249.278 122.706 248.475 125.498C247.978 127.091 247.443 130.266 252.197 130.291C256.009 130.317 256.71 128.838 256.786 126.926C256.786 126.747 256.353 125.472 256.187 124.848C255.563 122.476 255.907 120.309 255.83 119.098C253.816 118.983 248.667 119.187 248.667 119.187L248.692 119.2Z" fill="#FFBAAC"/>
<path d="M259.336 113.412C259.336 118.129 256.225 121.954 252.376 121.954C248.526 121.954 245.416 118.129 245.416 113.412C245.416 108.695 248.526 104.87 252.376 104.87C256.225 104.87 259.336 108.695 259.336 113.412Z" fill="#FFBAAC"/>
<path d="M258.902 113.017C258.902 113.017 259.616 111.704 260.648 112.456C261.681 113.208 260.228 116.229 259.578 116.268C258.927 116.306 258.583 115.261 258.622 115.006C258.66 114.751 258.902 113.004 258.902 113.004V113.017Z" fill="#FFBAAC"/>
<path d="M245.951 113.017C245.951 113.017 245.237 111.704 244.205 112.456C243.172 113.208 244.626 116.229 245.276 116.268C245.926 116.319 246.27 115.261 246.232 115.006C246.193 114.751 245.951 113.004 245.951 113.004V113.017Z" fill="#FFBAAC"/>
<path d="M255.741 113.387C255.741 113.705 255.537 113.947 255.295 113.947C255.053 113.947 254.849 113.693 254.849 113.387C254.849 113.081 255.053 112.826 255.295 112.826C255.537 112.826 255.741 113.081 255.741 113.387Z" fill="#12196B"/>
<path d="M255.423 113.616C255.423 113.718 255.359 113.794 255.27 113.794C255.18 113.794 255.117 113.718 255.117 113.616C255.117 113.514 255.18 113.438 255.27 113.438C255.359 113.438 255.423 113.514 255.423 113.616Z" fill="white"/>
<path d="M256.901 112.711C256.901 112.711 256.187 111.64 255.168 111.449C254.148 111.258 254.122 112.073 254.492 112.163C254.862 112.252 256.073 112.303 256.889 112.711H256.901Z" fill="#12196B"/>
<path d="M249.317 113.387C249.317 113.705 249.521 113.947 249.763 113.947C250.005 113.947 250.209 113.693 250.209 113.387C250.209 113.081 250.005 112.826 249.763 112.826C249.521 112.826 249.317 113.081 249.317 113.387Z" fill="#12196B"/>
<path d="M249.648 113.616C249.648 113.718 249.712 113.794 249.801 113.794C249.891 113.794 249.954 113.718 249.954 113.616C249.954 113.514 249.891 113.438 249.801 113.438C249.712 113.438 249.648 113.514 249.648 113.616Z" fill="white"/>
<path d="M248.157 112.711C248.157 112.711 248.871 111.64 249.89 111.449C250.91 111.258 250.936 112.073 250.566 112.163C250.196 112.252 248.985 112.303 248.169 112.711H248.157Z" fill="#12196B"/>
<path d="M259.565 107.14C258.851 105.623 258.303 105.61 258.303 105.61C258.303 105.61 258.303 101.326 253.204 102.04C249.47 102.996 249.38 104.501 245.684 105.495C244.753 105.801 244.078 105.737 244.078 105.737C244.078 105.737 244.588 106.617 245.875 107.254C244.893 107.535 243.823 106.515 243.823 106.515C243.823 106.515 243.759 107.892 245.085 108.848C244.881 109.753 244.83 110.582 245.008 112.252C245.008 112.252 245.684 113.399 245.837 114.559C246.002 115.72 245.722 116.714 245.951 118.065C246.181 119.417 247.889 122.323 248.73 123.114C250.4 124.669 252.72 124.758 254.989 124.121C257.258 123.483 258.341 119.582 258.788 118.588C259.221 117.594 258.902 115.095 259.106 114.253C259.31 113.412 259.463 112.953 259.782 112.226C259.782 112.226 260.534 110.187 259.527 107.14H259.565ZM258.418 112.316C258.38 112.749 258.329 113.183 258.341 113.616C258.367 114.381 258.367 115.35 258.303 115.669C258.099 116.727 257.131 118.932 255.257 117.976C253.383 117.02 250.069 117.313 248.437 117.874C246.806 118.435 247.009 115.936 246.691 115.006C246.372 114.075 246.614 113.603 246.691 113.004C246.767 112.443 247.723 111.678 247.723 110.046C249.521 110.454 254.084 111.13 256.404 108.236C256.404 108.236 256.519 110.416 258.278 111.589C258.316 111.64 258.354 111.691 258.392 111.742C258.418 111.92 258.431 112.112 258.418 112.316Z" fill="#12196B"/>
<path d="M249.775 118.613C249.775 118.613 253.893 118.945 255.167 118.613C253.74 120.551 251.445 121.507 249.775 118.613Z" fill="white"/>
<path d="M287.71 129.386H217.271C212.913 129.386 209.38 132.919 209.38 137.278V167.148C209.38 171.506 212.913 175.039 217.271 175.039H287.71C292.068 175.039 295.6 171.506 295.6 167.148V137.278C295.6 132.919 292.068 129.386 287.71 129.386Z" fill="#948DD5"/>
<path d="M229.78 152.805C229.109 152.805 228.488 152.674 227.916 152.414C227.355 152.153 226.894 151.778 226.534 151.287L227.646 149.949C227.936 150.35 228.252 150.65 228.593 150.851C228.943 151.051 229.324 151.151 229.735 151.151C230.827 151.151 231.373 150.505 231.373 149.212V143.772H227.631V142.133H233.327V149.107C233.327 150.35 233.022 151.277 232.41 151.888C231.809 152.499 230.932 152.805 229.78 152.805ZM234.36 152.654L239.094 142.133H241.018L245.767 152.654H243.723L239.65 143.17H240.432L236.374 152.654H234.36ZM236.539 150.219L237.065 148.686H242.746L243.272 150.219H236.539ZM249.659 152.654L245.06 142.133H247.179L251.282 151.647H250.065L254.213 142.133H256.167L251.583 152.654H249.659ZM255.452 152.654L260.186 142.133H262.11L266.859 152.654H264.815L260.742 143.17H261.524L257.466 152.654H255.452ZM257.631 150.219L258.157 148.686H263.838L264.364 150.219H257.631Z" fill="white"/>
<path d="M400.599 62.8231C398.81 62.8231 397.143 62.5324 395.6 61.9508C394.079 61.3469 392.748 60.5082 391.608 59.4346C390.489 58.3386 389.617 57.0525 388.991 55.5763C388.365 54.1001 388.051 52.4897 388.051 50.7451C388.051 49.0005 388.365 47.3901 388.991 45.9139C389.617 44.4377 390.501 43.1628 391.641 42.0892C392.782 40.9933 394.113 40.1545 395.634 39.573C397.155 38.9691 398.821 38.6671 400.633 38.6671C402.556 38.6671 404.312 39.0026 405.9 39.6736C407.488 40.3223 408.83 41.2952 409.926 42.5925L407.108 45.2429C406.258 44.3259 405.307 43.6437 404.256 43.1964C403.205 42.7267 402.064 42.4918 400.834 42.4918C399.604 42.4918 398.474 42.6931 397.445 43.0957C396.439 43.4983 395.555 44.0687 394.795 44.8068C394.057 45.5449 393.475 46.4172 393.05 47.4237C392.648 48.4302 392.446 49.5373 392.446 50.7451C392.446 51.9529 392.648 53.0601 393.05 54.0666C393.475 55.0731 394.057 55.9454 394.795 56.6835C395.555 57.4216 396.439 57.9919 397.445 58.3945C398.474 58.7971 399.604 58.9984 400.834 58.9984C402.064 58.9984 403.205 58.7748 404.256 58.3274C405.307 57.8577 406.258 57.1532 407.108 56.2138L409.926 58.8978C408.83 60.1727 407.488 61.1456 405.9 61.8166C404.312 62.4876 402.545 62.8231 400.599 62.8231ZM419.038 58.2939V43.1964H422.628V58.2939H419.038ZM413.099 52.4226V49.0676H428.566V52.4226H413.099ZM438.86 58.2939V43.1964H442.45V58.2939H438.86ZM432.921 52.4226V49.0676H448.388V52.4226H432.921Z" fill="white"/>
<path d="M295.601 149.516C295.601 149.516 298.915 152.831 298.838 156.26C298.762 159.69 294.696 161.78 293.293 160.735C291.891 159.677 291.305 156.821 293.446 155.266C295.027 154.131 295.384 153.8 295.384 153.8L295.613 149.516H295.601Z" fill="#FFBAAC"/>
<path d="M209.381 149.516C209.381 149.516 206.066 152.831 206.143 156.26C206.219 159.69 210.286 161.78 211.688 160.735C213.09 159.677 213.676 156.821 211.535 155.266C209.954 154.131 209.597 153.8 209.597 153.8L209.368 149.516H209.381Z" fill="#FFBAAC"/>
<path d="M402.483 211.755H325.709C320.957 211.755 317.104 215.608 317.104 220.36V252.921C317.104 257.673 320.957 261.526 325.709 261.526H402.483C407.235 261.526 411.087 257.673 411.087 252.921V220.36C411.087 215.608 407.235 211.755 402.483 211.755Z" fill="#FF6D5A"/>
<path d="M341.769 223.878H344.272V237.353H341.769V223.878ZM334.801 237.353H332.298V223.878H334.801V237.353ZM341.962 231.578H334.589V229.442H341.962V231.578ZM350.616 237.353V225.996H346.15V223.878H357.584V225.996H353.118V237.353H350.616ZM359.463 237.353V223.878H361.522L367.413 233.715H366.335L372.129 223.878H374.189L374.208 237.353H371.84L371.821 227.594H372.322L367.394 235.813H366.277L361.272 227.594H361.85V237.353H359.463ZM377.848 237.353V223.878H380.35V235.236H387.396V237.353H377.848Z" fill="white"/>
<path d="M269.903 269.749C269.903 269.749 270.961 267.926 270.961 264.509C275.511 264.127 279.004 264.05 279.004 264.05C279.004 264.05 278.469 268.002 281.056 270.118C275.97 272.477 269.903 269.736 269.903 269.736V269.749Z" fill="#FFAC83"/>
<path d="M277.717 246.827C277.717 246.827 279.769 247.732 280.597 250.32C281.426 252.895 280.98 253.736 281.056 254.119C281.133 254.501 282.573 257.612 282.573 257.612L281.515 258.3C281.515 258.3 281.133 261.182 281.056 262.023C280.98 262.852 279.998 261.118 279.004 264.076C275.97 266.651 270.961 264.535 270.961 264.535C270.961 264.535 268.755 259.065 268.08 254.208C267.392 249.351 272.478 243.652 277.717 246.852V246.827Z" fill="#FFAC83"/>
<path d="M268.717 247.069C268.717 247.069 270.77 242.913 277.372 244.111C283.975 245.31 286.142 244.162 286.308 245.896C286.474 247.643 283.007 248.433 283.007 248.433C283.81 250.027 280.789 252.589 279.82 252.525C279.425 253.609 279.195 253.724 279.081 254.744C278.966 255.764 279.361 257.077 279.361 257.077H278.392C278.392 257.077 277.704 254.399 276.455 255.203C275.205 256.006 276.111 258.339 276.174 259.588C276.225 260.837 275.358 263.272 273.153 264.05C270.948 264.828 268.373 264.203 266.895 261.131C265.416 258.058 263.083 249.121 268.717 247.069Z" fill="#352C23"/>
<path d="M281.63 398.332L281.962 402.845H285.875V397.783L281.63 398.332Z" fill="#F2C897"/>
<path d="M281.197 400.308C281.197 400.308 281.108 406.542 281.197 407.702C284.983 407.766 290.719 407.88 290.897 407.702C291.076 407.523 291.42 402.908 288.208 403.495C286.5 403.533 286.423 400.308 286.423 400.308H281.197Z" fill="#FF6D5A"/>
<path d="M281.159 405.828C281.159 406.682 281.171 407.383 281.197 407.702C284.983 407.766 290.719 407.88 290.897 407.702C290.974 407.625 291.076 406.759 290.936 405.828H281.159Z" fill="#F2F2F2"/>
<path d="M269.317 398.332L268.986 402.845H265.085V397.783L269.317 398.332Z" fill="#F2C897"/>
<path d="M269.763 400.308C269.763 400.308 269.852 406.542 269.763 407.702C265.977 407.766 260.241 407.88 260.063 407.702C259.884 407.523 259.54 402.908 262.752 403.495C264.46 403.533 264.537 400.308 264.537 400.308H269.763Z" fill="#FF6D5A"/>
<path d="M260.025 405.892C259.897 406.797 259.986 407.638 260.063 407.715C260.241 407.893 265.977 407.778 269.763 407.715C269.789 407.409 269.801 406.72 269.801 405.892H260.025Z" fill="#F2F2F2"/>
<path d="M288.909 352.73C288.73 334.971 287.124 313.999 287.124 313.999H275.601L264.129 315.274C264.129 315.274 262.472 334.971 262.293 352.73C262.115 370.489 263.848 399.058 263.848 399.058H270.349C270.349 399.058 273.281 372.12 272.733 360.137C272.185 348.153 275.614 331.937 275.614 331.937C275.614 331.937 279.043 348.153 278.494 360.137C277.946 372.12 280.878 399.058 280.878 399.058H287.379C287.379 399.058 289.113 370.476 288.934 352.73H288.909Z" fill="#12196B"/>
<path d="M249.827 303.635C249.827 303.635 260.98 290.006 273.255 284.155C275.601 284.856 276.48 287.979 276.187 288.349C275.894 288.719 261.12 303.686 261.12 303.686C261.12 303.686 253.74 309.091 249.827 303.635Z" fill="#F45145"/>
<path d="M269.789 269.328C269.789 269.328 276.838 269.965 280.215 269.328C284.881 270.705 291.713 270.463 291.713 270.463C291.713 270.463 290.783 283.339 290.872 284.716C289.317 288.744 288.361 306.133 289.087 310.162C289.814 314.191 286.525 316.205 283.785 316.932C281.044 317.658 264.753 317.301 263.657 316.932C262.561 316.562 260.725 310.162 261.095 301.735C261.465 293.321 260.152 286.857 260.152 286.857C260.152 286.857 260.827 274.632 260.547 272.706C266.5 270.514 269.789 269.315 269.789 269.315V269.328Z" fill="#FF6D5A"/>
<path d="M260.547 272.719C260.547 272.719 250.897 295.845 249.712 300.256C248.118 306.172 255.104 307.09 256.621 304.744C258.137 302.385 260.942 293.066 260.942 293.066C260.942 293.066 264.485 275.843 260.559 272.719H260.547Z" fill="#FF6D5A"/>
<path d="M335.932 267.416C335.932 267.416 337.296 266.396 338.035 264.853C338.774 263.311 339.246 261.5 339.246 261.5C339.246 261.5 341.808 261.526 343.261 261.526C344.88 261.526 348.564 257.459 350.272 258.096C351.98 258.721 350.387 262.648 347.2 265.554C344.013 268.461 339.577 271.024 339.577 271.024L335.932 267.441V267.416Z" fill="#FFAC83"/>
<path d="M291.713 270.463C291.713 270.463 311.152 281.006 314.861 279.336C318.583 277.666 335.065 267.135 335.065 267.135C335.065 267.135 338.825 267.48 340.979 271.317C328.577 291.319 323.567 291.205 318.558 293.589C313.548 295.985 295.932 287.967 290.132 285.302C286.754 277.946 291.7 270.463 291.7 270.463H291.713Z" fill="#FF6D5A"/>
<path d="M129.229 144.761C129.229 144.761 126.297 130.495 129.586 126.709C132.874 122.923 136.609 129.463 137.693 132.14C138.776 134.804 140.612 142.747 140.612 142.747L129.229 144.761Z" fill="#B6D15A"/>
<path d="M164.129 217.212C164.129 217.212 163.696 220.934 164.231 222.553C164.767 224.172 177.297 228.456 179.54 228.724C181.784 228.991 182.217 226.276 179.808 224.529C177.399 222.783 170.63 217.352 169.968 215.886C169.292 214.42 164.129 217.212 164.129 217.212Z" fill="#A4C24F"/>
<path d="M181.287 226.365C181.134 226.888 180.688 227.207 179.897 227.105C177.82 226.85 166.067 222.846 163.989 220.998C164.027 221.584 163.377 222.528 163.505 222.936C164.04 224.542 177.348 228.775 179.579 229.042C181.096 229.221 181.733 227.691 181.274 226.365H181.287Z" fill="#E6E6EE"/>
<path d="M113.448 154.297C113.448 154.297 110.541 161.729 118.419 167.313C126.297 172.885 150.133 179.68 150.184 181.63C150.414 190.86 163.543 217.696 163.543 217.696L170.567 215.745C170.567 215.745 160.382 180.381 159.388 175.46C158.406 170.539 125.978 154.399 125.978 154.399L121.096 150.944C121.096 150.944 115.156 149.886 113.448 154.31V154.297Z" fill="#12196B"/>
<path d="M128.222 119.429C128.222 119.429 121.619 116.714 114.646 117.721C107.674 118.741 103.085 145.003 102.345 151.811L101.619 158.619C101.619 158.619 101.479 160.939 109.751 156.146C118.024 151.352 125.965 154.373 125.965 154.373C125.965 154.373 135.806 130.878 135.882 128.978C135.946 127.079 128.222 119.417 128.222 119.417V119.429Z" fill="#A4C24F"/>
<path d="M142.154 119.238C142.154 119.238 150.784 120.946 150.58 116.88C150.376 112.813 145.251 110.454 145.251 110.454C147.24 109.269 144.066 105.661 141.389 106.846C141.389 104.488 135.411 102.346 135.181 108.338C132.9 106.375 130.542 108.568 129.981 111.818C129.42 115.082 129.611 120.322 129.611 120.322L142.154 119.238Z" fill="#352C23"/>
<path d="M139.579 112.163C139.579 112.163 142.6 114.636 143.467 116.51C144.333 118.384 141.784 120.182 141.708 121.278C141.631 122.362 142.179 123.458 142.014 123.764C141.848 124.07 140.611 123.853 140.407 123.802C140.203 123.751 137.539 126.518 135.946 127.104C134.353 127.678 133.728 125.918 133.448 125.498C133.18 125.09 128.744 128.455 128.336 129.373C127.928 130.291 124.436 127.436 123.709 125.906C122.039 122.387 124.716 119.914 125.124 119.646C125.532 119.378 128.362 118.588 129.012 118.295C129.662 118.002 131.574 117.313 131.689 117.224C131.816 117.135 130.796 114.457 132.058 113.578C133.32 112.698 133.843 114.878 133.792 115.732C133.703 116.586 133.346 116.867 133.346 116.867L134.021 117.492C134.021 117.492 135.054 115.554 135.806 115.133C136.558 114.712 140.076 116.905 139.566 112.175L139.579 112.163Z" fill="#FFAC83"/>
<path d="M135.704 229.438C135.704 229.438 134.455 232.982 134.621 234.665C134.786 236.347 146.055 243.321 148.171 244.086C150.287 244.851 151.332 242.288 149.369 240.057C147.406 237.826 142.014 231.018 141.695 229.438C141.376 227.857 135.704 229.438 135.704 229.438Z" fill="#A4C24F"/>
<path d="M149.267 243.079C147.304 242.377 136.482 235.493 134.71 233.122C134.124 233.428 133.945 234.346 133.996 234.779C134.162 236.462 146.042 243.627 148.171 244.379C149.305 244.787 150.134 243.933 150.35 242.989C150.108 243.193 149.751 243.244 149.28 243.079H149.267Z" fill="#E6E6EE"/>
<path d="M102.983 158.287C102.983 158.287 99.5157 169.264 105.609 176.747C111.702 184.218 131.077 188.897 131.001 190.847C130.542 201.416 135.156 229.922 135.156 229.922H142.358C142.358 229.922 141.835 194.71 142.205 189.7C142.575 184.69 122.537 166.153 122.537 166.153L122.065 153.558C122.065 153.558 108.005 152.257 103.008 158.287H102.983Z" fill="#12196B"/>
<path d="M111.344 168.27C110.197 168.55 109.203 168.372 108.719 168.231C108.617 168.206 108.515 168.168 108.413 168.142C107.661 167.862 107.189 167.288 106.998 167.007C106.96 166.956 98.1642 147.833 97.7435 146.852C97.2464 145.653 108.464 133.976 108.464 133.976L101.07 128.685C101.07 128.685 86.641 143.958 88.3746 148.127C89.7767 151.505 101.619 169.468 101.619 169.468C102.332 170.577 105.417 176.964 108.897 178.468C112.39 179.973 113.104 177.283 111.854 175.549C110.108 173.624 109.534 172.081 109.381 171.074C109.522 170.845 109.879 170.526 110.388 170.437C111.153 170.309 112.619 170.169 113.231 169.213C113.843 168.257 113.575 167.709 111.332 168.27H111.344Z" fill="#FFAC83"/>
<path d="M99.1202 128.774C99.1202 128.774 108.464 118.027 113.46 117.734C118.47 117.441 116.392 124.682 115.232 127.334C114.085 129.973 109.675 136.831 109.675 136.831L99.1074 128.787L99.1202 128.774Z" fill="#B6D15A"/>
<path d="M160.42 132.14H111.357C109.069 132.14 107.214 133.995 107.214 136.283V173.369C107.214 175.657 109.069 177.512 111.357 177.512H160.42C162.708 177.512 164.563 175.657 164.563 173.369V136.283C164.563 133.995 162.708 132.14 160.42 132.14Z" fill="#FFF6F6"/>
<path d="M147.711 148.458C147.711 154.934 135.971 171.176 135.971 171.176C135.971 171.176 124.231 154.947 124.231 148.458C124.231 141.969 129.483 136.717 135.971 136.717C142.46 136.717 147.711 141.969 147.711 148.458Z" fill="#FF6D5A"/>
<path d="M135.972 153.405C138.949 153.405 141.363 150.99 141.363 148.012C141.363 145.034 138.949 142.619 135.972 142.619C132.994 142.619 130.58 145.034 130.58 148.012C130.58 150.99 132.994 153.405 135.972 153.405Z" fill="#FFF6F6"/>
<path d="M164.55 154.692C164.55 154.692 167.762 157.905 167.686 161.232C167.609 164.56 163.658 166.599 162.294 165.567C160.93 164.547 160.356 161.768 162.447 160.263C163.977 159.154 164.321 158.848 164.321 158.848L164.537 154.692H164.55Z" fill="#FFAC83"/>
<path d="M111.344 168.269C110.197 168.55 109.203 168.371 108.718 168.231C108.616 168.206 108.515 168.167 108.413 168.142C107.66 167.862 107.189 167.288 106.998 167.007C106.998 166.995 106.322 165.554 105.353 163.451H97.6924C99.8976 166.867 101.618 169.481 101.618 169.481C102.332 170.59 105.417 176.977 108.897 178.481C112.39 179.985 113.103 177.296 111.854 175.562C110.108 173.637 109.534 172.094 109.381 171.087C109.522 170.857 109.878 170.539 110.388 170.449C111.153 170.322 112.619 170.182 113.231 169.226C113.843 168.269 113.575 167.734 111.332 168.282L111.344 168.269Z" fill="#FFAC83"/>
<path d="M420.979 342.199H413.701C413.127 338.846 412.209 335.621 410.973 332.549L417.41 328.839C419.297 327.742 419.947 325.333 418.863 323.433L415.434 317.492C414.338 315.606 411.929 314.955 410.03 316.039L403.414 319.851C401.311 317.314 398.953 315.019 396.365 312.967L400.24 306.248C401.336 304.361 400.686 301.939 398.787 300.843L392.847 297.413C390.96 296.317 388.538 296.967 387.442 298.867L383.516 305.674C380.508 304.54 377.347 303.698 374.083 303.188V295.297C374.083 293.117 372.312 291.345 370.132 291.345H363.274C361.094 291.345 359.322 293.117 359.322 295.297V303.188C356.059 303.698 352.898 304.54 349.89 305.674L345.964 298.867C344.867 296.98 342.458 296.33 340.559 297.413L334.619 300.843C332.732 301.939 332.082 304.349 333.166 306.248L337.041 312.967C334.466 315.019 332.095 317.314 329.992 319.851L323.376 316.039C321.49 314.943 319.068 315.593 317.972 317.492L314.543 323.433C313.446 325.32 314.096 327.742 315.996 328.839L322.433 332.549C321.196 335.621 320.279 338.846 319.705 342.199H312.427C310.247 342.199 308.475 343.971 308.475 346.151V353.01C308.475 355.19 310.247 356.962 312.427 356.962H319.476C319.96 360.404 320.789 363.719 321.961 366.881L316.009 370.323C314.122 371.419 313.472 373.829 314.555 375.728L317.984 381.669C319.081 383.556 321.49 384.206 323.389 383.123L329.189 379.77C331.343 382.498 333.765 385.009 336.455 387.215L333.166 392.901C332.07 394.788 332.72 397.21 334.619 398.306L340.559 401.736C342.446 402.832 344.867 402.182 345.964 400.282L349.189 394.698C352.414 395.973 355.804 396.917 359.322 397.465V403.865C359.322 406.045 361.094 407.817 363.274 407.817H370.132C372.312 407.817 374.083 406.045 374.083 403.865V397.465C377.602 396.917 380.992 395.973 384.217 394.698L387.442 400.282C388.538 402.169 390.948 402.819 392.847 401.736L398.787 398.306C400.673 397.21 401.323 394.8 400.24 392.901L396.951 387.215C399.641 385.009 402.063 382.511 404.217 379.77L410.017 383.123C411.903 384.219 414.325 383.569 415.422 381.669L418.85 375.728C419.947 373.842 419.297 371.419 417.397 370.323L411.445 366.881C412.617 363.719 413.459 360.392 413.93 356.962H420.979C423.159 356.962 424.931 355.19 424.931 353.01V346.151C424.931 343.971 423.159 342.199 420.979 342.199ZM366.716 376.327C352.35 376.327 340.712 364.688 340.712 350.32C340.712 335.953 352.35 324.313 366.716 324.313C381.081 324.313 392.719 335.953 392.719 350.32C392.719 364.688 381.081 376.327 366.716 376.327Z" fill="#1059CD"/>
<path d="M437.856 307.651C437.856 307.651 435.613 342.391 435.422 355.127C435.231 367.862 436.633 402.309 436.633 402.309H441.03C441.03 402.309 446.461 379.655 446.091 372.541C445.721 365.427 444.217 358.875 444.217 358.875L449.176 332.753C449.176 332.753 453.293 360.009 455.498 362.062C457.703 364.127 460.699 370.489 461.438 373.854C462.177 377.22 470.922 399.874 470.922 399.874H475.434C475.434 399.874 473.051 377.972 471.738 370.858C470.425 363.745 465.186 361.118 464.434 358.875C463.682 356.631 463.363 330.407 462.789 326.85C462.228 323.293 467.238 313.502 460.686 306.771C454.134 300.027 437.844 307.663 437.844 307.663L437.856 307.651Z" fill="#FFAC83"/>
<path d="M464.421 352.322C464.051 345.922 463.184 329.247 462.802 326.85C462.241 323.293 467.25 313.502 460.698 306.771C454.147 300.027 437.856 307.663 437.856 307.663C437.856 307.663 435.001 338.694 434.58 352.194C436.9 353.966 444.306 354.948 447.633 353.954L449.175 332.765C449.175 332.765 449.94 348.459 451.801 354.821C456.097 355.292 461.489 354.999 464.421 352.335V352.322Z" fill="#12196B"/>
<path d="M417.525 261.271C416.633 260.774 403.299 249.121 397.576 244.557C397.576 244.557 397.487 244.481 397.436 244.443C397.194 244.239 396.697 243.729 396.518 242.989C396.518 242.989 396.365 238.655 396.391 237.469C396.416 236.284 395.129 236.347 394.784 237.762C394.581 238.617 394.134 240.401 393.79 241.74C392.86 241.485 391.483 240.771 389.89 238.961C388.386 237.597 385.772 237.992 386.83 241.447C387.888 244.902 393.548 247.26 394.517 248.063C399.781 253.851 410.973 267.084 414.02 268.754C417.767 270.807 436.046 272.847 436.046 272.847L437.091 265.197C437.091 265.197 418.596 261.857 417.525 261.258V261.271Z" fill="#FFAC83"/>
<path d="M428.347 261.832C428.347 261.832 457.321 267.148 461.12 267.989C464.905 268.831 462.101 285.965 461.68 285.685C461.26 285.404 461.387 298.268 462.229 303.188C463.07 308.109 457.742 309.423 455.779 309.984C453.816 310.544 439.348 309.869 437.805 309.984C433.879 310.264 433.867 303.239 435.396 296.215C437.525 286.526 433.701 277.602 433.701 277.602L424.587 273.841C424.587 273.841 426.524 266.88 428.347 261.832Z" fill="#83AAFF"/>
<path d="M439.462 254.081C439.462 254.081 430.884 249.555 433.293 246.291C435.702 243.028 439.373 243.385 439.373 243.385C438.379 241.294 446.346 240.197 447.914 242.658C449.214 240.707 453.79 243.742 453.114 247.566C456.097 247.209 461.298 253.341 453.369 261.194C451.024 263.515 449.252 261.921 449.252 261.921L439.45 254.081H439.462Z" fill="#352C23"/>
<path d="M445.517 249.631C445.517 249.631 441.642 250.001 439.896 251.085C438.149 252.168 439.258 255.062 438.723 256.006C438.187 256.949 437.13 257.548 437.091 257.893C437.053 258.237 438.2 258.747 438.404 258.823C438.595 258.887 439.284 262.661 440.278 264.025C441.272 265.389 442.776 264.267 443.235 264.076C443.681 263.884 444.892 269.252 444.739 270.246C444.574 271.228 449.991 270.96 451.406 270.029C452.821 269.099 453.726 266.97 453.535 266.523C453.344 266.077 449.634 261.182 449.252 260.582C448.882 259.983 449.341 258.326 449.277 258.186C449.226 258.046 451.546 256.375 450.985 254.96C450.425 253.545 448.78 255.05 448.36 255.789C447.952 256.554 448.092 256.975 448.092 256.975L447.174 257.115C447.174 257.115 447.391 254.935 446.996 254.17C446.6 253.405 444.089 251.161 445.504 249.631H445.517Z" fill="#FFAC83"/>
<path d="M436.161 399.9C436.161 399.9 437.92 399.479 439.004 400.894C439.641 401.43 441.553 400.065 441.553 400.065C441.553 400.065 444.689 403.89 443.121 408.097C437.219 409.053 422.79 408.582 422.063 408.097C421.337 407.613 422.305 403.635 427.175 403.699C432.044 403.763 436.148 399.887 436.148 399.887L436.161 399.9Z" fill="#4A50AC"/>
<path d="M422.611 405.943C422.611 405.943 422.522 405.853 422.484 405.777C421.77 406.797 421.719 407.868 422.076 408.11C422.802 408.594 437.232 409.066 443.134 408.11C443.401 407.37 443.529 406.657 443.554 405.955C437.589 406.886 423.325 406.414 422.611 405.943Z" fill="#E6E6EE"/>
<path d="M475.842 400.728C475.842 400.728 475.383 397.936 472.948 397.478C470.526 397.019 470.603 397.388 469.341 399.377C468.079 401.366 463.388 404.757 462.904 407.409C462.419 410.06 470.692 409.487 473.586 408.454C476.479 407.409 476.288 407.409 476.658 406.325C477.015 405.241 475.842 400.728 475.842 400.728Z" fill="#4A50AC"/>
<path d="M473.586 406.351C471.164 407.23 464.943 407.766 463.299 406.351C463.108 406.72 462.967 407.077 462.916 407.421C462.432 410.073 470.705 409.5 473.598 408.467C476.492 407.421 476.301 407.421 476.67 406.338C476.785 405.981 476.734 405.229 476.619 404.4C476.326 405.318 476.339 405.382 473.598 406.363L473.586 406.351Z" fill="#E6E6EE"/>
<path d="M434.058 291.702C433.012 291.957 414.427 292.441 406.767 292.99C406.767 292.99 406.639 292.99 406.575 293.002C406.244 293.002 405.505 292.977 404.829 292.543C404.829 292.543 401.63 289.305 400.801 288.375C399.972 287.444 399.029 288.413 399.769 289.739C400.215 290.542 401.145 292.237 401.834 293.525C400.929 293.984 399.361 294.417 396.837 294.162C394.708 294.188 392.974 296.342 396.238 298.255C399.501 300.167 405.568 297.962 406.881 297.885C415.065 298.612 433.127 300.855 436.671 299.976C441.03 298.892 456.581 287.457 456.581 287.457L451.954 280.802C451.954 280.802 435.294 291.383 434.032 291.689L434.058 291.702Z" fill="#FFAC83"/>
<path d="M449.303 280.19C449.303 280.19 457.257 271.406 459.194 269.698C461.119 267.989 461.285 267.62 461.807 268.385C462.317 269.15 467.977 273.446 466.358 279.336C464.739 285.213 455.702 290.491 455.702 290.491L449.303 280.177V280.19Z" fill="#83AAFF"/>
<path d="M111.191 360.685H105.965C105.557 358.288 104.894 355.968 104.002 353.775L108.616 351.111C109.967 350.333 110.439 348.599 109.649 347.235L107.189 342.977C106.411 341.626 104.677 341.154 103.314 341.944L98.5717 344.685C97.0676 342.875 95.3722 341.218 93.5239 339.752L96.3027 334.933C97.0803 333.581 96.6214 331.847 95.2702 331.057L91.0128 328.597C89.6616 327.819 87.928 328.278 87.1377 329.629L84.3207 334.512C82.1664 333.696 79.8975 333.097 77.5648 332.727V327.067C77.5648 325.499 76.2901 324.237 74.735 324.237H69.8274C68.2596 324.237 66.9976 325.511 66.9976 327.067V332.727C64.6522 333.097 62.396 333.696 60.2418 334.512L57.4247 329.629C56.6471 328.278 54.9136 327.806 53.5497 328.597L49.2922 331.057C47.941 331.835 47.4694 333.569 48.2597 334.933L51.0385 339.752C49.1902 341.218 47.4949 342.875 45.9907 344.685L41.2489 341.944C39.8977 341.167 38.1641 341.626 37.3738 342.977L34.9137 347.235C34.1361 348.586 34.595 350.32 35.9462 351.111L40.5606 353.775C39.681 355.981 39.0182 358.288 38.5975 360.685H33.3713C31.8034 360.685 30.5415 361.96 30.5415 363.515V368.423C30.5415 369.991 31.8162 371.254 33.3713 371.254H38.4191C38.7633 373.714 39.3624 376.098 40.2037 378.367L35.9334 380.828C34.5823 381.605 34.1106 383.339 34.9009 384.703L37.3611 388.961C38.1387 390.313 39.8722 390.784 41.2361 389.994L45.3916 387.597C46.934 389.561 48.6803 391.345 50.6051 392.926L48.2469 397.006C47.4694 398.357 47.9283 400.091 49.2794 400.881L53.5369 403.342C54.8881 404.12 56.6217 403.661 57.412 402.309L59.7192 398.306C62.0263 399.224 64.461 399.9 66.9849 400.282V404.872C66.9849 406.44 68.2596 407.702 69.8147 407.702H74.7222C76.2901 407.702 77.5521 406.427 77.5521 404.872V400.282C80.0759 399.887 82.5106 399.211 84.8178 398.306L87.125 402.309C87.9025 403.661 89.6361 404.132 91 403.342L95.2575 400.881C96.6087 400.104 97.0803 398.37 96.29 397.006L93.9318 392.926C95.8566 391.345 97.6029 389.548 99.1453 387.597L103.301 389.994C104.652 390.772 106.386 390.313 107.176 388.961L109.636 384.703C110.414 383.352 109.955 381.618 108.604 380.828L104.333 378.367C105.175 376.098 105.774 373.714 106.118 371.254H111.166C112.733 371.254 113.995 369.979 113.995 368.423V363.515C113.995 361.947 112.721 360.685 111.166 360.685H111.191ZM72.2876 384.844C61.8734 384.844 53.4222 376.391 53.4222 365.976C53.4222 355.56 61.8734 347.108 72.2876 347.108C82.7018 347.108 91.153 355.56 91.153 365.976C91.153 376.391 82.7018 384.844 72.2876 384.844Z" fill="#1059CD"/>
<path d="M159.324 387.789H83.9896C80.4767 387.789 77.6289 390.637 77.6289 394.15V451.098C77.6289 454.612 80.4767 457.46 83.9896 457.46H159.324C162.837 457.46 165.684 454.612 165.684 451.098V394.15C165.684 390.637 162.837 387.789 159.324 387.789Z" fill="#F6BE39"/>
<path d="M108.497 426.156C107.329 426.156 106.247 425.929 105.253 425.476C104.277 425.022 103.474 424.368 102.846 423.514L104.782 421.185C105.288 421.883 105.837 422.406 106.43 422.755C107.041 423.104 107.703 423.278 108.419 423.278C110.319 423.278 111.27 422.153 111.27 419.904V410.434H104.756V407.582H114.671V419.72C114.671 421.883 114.139 423.496 113.075 424.56C112.029 425.624 110.503 426.156 108.497 426.156ZM125.118 426.156C123.688 426.156 122.318 425.955 121.01 425.554C119.702 425.136 118.665 424.604 117.897 423.958L119.075 421.316C119.807 421.892 120.714 422.371 121.795 422.755C122.877 423.139 123.984 423.33 125.118 423.33C126.077 423.33 126.853 423.226 127.446 423.017C128.039 422.807 128.475 422.528 128.754 422.179C129.033 421.813 129.172 421.403 129.172 420.95C129.172 420.392 128.972 419.947 128.571 419.616C128.17 419.267 127.646 418.997 127.001 418.805C126.373 418.596 125.667 418.404 124.882 418.229C124.115 418.055 123.339 417.854 122.554 417.628C121.787 417.383 121.08 417.078 120.435 416.712C119.807 416.328 119.293 415.823 118.892 415.195C118.49 414.567 118.29 413.765 118.29 412.788C118.29 411.794 118.551 410.887 119.075 410.067C119.615 409.23 120.426 408.568 121.508 408.079C122.606 407.573 123.993 407.321 125.667 407.321C126.766 407.321 127.856 407.46 128.937 407.739C130.018 408.018 130.96 408.419 131.762 408.942L130.69 411.585C129.87 411.096 129.024 410.739 128.152 410.512C127.28 410.268 126.443 410.146 125.641 410.146C124.699 410.146 123.932 410.259 123.339 410.486C122.763 410.713 122.336 411.009 122.057 411.375C121.795 411.742 121.664 412.16 121.664 412.631C121.664 413.189 121.856 413.643 122.24 413.991C122.641 414.323 123.156 414.584 123.783 414.776C124.429 414.968 125.144 415.16 125.929 415.352C126.713 415.526 127.489 415.727 128.257 415.953C129.042 416.18 129.748 416.477 130.376 416.843C131.021 417.209 131.536 417.706 131.919 418.334C132.32 418.962 132.521 419.755 132.521 420.714C132.521 421.691 132.251 422.598 131.71 423.435C131.187 424.255 130.376 424.918 129.277 425.423C128.178 425.912 126.792 426.156 125.118 426.156Z" fill="white"/>
<path d="M94.5821 216.472H19.2479C15.735 216.472 12.8872 219.32 12.8872 222.834V279.782C12.8872 283.295 15.735 286.144 19.2479 286.144H94.5821C98.095 286.144 100.943 283.295 100.943 279.782V222.834C100.943 219.32 98.095 216.472 94.5821 216.472Z" fill="#A4C24F"/>
<path d="M21.1207 254.578V236.266H28.6547C30.2767 236.266 31.6631 236.527 32.8142 237.051C33.9827 237.574 34.8808 238.324 35.5087 239.3C36.1365 240.277 36.4504 241.437 36.4504 242.78C36.4504 244.122 36.1365 245.282 35.5087 246.259C34.8808 247.236 33.9827 247.985 32.8142 248.509C31.6631 249.032 30.2767 249.293 28.6547 249.293H23.0042L24.5215 247.698V254.578H21.1207ZM24.5215 248.064L23.0042 246.416H28.4978C29.9976 246.416 31.1225 246.102 31.8724 245.474C32.6398 244.829 33.0235 243.931 33.0235 242.78C33.0235 241.611 32.6398 240.713 31.8724 240.085C31.1225 239.457 29.9976 239.143 28.4978 239.143H23.0042L24.5215 237.469V248.064ZM52.7172 236.266H56.118V254.578H52.7172V236.266ZM43.2473 254.578H39.8465V236.266H43.2473V254.578ZM52.9788 246.73H42.9596V243.826H52.9788V246.73ZM61.0249 254.578V236.266H68.559C70.1809 236.266 71.5674 236.527 72.7184 237.051C73.8869 237.574 74.785 238.324 75.4129 239.3C76.0407 240.277 76.3546 241.437 76.3546 242.78C76.3546 244.122 76.0407 245.282 75.4129 246.259C74.785 247.236 73.8869 247.985 72.7184 248.509C71.5674 249.032 70.1809 249.293 68.559 249.293H62.9084L64.4257 247.698V254.578H61.0249ZM64.4257 248.064L62.9084 246.416H68.402C69.9018 246.416 71.0267 246.102 71.7766 245.474C72.544 244.829 72.9277 243.931 72.9277 242.78C72.9277 241.611 72.544 240.713 71.7766 240.085C71.0267 239.457 69.9018 239.143 68.402 239.143H62.9084L64.4257 237.469V248.064Z" fill="white"/>
</g>
<defs>
<clipPath id="clip0_241_853">
<rect width="535" height="464" fill="white"/>
</clipPath>
</defs>
</svg>
