<svg width="40" height="40" viewBox="0 0 40 40" fill="none" xmlns="http://www.w3.org/2000/svg">
<path d="M12.7488 22.6743H4.99877C3.97195 22.6801 2.98918 23.0921 2.26516 23.8202C1.54115 24.5484 1.13475 25.5335 1.13477 26.5603V34.3103C1.13424 34.8179 1.23383 35.3206 1.42783 35.7896C1.62182 36.2587 1.90642 36.6848 2.26533 37.0438C2.62424 37.4027 3.05042 37.6873 3.51946 37.8813C3.9885 38.0753 4.49119 38.1748 4.99877 38.1743H12.7488C13.7757 38.1754 14.7612 37.7693 15.4893 37.045C16.2173 36.3207 16.6285 35.3373 16.6328 34.3103V26.5603C16.6333 26.0501 16.5332 25.5448 16.3382 25.0734C16.1432 24.6019 15.8571 24.1735 15.4963 23.8127C15.1356 23.452 14.7072 23.1659 14.2357 22.9709C13.7643 22.7759 13.259 22.6758 12.7488 22.6763M12.7488 1.17432H4.99877C4.49119 1.17379 3.9885 1.27338 3.51946 1.46738C3.05042 1.66137 2.62424 1.94597 2.26533 2.30488C1.90642 2.66379 1.62182 3.08997 1.42783 3.55901C1.23383 4.02805 1.13424 4.53074 1.13477 5.03832V12.7883C1.1337 13.8153 1.53982 14.8008 2.26412 15.5288C2.98842 16.2569 3.97181 16.6681 4.99877 16.6723H12.7488C13.259 16.6728 13.7643 16.5727 14.2357 16.3777C14.7072 16.1827 15.1356 15.8967 15.4963 15.5359C15.8571 15.1751 16.1432 14.7467 16.3382 14.2753C16.5332 13.8038 16.6333 13.2985 16.6328 12.7883V5.03832C16.6285 4.01136 16.2173 3.02797 15.4893 2.30367C14.7612 1.57937 13.7757 1.17325 12.7488 1.17432ZM34.2708 1.17432H26.5208C25.4938 1.17325 24.5083 1.57937 23.7803 2.30367C23.0522 3.02797 22.641 4.01136 22.6368 5.03832V12.7883C22.6373 13.8183 23.0467 14.8059 23.775 15.5341C24.5032 16.2624 25.4908 16.6718 26.5208 16.6723H34.2708C35.2977 16.6681 36.2811 16.2569 37.0054 15.5288C37.7297 14.8008 38.1358 13.8153 38.1348 12.7883V5.03832C38.1353 4.53074 38.0357 4.02805 37.8417 3.55901C37.6477 3.08997 37.3631 2.66379 37.0042 2.30488C36.6453 1.94597 36.2191 1.66137 35.7501 1.46738C35.281 1.27338 34.7783 1.17379 34.2708 1.17432Z" stroke="#0D99FF" stroke-width="2" stroke-linecap="round" stroke-linejoin="round"/>
<path d="M30.3706 23.3083V37.5403M23.2686 30.4403H37.5006" stroke="#0D99FF" stroke-width="3" stroke-miterlimit="10" stroke-linecap="round"/>
</svg>
