<svg xmlns="http://www.w3.org/2000/svg" width="56" height="56" viewBox="0 0 56 56">
  <g id="advanced-tool" transform="translate(-709 -691)">
    <rect id="Rectangle_42" data-name="Rectangle 42" width="56" height="56" rx="6" transform="translate(709 691)" fill="#fff" opacity="0"/>
    <g id="advanced-tool-2" data-name="advanced-tool" transform="translate(711.736 699.457)">
      <path id="Path_322" data-name="Path 322" d="M8.75,25.612a.516.516,0,1,1,0,1.033H8.126A6.792,6.792,0,0,0,14.382,32.9v-.624a.516.516,0,0,1,1.033,0V32.9a6.792,6.792,0,0,0,6.256-6.258h-.624a.516.516,0,1,1,0-1.033h.624a6.787,6.787,0,0,0-6.256-6.256v.624a.516.516,0,1,1-1.033,0v-.624a6.787,6.787,0,0,0-6.256,6.256Zm35.872,8.452-1.775-1.825L40.9,34.129A1.513,1.513,0,0,0,43.011,36.3l1.172-1.138a2.437,2.437,0,0,1,.438-1.1Zm-.287,2.38-.609.592a2.541,2.541,0,0,1-3.543-3.644L42.5,31.142l.013-.013,2.3-2.23,0,0c.013-.013.025-.023.038-.034a2.549,2.549,0,0,1,3.556.076v0c.013.013.023.025.034.038a2.549,2.549,0,0,1-.076,3.556l0,0a.225.225,0,0,1-.034.03l-.685.666a2.491,2.491,0,0,1,1.5,2.283,2.489,2.489,0,0,1-4.8.932Zm2.026-3.4a2.448,2.448,0,0,0-.98.331l-1.8-1.849,1.943-1.891.021-.021a1.515,1.515,0,0,1,2.116.053l0,0a.136.136,0,0,0,.019.017,1.518,1.518,0,0,1-.055,2.116l0,0,0,0a.2.2,0,0,1-.021.021Zm1.317,1.442A1.457,1.457,0,0,0,45.284,35h2.73a1.487,1.487,0,0,0-.335-.516Zm-2.4,1.549a1.457,1.457,0,0,0,2.727,0ZM14.9,22.218a2.377,2.377,0,0,1,1.682,4.06l-.036.036a5.925,5.925,0,0,1,1.433.626,6,6,0,0,1,2.2,2.333l0,.008a.514.514,0,0,1-.455.755v0l-9.664,0a.517.517,0,0,1-.516-.516.524.524,0,0,1,.072-.263,6,6,0,0,1,3.632-2.945l-.036-.036A2.375,2.375,0,0,1,14.9,22.218Zm.953,1.427a1.348,1.348,0,1,1-.953-.394A1.339,1.339,0,0,1,15.851,23.645Zm1.6,4.175a4.967,4.967,0,0,1,1.338,1.185H11.009a4.94,4.94,0,0,1,6.437-1.185Zm15.616-1.612A.514.514,0,1,1,33.7,25.4l2.491,1.986a6.794,6.794,0,0,0-.04-1.6.514.514,0,0,1,1.018-.141,7.41,7.41,0,0,1-.107,2.749l0,.019a.421.421,0,0,1-.019.074,5.9,5.9,0,0,1-1.1,2.234,6.189,6.189,0,0,1-2.9,2,8.1,8.1,0,0,1-3.8.28v0a8.153,8.153,0,0,0-2.4.036l1.5,1.2a.514.514,0,0,1-.641.805l-2.085-1.663a5.322,5.322,0,0,0-1.111.59.515.515,0,0,1-.588-.845,6.723,6.723,0,0,1,2.51-1.05,9.019,9.019,0,0,1,2.961-.086l.013,0v0a7.085,7.085,0,0,0,3.322-.236l.053-.019-2.512-2a.514.514,0,1,1,.641-.805l2.915,2.323a5.088,5.088,0,0,0,.991-.778l-3.745-2.987a.514.514,0,0,1,.641-.805l3.745,2.987a4.918,4.918,0,0,0,.529-1.145ZM35.6,18.462a.514.514,0,1,1,.955.382,5.368,5.368,0,0,0-.327,1.214l2.085,1.661a.514.514,0,1,1-.641.805l-1.5-1.2c.011.2.032.409.061.62a.514.514,0,1,1-1.018.141,7.786,7.786,0,0,1-.04-1.886,6.214,6.214,0,0,1,.424-1.741ZM29.909,37.908a6.477,6.477,0,0,0,.428-1.735,7.646,7.646,0,0,0-.038-1.882.514.514,0,1,0-1.018.141,6.751,6.751,0,0,1,.034,1.631,5.432,5.432,0,0,1-.358,1.461.514.514,0,0,0,.953.384Zm-.556-7.331a6.364,6.364,0,0,1,.089-2.369,4.893,4.893,0,0,1,.927-1.924,5.063,5.063,0,0,1,2.388-1.627,7.576,7.576,0,0,1,3.372-.274,8.964,8.964,0,0,0,2.961-.086,6.76,6.76,0,0,0,2.51-1.052.515.515,0,1,0-.588-.845,5.685,5.685,0,0,1-2.127.889,8.033,8.033,0,0,1-2.626.074,8.578,8.578,0,0,0-3.828.318,6.1,6.1,0,0,0-2.867,1.962,5.91,5.91,0,0,0-1.121,2.329,7.366,7.366,0,0,0-.107,2.749.513.513,0,1,0,1.016-.143Zm6.387,15.7.19,1.99h3.539a1.3,1.3,0,0,1,.923.384.241.241,0,0,1,.032.036,1.3,1.3,0,0,1,.35.887V52.3a.517.517,0,0,1-.516.516H16.62A.517.517,0,0,1,16.1,52.3V49.579a1.3,1.3,0,0,1,.384-.921l0,0,0,0a1.3,1.3,0,0,1,.923-.384h3.539l.192-1.99-14.855,0a3.12,3.12,0,0,1-3.111-3.113V17.528a3.12,3.12,0,0,1,3.111-3.111H50.595a3.12,3.12,0,0,1,3.111,3.111V43.169a3.12,3.12,0,0,1-3.111,3.113Zm-.841,1.99-.19-1.99H22.172l-.192,1.99Zm15.7-32.822a2.087,2.087,0,0,1,2.08,2.08V40.484l-48.47,0V17.528a2.087,2.087,0,0,1,2.08-2.08ZM4.205,41.515v1.657a2.087,2.087,0,0,0,2.08,2.08H50.595a2.087,2.087,0,0,0,2.08-2.08V41.515ZM39.47,49.3H17.408a.276.276,0,0,0-.194.082l0,0a.276.276,0,0,0-.08.194v2.207H39.739V49.577a.283.283,0,0,0-.065-.179.1.1,0,0,1-.015-.015.262.262,0,0,0-.19-.08ZM26.062,43.865h4.757a.516.516,0,0,0,0-1.033H26.062a.516.516,0,0,0,0,1.033ZM7.092,26.643h-.66a.516.516,0,0,1,0-1.033h.66a7.823,7.823,0,0,1,7.289-7.291v-.66a.516.516,0,1,1,1.033,0v.66A7.823,7.823,0,0,1,22.7,25.61h.66a.516.516,0,0,1,0,1.033H22.7a7.823,7.823,0,0,1-7.291,7.291v.66a.516.516,0,1,1-1.033,0v-.66a7.823,7.823,0,0,1-7.289-7.291Z" transform="translate(-3.174 -14.417)" fill="#29abe2" stroke="#29abe2" stroke-width="0.4" fill-rule="evenodd"/>
    </g>
  </g>
</svg>
