<svg width="452" height="395" viewBox="0 0 452 395" fill="none" xmlns="http://www.w3.org/2000/svg">
<g clip-path="url(#clip0_230_196)">
<path style="mix-blend-mode:lighten" opacity="0.5" d="M385.915 113.294L364.347 125.716C357.868 129.45 352.095 128.057 349.964 122.227L307.289 5.97418C302.423 -7.30977 282.511 4.69605 278.293 23.4515L252.031 140.465C250.116 149.01 244.17 157.54 237.432 161.432L231.155 165.051C225.064 168.555 219.55 167.55 217.146 162.481L208.45 144.113C203.065 132.725 185.111 143.467 180.216 161.001C177.955 169.087 172.297 176.827 165.991 180.461L160.505 183.62C153.854 187.44 147.979 185.875 145.978 179.728L138.059 155.458C133.596 141.758 113.627 153.16 109.048 172.031L82.758 280.356C80.6992 288.872 74.7241 297.23 68.0436 300.964L37.6934 317.91L385.901 113.308L385.915 113.294Z" fill="url(#paint0_linear_230_196)"/>
<path d="M65.2066 329.011L64.8467 328.379L90.9064 313.831C97.5438 310.126 103.389 301.941 105.448 293.468L131.738 185.142C134.963 171.83 145.43 162.567 153.162 162.265C157.164 162.093 160.073 164.348 161.441 168.541L169.359 192.811C170.209 195.41 171.778 197.206 173.923 198.024C176.558 199.029 179.913 198.484 183.354 196.502L188.839 193.342C195.03 189.781 200.689 182.04 202.906 174.099C206.448 161.404 216.382 152.887 223.538 152.284C227.252 151.983 230.175 153.706 231.816 157.153L240.512 175.52C241.492 177.588 243.046 178.996 244.99 179.613C247.539 180.403 250.749 179.814 254.003 177.933L260.28 174.314C266.889 170.508 272.835 161.978 274.721 153.577L300.983 36.5631C303.934 23.4228 314.56 13.7004 322.248 13.1978C326.222 12.9536 329.188 15.0216 330.671 19.0427L373.331 135.31C374.223 137.737 375.793 139.417 377.88 140.178C380.486 141.126 383.798 140.566 387.196 138.613L404.027 128.919L404.387 129.551L387.556 139.244C383.971 141.312 380.443 141.887 377.621 140.867C375.332 140.034 373.604 138.21 372.64 135.568L329.979 19.3012C328.597 15.553 325.963 13.7148 322.291 13.9302C314.862 14.4184 304.568 23.8967 301.688 36.7355L275.427 153.749C273.469 162.466 267.537 170.982 260.655 174.946L254.377 178.565C250.936 180.547 247.539 181.164 244.789 180.303C242.629 179.628 240.93 178.091 239.865 175.836L231.168 157.469C229.657 154.266 227.051 152.744 223.61 153.017C216.684 153.606 207.067 161.906 203.611 174.314C201.351 182.428 195.563 190.341 189.214 193.989L183.728 197.148C180.086 199.245 176.501 199.805 173.664 198.728C171.317 197.823 169.59 195.87 168.668 193.055L160.749 168.785C159.468 164.865 156.848 162.84 153.176 163.012C145.848 163.299 135.525 172.533 132.429 185.343L106.139 293.669C104.037 302.328 98.0477 310.701 91.2376 314.492L65.1778 329.04L65.2066 329.011Z" fill="#42E8E0"/>
<path d="M303.74 0.925526L303.381 1.54807L326.598 14.8594L326.957 14.2368L303.74 0.925526Z" fill="#42E8E0"/>
<path d="M228.65 154.28L205.167 140.767L205.527 140.149L229.024 153.663L228.65 154.28Z" fill="#42E8E0"/>
<path d="M133.721 149.685L133.362 150.308L157.85 164.325L158.209 163.702L133.721 149.685Z" fill="#42E8E0"/>
<path d="M149.289 379.031C147.101 379.031 144.898 378.485 142.926 377.365L64.4727 333.549C63.5656 333.047 63.0185 332.113 63.0185 331.079C63.0185 330.045 63.5656 329.112 64.4727 328.609L90.9212 313.831C97.5729 310.112 103.418 301.926 105.477 293.439L131.767 185.114C133.509 177.904 137.382 171.887 141.774 167.837L137.757 155.501C136.475 151.566 133.826 149.584 130.169 149.714C122.841 150.001 112.503 159.235 109.393 172.059L83.1033 280.385C81.0012 289.03 75.0262 297.402 68.2161 301.208L0.331146 339.193L0 338.604L67.8849 300.634C74.5367 296.914 80.3821 288.728 82.441 280.241L108.731 171.916C111.956 158.603 122.409 149.355 130.14 149.053C134.129 148.881 137.037 151.121 138.405 155.314L142.335 167.363C145.92 164.233 149.808 162.394 153.177 162.265C157.15 162.107 160.073 164.333 161.441 168.527L165.328 180.446L165.847 180.145C172.038 176.583 177.696 168.828 179.913 160.887C183.455 148.206 193.375 139.69 200.531 139.087C204.245 138.785 207.153 140.494 208.78 143.941L214.611 156.277C217.649 153.921 220.817 152.528 223.567 152.299C227.238 151.983 230.19 153.706 231.817 157.153L234.466 162.754L237.288 161.131C243.911 157.325 249.843 148.795 251.729 140.379L277.99 23.3654C280.927 10.2394 291.538 0.531346 299.226 0.02871C303.157 -0.258511 306.137 1.8382 307.62 5.85929L312.098 18.0662C315.496 15.1796 319.124 13.4419 322.263 13.2409C326.179 12.9824 329.188 15.0503 330.657 19.0714L368.724 122.83L383.309 114.429C384.921 113.495 386.923 113.495 388.55 114.429L404.56 123.605C405.625 124.209 406.259 125.3 406.259 126.521C406.259 127.741 405.625 128.833 404.574 129.436L387.57 139.23C383.985 141.298 380.458 141.873 377.665 140.853C375.376 140.02 373.662 138.196 372.698 135.568L368.378 123.806L364.534 126.018C360.949 128.086 357.436 128.66 354.629 127.641C352.354 126.808 350.626 124.984 349.661 122.356L311.81 19.2007C307.304 23.2936 303.315 29.4832 301.688 36.7355L275.427 153.749C273.469 162.452 267.537 170.968 260.655 174.932L254.378 178.551C250.951 180.532 247.539 181.15 244.803 180.288C242.658 179.613 240.959 178.077 239.894 175.836L234.163 163.73L231.342 165.353C227.915 167.32 224.503 167.938 221.767 167.091C219.622 166.416 217.923 164.879 216.857 162.639L214.352 157.354C209.831 161.073 205.642 166.976 203.583 174.3C201.322 182.414 195.535 190.312 189.2 193.96L183.714 197.119C180.071 199.216 176.501 199.776 173.679 198.699C171.332 197.809 169.619 195.841 168.697 193.041L164.925 181.48L160.678 183.922C157.035 186.018 153.465 186.578 150.643 185.501C148.296 184.611 146.583 182.644 145.661 179.843L142.018 168.67C137.8 172.663 134.071 178.479 132.415 185.329L106.125 293.654C104.023 302.3 98.048 310.672 91.2379 314.463L64.7895 329.241C64.0984 329.629 63.6808 330.332 63.6808 331.122C63.6808 331.912 64.0984 332.616 64.7895 333.003L143.242 376.819C147.072 378.973 151.78 378.916 155.552 376.675L293.928 295.363L294.274 295.938L155.898 377.25C153.868 378.456 151.564 379.059 149.275 379.059L149.289 379.031ZM165.53 181.107L169.345 192.811C170.195 195.41 171.778 197.22 173.924 198.039C176.558 199.044 179.928 198.512 183.383 196.502L188.868 193.342C195.059 189.767 200.718 182.026 202.935 174.084C205.037 166.559 209.371 160.499 214.064 156.693L208.161 144.213C206.635 140.997 204.029 139.46 200.574 139.747C193.634 140.336 184.016 148.651 180.547 161.059C178.286 169.173 172.498 177.071 166.163 180.719L165.515 181.093L165.53 181.107ZM142.58 168.139L146.323 179.613C147.173 182.213 148.757 184.022 150.902 184.841C153.537 185.86 156.891 185.3 160.361 183.318L164.724 180.805L160.793 168.756C159.512 164.821 156.891 162.868 153.205 162.969C149.952 163.098 146.122 164.979 142.58 168.153V168.139ZM234.739 163.357L240.498 175.52C241.477 177.588 243.032 179.01 244.991 179.628C247.553 180.432 250.764 179.829 254.018 177.947L260.295 174.328C266.918 170.523 272.85 161.978 274.736 153.577L300.997 36.5632C302.682 29.0811 306.843 22.7048 311.536 18.5114L306.972 6.06034C305.59 2.29775 302.941 0.44518 299.255 0.674956C291.812 1.16323 281.503 10.6559 278.623 23.4946L252.362 140.508C250.404 149.225 244.472 157.727 237.59 161.691L234.725 163.342L234.739 163.357ZM214.885 156.894L217.448 162.323C218.427 164.391 219.982 165.812 221.94 166.43C224.503 167.234 227.713 166.631 230.967 164.75L233.847 163.098L231.169 157.454C229.643 154.237 227.037 152.686 223.581 152.988C220.903 153.218 217.837 154.596 214.856 156.909L214.885 156.894ZM368.94 123.447L373.288 135.324C374.181 137.765 375.764 139.446 377.852 140.207C380.472 141.155 383.784 140.594 387.196 138.627L404.2 128.833C405.049 128.344 405.553 127.468 405.553 126.492C405.553 125.515 405.049 124.639 404.2 124.151L388.19 114.974C386.779 114.17 385.037 114.17 383.626 114.974L368.94 123.433V123.447ZM312.328 18.7124L350.266 122.112C351.159 124.553 352.743 126.233 354.83 126.995C357.451 127.942 360.762 127.382 364.174 125.415L368.119 123.146L330.009 19.2868C328.626 15.5243 325.934 13.6573 322.292 13.9015C319.21 14.1025 315.654 15.8402 312.328 18.7124Z" fill="#42E8E0"/>
<path style="mix-blend-mode:lighten" opacity="0.5" d="M404.2 128.89L387.369 138.584C380.89 142.318 375.117 140.925 372.986 135.094L330.326 18.8273C325.459 5.54335 305.547 17.5492 301.329 36.3047L275.067 153.318C273.152 161.863 267.206 170.394 260.468 174.285L254.191 177.904C248.101 181.408 242.586 180.403 240.182 175.334L231.486 156.966C226.101 145.578 208.147 156.32 203.252 173.855C200.991 181.94 195.333 189.68 189.027 193.314L183.541 196.473C176.89 200.293 171.016 198.728 169.014 192.581L161.096 168.311C156.632 154.611 136.663 166.013 132.084 184.884L105.794 293.209C103.735 301.725 97.7603 310.083 91.0797 313.817L60.7295 330.763L404.186 128.905L404.2 128.89Z" fill="url(#paint1_linear_230_196)"/>
<g opacity="0.3">
<path d="M452 271.179V262.491L449.596 261.155C448.919 265.263 444.082 267.962 440.036 268.522L412.493 284.592L400.471 288.929L362.101 269.183L362.994 268.666C359.711 267.144 357.955 263.64 356.169 260.452L353.592 261.988L352.052 262.419V271.323C352.052 273.032 353.175 274.726 355.421 276.019L393.863 298.164C398.369 300.749 405.683 300.749 410.189 298.164L448.631 276.019C450.848 274.741 451.971 273.075 452 271.395C452 271.323 452 271.251 452 271.165V271.179Z" fill="url(#paint2_linear_230_196)"/>
<path opacity="0.3" d="M440.036 268.522L412.493 284.592L402.026 288.355V300.102C404.978 300.102 407.944 299.456 410.19 298.164L448.632 276.019C450.849 274.741 451.972 273.075 452.001 271.395C452.001 271.323 452.001 271.251 452.001 271.165V262.476L449.798 261.256H449.567C448.819 265.291 444.039 267.948 440.022 268.508L440.036 268.522Z" fill="#0F054C"/>
<path d="M393.863 289.332L355.421 267.187C350.914 264.588 350.914 260.38 355.421 257.78L393.863 235.636C398.369 233.051 405.683 233.051 410.19 235.636L448.631 257.78C453.138 260.38 453.138 264.588 448.631 267.187L410.19 289.332C405.683 291.917 398.369 291.917 393.863 289.332Z" fill="url(#paint3_linear_230_196)"/>
<g opacity="0.3">
<path d="M393.863 289.332L355.421 267.187C350.914 264.588 350.914 260.38 355.421 257.78L393.863 235.636C398.369 233.051 405.683 233.051 410.19 235.636L448.631 257.78C453.138 260.38 453.138 264.588 448.631 267.187L410.19 289.332C405.683 291.917 398.369 291.917 393.863 289.332Z" fill="#0F054C"/>
</g>
</g>
<path d="M402.026 261.356C399.406 261.356 396.771 260.782 394.784 259.633L356.343 237.488C354.341 236.339 353.247 234.788 353.247 233.123C353.247 231.457 354.341 229.906 356.343 228.757L394.784 206.612C398.787 204.314 405.28 204.314 409.283 206.612L447.724 228.757C449.726 229.906 450.82 231.457 450.82 233.123C450.82 234.788 449.726 236.339 447.724 237.488L409.283 259.633C407.281 260.782 404.661 261.356 402.041 261.356H402.026ZM395.115 259.044C398.931 261.227 405.122 261.241 408.937 259.044L447.379 236.899C449.164 235.88 450.143 234.53 450.143 233.123C450.143 231.715 449.164 230.365 447.379 229.331L408.937 207.187C405.122 204.989 398.931 204.989 395.115 207.187L356.674 229.331C354.888 230.351 353.909 231.701 353.909 233.123C353.909 234.544 354.888 235.88 356.674 236.914L395.115 259.059V259.044Z" fill="#42E8E0"/>
<path opacity="0.4" d="M452 224.621V211.495L449.596 210.159C448.919 214.266 444.082 216.966 440.036 217.526L412.493 233.596L400.471 237.933L362.101 218.187L362.994 217.67C359.711 216.148 357.955 212.644 356.169 209.456L353.592 210.992L352.052 211.423V224.779C352.052 226.488 353.175 228.182 355.421 229.475L393.863 251.62C398.369 254.205 405.683 254.219 410.189 251.62L448.631 229.475C450.848 228.197 451.971 226.531 452 224.851C452 224.779 452 224.707 452 224.621Z" fill="#42E8E0"/>
<path d="M452 212.945V204.257L449.596 202.921C448.919 207.029 444.082 209.728 440.036 210.288L412.493 226.358L400.471 230.696L362.101 210.949L362.994 210.432C359.711 208.91 357.955 205.406 356.169 202.218L353.592 203.754L352.052 204.185V213.089C352.052 214.798 353.175 216.492 355.421 217.785L393.863 239.93C398.369 242.515 405.683 242.529 410.189 239.93L448.631 217.785C450.848 216.507 451.971 214.841 452 213.161C452 213.089 452 213.017 452 212.931V212.945Z" fill="url(#paint4_linear_230_196)"/>
<path opacity="0.3" d="M440.036 210.288L412.493 226.358L402.026 230.121V241.868C404.978 241.868 407.944 241.222 410.19 239.93L448.632 217.785C450.849 216.507 451.972 214.841 452.001 213.161C452.001 213.089 452.001 213.017 452.001 212.931V204.243L449.798 203.022H449.567C448.819 207.057 444.039 209.714 440.022 210.274L440.036 210.288Z" fill="#0F054C"/>
<path d="M393.863 231.098L355.421 208.953C350.914 206.354 350.914 202.146 355.421 199.546L393.863 177.402C398.369 174.817 405.683 174.817 410.19 177.402L448.631 199.546C453.138 202.131 453.138 206.354 448.631 208.953L410.19 231.098C405.683 233.697 398.369 233.697 393.863 231.098Z" fill="url(#paint5_linear_230_196)"/>
<path d="M402.026 226.43C399.722 226.43 397.404 225.928 395.648 224.908L366.564 208.163C364.793 207.143 363.814 205.765 363.814 204.271C363.814 202.778 364.793 201.399 366.564 200.379L395.648 183.634C399.161 181.61 404.877 181.61 408.39 183.634L437.473 200.379C439.244 201.399 440.223 202.778 440.223 204.271C440.223 205.765 439.244 207.143 437.473 208.163L408.39 224.908C406.633 225.913 404.329 226.43 402.026 226.43ZM402.026 182.873C399.866 182.873 397.692 183.347 396.051 184.295L366.968 201.04C365.441 201.916 364.606 203.065 364.606 204.257C364.606 205.449 365.441 206.598 366.968 207.474L396.051 224.219C399.348 226.114 404.718 226.114 408.015 224.219L437.099 207.474C438.625 206.598 439.46 205.449 439.46 204.257C439.46 203.065 438.625 201.916 437.099 201.04L408.015 184.295C406.36 183.347 404.2 182.873 402.026 182.873Z" fill="#5351AF"/>
<path d="M448.631 208.967L410.19 231.112C405.683 233.711 398.369 233.711 393.863 231.112L355.421 208.967C353.405 207.804 352.297 206.325 352.081 204.803C351.822 206.684 352.93 208.608 355.421 210.044L393.863 232.189C398.369 234.774 405.683 234.774 410.19 232.189L448.631 210.044C451.122 208.608 452.231 206.684 451.972 204.803C451.756 206.325 450.647 207.804 448.631 208.967Z" fill="white"/>
<g opacity="0.3">
<path d="M370.149 316.905V308.202L367.731 306.866C367.054 310.974 362.202 313.674 358.156 314.234L330.585 330.318L318.548 334.655L280.135 314.88L281.028 314.363C277.745 312.826 275.974 309.336 274.203 306.134L271.612 307.671L270.071 308.101V317.02C270.071 318.729 271.194 320.423 273.455 321.73L311.94 343.889C316.446 346.488 323.775 346.488 328.281 343.889L366.766 321.73C368.983 320.452 370.106 318.786 370.149 317.106C370.149 317.034 370.149 316.962 370.149 316.876V316.905Z" fill="url(#paint6_linear_230_196)"/>
<path opacity="0.3" d="M358.17 314.248L330.599 330.332L320.117 334.109V345.871C323.083 345.871 326.035 345.225 328.295 343.918L366.78 321.759C368.997 320.481 370.12 318.815 370.163 317.135C370.163 317.063 370.163 316.991 370.163 316.905V308.202L367.961 306.981H367.73C366.982 311.017 362.187 313.688 358.185 314.234L358.17 314.248Z" fill="#0F054C"/>
<path d="M311.94 335.086L273.455 312.927C268.949 310.327 268.949 306.105 273.455 303.52L311.94 281.361C316.446 278.762 323.775 278.762 328.281 281.361L366.766 303.52C371.273 306.12 371.273 310.342 366.766 312.927L328.281 335.086C323.775 337.685 316.446 337.685 311.94 335.086Z" fill="url(#paint7_linear_230_196)"/>
<g opacity="0.3">
<path d="M311.94 335.086L273.455 312.927C268.949 310.327 268.949 306.105 273.455 303.52L311.94 281.361C316.446 278.762 323.775 278.762 328.281 281.361L366.766 303.52C371.273 306.12 371.273 310.342 366.766 312.927L328.281 335.086C323.775 337.685 316.446 337.685 311.94 335.086Z" fill="#0F054C"/>
</g>
</g>
<path d="M320.117 308.532C317.497 308.532 314.862 307.958 312.861 306.809L274.376 284.65C272.375 283.501 271.28 281.95 271.28 280.284C271.28 278.618 272.375 277.067 274.376 275.918L312.861 253.759C316.863 251.462 323.371 251.462 327.374 253.759L365.858 275.918C367.86 277.067 368.954 278.618 368.954 280.284C368.954 281.95 367.86 283.501 365.858 284.65L327.374 306.809C325.372 307.958 322.752 308.532 320.117 308.532ZM313.192 306.22C317.007 308.417 323.213 308.417 327.028 306.22L365.513 284.061C367.298 283.041 368.277 281.692 368.277 280.27C368.277 278.848 367.298 277.512 365.513 276.478L327.028 254.319C323.213 252.122 317.007 252.122 313.192 254.319L274.707 276.478C272.922 277.498 271.943 278.848 271.943 280.27C271.943 281.692 272.922 283.027 274.707 284.061L313.192 306.22Z" fill="#42E8E0"/>
<path opacity="0.4" d="M370.149 271.754V258.613L367.731 257.278C367.054 261.385 362.202 264.085 358.156 264.645L330.585 280.729L318.548 285.066L280.135 265.291L281.028 264.774C277.745 263.238 275.974 259.748 274.203 256.545L271.612 258.082L270.071 258.513V271.883C270.071 273.592 271.194 275.287 273.455 276.593L311.94 298.752C316.446 301.352 323.775 301.352 328.281 298.752L366.766 276.593C368.983 275.315 370.106 273.649 370.149 271.969C370.149 271.897 370.149 271.825 370.149 271.739V271.754Z" fill="#42E8E0"/>
<path d="M370.149 260.064V251.361L367.731 250.025C367.054 254.133 362.202 256.833 358.156 257.393L330.585 273.477L318.548 277.814L280.135 258.039L281.028 257.522C277.745 255.985 275.974 252.496 274.203 249.293L271.612 250.83L270.071 251.261V260.179C270.071 261.888 271.194 263.582 273.455 264.889L311.94 287.048C316.446 289.648 323.775 289.648 328.281 287.048L366.766 264.889C368.983 263.611 370.106 261.945 370.149 260.265C370.149 260.193 370.149 260.121 370.149 260.035V260.064Z" fill="url(#paint8_linear_230_196)"/>
<path opacity="0.3" d="M358.17 257.407L330.599 273.491L320.117 277.268V289.03C323.083 289.03 326.035 288.384 328.295 287.077L366.78 264.918C368.997 263.64 370.12 261.974 370.163 260.294C370.163 260.222 370.163 260.15 370.163 260.064V251.361L367.961 250.14H367.73C366.982 254.176 362.187 256.847 358.185 257.393L358.17 257.407Z" fill="#0F054C"/>
<path d="M281.028 257.536L317.497 236.526C318.937 235.693 321.283 235.693 322.738 236.526L358.573 257.163L358.17 257.393C362.216 256.833 367.068 254.133 367.745 250.025L327.532 227.708L315.827 224.621L306.296 230.207L274.203 249.307C275.974 252.496 277.745 256 281.028 257.536Z" fill="url(#paint9_linear_230_196)"/>
<path opacity="0.3" d="M320.117 225.77L315.827 224.635L306.296 230.222L274.203 249.322C275.974 252.51 277.745 256.014 281.028 257.551L317.497 236.54C318.217 236.124 319.167 235.923 320.117 235.923V225.784V225.77Z" fill="#0F054C"/>
<path d="M311.94 278.245L273.455 256.086C268.949 253.486 268.949 249.264 273.455 246.679L311.94 224.52C316.446 221.921 323.775 221.921 328.281 224.52L366.766 246.679C371.273 249.279 371.273 253.501 366.766 256.086L328.281 278.245C323.775 280.844 316.446 280.844 311.94 278.245ZM322.724 227.708C321.284 226.875 318.937 226.875 317.483 227.708L278.998 249.867C277.558 250.7 277.558 252.05 278.998 252.883L317.483 275.042C318.923 275.875 321.27 275.875 322.724 275.042L361.209 252.883C362.649 252.05 362.649 250.7 361.209 249.867L322.724 227.708Z" fill="url(#paint10_linear_230_196)"/>
<path d="M361.209 249.867L322.724 227.708C321.284 226.875 318.937 226.875 317.483 227.708L278.998 249.867C278.034 250.428 277.717 251.203 278.034 251.921C278.192 251.562 278.509 251.232 278.998 250.959L317.483 228.8C318.923 227.967 321.27 227.967 322.724 228.8L361.209 250.959C361.684 251.232 362.001 251.576 362.174 251.921C362.49 251.217 362.174 250.428 361.209 249.867Z" fill="white"/>
<path d="M366.766 256.086L328.281 278.245C323.775 280.844 316.447 280.844 311.94 278.245L273.455 256.086C271.44 254.923 270.331 253.443 270.115 251.921C269.856 253.802 270.964 255.741 273.455 257.163L311.94 279.322C316.447 281.921 323.775 281.921 328.281 279.322L366.766 257.163C369.257 255.727 370.366 253.788 370.107 251.921C369.891 253.443 368.782 254.923 366.766 256.086Z" fill="white"/>
<path d="M313.02 277.613L274.535 255.454C270.633 253.199 270.633 249.537 274.535 247.297L313.02 225.138C316.921 222.883 323.285 222.883 327.187 225.138L365.672 247.297C369.574 249.552 369.574 253.214 365.672 255.454L327.187 277.613C323.285 279.868 316.921 279.868 313.02 277.613ZM323.818 227.077C321.773 225.899 318.448 225.899 316.418 227.077L277.933 249.236C275.888 250.413 275.888 252.323 277.933 253.501L316.418 275.66C318.462 276.837 321.788 276.837 323.832 275.66L362.317 253.501C364.362 252.323 364.362 250.413 362.317 249.236L323.832 227.077H323.818Z" fill="url(#paint11_linear_230_196)"/>
<path opacity="0.4" d="M322.723 227.708C321.284 226.875 318.937 226.875 317.483 227.708L278.998 249.867C277.558 250.7 277.558 252.05 278.998 252.883L317.483 275.042C318.922 275.875 321.269 275.875 322.723 275.042L361.208 252.883C362.648 252.05 362.648 250.7 361.208 249.867L322.723 227.708Z" fill="#42E8E0"/>
<path style="mix-blend-mode:lighten" opacity="0.5" d="M362.288 251.347V114.429H277.918V251.347C277.918 251.907 278.264 252.467 278.998 252.883L317.483 275.042C318.922 275.875 321.269 275.875 322.723 275.042L361.208 252.883C361.943 252.467 362.303 251.907 362.288 251.347Z" fill="url(#paint12_linear_230_196)"/>
<path d="M280.351 207.919C276.248 212.098 265.449 217.684 262.095 214.41C258.74 211.136 264.125 200.25 268.228 196.071C272.332 191.892 278.364 191.16 281.719 194.434C285.073 197.708 284.454 203.74 280.351 207.919Z" fill="url(#paint13_radial_230_196)"/>
<path style="mix-blend-mode:lighten" d="M280.351 207.919C276.248 212.098 265.449 217.684 262.095 214.41C258.74 211.136 264.125 200.25 268.228 196.071C272.332 191.892 278.364 191.16 281.719 194.434C285.073 197.708 284.454 203.74 280.351 207.919Z" fill="url(#paint14_linear_230_196)"/>
<path d="M280.826 196.574C280.567 196.574 280.322 196.531 280.063 196.416C279.055 195.999 278.58 194.85 279.012 193.845L285.102 179.326C285.52 178.321 286.672 177.847 287.68 178.278C288.687 178.694 289.163 179.843 288.731 180.848L282.64 195.367C282.324 196.129 281.589 196.574 280.826 196.574Z" fill="#42E8E0"/>
<path d="M358.232 191.289L354.575 192.765L367.201 223.89L370.858 222.414L358.232 191.289Z" fill="#42E8E0"/>
<path d="M302.97 175.018C301.659 181.638 295.209 185.947 288.572 184.625C281.935 183.318 277.615 176.885 278.94 170.264C280.25 163.644 286.7 159.336 293.338 160.657C299.975 161.964 304.294 168.397 302.97 175.018Z" fill="url(#paint15_radial_230_196)"/>
<g style="mix-blend-mode:lighten">
<path d="M297.527 162.337C303.228 165.956 304.913 173.51 301.285 179.211C297.657 184.898 290.083 186.578 284.368 182.959C278.666 179.34 276.982 171.787 280.61 166.085C284.238 160.398 291.811 158.718 297.527 162.337Z" fill="url(#paint16_linear_230_196)"/>
</g>
<path d="M352.037 194.836C352.037 218.56 337.869 237.79 320.405 237.79C302.941 237.79 288.773 218.56 288.773 194.836C288.773 171.112 302.941 164.003 320.405 164.003C337.869 164.003 352.037 171.112 352.037 194.836Z" fill="url(#paint17_radial_230_196)"/>
<g style="mix-blend-mode:lighten">
<path d="M352.037 194.836C352.037 218.56 337.869 237.79 320.405 237.79C302.941 237.79 288.773 218.56 288.773 194.836C288.773 171.112 302.941 164.003 320.405 164.003C337.869 164.003 352.037 171.112 352.037 194.836Z" fill="url(#paint18_linear_230_196)"/>
</g>
<path d="M335.681 185.559C327.244 190.413 313.58 190.413 305.158 185.559C296.721 180.705 296.721 172.835 305.158 167.981C313.595 163.127 327.258 163.127 335.681 167.981C344.118 172.835 344.118 180.705 335.681 185.559Z" fill="#393091"/>
<path d="M305.143 171.284C313.581 166.43 327.244 166.43 335.667 171.284C339.151 173.294 341.195 175.808 341.8 178.421C342.664 174.716 340.619 170.824 335.667 167.981C327.229 163.127 313.566 163.127 305.143 167.981C300.191 170.824 298.161 174.716 299.01 178.421C299.615 175.808 301.659 173.294 305.143 171.284Z" fill="#42E8E0"/>
<path d="M310.989 130.829C310.989 136.616 306.914 143.668 301.889 146.554C296.865 149.455 292.79 147.1 292.79 141.312C292.79 135.525 296.865 128.474 301.889 125.587C306.914 122.686 310.989 125.041 310.989 130.829Z" fill="#BCBEFF"/>
<path d="M321.658 179.269C339.477 179.269 353.923 164.86 353.923 147.086C353.923 129.311 339.477 114.903 321.658 114.903C303.838 114.903 289.393 129.311 289.393 147.086C289.393 164.86 303.838 179.269 321.658 179.269Z" fill="url(#paint19_radial_230_196)"/>
<g style="mix-blend-mode:lighten">
<path d="M321.658 179.269C339.477 179.269 353.923 164.86 353.923 147.086C353.923 129.311 339.477 114.903 321.658 114.903C303.838 114.903 289.393 129.311 289.393 147.086C289.393 164.86 303.838 179.269 321.658 179.269Z" fill="url(#paint20_linear_230_196)"/>
</g>
<path d="M311.594 162.337C310.773 168.67 305.979 170.652 300.896 166.775C295.814 162.897 292.359 154.625 293.179 148.292C294 141.959 298.794 139.977 303.877 143.854C308.959 147.732 312.414 156.004 311.594 162.337Z" fill="#393091"/>
<path d="M307.404 156.851C307.102 159.149 305.36 159.867 303.517 158.46C301.674 157.052 300.421 154.051 300.709 151.739C301.011 149.441 302.754 148.723 304.597 150.13C306.439 151.538 307.692 154.539 307.404 156.851Z" fill="#42E8E0"/>
<path d="M303.344 165.855C298.262 161.978 294.806 153.706 295.627 147.373C295.958 144.788 296.951 142.935 298.362 141.901C295.699 142.145 293.697 144.4 293.179 148.292C292.359 154.625 295.814 162.897 300.896 166.774C303.905 169.072 306.814 169.302 308.858 167.808C307.202 167.966 305.288 167.349 303.344 165.855Z" fill="#453C9E"/>
<path d="M301.343 166.559C296.26 162.682 292.805 154.41 293.625 148.077C294.014 145.147 295.238 143.151 296.951 142.232C295.008 143.036 293.597 145.104 293.179 148.278C292.359 154.611 295.814 162.883 300.896 166.76C303.632 168.843 306.267 169.23 308.254 168.168C306.324 168.957 303.862 168.498 301.328 166.559H301.343Z" fill="#42E8E0"/>
<path d="M368.421 194.376C367.111 200.997 360.661 205.305 354.023 203.984C347.386 202.677 343.067 196.243 344.391 189.623C345.701 183.003 352.152 178.694 358.789 180.015C365.426 181.322 369.745 187.756 368.421 194.376Z" fill="url(#paint21_radial_230_196)"/>
<g style="mix-blend-mode:lighten">
<path d="M368.421 194.376C367.111 200.997 360.661 205.305 354.023 203.984C347.386 202.677 343.067 196.243 344.391 189.623C345.701 183.003 352.152 178.694 358.789 180.015C365.426 181.322 369.745 187.756 368.421 194.376Z" fill="url(#paint22_linear_230_196)"/>
</g>
<path d="M375.938 232.491C375.246 238.292 370.106 249.293 365.442 248.747C360.791 248.187 358.387 236.296 359.078 230.494C359.769 224.693 364.103 220.427 368.768 220.987C373.418 221.548 376.629 226.703 375.938 232.505V232.491Z" fill="url(#paint23_radial_230_196)"/>
<path style="mix-blend-mode:lighten" d="M375.938 232.491C375.246 238.292 370.106 249.293 365.442 248.747C360.791 248.187 358.387 236.296 359.078 230.494C359.769 224.693 364.103 220.427 368.768 220.987C373.418 221.548 376.629 226.703 375.938 232.505V232.491Z" fill="url(#paint24_linear_230_196)"/>
<g opacity="0.3">
<path d="M452 366.077V357.388L449.596 356.053C448.919 360.16 444.082 362.86 440.036 363.42L412.493 379.49L400.471 383.827L362.101 364.081L362.994 363.564C359.711 362.041 357.955 358.537 356.169 355.349L353.592 356.886L352.052 357.317V366.221C352.052 367.929 353.175 369.624 355.421 370.917L393.863 393.061C398.369 395.646 405.683 395.646 410.189 393.061L448.631 370.917C450.848 369.638 451.971 367.973 452 366.292C452 366.221 452 366.149 452 366.063V366.077Z" fill="url(#paint25_linear_230_196)"/>
<path opacity="0.3" d="M440.036 363.42L412.493 379.49L402.026 383.253V395C404.978 395 407.944 394.354 410.19 393.061L448.632 370.917C450.849 369.638 451.972 367.973 452.001 366.292C452.001 366.221 452.001 366.149 452.001 366.063V357.374L449.798 356.153H449.567C448.819 360.189 444.039 362.846 440.022 363.406L440.036 363.42Z" fill="#0F054C"/>
<path d="M393.863 384.229L355.421 362.085C350.914 359.485 350.914 355.277 355.421 352.678L393.863 330.533C398.369 327.948 405.683 327.948 410.19 330.533L448.631 352.678C453.138 355.263 453.138 359.485 448.631 362.085L410.19 384.229C405.683 386.814 398.369 386.814 393.863 384.229Z" fill="url(#paint26_linear_230_196)"/>
<g opacity="0.3">
<path d="M393.863 384.229L355.421 362.085C350.914 359.485 350.914 355.277 355.421 352.678L393.863 330.533C398.369 327.948 405.683 327.948 410.19 330.533L448.631 352.678C453.138 355.263 453.138 359.485 448.631 362.085L410.19 384.229C405.683 386.814 398.369 386.814 393.863 384.229Z" fill="#0F054C"/>
</g>
</g>
<path d="M402.026 356.24C399.406 356.24 396.771 355.665 394.784 354.516L356.343 332.372C354.341 331.223 353.247 329.672 353.247 328.006C353.247 326.34 354.341 324.789 356.343 323.64L394.784 301.495C398.787 299.198 405.28 299.198 409.283 301.495L447.724 323.64C449.726 324.789 450.82 326.34 450.82 328.006C450.82 329.672 449.726 331.223 447.724 332.372L409.283 354.516C407.281 355.665 404.661 356.24 402.041 356.24H402.026ZM402.026 300.447C399.521 300.447 397.016 300.993 395.115 302.084L356.674 324.229C354.888 325.249 353.909 326.598 353.909 328.02C353.909 329.442 354.888 330.778 356.674 331.812L395.115 353.956C398.931 356.153 405.122 356.153 408.937 353.956L447.379 331.812C449.164 330.792 450.143 329.442 450.143 328.02C450.143 326.598 449.164 325.263 447.379 324.229L408.937 302.084C407.037 300.993 404.532 300.447 402.026 300.447Z" fill="#42E8E0"/>
<path opacity="0.4" d="M452 319.518V306.392L449.596 305.057C448.919 309.164 444.082 311.864 440.036 312.424L412.493 328.494L400.471 332.831L362.101 313.085L362.994 312.568C359.711 311.045 357.955 307.541 356.169 304.353L353.592 305.89L352.052 306.321V319.676C352.052 321.385 353.175 323.08 355.421 324.372L393.863 346.517C398.369 349.102 405.683 349.102 410.189 346.517L448.631 324.372C450.848 323.094 451.971 321.428 452 319.748C452 319.676 452 319.605 452 319.518Z" fill="#42E8E0"/>
<path d="M452 307.843V299.155L449.596 297.819C448.919 301.926 444.082 304.626 440.036 305.186L412.493 321.256L400.471 325.593L362.101 305.847L362.994 305.33C359.711 303.807 357.955 300.303 356.169 297.115L353.592 298.652L352.052 299.083V307.987C352.052 309.696 353.175 311.39 355.421 312.683L393.863 334.827C398.369 337.412 405.683 337.412 410.189 334.827L448.631 312.683C450.848 311.404 451.971 309.739 452 308.058C452 307.987 452 307.915 452 307.829V307.843Z" fill="url(#paint27_linear_230_196)"/>
<path opacity="0.3" d="M440.036 305.186L412.493 321.256L402.026 325.019V336.766C404.978 336.766 407.944 336.12 410.19 334.827L448.632 312.683C450.849 311.404 451.972 309.739 452.001 308.058C452.001 307.987 452.001 307.915 452.001 307.829V299.14L449.798 297.919H449.567C448.819 301.955 444.039 304.612 440.022 305.172L440.036 305.186Z" fill="#0F054C"/>
<path d="M393.863 325.995L355.421 303.851C350.914 301.251 350.914 297.043 355.421 294.444L393.863 272.299C398.369 269.714 405.683 269.714 410.19 272.299L448.631 294.444C453.138 297.029 453.138 301.251 448.631 303.851L410.19 325.995C405.683 328.595 398.369 328.58 393.863 325.995Z" fill="url(#paint28_linear_230_196)"/>
<path d="M448.631 303.865L410.19 326.01C405.683 328.609 398.369 328.595 393.863 326.01L355.421 303.865C353.405 302.702 352.297 301.223 352.081 299.7C351.822 301.582 352.93 303.506 355.421 304.942L393.863 327.087C398.369 329.672 405.683 329.686 410.19 327.087L448.631 304.942C451.122 303.506 452.231 301.582 451.972 299.7C451.756 301.223 450.647 302.702 448.631 303.865Z" fill="white"/>
</g>
<defs>
<linearGradient id="paint0_linear_230_196" x1="385.915" y1="159.12" x2="37.7078" y2="159.12" gradientUnits="userSpaceOnUse">
<stop stop-color="#42E8E0"/>
<stop offset="0.11" stop-color="#36B5BF"/>
<stop offset="0.22" stop-color="#2C87A0"/>
<stop offset="0.34" stop-color="#235F86"/>
<stop offset="0.46" stop-color="#1B3E71"/>
<stop offset="0.58" stop-color="#162560"/>
<stop offset="0.71" stop-color="#121355"/>
<stop offset="0.85" stop-color="#0F084E"/>
<stop offset="1" stop-color="#0F054C"/>
</linearGradient>
<linearGradient id="paint1_linear_230_196" x1="404.2" y1="171.988" x2="60.7439" y2="171.988" gradientUnits="userSpaceOnUse">
<stop stop-color="#42E8E0"/>
<stop offset="0.11" stop-color="#36B5BF"/>
<stop offset="0.22" stop-color="#2C87A0"/>
<stop offset="0.34" stop-color="#235F86"/>
<stop offset="0.46" stop-color="#1B3E71"/>
<stop offset="0.58" stop-color="#162560"/>
<stop offset="0.71" stop-color="#121355"/>
<stop offset="0.85" stop-color="#0F084E"/>
<stop offset="1" stop-color="#0F054C"/>
</linearGradient>
<linearGradient id="paint2_linear_230_196" x1="361.986" y1="245.229" x2="441.202" y2="291.072" gradientUnits="userSpaceOnUse">
<stop stop-color="#BCBEFF"/>
<stop offset="0.23" stop-color="#AAADF7"/>
<stop offset="0.68" stop-color="#7B82E5"/>
<stop offset="1" stop-color="#5761D7"/>
</linearGradient>
<linearGradient id="paint3_linear_230_196" x1="352.037" y1="262.491" x2="452" y2="262.491" gradientUnits="userSpaceOnUse">
<stop stop-color="#E9E9FD"/>
<stop offset="0.36" stop-color="#D2D2F9"/>
<stop offset="0.71" stop-color="#C4C3F6"/>
<stop offset="1" stop-color="#C0BFF6"/>
</linearGradient>
<linearGradient id="paint4_linear_230_196" x1="361.986" y1="186.995" x2="441.202" y2="232.852" gradientUnits="userSpaceOnUse">
<stop stop-color="#BCBEFF"/>
<stop offset="0.23" stop-color="#AAADF7"/>
<stop offset="0.68" stop-color="#7B82E5"/>
<stop offset="1" stop-color="#5761D7"/>
</linearGradient>
<linearGradient id="paint5_linear_230_196" x1="0.000298536" y1="204.257" x2="1.44006" y2="204.257" gradientUnits="userSpaceOnUse">
<stop stop-color="#E9E9FD"/>
<stop offset="0.36" stop-color="#D2D2F9"/>
<stop offset="0.71" stop-color="#C4C3F6"/>
<stop offset="1" stop-color="#C0BFF6"/>
</linearGradient>
<linearGradient id="paint6_linear_230_196" x1="280.034" y1="290.926" x2="359.336" y2="336.826" gradientUnits="userSpaceOnUse">
<stop stop-color="#BCBEFF"/>
<stop offset="0.23" stop-color="#AAADF7"/>
<stop offset="0.68" stop-color="#7B82E5"/>
<stop offset="1" stop-color="#5761D7"/>
</linearGradient>
<linearGradient id="paint7_linear_230_196" x1="270.072" y1="308.216" x2="370.15" y2="308.216" gradientUnits="userSpaceOnUse">
<stop stop-color="#E9E9FD"/>
<stop offset="0.36" stop-color="#D2D2F9"/>
<stop offset="0.71" stop-color="#C4C3F6"/>
<stop offset="1" stop-color="#C0BFF6"/>
</linearGradient>
<linearGradient id="paint8_linear_230_196" x1="280.034" y1="234.085" x2="359.336" y2="279.985" gradientUnits="userSpaceOnUse">
<stop stop-color="#BCBEFF"/>
<stop offset="0.23" stop-color="#AAADF7"/>
<stop offset="0.68" stop-color="#7B82E5"/>
<stop offset="1" stop-color="#5761D7"/>
</linearGradient>
<linearGradient id="paint9_linear_230_196" x1="284.8" y1="231.011" x2="355.517" y2="271.938" gradientUnits="userSpaceOnUse">
<stop offset="0.24" stop-color="#5761D7"/>
<stop offset="0.39" stop-color="#7A81E5"/>
<stop offset="0.55" stop-color="#979BF0"/>
<stop offset="0.7" stop-color="#ABAEF8"/>
<stop offset="0.85" stop-color="#B7BAFD"/>
<stop offset="1" stop-color="#BCBEFF"/>
</linearGradient>
<linearGradient id="paint10_linear_230_196" x1="270.072" y1="251.375" x2="370.15" y2="251.375" gradientUnits="userSpaceOnUse">
<stop stop-color="#E9E9FD"/>
<stop offset="0.36" stop-color="#D2D2F9"/>
<stop offset="0.71" stop-color="#C4C3F6"/>
<stop offset="1" stop-color="#C0BFF6"/>
</linearGradient>
<linearGradient id="paint11_linear_230_196" x1="271.612" y1="251.375" x2="368.609" y2="251.375" gradientUnits="userSpaceOnUse">
<stop stop-color="#E9E9FD"/>
<stop offset="0.36" stop-color="#D2D2F9"/>
<stop offset="0.71" stop-color="#C4C3F6"/>
<stop offset="1" stop-color="#C0BFF6"/>
</linearGradient>
<linearGradient id="paint12_linear_230_196" x1="320.103" y1="275.66" x2="320.103" y2="114.429" gradientUnits="userSpaceOnUse">
<stop stop-color="#42E8E0"/>
<stop offset="0.11" stop-color="#36B5BF"/>
<stop offset="0.22" stop-color="#2C87A0"/>
<stop offset="0.34" stop-color="#235F86"/>
<stop offset="0.46" stop-color="#1B3E71"/>
<stop offset="0.58" stop-color="#162560"/>
<stop offset="0.71" stop-color="#121355"/>
<stop offset="0.85" stop-color="#0F084E"/>
<stop offset="1" stop-color="#0F054C"/>
</linearGradient>
<radialGradient id="paint13_radial_230_196" cx="0" cy="0" r="1" gradientUnits="userSpaceOnUse" gradientTransform="translate(279.555 189.151) rotate(44.327) scale(21.7623 35.7165)">
<stop stop-color="#C0BFF6"/>
<stop offset="1" stop-color="#393091"/>
</radialGradient>
<linearGradient id="paint14_linear_230_196" x1="277.423" y1="193.997" x2="258.045" y2="194.84" gradientUnits="userSpaceOnUse">
<stop stop-color="#41E6DF"/>
<stop offset="0.14" stop-color="#3FB6CA"/>
<stop offset="0.27" stop-color="#3D8CB8"/>
<stop offset="0.41" stop-color="#3B6BAA"/>
<stop offset="0.55" stop-color="#3A519F"/>
<stop offset="0.69" stop-color="#393E97"/>
<stop offset="0.84" stop-color="#393392"/>
<stop offset="1" stop-color="#393091"/>
</linearGradient>
<radialGradient id="paint15_radial_230_196" cx="0" cy="0" r="1" gradientUnits="userSpaceOnUse" gradientTransform="translate(349.562 133.623) rotate(11.1722) scale(70.7145 70.5481)">
<stop stop-color="#C0BFF6"/>
<stop offset="1" stop-color="#393091"/>
</radialGradient>
<linearGradient id="paint16_linear_230_196" x1="284.45" y1="182.985" x2="297.565" y2="162.338" gradientUnits="userSpaceOnUse">
<stop stop-color="#41E6DF"/>
<stop offset="0.14" stop-color="#3FB6CA"/>
<stop offset="0.27" stop-color="#3D8CB8"/>
<stop offset="0.41" stop-color="#3B6BAA"/>
<stop offset="0.55" stop-color="#3A519F"/>
<stop offset="0.69" stop-color="#393E97"/>
<stop offset="0.84" stop-color="#393392"/>
<stop offset="1" stop-color="#393091"/>
</linearGradient>
<radialGradient id="paint17_radial_230_196" cx="0" cy="0" r="1" gradientUnits="userSpaceOnUse" gradientTransform="translate(341.407 188.665) scale(54.4888 73.8605)">
<stop stop-color="#C0BFF6"/>
<stop offset="1" stop-color="#393091"/>
</radialGradient>
<linearGradient id="paint18_linear_230_196" x1="322.697" y1="238.093" x2="322.697" y2="164.263" gradientUnits="userSpaceOnUse">
<stop stop-color="#41E6DF"/>
<stop offset="0.14" stop-color="#3FB6CA"/>
<stop offset="0.27" stop-color="#3D8CB8"/>
<stop offset="0.41" stop-color="#3B6BAA"/>
<stop offset="0.55" stop-color="#3A519F"/>
<stop offset="0.69" stop-color="#393E97"/>
<stop offset="0.84" stop-color="#393392"/>
<stop offset="1" stop-color="#393091"/>
</linearGradient>
<radialGradient id="paint19_radial_230_196" cx="0" cy="0" r="1" gradientUnits="userSpaceOnUse" gradientTransform="translate(341.8 142.318) scale(54.5239 54.3852)">
<stop stop-color="#C0BFF6"/>
<stop offset="1" stop-color="#393091"/>
</radialGradient>
<linearGradient id="paint20_linear_230_196" x1="317.18" y1="178.967" x2="326.105" y2="115.212" gradientUnits="userSpaceOnUse">
<stop stop-color="#41E6DF"/>
<stop offset="0.14" stop-color="#3FB6CA"/>
<stop offset="0.27" stop-color="#3D8CB8"/>
<stop offset="0.41" stop-color="#3B6BAA"/>
<stop offset="0.55" stop-color="#3A519F"/>
<stop offset="0.69" stop-color="#393E97"/>
<stop offset="0.84" stop-color="#393392"/>
<stop offset="1" stop-color="#393091"/>
</linearGradient>
<radialGradient id="paint21_radial_230_196" cx="0" cy="0" r="1" gradientUnits="userSpaceOnUse" gradientTransform="translate(363.683 184.035) rotate(11.1722) scale(25.5534 25.4933)">
<stop stop-color="#C0BFF6"/>
<stop offset="1" stop-color="#393091"/>
</radialGradient>
<linearGradient id="paint22_linear_230_196" x1="346.511" y1="199.192" x2="366.295" y2="184.774" gradientUnits="userSpaceOnUse">
<stop stop-color="#41E6DF"/>
<stop offset="0.14" stop-color="#3FB6CA"/>
<stop offset="0.27" stop-color="#3D8CB8"/>
<stop offset="0.41" stop-color="#3B6BAA"/>
<stop offset="0.55" stop-color="#3A519F"/>
<stop offset="0.69" stop-color="#393E97"/>
<stop offset="0.84" stop-color="#393392"/>
<stop offset="1" stop-color="#393091"/>
</linearGradient>
<radialGradient id="paint23_radial_230_196" cx="0" cy="0" r="1" gradientUnits="userSpaceOnUse" gradientTransform="translate(379.401 227.568) rotate(6.78287) scale(21.7886 35.6733)">
<stop stop-color="#C0BFF6"/>
<stop offset="1" stop-color="#393091"/>
</radialGradient>
<linearGradient id="paint24_linear_230_196" x1="359.022" y1="234.54" x2="375.922" y2="236.56" gradientUnits="userSpaceOnUse">
<stop stop-color="#41E6DF"/>
<stop offset="0.14" stop-color="#3FB6CA"/>
<stop offset="0.27" stop-color="#3D8CB8"/>
<stop offset="0.41" stop-color="#3B6BAA"/>
<stop offset="0.55" stop-color="#3A519F"/>
<stop offset="0.69" stop-color="#393E97"/>
<stop offset="0.84" stop-color="#393392"/>
<stop offset="1" stop-color="#393091"/>
</linearGradient>
<linearGradient id="paint25_linear_230_196" x1="361.986" y1="340.127" x2="441.202" y2="385.969" gradientUnits="userSpaceOnUse">
<stop stop-color="#BCBEFF"/>
<stop offset="0.23" stop-color="#AAADF7"/>
<stop offset="0.68" stop-color="#7B82E5"/>
<stop offset="1" stop-color="#5761D7"/>
</linearGradient>
<linearGradient id="paint26_linear_230_196" x1="0.000298536" y1="357.388" x2="1.44006" y2="357.388" gradientUnits="userSpaceOnUse">
<stop stop-color="#E9E9FD"/>
<stop offset="0.36" stop-color="#D2D2F9"/>
<stop offset="0.71" stop-color="#C4C3F6"/>
<stop offset="1" stop-color="#C0BFF6"/>
</linearGradient>
<linearGradient id="paint27_linear_230_196" x1="361.986" y1="281.893" x2="441.202" y2="327.75" gradientUnits="userSpaceOnUse">
<stop stop-color="#BCBEFF"/>
<stop offset="0.23" stop-color="#AAADF7"/>
<stop offset="0.68" stop-color="#7B82E5"/>
<stop offset="1" stop-color="#5761D7"/>
</linearGradient>
<linearGradient id="paint28_linear_230_196" x1="0.000298536" y1="299.155" x2="1.44006" y2="299.155" gradientUnits="userSpaceOnUse">
<stop stop-color="#E9E9FD"/>
<stop offset="0.36" stop-color="#D2D2F9"/>
<stop offset="0.71" stop-color="#C4C3F6"/>
<stop offset="1" stop-color="#C0BFF6"/>
</linearGradient>
<clipPath id="clip0_230_196">
<rect width="452" height="395" fill="white"/>
</clipPath>
</defs>
</svg>
