<svg width="52" height="52" viewBox="0 0 52 52" fill="none" xmlns="http://www.w3.org/2000/svg">
<g clip-path="url(#clip0_230_859)">
<path fill-rule="evenodd" clip-rule="evenodd" d="M27.6733 43.0848C25.5246 44.313 23.1427 45.1913 20.5998 45.6346L19.9376 45.7503C19.8446 45.7666 19.7495 45.7666 19.6566 45.7503L18.9947 45.6346C8.53794 43.8116 0.808594 34.6341 0.808594 24.0138V9.31911C0.808594 8.99284 1.00303 8.69787 1.3029 8.5694L19.4757 0.779693C19.6809 0.691701 19.9132 0.691701 20.1184 0.779693L38.2912 8.5694C38.5911 8.69787 38.7855 8.99284 38.7855 9.31911V24.0138C38.7855 24.2916 38.7802 24.5685 38.7697 24.8442H39.6498C39.9874 24.8442 40.2902 25.0521 40.4112 25.3672L41.0515 27.0337C41.9381 27.2805 42.7905 27.6337 43.5929 28.0868L45.2236 27.3618C45.5321 27.2246 45.8931 27.2916 46.1318 27.5303L48.5047 29.9033C48.7431 30.1416 48.8103 30.5021 48.6738 30.8103L47.9512 32.4415C48.4048 33.2445 48.7582 34.0979 49.0052 34.9873L50.6682 35.6273C50.9832 35.7486 51.1909 36.0512 51.1909 36.3886V39.7451C51.1909 40.0826 50.9832 40.3852 50.6682 40.5065C50.6682 40.5065 49.0046 41.1467 49.0047 41.1467C48.7574 42.0332 48.4024 42.8857 47.9508 43.688L48.6738 45.32C48.8103 45.6283 48.7431 45.9888 48.5047 46.2272L46.1318 48.6001C45.8934 48.8385 45.533 48.9057 45.2247 48.7691L43.5941 48.0468C42.7931 48.5 41.9385 48.8533 41.0512 49.1002L40.4111 50.7635C40.2899 51.0785 39.9872 51.2863 39.6498 51.2863H36.2933C35.9558 51.2863 35.6532 51.0785 35.5321 50.7635L34.8919 49.1003C34.0028 48.853 33.1497 48.498 32.3471 48.0462L30.715 48.7691C30.4068 48.9057 30.0463 48.8385 29.8079 48.6001L27.4349 46.2272C27.1962 45.9885 27.1293 45.6275 27.2664 45.319L27.9912 43.6888C27.8792 43.4907 27.7731 43.2892 27.6733 43.0848ZM37.1371 24.8442C37.1484 24.5685 37.1541 24.2917 37.1541 24.0138V9.85685L19.7971 2.41688L2.43997 9.85685V24.0138C2.43997 33.8449 9.59527 42.34 19.2749 44.0275L19.7971 44.1188L20.3192 44.0275C22.7493 43.6038 25.0203 42.7509 27.0588 41.5555C27.0154 41.4202 26.9745 41.284 26.936 41.1471L25.2714 40.5065C24.9566 40.3852 24.7488 40.0826 24.7488 39.7451V39.1812C23.2667 39.9594 21.6535 40.5282 19.9455 40.8445C19.8473 40.8626 19.7467 40.8626 19.6485 40.8445C11.5907 39.3516 5.63888 32.2273 5.63888 24.0138V12.5007C5.63888 12.1743 5.83343 11.8795 6.13339 11.7509L19.4759 6.03598C19.6809 5.94819 19.913 5.94819 20.1181 6.03598L33.4652 11.7509C33.7653 11.8793 33.9598 12.1743 33.9598 12.5007V24.0138C33.9598 25.195 33.8369 26.3536 33.6021 27.4762C34.0215 27.3032 34.4511 27.1553 34.8889 27.0335L35.5323 25.3662C35.6537 25.0516 35.9561 24.8442 36.2933 24.8442H37.1371ZM24.7488 37.3109V36.3886C24.7488 36.0512 24.9566 35.7486 25.2714 35.6273L26.9357 34.9868C27.1846 34.0978 27.5382 33.2447 27.9914 32.4422L27.2664 30.8114C27.1293 30.503 27.1962 30.142 27.4349 29.9033L29.8079 27.5303C30.0466 27.2916 30.4076 27.2246 30.716 27.3618C30.716 27.3618 31.3587 27.6475 31.8371 27.8603C32.1582 26.6247 32.3284 25.3348 32.3284 24.0138V13.0387L19.7971 7.67316L7.27026 13.0386V24.0138C7.27026 31.394 12.5825 37.802 19.7973 39.2121C21.5815 38.8635 23.2491 38.2095 24.7488 37.3109ZM17.1197 14.1522H22.4744C22.9249 14.1522 23.2901 14.5174 23.2901 14.9678V19.745H28.0673C28.5178 19.745 28.883 20.1102 28.883 20.5607V25.9155C28.883 26.366 28.5178 26.7312 28.0673 26.7312H23.2901V31.5084C23.2901 31.9589 22.9249 32.3241 22.4744 32.3241H17.1197C16.6692 32.3241 16.304 31.9589 16.304 31.5084V26.7312H11.5268C11.0763 26.7312 10.7111 26.366 10.7111 25.9155V20.5607C10.7111 20.1102 11.0763 19.745 11.5268 19.745H16.304V14.9678C16.304 14.5174 16.6692 14.1522 17.1197 14.1522ZM17.9354 15.7835V20.5607C17.9354 21.0113 17.5701 21.3764 17.1197 21.3764H12.3425V25.0998H17.1197C17.5701 25.0998 17.9354 25.465 17.9354 25.9155V30.6927H21.6588V25.9155C21.6588 25.465 22.024 25.0998 22.4744 25.0998H27.2516V21.3764H22.4744C22.024 21.3764 21.6588 21.0113 21.6588 20.5607V15.7835H17.9354ZM39.6794 28.011L39.0894 26.4755H36.8529L36.26 28.012C36.1631 28.2628 35.9491 28.4498 35.6875 28.5119C34.6769 28.7521 33.7131 29.1514 32.8271 29.6973C32.5979 29.8385 32.3139 29.8576 32.0678 29.7482L30.5652 29.08L28.9847 30.6606L29.6528 32.1632C29.7622 32.4093 29.7431 32.6933 29.6019 32.9225C29.0557 33.809 28.6562 34.7735 28.4128 35.788C28.3501 36.049 28.1631 36.2625 27.9126 36.3589L26.3802 36.9487V39.1851L27.9126 39.7749C28.1629 39.8713 28.3499 40.0845 28.4126 40.3453C28.656 41.3562 29.0552 42.3237 29.6013 43.2068C29.7431 43.4361 29.7624 43.7208 29.6528 43.9672L28.9847 45.4698L30.5658 47.0509L32.0689 46.3851C32.314 46.2765 32.5968 46.2954 32.8254 46.4354C33.7118 46.9784 34.676 47.3814 35.6903 47.6217C35.9523 47.6838 36.1669 47.8712 36.2635 48.1224L36.8534 49.6549H39.0898L39.6795 48.1224C39.7762 47.8713 39.9904 47.684 40.2522 47.6218C41.2625 47.3818 42.229 46.9828 43.1114 46.4372C43.3404 46.2956 43.6246 46.2761 43.8708 46.3851L45.3739 47.0509L46.9555 45.4692L46.2898 43.9661C46.1812 43.7211 46.2 43.4382 46.3401 43.2097C46.8831 42.3232 47.2861 41.3589 47.5265 40.3475C47.5887 40.0858 47.776 39.8716 48.027 39.7749L49.5595 39.1851V36.9487L48.027 36.3589C47.7758 36.2621 47.5884 36.0477 47.5263 35.7857C47.2862 34.772 46.8869 33.8083 46.3411 32.9225C46.2001 32.6936 46.1809 32.4101 46.2898 32.1642L46.9555 30.6611L45.3744 29.08L43.8718 29.7482C43.6258 29.8576 43.3417 29.8385 43.1125 29.6973C42.2267 29.1514 41.2629 28.7521 40.2522 28.5119C39.9903 28.4497 39.776 28.2622 39.6794 28.011ZM37.9698 31.3949C41.6553 31.3949 44.6435 34.3797 44.6435 38.0652C44.6435 41.7505 41.6551 44.7388 37.9698 44.7388C34.2845 44.7388 31.2997 41.7506 31.2997 38.0652C31.2997 34.3796 34.2843 31.3949 37.9698 31.3949ZM37.9698 33.0263C35.1857 33.0263 32.931 35.2811 32.931 38.0652C32.931 40.8495 35.1856 43.1074 37.9698 43.1074C40.7543 43.1074 43.0121 40.8497 43.0121 38.0652C43.0121 35.2809 40.7542 33.0263 37.9698 33.0263Z" fill="#29ABE2"/>
</g>
<defs>
<clipPath id="clip0_230_859">
<rect width="52" height="52" fill="white"/>
</clipPath>
</defs>
</svg>
