<svg width="46" height="46" viewBox="0 0 46 46" fill="none" xmlns="http://www.w3.org/2000/svg">
<path d="M33.7813 12.2187C33.7813 10.0864 33.1489 8.00197 31.9643 6.22901C30.7796 4.45604 29.0958 3.07418 27.1258 2.25817C25.1558 1.44216 22.988 1.22866 20.8967 1.64466C18.8053 2.06065 16.8843 3.08747 15.3765 4.59525C13.8687 6.10304 12.8419 8.02407 12.4259 10.1154C12.0099 12.2068 12.2234 14.3745 13.0394 16.3446C13.8554 18.3146 15.2373 19.9984 17.0103 21.183C18.7832 22.3677 20.8677 23 23 23C25.8584 22.9968 28.5987 21.8598 30.6199 19.8387C32.6411 17.8175 33.778 15.0771 33.7813 12.2187ZM23 21.5625C21.152 21.5625 19.3455 21.0145 17.8089 19.9878C16.2723 18.9611 15.0747 17.5018 14.3675 15.7944C13.6603 14.0871 13.4753 12.2084 13.8358 10.3959C14.1963 8.58336 15.0862 6.91846 16.393 5.61172C17.6997 4.30497 19.3646 3.41507 21.1771 3.05453C22.9896 2.694 24.8684 2.87904 26.5757 3.58625C28.283 4.29345 29.7423 5.49107 30.769 7.02764C31.7958 8.56421 32.3438 10.3707 32.3438 12.2187C32.3409 14.696 31.3556 17.0709 29.6039 18.8226C27.8522 20.5743 25.4772 21.5596 23 21.5625Z" fill="#44B5E6"/>
<path d="M23 4.3125C21.4363 4.3125 19.9077 4.77619 18.6075 5.64494C17.3073 6.51369 16.294 7.74848 15.6956 9.19316C15.0972 10.6378 14.9406 12.2275 15.2457 13.7612C15.5507 15.2948 16.3037 16.7036 17.4094 17.8093C18.5151 18.915 19.9239 19.668 21.4576 19.9731C22.9912 20.2781 24.5809 20.1216 26.0256 19.5232C27.4703 18.9248 28.7051 17.9114 29.5738 16.6112C30.4426 15.3111 30.9063 13.7825 30.9063 12.2188C30.9038 10.1226 30.07 8.11309 28.5878 6.63092C27.1057 5.14874 25.0961 4.31497 23 4.3125ZM23 18.6875C21.7206 18.6875 20.4699 18.3081 19.4062 17.5973C18.3424 16.8865 17.5133 15.8762 17.0237 14.6942C16.5341 13.5122 16.4059 12.2116 16.6555 10.9568C16.9051 9.70195 17.5212 8.54932 18.4259 7.64465C19.3306 6.73998 20.4832 6.12389 21.738 5.8743C22.9928 5.6247 24.2935 5.7528 25.4755 6.2424C26.6575 6.73201 27.6678 7.56112 28.3786 8.62491C29.0894 9.68869 29.4688 10.9394 29.4688 12.2188C29.4667 13.9337 28.7845 15.5779 27.5718 16.7905C26.3591 18.0032 24.715 18.6854 23 18.6875Z" fill="#44B5E6"/>
<path d="M23 10.0625C23.8776 10.0625 24.4375 10.488 24.4375 10.7812C24.4375 10.9719 24.5132 11.1547 24.648 11.2895C24.7828 11.4243 24.9656 11.5 25.1562 11.5C25.3469 11.5 25.5297 11.4243 25.6645 11.2895C25.7993 11.1547 25.875 10.9719 25.875 10.7812C25.875 9.75991 24.9701 8.93334 23.7188 8.69688V7.90625C23.7188 7.71563 23.643 7.53281 23.5082 7.39802C23.3734 7.26323 23.1906 7.1875 23 7.1875C22.8094 7.1875 22.6266 7.26323 22.4918 7.39802C22.357 7.53281 22.2812 7.71563 22.2812 7.90625V8.69688C21.0299 8.93191 20.125 9.75847 20.125 10.7812C20.125 11.9902 21.3878 12.9375 23 12.9375C23.8776 12.9375 24.4375 13.363 24.4375 13.6562C24.4375 13.9495 23.8776 14.375 23 14.375C22.1224 14.375 21.5625 13.9495 21.5625 13.6562C21.5625 13.4656 21.4868 13.2828 21.352 13.148C21.2172 13.0132 21.0344 12.9375 20.8438 12.9375C20.6531 12.9375 20.4703 13.0132 20.3355 13.148C20.2007 13.2828 20.125 13.4656 20.125 13.6562C20.125 14.6776 21.0299 15.5042 22.2812 15.7406V16.5312C22.2812 16.7219 22.357 16.9047 22.4918 17.0395C22.6266 17.1743 22.8094 17.25 23 17.25C23.1906 17.25 23.3734 17.1743 23.5082 17.0395C23.643 16.9047 23.7188 16.7219 23.7188 16.5312V15.7406C24.9701 15.5056 25.875 14.679 25.875 13.6562C25.875 12.4473 24.6122 11.5 23 11.5C22.1224 11.5 21.5625 11.0745 21.5625 10.7812C21.5625 10.488 22.1224 10.0625 23 10.0625Z" fill="#44B5E6"/>
<path d="M42.9309 13.1962C42.9455 13.0698 42.9527 12.9426 42.9525 12.8153C42.949 12.1565 42.7205 11.5186 42.3048 11.0075C41.8891 10.4964 41.3112 10.1427 40.6669 10.005C39.9382 9.86768 39.1846 10.0116 38.5578 10.4077C37.931 10.8037 37.4775 11.4226 37.2887 12.1397L34.1262 21.2391C34.0794 21.2577 34.0338 21.2793 33.9897 21.3037L27.6359 25.0269C26.6637 25.598 25.8572 26.4129 25.2963 27.391C24.7354 28.3692 24.4394 29.4768 24.4375 30.6044V38.8125C24.2469 38.8125 24.0641 38.8882 23.9293 39.023C23.7945 39.1578 23.7188 39.3406 23.7188 39.5312V43.8438C23.7188 44.0344 23.7945 44.2172 23.9293 44.352C24.0641 44.4868 24.2469 44.5625 24.4375 44.5625H34.5C34.6906 44.5625 34.8734 44.4868 35.0082 44.352C35.143 44.2172 35.2187 44.0344 35.2187 43.8438V39.5312C35.2187 39.3406 35.143 39.1578 35.0082 39.023C34.8734 38.8882 34.6906 38.8125 34.5 38.8125V35.7937C34.5013 35.4902 34.566 35.1902 34.6897 34.913C34.8135 34.6358 34.9936 34.3874 35.2187 34.1838L40.0775 29.8641C40.609 29.399 40.9894 28.7858 41.17 28.1031L44.2894 16.4378C44.356 16.1942 44.3898 15.9428 44.39 15.6903C44.3872 15.1831 44.2508 14.6856 43.9947 14.2477C43.7386 13.8099 43.3717 13.4473 42.9309 13.1962ZM38.6616 12.5637C38.7498 12.192 38.9749 11.8673 39.2919 11.6541C39.609 11.441 39.9947 11.3551 40.3722 11.4137C40.6943 11.4812 40.9836 11.6572 41.1916 11.9123C41.3996 12.1674 41.5138 12.4862 41.515 12.8153V12.8225C40.8726 12.8368 40.2523 13.0599 39.7479 13.458C39.2434 13.8561 38.8823 14.4076 38.7191 15.0291L36.7137 21.2175C36.4114 21.0702 36.0853 20.9777 35.7506 20.9444L38.6616 12.5637ZM33.7812 43.125H25.1562V40.25H33.7812V43.125ZM42.9022 16.0641L39.7756 27.7366C39.6675 28.1422 39.4425 28.5071 39.1287 28.7859L34.2628 33.1056C33.8863 33.4452 33.585 33.8597 33.3783 34.3227C33.1715 34.7857 33.064 35.2867 33.0625 35.7937V38.8125H25.875V30.6044C25.8786 29.7275 26.1096 28.8665 26.5455 28.1055C26.9814 27.3446 27.6072 26.7098 28.3619 26.2631L34.7084 22.5472C34.8721 22.4518 35.0529 22.3898 35.2406 22.3646C35.4283 22.3393 35.6192 22.3514 35.8022 22.4002C35.9852 22.449 36.1567 22.5334 36.307 22.6487C36.4573 22.7639 36.5833 22.9078 36.6778 23.0719C36.8645 23.404 36.916 23.7953 36.8216 24.1644C36.7716 24.3466 36.6863 24.5173 36.5703 24.6665C36.4544 24.8157 36.3102 24.9406 36.1459 25.0341L32.0275 27.4131C31.8711 27.5126 31.7591 27.6686 31.715 27.8487C31.6709 28.0287 31.698 28.2189 31.7908 28.3794C31.8836 28.5399 32.0348 28.6583 32.2128 28.71C32.3909 28.7616 32.582 28.7425 32.7463 28.6566L36.8647 26.2775C37.1939 26.0907 37.4824 25.84 37.7132 25.54C37.944 25.2401 38.1125 24.897 38.2087 24.5309C38.4044 23.7955 38.301 23.0126 37.9212 22.3531L37.8781 22.2884L40.0991 15.4387C40.1873 15.067 40.4124 14.7423 40.7294 14.5291C41.0465 14.316 41.4322 14.2301 41.8097 14.2887C42.1318 14.3562 42.4211 14.5322 42.6291 14.7873C42.8371 15.0424 42.9513 15.3612 42.9525 15.6903C42.9549 15.8167 42.9379 15.9428 42.9022 16.0641Z" fill="#44B5E6"/>
<path d="M21.5629 38.8125V30.6044C21.561 29.4768 21.265 28.3692 20.704 27.391C20.1431 26.4129 19.3367 25.598 18.3644 25.0269L12.0107 21.2966C11.9675 21.275 11.9172 21.2606 11.8741 21.2391L8.73316 12.19C8.54981 11.4607 8.09539 10.8288 7.46242 10.4228C6.82946 10.0169 6.06556 9.86746 5.32629 10.005C4.68338 10.1442 4.1072 10.4986 3.69294 11.0095C3.27867 11.5205 3.05111 12.1575 3.04785 12.8153C3.04766 12.9426 3.05486 13.0698 3.06941 13.1962C2.62865 13.4473 2.26176 13.8099 2.00563 14.2477C1.7495 14.6856 1.61317 15.1831 1.61035 15.6903C1.61175 15.9423 1.64311 16.1932 1.70379 16.4378L4.83035 28.0959C5.00902 28.7815 5.38966 29.3975 5.92285 29.8641L10.7744 34.1838C11.0018 34.386 11.1839 34.6339 11.309 34.9114C11.4341 35.1888 11.4993 35.4894 11.5004 35.7937V38.8125C11.3097 38.8125 11.1269 38.8882 10.9921 39.023C10.8573 39.1578 10.7816 39.3406 10.7816 39.5312V43.8438C10.7816 44.0344 10.8573 44.2172 10.9921 44.352C11.1269 44.4868 11.3097 44.5625 11.5004 44.5625H21.5629C21.7535 44.5625 21.9363 44.4868 22.0711 44.352C22.2059 44.2172 22.2816 44.0344 22.2816 43.8438V39.5312C22.2816 39.3406 22.2059 39.1578 22.0711 39.023C21.9363 38.8882 21.7535 38.8125 21.5629 38.8125ZM4.48535 12.8153C4.48624 12.4872 4.59937 12.1692 4.80596 11.9142C5.01254 11.6593 5.30014 11.4827 5.62098 11.4137C6.00895 11.3568 6.40412 11.4489 6.72687 11.6716C7.04962 11.8943 7.27598 12.2311 7.36035 12.6141L10.2497 20.9444C10.1069 20.9548 9.96511 20.9765 9.82566 21.0091C9.63945 21.0603 9.45886 21.1301 9.2866 21.2175L7.29566 15.065C7.13364 14.4377 6.77172 13.8802 6.26467 13.4769C5.75762 13.0736 5.13302 12.8464 4.48535 12.8297V12.8153ZM11.7304 33.1056L6.8716 28.7859C6.55611 28.5056 6.33097 28.1379 6.22473 27.7294L3.09816 16.0641C3.0624 15.9428 3.04543 15.8167 3.04785 15.6903C3.04874 15.3622 3.16187 15.0442 3.36846 14.7892C3.57504 14.5343 3.86264 14.3577 4.18348 14.2887C4.56844 14.2323 4.96052 14.3231 5.28156 14.5429C5.6026 14.7627 5.82902 15.0954 5.91566 15.4747L8.12223 22.2884C8.11039 22.3116 8.09592 22.3333 8.0791 22.3531C7.69914 23.0137 7.59699 23.7981 7.79511 24.534C7.99323 25.2699 8.4754 25.897 9.13566 26.2775L13.2541 28.6566C13.4184 28.7425 13.6095 28.7616 13.7875 28.71C13.9656 28.6583 14.1168 28.5399 14.2095 28.3794C14.3023 28.2189 14.3295 28.0288 14.2854 27.8487C14.2413 27.6686 14.1293 27.5126 13.9729 27.4131L9.85441 25.0341C9.69065 24.9402 9.54698 24.8149 9.43162 24.6655C9.31626 24.516 9.23147 24.3453 9.18208 24.1631C9.13269 23.9809 9.11967 23.7908 9.14377 23.6035C9.16787 23.4163 9.22862 23.2356 9.32254 23.0719C9.51461 22.7437 9.82786 22.5041 10.1949 22.4046C10.5618 22.3052 10.9532 22.3538 11.2847 22.54L17.6385 26.2631C18.3931 26.7098 19.019 27.3446 19.4549 28.1055C19.8908 28.8665 20.1218 29.7275 20.1254 30.6044V38.8125H12.9379V35.7937C12.9366 35.286 12.8285 34.7842 12.6204 34.3211C12.4124 33.8579 12.1091 33.4438 11.7304 33.1056ZM20.8441 43.125H12.2191V40.25H20.8441V43.125Z" fill="#44B5E6"/>
</svg>
