<svg width="48" height="48" viewBox="0 0 48 48" fill="none" xmlns="http://www.w3.org/2000/svg">
<g clip-path="url(#clip0_230_875)">
<path d="M37.5003 25.2525V22.7475C37.5003 21.6825 36.6378 20.82 35.5728 20.82C35.3778 20.82 35.1978 20.7 35.1453 20.52C34.9353 19.8525 34.6653 19.2 34.3428 18.585C34.2528 18.42 34.2903 18.21 34.4328 18.0675C35.1828 17.3175 35.1828 16.095 34.4328 15.345L32.6628 13.575C31.9128 12.825 30.6903 12.825 29.9328 13.575C29.7903 13.7175 29.5803 13.755 29.4153 13.665C28.7928 13.3425 28.1403 13.0725 27.4803 12.8625C27.3078 12.81 27.1803 12.63 27.1803 12.435C27.1803 11.37 26.3178 10.5075 25.2528 10.5075H22.7478C21.6828 10.5075 20.8203 11.37 20.8203 12.4575C20.8203 12.645 20.7078 12.8025 20.5503 12.855C19.8753 13.065 19.2153 13.335 18.5853 13.665C18.4203 13.7475 18.2103 13.71 18.0678 13.575C17.3178 12.825 16.0953 12.825 15.3453 13.575L13.5753 15.345C12.8253 16.095 12.8253 17.3175 13.5753 18.075C13.7178 18.2175 13.7553 18.4275 13.6653 18.5925C13.3428 19.215 13.0728 19.8675 12.8628 20.5275C12.8103 20.7 12.6303 20.8275 12.4353 20.8275C11.3703 20.8275 10.5078 21.69 10.5078 22.755V25.26C10.5078 26.325 11.3703 27.1875 12.4353 27.1875C12.6303 27.1875 12.8103 27.3075 12.8628 27.4875C13.0728 28.155 13.3428 28.8075 13.6653 29.4225C13.7553 29.5875 13.7178 29.7975 13.5753 29.94C12.8253 30.69 12.8253 31.9125 13.5753 32.6625L15.3453 34.4325C16.0953 35.1825 17.3178 35.1825 18.0753 34.4325C18.2178 34.29 18.4278 34.2525 18.5928 34.3425C19.2153 34.665 19.8678 34.935 20.5278 35.145C20.7003 35.1975 20.8278 35.3775 20.8278 35.5725C20.8278 36.6375 21.6903 37.5 22.7553 37.5H25.2603C26.3253 37.5 27.1878 36.6375 27.1878 35.5725C27.1878 35.3775 27.3078 35.1975 27.4878 35.145C28.1553 34.935 28.8078 34.665 29.4228 34.3425C29.5878 34.26 29.7978 34.2975 29.9403 34.4325C30.6903 35.1825 31.9128 35.1825 32.6628 34.4325L34.4328 32.6625C35.1828 31.9125 35.1828 30.69 34.4328 29.9325C34.2903 29.79 34.2528 29.58 34.3428 29.415C34.6728 28.785 34.9428 28.125 35.1528 27.45C35.2053 27.2925 35.3628 27.18 35.5728 27.18C36.6378 27.18 37.5003 26.3175 37.5003 25.2525ZM36.0003 25.2525C36.0003 25.485 35.8053 25.68 35.5503 25.68C34.7178 25.68 33.9603 26.2275 33.7203 27.0075C33.5403 27.5925 33.3003 28.17 33.0153 28.7175C32.6178 29.4675 32.7603 30.3825 33.3753 30.9975C33.5403 31.1625 33.5403 31.4325 33.3753 31.605L31.6053 33.375C31.4403 33.54 31.1703 33.54 30.9978 33.375C30.3903 32.7675 29.4753 32.6175 28.7178 33.015C28.1778 33.3 27.6078 33.5325 27.0303 33.7125C26.2203 33.9675 25.6803 34.71 25.6803 35.5725C25.6803 35.805 25.4853 36 25.2528 36H22.7478C22.5153 36 22.3203 35.805 22.3203 35.5725C22.3203 34.71 21.7803 33.96 20.9703 33.7125C20.3928 33.5325 19.8228 33.2925 19.2828 33.015C18.9978 32.865 18.6903 32.7975 18.3903 32.7975C17.8878 32.7975 17.3853 33 17.0028 33.375C16.8378 33.54 16.5678 33.54 16.3953 33.375L14.6253 31.605C14.4603 31.44 14.4603 31.17 14.6253 30.9975C15.2328 30.39 15.3828 29.475 14.9853 28.7175C14.7003 28.1775 14.4678 27.6075 14.2878 27.03C14.0328 26.22 13.2903 25.68 12.4278 25.68C12.1953 25.68 12.0003 25.485 12.0003 25.2525V22.7475C12.0003 22.515 12.1953 22.32 12.4278 22.32C13.2903 22.32 14.0403 21.78 14.2878 20.97C14.4678 20.3925 14.7078 19.8225 14.9853 19.2825C15.3828 18.5325 15.2403 17.6175 14.6253 17.0025C14.4603 16.8375 14.4603 16.5675 14.6253 16.395L16.3953 14.625C16.5603 14.46 16.8303 14.46 17.0028 14.625C17.6103 15.2325 18.5253 15.3825 19.2828 14.985C19.8303 14.7 20.4078 14.46 20.9928 14.28C21.7728 14.04 22.3203 13.29 22.3203 12.4275C22.3203 12.195 22.5153 12 22.7478 12H25.2528C25.4853 12 25.6803 12.195 25.6803 12.4275C25.6803 13.29 26.2203 14.04 27.0303 14.2875C27.6078 14.4675 28.1778 14.7075 28.7178 14.985C29.4678 15.3825 30.3828 15.24 30.9978 14.625C31.1628 14.46 31.4328 14.46 31.6053 14.625L33.3753 16.395C33.5403 16.56 33.5403 16.83 33.3753 17.0025C32.7678 17.61 32.6178 18.525 33.0153 19.2825C33.3003 19.8225 33.5328 20.3925 33.7128 20.97C33.9678 21.78 34.7103 22.32 35.5728 22.32C35.8053 22.32 36.0003 22.515 36.0003 22.7475V25.2525Z" fill="#44B5E6"/>
<path d="M24 15.75C19.4475 15.75 15.75 19.4475 15.75 24C15.75 28.5525 19.4475 32.25 24 32.25C28.5525 32.25 32.25 28.5525 32.25 24C32.25 19.4475 28.5525 15.75 24 15.75ZM24 30.75C20.28 30.75 17.25 27.72 17.25 24C17.25 20.28 20.28 17.25 24 17.25C27.72 17.25 30.75 20.28 30.75 24C30.75 27.72 27.72 30.75 24 30.75Z" fill="#44B5E6"/>
<path d="M27.375 23.3475L22.125 20.3475C21.8925 20.2125 21.6075 20.2125 21.375 20.3475C21.1425 20.4825 21 20.73 21 21V27C21 27.27 21.1425 27.5175 21.375 27.6525C21.495 27.72 21.6225 27.75 21.75 27.75C21.8775 27.75 22.005 27.72 22.125 27.6525L27.375 24.6525C27.6075 24.5175 27.75 24.27 27.75 24C27.75 23.73 27.6075 23.4825 27.375 23.3475ZM22.5 25.7025V22.29L25.485 24L22.5 25.71V25.7025Z" fill="#44B5E6"/>
<path d="M37.7847 5.97C36.6147 7.14 36.6147 9.045 37.7847 10.215C38.3697 10.8 39.1347 11.0925 39.9072 11.0925C40.6797 11.0925 41.4447 10.8 42.0297 10.215C43.1997 9.045 43.1997 7.14 42.0297 5.97C40.8597 4.8 38.9547 4.8 37.7847 5.97ZM40.9647 7.0275C41.5497 7.6125 41.5497 8.565 40.9647 9.15C40.3797 9.735 39.4272 9.735 38.8422 9.15C38.2572 8.565 38.2572 7.6125 38.8422 7.0275C39.1347 6.735 39.5172 6.5925 39.9072 6.5925C40.2972 6.5925 40.6722 6.735 40.9647 7.0275Z" fill="#44B5E6"/>
<path d="M37.7847 37.785C36.6147 38.955 36.6147 40.86 37.7847 42.03C38.3697 42.615 39.1347 42.9075 39.9072 42.9075C40.6797 42.9075 41.4447 42.615 42.0297 42.03C43.1997 40.86 43.1997 38.955 42.0297 37.785C40.8597 36.615 38.9547 36.615 37.7847 37.785ZM40.9647 40.965C40.3797 41.55 39.4272 41.55 38.8422 40.965C38.2572 40.38 38.2572 39.4275 38.8422 38.8425C39.1347 38.55 39.5172 38.4075 39.9072 38.4075C40.2972 38.4075 40.6722 38.5575 40.9647 38.8425C41.5497 39.4275 41.5497 40.38 40.9647 40.965Z" fill="#44B5E6"/>
<path d="M5.97027 37.785C4.80027 38.955 4.80027 40.86 5.97027 42.03C6.55527 42.615 7.32027 42.9075 8.09277 42.9075C8.86527 42.9075 9.63027 42.615 10.2153 42.03C11.3853 40.86 11.3853 38.955 10.2153 37.785C9.04527 36.615 7.14027 36.615 5.97027 37.785ZM9.15027 40.965C8.56527 41.55 7.61277 41.55 7.02777 40.965C6.44277 40.38 6.44277 39.4275 7.02777 38.8425C7.32027 38.55 7.70277 38.4075 8.08527 38.4075C8.46777 38.4075 8.85777 38.5575 9.15027 38.8425C9.73527 39.4275 9.73527 40.38 9.15027 40.965Z" fill="#44B5E6"/>
<path d="M5.97027 5.97C4.80027 7.14 4.80027 9.045 5.97027 10.215C6.55527 10.8 7.32027 11.0925 8.09277 11.0925C8.86527 11.0925 9.63027 10.8 10.2153 10.215C11.3853 9.045 11.3853 7.14 10.2153 5.97C9.04527 4.8 7.14027 4.8 5.97027 5.97ZM9.15027 9.15C8.56527 9.735 7.61277 9.735 7.02777 9.15C6.44277 8.565 6.44277 7.6125 7.02777 7.0275C7.61277 6.4425 8.56527 6.4425 9.15027 7.0275C9.73527 7.6125 9.73527 8.565 9.15027 9.15Z" fill="#44B5E6"/>
<path d="M3.98246 15.525L4.28246 16.9575L5.75246 16.65L4.97996 12.9825C4.93496 12.75 4.77746 12.555 4.55996 12.4575C4.34246 12.36 4.09496 12.3675 3.89246 12.4725L0.584961 14.235L1.28996 15.555L2.64746 14.8275C-0.210039 21.48 0.194961 29.1375 3.77246 35.46L5.07746 34.725C1.74746 28.8375 1.36496 21.72 3.98246 15.525Z" fill="#44B5E6"/>
<path d="M15.5248 44.0175L16.9573 43.7175L16.6498 42.2475L12.9823 43.02C12.7498 43.065 12.5548 43.2225 12.4573 43.44C12.3598 43.6575 12.3673 43.905 12.4723 44.1075L14.2423 47.415L15.5623 46.71L14.8423 45.36C17.7673 46.6125 20.8798 47.2425 23.9998 47.2425C27.9673 47.2425 31.9273 46.23 35.4673 44.2275L34.7323 42.9225C28.8448 46.2525 21.7273 46.635 15.5323 44.0175H15.5248Z" fill="#44B5E6"/>
<path d="M31.35 5.745L35.0175 4.9725C35.25 4.9275 35.445 4.77 35.5425 4.5525C35.64 4.335 35.6325 4.0875 35.5275 3.885L33.7575 0.577499L32.4375 1.2825L33.165 2.64C26.5125 -0.210001 18.8625 0.195 12.54 3.7725L13.275 5.0775C19.1625 1.7475 26.28 1.365 32.475 3.9825L31.0425 4.2825L31.35 5.7525V5.745Z" fill="#44B5E6"/>
<path d="M46.7096 32.4375L45.3521 33.165C48.2021 26.52 47.7971 18.87 44.2271 12.54L42.9221 13.275C46.2521 19.1625 46.6346 26.28 44.0171 32.475L43.7171 31.0425L42.2471 31.35L43.0196 35.0175C43.0646 35.25 43.2221 35.445 43.4396 35.5425C43.5371 35.5875 43.6496 35.61 43.7546 35.61C43.8746 35.61 43.9946 35.58 44.1071 35.52L47.4146 33.75L46.7096 32.43V32.4375Z" fill="#44B5E6"/>
</g>
<defs>
<clipPath id="clip0_230_875">
<rect width="48" height="48" fill="white"/>
</clipPath>
</defs>
</svg>
