<svg width="52" height="52" viewBox="0 0 52 52" fill="none" xmlns="http://www.w3.org/2000/svg">
<path d="M49.3117 23.7077C49.3117 11.5507 39.4216 1.66055 27.2645 1.66055C15.1075 1.66055 5.21734 11.5507 5.21734 23.7077C5.21734 25.9807 5.56062 28.213 6.23805 30.356H4.51656C3.50906 30.356 2.68945 31.1756 2.68945 32.1831V37.9539C2.68945 38.2332 2.85805 38.4851 3.11602 38.5917C3.2582 38.6496 3.40852 38.7024 3.55273 38.7583V48.6078C3.55273 49.5625 4.32867 50.3384 5.28336 50.3384H28.7727C29.7274 50.3384 30.5034 49.5625 30.5034 48.6078V45.5122C41.267 43.9288 49.3117 34.6653 49.3117 23.7077ZM30.5034 43.2869V38.7593C30.6476 38.7024 30.7989 38.6506 30.9401 38.5927C31.1991 38.4861 31.3666 38.2342 31.3666 37.9549V33.8701C32.9815 33.9594 34.5445 34.1016 36.0253 34.2916C34.7842 38.4262 32.8413 41.6812 30.5034 43.2869ZM31.3666 32.4878V32.1841C31.3666 31.1766 30.547 30.357 29.5395 30.357H27.9531V24.3984H37.498C37.4462 27.4259 37.0572 30.3347 36.397 32.9509C34.7994 32.7387 33.1115 32.5823 31.3666 32.4878ZM21.0418 27.2228C21.1657 27.2228 21.2703 27.3274 21.2703 27.4513V30.357H12.7868V27.4513C12.7868 27.3274 12.8914 27.2228 13.0153 27.2228H21.0418ZM21.0418 25.8426H17.0829C17.0585 25.3622 17.0413 24.8808 17.0331 24.3963H26.5739V30.355H22.6485V27.4493C22.6485 26.5637 21.9274 25.8426 21.0418 25.8426ZM6.61383 23.0181C6.74078 19.1791 7.91891 15.603 9.86992 12.5673C11.7346 13.2722 14.0787 13.846 16.7264 14.2624C16.0784 16.9183 15.7006 19.8758 15.6519 23.0181H6.61383ZM18.1077 14.4625C20.7341 14.8088 23.6073 15.0059 26.5739 15.0323V23.0171H17.0301C17.0809 19.9509 17.4627 17.0523 18.1077 14.4625ZM38.8762 23.0181C38.8274 19.8758 38.4496 16.9173 37.8016 14.2624C40.4494 13.846 42.7934 13.2722 44.6581 12.5673C46.6102 15.603 47.7873 19.1791 47.9142 23.0181H38.8762ZM37.497 23.0181H27.9531V15.0333C30.9198 15.0069 33.793 14.8098 36.4194 14.4635C37.0653 17.0523 37.4472 19.9509 37.497 23.0181ZM27.9531 13.653V3.09156C31.3951 3.5557 34.377 7.46383 36.0558 13.1219C33.5441 13.4448 30.7948 13.6277 27.9531 13.653ZM26.5739 3.09156V13.653C23.7322 13.6277 20.9829 13.4448 18.4712 13.1219C20.1511 7.46383 23.132 3.55672 26.5739 3.09156ZM38.8782 24.3973H47.9162C47.7903 28.2212 46.6203 31.8033 44.6683 34.8502C42.8097 34.1473 40.4504 33.5684 37.7793 33.148C38.4415 30.4687 38.8274 27.5041 38.8782 24.3973ZM43.8537 11.3963C42.0916 12.0291 39.904 12.546 37.4452 12.9248C36.2569 8.82375 34.4003 5.56156 32.1345 3.62476C36.8937 4.77953 41.0151 7.58164 43.8537 11.3963ZM22.3936 3.62476C20.1277 5.56156 18.2712 8.82375 17.0829 12.9248C14.6251 12.545 12.4374 12.0291 10.6743 11.3963C13.513 7.58164 17.6344 4.77953 22.3936 3.62476ZM6.61078 24.3973H15.6539C15.662 24.8808 15.6773 25.3622 15.7016 25.8436H13.0143C12.1277 25.8436 11.4066 26.5647 11.4066 27.4513V30.357H7.69445C7.04242 28.4365 6.67781 26.4377 6.61078 24.3973ZM4.06867 32.1831C4.06867 31.9363 4.26977 31.7352 4.51656 31.7352H29.5405C29.7873 31.7352 29.9884 31.9363 29.9884 32.1831V37.4877C27.2127 38.5673 23.8774 39.2651 20.278 39.5332V39.2996C20.278 38.0829 19.2878 37.0927 18.0711 37.0927H15.986C14.7693 37.0927 13.7791 38.0819 13.7791 39.2996V39.5332C10.1797 39.2661 6.84336 38.5684 4.06766 37.4877V32.1831H4.06867ZM18.8978 39.2996V41.3847C18.8978 41.8407 18.5261 42.2124 18.0701 42.2124H15.986C15.53 42.2124 15.1583 41.8407 15.1583 41.3847V39.2996C15.1583 38.8436 15.53 38.4729 15.986 38.4729H18.0701C18.5261 38.4719 18.8978 38.8436 18.8978 39.2996ZM28.7727 48.9602H5.28437C5.09344 48.9602 4.93297 48.7987 4.93297 48.6088V39.2539C7.56344 40.1182 10.5727 40.6849 13.7801 40.9155V41.3847C13.7801 42.6014 14.7703 43.5916 15.987 43.5916H18.0711C19.2878 43.5916 20.278 42.6014 20.278 41.3847V40.9155C23.4844 40.6849 26.4947 40.1182 29.1241 39.2539V48.6088C29.1231 48.7987 28.9627 48.9602 28.7727 48.9602ZM32.0888 43.8049C34.3739 41.8519 36.2284 38.5572 37.4198 34.4876C39.903 34.8705 42.1048 35.3925 43.8639 36.0242C41.0323 39.8409 36.9069 42.6552 32.0888 43.8049Z" fill="#29ABE2"/>
</svg>
