<svg width="32" height="32" viewBox="0 0 32 32" fill="none" xmlns="http://www.w3.org/2000/svg">
<path fill-rule="evenodd" clip-rule="evenodd" d="M7.15 13.5C3.92293 13.5 1.5 15.7273 1.5 18.25V23.75C1.5 24.1642 1.16421 24.5 0.75 24.5C0.335786 24.5 0 24.1642 0 23.75V18.25C0 14.6927 3.31707 12 7.15 12C9.6004 12 12.0582 13.0016 13.2199 14.9388C13.2863 15.0452 13.3564 15.1648 13.4171 15.2684C13.449 15.3228 13.4783 15.3728 13.5031 15.4142C13.7163 15.7693 13.601 16.23 13.2458 16.4431C12.8907 16.6562 12.43 16.541 12.2169 16.1859C12.1745 16.1152 12.1382 16.0531 12.1037 15.9941C12.0512 15.9044 12.003 15.8219 11.944 15.7275L11.9362 15.7147C11.1363 14.3761 9.27685 13.5 7.15 13.5Z" fill="#1D1D1D"/>
<path d="M20 24.7899C19.7734 26.1655 19.0948 27.4263 18.0714 28.3731C17.048 29.3199 15.7383 29.8986 14.3493 30.0178C12.9602 30.137 11.5711 29.7898 10.4014 29.0311C9.2318 28.2725 8.34835 27.1457 7.89075 25.8287C7.43315 24.5118 7.4275 23.08 7.87475 21.7595C8.32195 20.439 9.19645 19.3053 10.3601 18.5374C11.5237 17.7696 12.9101 17.4115 14.3 17.5197C15.69 17.6279 17.0042 18.1962 18.035 19.1349C16.965 21.0499 16.57 21.6649 14.845 21.6649H13.795C13.2415 21.6662 12.7109 21.886 12.3186 22.2765C11.9262 22.6669 11.7039 23.1964 11.7 23.7499C11.6986 24.0237 11.7524 24.2949 11.858 24.5475C11.9637 24.8 12.1191 25.0287 12.315 25.2199C12.5108 25.4181 12.7445 25.5747 13.0023 25.6804C13.26 25.7861 13.5364 25.8386 13.815 25.8349H16.315C17.6166 25.8359 18.8927 25.4741 20 24.7899Z" fill="#132255"/>
<path fill-rule="evenodd" clip-rule="evenodd" d="M6.75 4.5C4.95508 4.5 3.5 5.95505 3.5 7.75C3.5 9.54495 4.95508 11 6.75 11C8.54495 11 10 9.54495 10 7.75C10 5.95505 8.54495 4.5 6.75 4.5ZM2 7.75C2 5.12665 4.12665 3 6.75 3C9.37335 3 11.5 5.12665 11.5 7.75C11.5 10.3734 9.37335 12.5 6.75 12.5C4.12665 12.5 2 10.3734 2 7.75Z" fill="#1D1D1D"/>
<path fill-rule="evenodd" clip-rule="evenodd" d="M19.5634 17.7054C20.3863 16.3612 22.2307 15.49 24.35 15.49C27.5771 15.49 30 17.7173 30 20.24V25.74C30 26.1542 30.3358 26.49 30.75 26.49C31.1642 26.49 31.5 26.1542 31.5 25.74V20.24C31.5 16.6826 28.183 13.99 24.35 13.99C21.8919 13.99 19.4583 14.9966 18.2796 16.9295L18.2733 16.9401C17.7993 17.7469 17.436 18.4028 17.1343 18.9558C16.5922 19.9148 16.3067 20.3891 15.997 20.6642C15.7614 20.8735 15.4707 21 14.75 21H13.75C13.0206 21 12.3212 21.2897 11.8055 21.8054C11.2898 22.3211 11 23.0206 11 23.75C11 24.4793 11.2898 25.1788 11.8055 25.6945C12.3212 26.2102 13.0206 26.5 13.75 26.5H16.16C17.5348 26.4991 18.8825 26.1147 20.0508 25.3901C20.982 24.8306 21.7764 24.0699 22.3756 23.1636C22.6041 22.8181 22.5092 22.3528 22.1637 22.1244C21.8182 21.8959 21.3528 21.9908 21.1244 22.3363C20.6477 23.0573 20.0155 23.6622 19.2743 24.1068L19.2642 24.1129C18.3322 24.692 17.2569 24.9993 16.1595 25H13.75C13.4185 25 13.1006 24.8683 12.8661 24.6338C12.6317 24.3994 12.5 24.0815 12.5 23.75C12.5 23.4184 12.6317 23.1005 12.8661 22.8661C13.1006 22.6317 13.4185 22.5 13.75 22.5H14.75C15.6693 22.5 16.3786 22.3314 16.993 21.7857C17.525 21.3132 17.9348 20.588 18.4215 19.7269L18.4429 19.689L18.4484 19.6791C18.7455 19.1344 19.1004 18.4936 19.5634 17.7054Z" fill="#1D1D1D"/>
<path fill-rule="evenodd" clip-rule="evenodd" d="M24.75 6.5C22.955 6.5 21.5 7.95505 21.5 9.75C21.5 11.545 22.955 13 24.75 13C26.545 13 28 11.545 28 9.75C28 7.95505 26.545 6.5 24.75 6.5ZM20 9.75C20 7.12665 22.1267 5 24.75 5C27.3734 5 29.5 7.12665 29.5 9.75C29.5 12.3734 27.3734 14.5 24.75 14.5C22.1267 14.5 20 12.3734 20 9.75Z" fill="#1D1D1D"/>
</svg>
