<svg width="34" height="34" viewBox="0 0 34 34" fill="none" xmlns="http://www.w3.org/2000/svg">
<g clip-path="url(#clip0_1_186)">
<mask id="mask0_1_186" style="mask-type:luminance" maskUnits="userSpaceOnUse" x="0" y="0" width="34" height="34">
<path d="M34 0H0V34H34V0Z" fill="white"/>
</mask>
<g mask="url(#mask0_1_186)">
<path d="M23.4579 9.39305C23.3339 9.28691 23.1802 9.22141 23.0178 9.20547C22.8553 9.18953 22.6919 9.22385 22.5495 9.3038L15.282 13.3833C15.1747 13.4435 15.0827 13.5277 15.0134 13.6294C14.944 13.7311 14.8992 13.8474 14.8824 13.9693C14.8655 14.0913 14.8772 14.2154 14.9164 14.3321C14.9556 14.4488 15.0212 14.5548 15.1083 14.6418L15.2464 14.7794C15.348 14.8805 15.475 14.9525 15.6139 14.9879C15.7529 15.0232 15.8988 15.0205 16.0364 14.9802C16.3936 14.8725 16.7711 14.8497 17.1387 14.9136C17.5063 14.9776 17.8539 15.1264 18.1539 15.3484C18.4538 15.5703 18.6978 15.8592 18.8664 16.192C19.035 16.5249 19.1236 16.8926 19.125 17.2656C19.1272 17.5134 19.0881 17.7597 19.0092 17.9945C18.9607 18.1357 18.9527 18.2878 18.9863 18.4332C19.02 18.5787 19.0938 18.7119 19.1994 18.8174L19.2733 18.8918C19.3473 18.9658 19.4352 19.0245 19.5319 19.0645C19.6286 19.1045 19.7323 19.1251 19.8369 19.125C19.8939 19.1248 19.9507 19.1188 20.0064 19.107C20.1369 19.0785 20.2583 19.0178 20.3591 18.9303C20.46 18.8427 20.5373 18.7312 20.5839 18.606L23.6864 10.2765C23.7434 10.1236 23.752 9.95687 23.7111 9.79888C23.6703 9.64083 23.5819 9.4992 23.4579 9.39305Z" fill="#132255"/>
<path d="M18.2219 19.7517C18.1204 19.6502 17.9935 19.578 17.8545 19.5426C17.7155 19.5073 17.5695 19.5101 17.4319 19.5509C17.0747 19.6584 16.6973 19.681 16.3298 19.617C15.9624 19.553 15.6149 19.404 15.315 19.1821C15.0152 18.9602 14.7712 18.6715 14.6026 18.3387C14.434 18.006 14.3454 17.6385 14.3437 17.2654C14.3416 17.0177 14.3808 16.7714 14.4596 16.5366C14.5082 16.3954 14.5161 16.2434 14.4824 16.0979C14.4488 15.9524 14.375 15.8192 14.2694 15.7137L14.1955 15.6393C14.1011 15.5448 13.9845 15.4756 13.8563 15.438C13.7282 15.4004 13.5926 15.3956 13.4621 15.4241C13.3317 15.4525 13.2104 15.5133 13.1095 15.6009C13.0087 15.6884 12.9315 15.7999 12.8849 15.9251L9.78296 24.2546C9.72606 24.4075 9.71751 24.5742 9.75847 24.7322C9.79937 24.8902 9.88783 25.0318 10.0118 25.1379C10.1358 25.244 10.2893 25.3094 10.4517 25.3254C10.6142 25.3414 10.7776 25.3071 10.9198 25.2273L18.1868 21.1478C18.2942 21.0876 18.3861 21.0034 18.4555 20.9017C18.5248 20.8 18.5696 20.6837 18.5865 20.5617C18.6032 20.4398 18.5916 20.3157 18.5525 20.199C18.5133 20.0823 18.4475 19.9763 18.3605 19.8893L18.2219 19.7517Z" fill="#132255"/>
<path d="M32.9237 16.5096L30.175 15.5932C29.7986 12.6034 28.4377 9.82392 26.3068 7.69313C24.176 5.56234 21.3966 4.20139 18.4068 3.82494L17.4904 1.07572C17.4374 0.917065 17.336 0.779073 17.2003 0.681286C17.0647 0.583504 16.9016 0.530884 16.7344 0.530884C16.5672 0.530884 16.4042 0.583504 16.2685 0.681286C16.1328 0.779073 16.0313 0.917065 15.9784 1.07572L15.062 3.82494C12.0722 4.20139 9.29275 5.56234 7.16196 7.69313C5.03115 9.82392 3.67022 12.6034 3.29377 15.5932L0.545085 16.5096C0.386428 16.5625 0.248433 16.664 0.150648 16.7997C0.0528631 16.9353 0.000244141 17.0983 0.000244141 17.2656C0.000244141 17.4328 0.0528631 17.5958 0.150648 17.7315C0.248433 17.8672 0.386428 17.9686 0.545085 18.0215L3.29377 18.9379C3.67022 21.9278 5.03115 24.7072 7.16196 26.838C9.29275 28.9688 12.0722 30.3297 15.062 30.7062L15.9784 33.4559C16.0313 33.6146 16.1328 33.7526 16.2685 33.8504C16.4042 33.9481 16.5672 34.0008 16.7344 34.0008C16.9016 34.0008 17.0647 33.9481 17.2003 33.8504C17.336 33.7526 17.4374 33.6146 17.4904 33.4559L18.4068 30.7062C21.3966 30.3297 24.176 28.9688 26.3068 26.838C28.4377 24.7072 29.7986 21.9278 30.175 18.9379L32.9242 18.0215C33.0829 17.9686 33.2209 17.8672 33.3187 17.7315C33.4164 17.5958 33.4691 17.4328 33.4691 17.2656C33.4691 17.0983 33.4164 16.9353 33.3187 16.7997C33.2209 16.664 33.0824 16.5625 32.9237 16.5096ZM16.7344 29.2187C14.3703 29.2187 12.0593 28.5177 10.0936 27.2042C8.12793 25.8908 6.59586 24.024 5.69114 21.8398C4.78645 19.6557 4.54973 17.2523 5.01095 14.9336C5.47216 12.615 6.61057 10.4851 8.28226 8.81343C9.95394 7.14175 12.0838 6.00333 14.4025 5.5421C16.7212 5.08091 19.1245 5.3176 21.3087 6.22231C23.4928 7.12703 25.3596 8.6591 26.6731 10.6248C27.9865 12.5905 28.6875 14.9015 28.6875 17.2656C28.6839 20.4346 27.4234 23.4728 25.1825 25.7137C22.9416 27.9545 19.9035 29.215 16.7344 29.2187ZM16.7344 21.2499C15.9464 21.2499 15.176 21.0162 14.5208 20.5784C13.8656 20.1406 13.3549 19.5184 13.0533 18.7903C12.7518 18.0623 12.6728 17.2612 12.8266 16.4882C12.9803 15.7154 13.3598 15.0054 13.917 14.4482C14.4742 13.891 15.1842 13.5115 15.9571 13.3577C16.73 13.204 17.5311 13.2829 18.2591 13.5845C18.9872 13.8861 19.6095 14.3968 20.0473 15.052C20.4851 15.7072 20.7188 16.4775 20.7188 17.2656C20.7177 18.322 20.2975 19.3347 19.5505 20.0817C18.8036 20.8287 17.7908 21.2488 16.7344 21.2499ZM16.7344 14.8749C16.2616 14.8749 15.7994 15.0151 15.4062 15.2778C15.0131 15.5405 14.7067 15.9139 14.5258 16.3507C14.3448 16.7875 14.2974 17.2682 14.3897 17.732C14.4819 18.1957 14.7096 18.6216 15.044 18.956C15.3783 19.2903 15.8043 19.518 16.268 19.6102C16.7317 19.7025 17.2124 19.6552 17.6493 19.4742C18.0861 19.2933 18.4595 18.9869 18.7221 18.5937C18.9848 18.2006 19.125 17.7384 19.125 17.2656C19.1243 16.6317 18.8722 16.0241 18.424 15.5759C17.9759 15.1278 17.3682 14.8756 16.7344 14.8749Z" fill="#1D1D1D"/>
</g>
</g>
<defs>
<clipPath id="clip0_1_186">
<rect width="34" height="34" fill="white"/>
</clipPath>
</defs>
</svg>
