<svg xmlns="http://www.w3.org/2000/svg" width="56" height="56" viewBox="0 0 56 56">
  <g id="clinicaltrial-mange" transform="translate(-810 -691)">
    <rect id="Rectangle_43" data-name="Rectangle 43" width="56" height="56" rx="6" transform="translate(810 691)" fill="#fff" opacity="0"/>
    <g id="clinicaltrail" transform="translate(816.222 697.222)">
      <path id="Path_324" data-name="Path 324" d="M38.489,36.91a.667.667,0,0,0-.947-.019L36.25,38.134l-2.88-3a16.985,16.985,0,0,0,.1-21.075.671.671,0,0,0-1.056.828A15.646,15.646,0,1,1,30.1,12.516a.67.67,0,1,0,.86-1.028A16.981,16.981,0,1,0,19.757,41.514c.118,0,.234,0,.353,0a16.841,16.841,0,0,0,10.044-3.293l2.878,3-1.293,1.243a.667.667,0,0,0-.019.947l9.637,10.035a4.129,4.129,0,0,0,3.02,1.254c.041,0,.084,0,.125,0a4.877,4.877,0,0,0,3.242-1.379,4.529,4.529,0,0,0,.385-6.376Zm-7.286.473c.224-.194.443-.394.658-.6s.422-.417.624-.632l2.794,2.911L34,40.3ZM46.812,52.356a3.521,3.521,0,0,1-2.347,1,2.818,2.818,0,0,1-2.143-.841L33.15,42.968l4.836-4.644,9.173,9.554a3.19,3.19,0,0,1-.346,4.479Zm-18.735-37.4A12.479,12.479,0,1,0,30.3,17.367a.67.67,0,0,1,1.1-.77,13.738,13.738,0,1,1-2.461-2.673.671.671,0,1,1-.858,1.03Zm-13,6.774a3.473,3.473,0,0,0-1.654,2.941v6.292A3.447,3.447,0,0,0,16.863,34.4h6.469a3.447,3.447,0,0,0,3.444-3.444l0-6.292a3.473,3.473,0,0,0-1.654-2.941,2.27,2.27,0,0,1-1.121-2V18.636a2.029,2.029,0,0,0-.6-3.967l-6.6,0a2.029,2.029,0,0,0-.6,3.967v1.093a2.262,2.262,0,0,1-1.121,2ZM16.108,16.7a.687.687,0,0,1,.686-.686h6.6a.687.687,0,0,1,0,1.375H16.8a.69.69,0,0,1-.688-.688Zm1.426,3.031v-1h5.126v1a3.608,3.608,0,0,0,1.76,3.141,2.121,2.121,0,0,1,1.013,1.8v6.292a2.107,2.107,0,0,1-2.1,2.1H16.863a2.107,2.107,0,0,1-2.1-2.1l0-6.292a2.126,2.126,0,0,1,1.013-1.8,3.608,3.608,0,0,0,1.76-3.141ZM16.457,29.926h1.529v1.529a.671.671,0,0,0,.671.671H21.54a.671.671,0,0,0,.671-.671V29.926h1.529a.671.671,0,0,0,.671-.671l0-2.88a.671.671,0,0,0-.671-.671H22.209V24.174a.671.671,0,0,0-.671-.671H18.655a.671.671,0,0,0-.671.671V25.7H16.455a.671.671,0,0,0-.671.671v2.883a.673.673,0,0,0,.673.669Zm.671-2.883h1.529a.671.671,0,0,0,.671-.671V24.843h1.542v1.529a.671.671,0,0,0,.671.671h1.529v1.542H21.54a.671.671,0,0,0-.671.671v1.529H19.327V29.257a.671.671,0,0,0-.671-.671H17.126Zm8.916-8.022,7.331-8.8a.67.67,0,0,1,.514-.241h6.15a.671.671,0,1,1,0,1.342l-5.836,0L27.075,19.88a.671.671,0,0,1-1.03-.858Zm28.038,6.991H52.545l-1.157-2,1.351-2.338a.668.668,0,0,0,0-.671l-1.545-2.674a.67.67,0,0,0-.581-.336H47.524a.67.67,0,0,0-.581.336l-1.351,2.338H42a2.153,2.153,0,1,0,0,1.342h3.588l1.157,2-1.157,2h-2.7a.67.67,0,0,0-.581.336l-1.545,2.674a.668.668,0,0,0,0,.671l1.545,2.674a.67.67,0,0,0,.581.336h2.418v3.306a2.153,2.153,0,1,0,1.342,0v-3.8l1.261-2.183h2.7a.67.67,0,0,0,.581-.336l1.351-2.338h1.538a.672.672,0,0,0,0-1.345Zm-6.172-6.684h2.315l1.157,2-1.157,2H47.911l-1.157-2ZM39.96,22.145a.811.811,0,1,1,.813-.811A.812.812,0,0,1,39.96,22.145Zm6.021,16.719a.812.812,0,1,1,.811-.811A.812.812,0,0,1,45.982,38.864Zm-.387-7.5H43.28l-1.157-2,1.157-2h2.315l1.157,2Zm4.632-2.674H47.911l-1.157-2,1.157-2h2.315l1.157,2ZM42.718,4.277a.671.671,0,0,1,.671-.671h9.381a.671.671,0,0,1,0,1.342H43.387a.67.67,0,0,1-.669-.671Zm0,3.188a.671.671,0,0,1,.671-.671h9.381a.671.671,0,0,1,0,1.342H43.387a.67.67,0,0,1-.669-.671Zm0,3.188a.671.671,0,0,1,.671-.671h9.381a.671.671,0,0,1,0,1.342l-9.383,0a.668.668,0,0,1-.669-.669Zm0,3.188a.671.671,0,0,1,.671-.671h6.07a.671.671,0,1,1,0,1.342l-6.073,0a.668.668,0,0,1-.669-.669Z" transform="translate(-6.952 -7.392)" fill="#29abe2"/>
    </g>
  </g>
</svg>
