<svg width="77" height="52" viewBox="0 0 77 52" fill="none" xmlns="http://www.w3.org/2000/svg">
<rect y="11.7734" width="31.923" height="42.4959" rx="6" transform="rotate(-18.8688 0 11.7734)" fill="url(#paint0_linear_799_9)"/>
<path d="M25.5957 7.87891C25.1556 7.04948 25.4518 6.40625 26.4844 5.94922C27.4661 5.50911 28.4902 4.89128 29.5566 4.0957C30.623 3.30013 31.4948 2.47917 32.1719 1.63281C32.9336 0.684896 33.6615 0.210938 34.3555 0.210938H38.3926C39.4082 0.210938 39.916 0.71875 39.916 1.73438V35.25C39.916 36.2656 39.4082 36.7734 38.3926 36.7734H34.3301C33.3145 36.7734 32.8066 36.2656 32.8066 35.25V11.1035C32.8066 10.4264 32.8405 9.74935 32.9082 9.07227H32.8066C32.2819 9.73242 31.7064 10.2995 31.0801 10.7734C30.4538 11.2474 29.819 11.6198 29.1758 11.8906C28.3802 12.2292 27.7793 12.0091 27.373 11.2305L25.5957 7.87891Z" fill="#626F9B"/>
<path d="M59 41.7734H75M75 41.7734L69 35.7734M75 41.7734L69 47.7734" stroke="#C3D5E7" stroke-width="3" stroke-linecap="round" stroke-linejoin="round"/>
<defs>
<linearGradient id="paint0_linear_799_9" x1="15.9615" y1="11.7734" x2="15.9615" y2="54.2693" gradientUnits="userSpaceOnUse">
<stop stop-color="#29ABE2"/>
<stop offset="0.66" stop-color="#D1E9F3"/>
<stop offset="1" stop-color="white"/>
</linearGradient>
</defs>
</svg>
