<svg width="80" height="52" viewBox="0 0 80 52" fill="none" xmlns="http://www.w3.org/2000/svg">
<rect y="11.0967" width="31.923" height="42.4959" rx="6" transform="rotate(-18.8688 0 11.0967)" fill="url(#paint0_linear_803_10)"/>
<path d="M24.6611 34.0967C23.5381 34.0967 22.9766 33.61 22.9766 32.6367V31.5586C22.9766 30.7799 23.3359 30.0088 24.0547 29.2451L30.7705 22.1699C32.792 20.0286 34.6413 18.127 36.3184 16.4648C37.9954 14.7878 38.834 13.0957 38.834 11.3887C38.834 9.68164 38.4072 8.43132 37.5537 7.6377C36.7152 6.8291 35.6445 6.4248 34.3418 6.4248C32.2754 6.4248 30.8379 6.90397 30.0293 7.8623C29.2207 8.82064 28.6367 9.84635 28.2773 10.9395C27.9329 12.0026 27.304 12.3844 26.3906 12.085L24.1221 11.3213C23.3883 11.0667 23.1787 10.363 23.4932 9.20996C24.0771 7.06868 25.2676 5.23438 27.0645 3.70703C28.8613 2.16471 31.5267 1.39355 35.0605 1.39355C38.7441 1.39355 41.417 2.3444 43.0791 4.24609C44.7412 6.13281 45.5723 8.18424 45.5723 10.4004C45.5723 13.3053 44.3594 15.8584 41.9336 18.0596C39.5078 20.2458 37.3066 22.3796 35.3301 24.4609L31.5117 28.4814V28.6162C32.4102 28.5563 33.1589 28.5264 33.7578 28.5264H44.2471C45.3701 28.5264 45.9316 29.013 45.9316 29.9863V32.6367C45.9316 33.61 45.3701 34.0967 44.2471 34.0967H24.6611Z" fill="#626F9B"/>
<path d="M62 40.7725H78M78 40.7725L72 34.7725M78 40.7725L72 46.7725" stroke="#C3D5E7" stroke-width="3" stroke-linecap="round" stroke-linejoin="round"/>
<defs>
<linearGradient id="paint0_linear_803_10" x1="15.9615" y1="11.0967" x2="15.9615" y2="53.5925" gradientUnits="userSpaceOnUse">
<stop stop-color="#29ABE2"/>
<stop offset="0.66" stop-color="#D1E9F3"/>
<stop offset="1" stop-color="white"/>
</linearGradient>
</defs>
</svg>
