<svg width="80" height="52" viewBox="0 0 80 52" fill="none" xmlns="http://www.w3.org/2000/svg">
<rect y="11.0967" width="31.923" height="42.4959" rx="6" transform="rotate(-18.8688 0 11.0967)" fill="url(#paint0_linear_803_11)"/>
<path d="M23.9873 31.8057C23.4033 31.3115 23.3584 30.6077 23.8525 29.6943L24.8857 27.8076C25.3799 26.8942 26.181 26.8268 27.2891 27.6055C28.2174 28.2643 29.2656 28.8034 30.4336 29.2227C31.6016 29.627 32.9043 29.8291 34.3418 29.8291C36.3184 29.8291 37.7334 29.2975 38.5869 28.2344C39.4404 27.1562 39.8672 25.9508 39.8672 24.6182C39.8672 23.2555 39.3581 22.0352 38.3398 20.957C37.3366 19.8639 35.9141 19.3174 34.0723 19.3174H32.3428C31.3695 19.3174 30.8828 18.9206 30.8828 18.127V15.6562C30.8828 14.8327 31.3695 14.4209 32.3428 14.4209H33.6904C35.068 14.4209 36.2809 13.9941 37.3291 13.1406C38.3923 12.2871 38.9238 11.2165 38.9238 9.92871C38.9238 8.92546 38.5719 8.0944 37.8682 7.43555C37.1794 6.76172 36.0488 6.4248 34.4766 6.4248C32.9941 6.4248 31.7139 6.64193 30.6357 7.07617C29.5576 7.51042 28.7041 8.03451 28.0752 8.64844C27.1768 9.5319 26.4056 9.49447 25.7617 8.53613L24.459 6.62695C23.9648 5.9082 24.1146 5.17448 24.9082 4.42578C25.9863 3.39258 27.3789 2.62891 29.0859 2.13477C30.793 1.64062 32.4626 1.39355 34.0947 1.39355C37.943 1.39355 40.8031 2.16471 42.6748 3.70703C44.5465 5.23438 45.4824 7.10612 45.4824 9.32227C45.4824 10.9694 44.8385 12.4743 43.5508 13.8369C42.263 15.1846 40.9004 16.113 39.4629 16.6221V16.7119C41.1699 17.1312 42.7871 18.0521 44.3145 19.4746C45.8418 20.8822 46.6055 22.6341 46.6055 24.7305C46.6055 28.0098 45.5723 30.5179 43.5059 32.2549C41.4395 33.9919 38.2874 34.8604 34.0498 34.8604C32.2679 34.8604 30.4186 34.5908 28.502 34.0518C26.6003 33.4977 25.0954 32.749 23.9873 31.8057Z" fill="#626F9B"/>
<path d="M62 42.7725H78M78 42.7725L72 36.7725M78 42.7725L72 48.7725" stroke="#C3D5E7" stroke-width="3" stroke-linecap="round" stroke-linejoin="round"/>
<defs>
<linearGradient id="paint0_linear_803_11" x1="15.9615" y1="11.0967" x2="15.9615" y2="53.5925" gradientUnits="userSpaceOnUse">
<stop stop-color="#29ABE2"/>
<stop offset="0.66" stop-color="#D1E9F3"/>
<stop offset="1" stop-color="white"/>
</linearGradient>
</defs>
</svg>
