<svg width="480" height="480" viewBox="0 0 480 480" fill="none" xmlns="http://www.w3.org/2000/svg">
<path d="M240 448.47C355.135 448.47 448.47 355.135 448.47 240C448.47 124.865 355.135 31.5303 240 31.5303C124.865 31.5303 31.5303 124.865 31.5303 240C31.5303 355.135 124.865 448.47 240 448.47Z" fill="url(#paint0_linear_206_3927)"/>
<path d="M433.496 152.346C433.496 154.322 431.895 155.923 429.917 155.923H370.891C368.916 155.923 367.313 154.322 367.313 152.346V122.59C367.313 120.615 368.916 119.011 370.891 119.011H429.917C431.895 119.011 433.496 120.615 433.496 122.59V152.346Z" fill="#EBF3FE"/>
<path d="M123.754 157.392C123.754 161.343 120.551 164.546 116.599 164.546H52.8385C48.8881 164.546 45.6826 161.343 45.6826 157.392V124.752C45.6826 120.802 48.8881 117.596 52.8385 117.596H116.598C120.55 117.596 123.753 120.801 123.753 124.752V157.392H123.754Z" fill="#EBF3FE"/>
<path d="M463.189 168.757C463.189 172.029 460.538 174.682 457.266 174.682H409.726C406.454 174.682 403.801 172.028 403.801 168.757V143.091C403.801 139.821 406.454 137.168 409.726 137.168H457.266C460.538 137.168 463.189 139.82 463.189 143.091V168.757Z" fill="#EBF3FE"/>
<path d="M63.0058 174.095C63.0058 176.296 61.2202 178.081 59.018 178.081H27.026C24.8247 178.081 23.04 176.296 23.04 174.095V156.823C23.04 154.621 24.8237 152.836 27.026 152.836H59.018C61.2192 152.836 63.0058 154.621 63.0058 156.823V174.095Z" fill="#EBF3FE"/>
<path d="M344.37 402.286C344.37 407.587 340.073 411.886 334.77 411.886H169.101C163.8 411.886 152.785 406.532 152.785 397.743L159.501 89.4635C159.501 84.1623 163.8 79.8635 169.101 79.8635L328.617 74.2139C337.586 74.2139 344.37 84.1614 344.37 89.4635V402.286Z" fill="#29ABE2"/>
<path d="M337.586 396.61C337.586 401.912 333.287 406.21 327.986 406.21H162.317C157.016 406.21 152.717 401.912 152.717 396.61V83.787C152.717 78.4859 157.016 74.187 162.317 74.187H327.986C333.287 74.187 337.586 78.4859 337.586 83.787V396.61Z" fill="#29ABE2"/>
<path d="M328.617 364.684C328.617 369.472 324.735 373.353 319.948 373.353H170.356C165.568 373.353 161.687 369.472 161.687 364.684V92.9234C161.687 88.1359 165.568 84.2546 170.356 84.2546H319.948C324.735 84.2546 328.617 88.1359 328.617 92.9234V364.684Z" fill="url(#paint1_linear_206_3927)"/>
<path d="M255.59 391.641C256.588 385.511 252.429 379.732 246.299 378.733C240.169 377.735 234.39 381.894 233.391 388.024C232.393 394.154 236.552 399.933 242.682 400.932C248.812 401.93 254.591 397.771 255.59 391.641Z" fill="#29ABE2"/>
<path d="M319.217 234.12C320.678 233.78 321.717 233.373 322.159 232.885C323.999 230.849 321.898 224.679 317.668 217.941V203.841C317.668 192.658 308.602 183.592 297.419 183.592H295.951C295.928 183.584 295.905 183.578 295.882 183.57C295.768 183.536 295.657 183.503 295.546 183.472C295.464 183.449 295.381 183.423 295.301 183.401C295.174 183.368 295.052 183.339 294.931 183.309C294.869 183.294 294.805 183.278 294.746 183.263C294.564 183.222 294.387 183.185 294.217 183.155C293.979 183.112 293.762 183.045 293.555 182.969C293.503 182.949 293.453 182.929 293.402 182.908C293.208 182.825 293.022 182.733 292.855 182.621C292.85 182.618 292.844 182.615 292.839 182.612C292.666 182.495 292.51 182.358 292.362 182.211C292.327 182.176 292.291 182.138 292.257 182.101C292.121 181.955 291.995 181.798 291.878 181.625C291.873 181.617 291.866 181.609 291.86 181.601C291.74 181.419 291.634 181.217 291.533 181.006C291.51 180.956 291.487 180.905 291.464 180.855C291.374 180.652 291.291 180.441 291.216 180.216C291.21 180.2 291.204 180.187 291.2 180.171C291.12 179.928 291.051 179.671 290.986 179.404C290.971 179.341 290.957 179.278 290.942 179.215C290.887 178.968 290.836 178.715 290.79 178.451C290.785 178.423 290.778 178.395 290.773 178.366C290.724 178.076 290.681 177.774 290.641 177.465C290.63 177.381 290.62 177.296 290.61 177.211C290.579 176.947 290.548 176.677 290.52 176.4C290.514 176.34 290.507 176.284 290.503 176.224C290.472 175.909 290.444 175.583 290.417 175.254C290.404 175.093 290.391 174.931 290.378 174.767C290.366 174.623 290.356 174.477 290.344 174.331C290.242 172.963 290.14 171.492 289.98 169.95C289.979 169.933 289.977 169.916 289.975 169.899C289.664 166.911 289.129 163.671 287.911 160.455C283.861 149.767 265.584 151.001 257.887 153.327C247.083 156.588 246.521 166.986 251.314 169.136C252.099 171.961 252.092 181.03 248.884 186.967C245.675 192.905 238.422 200.284 246.071 211.194C246.921 212.406 248.096 213.465 249.508 214.385C248.287 215.528 247.081 216.63 245.959 217.606C241.47 221.513 233.605 227.691 229.804 230.651H218.277C217.883 229.861 217.075 229.312 216.132 229.312C209.962 229.312 208.756 229.725 208.756 227.369V222.318H228.251H233.434C237.669 222.318 241.104 218.884 241.104 214.648V151.272C241.104 147.036 237.669 143.602 233.434 143.602H161.685V222.318H181.299V227.369C181.299 230.081 182.903 232.414 185.211 233.487C185.638 233.875 186.199 234.118 186.823 234.118H175.019V236.462V241.391V246.45V354.24H215.558H228.217C231.945 354.24 234.967 351.218 234.967 347.491V291.681C239.82 304.144 248.458 322.416 256.757 333.194C256.757 333.194 257.667 333.204 259.019 332.962C259.082 333.039 259.141 333.114 259.203 333.192C259.265 333.27 259.328 333.349 259.389 333.426C259.478 333.538 259.567 333.649 259.655 333.762C259.719 333.845 259.785 333.928 259.849 334.01C259.946 334.132 260.042 334.256 260.139 334.379C260.192 334.446 260.243 334.513 260.296 334.58C260.413 334.73 260.53 334.881 260.646 335.031C260.682 335.078 260.718 335.125 260.754 335.171C260.909 335.371 261.062 335.571 261.215 335.771C261.672 336.37 262.111 336.958 262.516 337.519C260.771 338.275 259.389 339.859 259.666 342.154C258.598 342.686 257.886 343.452 258.091 344.465C258.118 344.602 258.254 344.703 258.396 344.733C258.187 345.089 257.96 345.476 257.722 345.889C256.765 346.337 255.973 346.966 255.532 347.783C255.385 348.056 255.426 348.473 255.683 348.673C255.724 348.705 255.766 348.736 255.808 348.763C255.819 348.77 255.827 348.777 255.837 348.784C255.902 348.826 255.981 348.847 256.064 348.86C254.204 352.334 252.379 356.353 252.577 358.611C252.377 358.983 252.332 359.433 252.5 359.855C252.802 360.617 253.664 360.991 254.423 360.687C254.775 360.548 259.339 358.713 264.987 355.378C265.598 355.017 266.223 354.637 266.856 354.241H294.074C296.059 354.241 297.668 352.632 297.668 350.647C297.668 349.429 297.059 348.356 296.131 347.705C296.73 347.417 297.328 347.127 297.912 346.812C298.632 346.425 298.901 345.523 298.512 344.804C298.218 344.264 297.641 343.979 297.066 344.033C297.286 341.441 295.421 337.64 294.448 337.919C294.122 338.013 293.698 338.17 293.213 338.338L292.54 327.066C292.872 326.858 293.203 326.662 293.537 326.427C293.537 326.427 292.679 308.853 292.286 299.306C292.283 299.236 292.281 299.168 292.278 299.098C292.264 298.78 292.252 298.469 292.24 298.169C292.235 298.062 292.232 297.96 292.227 297.856C292.217 297.611 292.208 297.37 292.2 297.141C292.193 296.977 292.187 296.825 292.183 296.67C292.176 296.509 292.17 296.345 292.164 296.193C292.157 295.982 292.15 295.788 292.144 295.597H307.451C308.846 295.597 310.081 294.962 310.923 293.979C313.458 293.427 315.032 291.916 313.11 289.153C312.215 287.867 311.634 286.03 311.193 283.896C311.348 283.751 311.513 283.615 311.664 283.465C311.842 283.288 312.005 283.097 312.178 282.913C312.428 282.646 312.68 282.38 312.917 282.1C313.09 281.894 313.248 281.678 313.413 281.465C313.628 281.188 313.842 280.912 314.043 280.623C314.198 280.399 314.343 280.168 314.489 279.937C314.677 279.641 314.862 279.346 315.034 279.04C315.169 278.802 315.295 278.561 315.419 278.318C315.582 278.003 315.735 277.685 315.88 277.361C315.991 277.113 316.098 276.864 316.2 276.612C316.335 276.275 316.458 275.932 316.575 275.586C316.661 275.335 316.747 275.085 316.822 274.829C316.931 274.461 317.022 274.087 317.11 273.71C317.168 273.465 317.231 273.223 317.28 272.974C317.362 272.553 317.419 272.125 317.475 271.696C317.502 271.481 317.541 271.271 317.562 271.057C317.625 270.408 317.661 269.753 317.661 269.086V241.392H328.609V234.12H319.217ZM255.359 261.98C252.037 263.343 247.569 264.948 244.723 266.204C244.368 266.362 244.048 266.516 243.747 266.67C243.66 266.714 243.582 266.757 243.499 266.801C243.291 266.913 243.096 267.021 242.917 267.13C242.843 267.174 242.77 267.218 242.699 267.262C242.513 267.379 242.345 267.494 242.193 267.604C242.159 267.629 242.119 267.655 242.087 267.679C241.905 267.818 241.747 267.951 241.618 268.076C241.604 268.09 241.595 268.1 241.583 268.113C241.471 268.225 241.38 268.331 241.309 268.431C241.293 268.452 241.282 268.472 241.268 268.492C241.207 268.588 241.163 268.675 241.139 268.756C241.137 268.766 241.132 268.776 241.13 268.785C241.086 268.971 241.146 269.113 241.305 269.201C241.306 269.201 241.306 269.202 241.306 269.202H241.307C241.663 269.395 242.498 269.314 243.739 268.822C243.645 268.864 243.554 268.906 243.46 268.947C243.24 269.044 243.022 269.141 242.804 269.241C242.612 269.327 242.42 269.415 242.229 269.503C241.872 269.67 241.517 269.84 241.166 270.013C241.003 270.094 240.845 270.177 240.683 270.259C240.53 270.338 240.374 270.415 240.223 270.495C240.227 270.494 240.233 270.493 240.238 270.492C238.287 271.515 236.483 272.64 234.97 273.879V246.451V241.392H255.359V261.98ZM255.359 230.653H251.992C253.162 230.214 254.295 229.78 255.359 229.367V230.653ZM274.51 335.803C274.36 335.784 274.224 335.792 274.13 335.864C274.016 335.949 273.886 336.054 273.748 336.167L268.721 326.73C268.787 326.627 268.861 326.535 268.927 326.427C268.927 326.427 261.85 305.379 257.307 295.597H271.51C272.234 302.478 273.297 310.195 274.511 317.553V335.803H274.51ZM278.903 338.044V329.873C279.293 329.94 279.737 329.996 280.21 330.043C280.368 330.741 280.529 331.46 280.688 332.177C280.955 333.393 281.214 334.597 281.43 335.664C280.338 336.052 279.396 336.813 278.903 338.044Z" fill="#EBF5FF"/>
<path d="M261.188 356.1C261.188 357.314 262.172 358.297 263.384 358.297C264.597 358.297 265.581 357.314 265.581 356.1V299.754C265.581 298.539 264.597 297.556 263.384 297.556C262.172 297.556 261.188 298.539 261.188 299.754V356.1Z" fill="#8BCED1"/>
<path d="M284.352 357.198C284.352 359.184 282.743 360.792 280.758 360.792H247.21C245.225 360.792 243.616 359.184 243.616 357.198C243.616 355.214 245.225 353.604 247.21 353.604H280.758C282.743 353.603 284.352 355.213 284.352 357.198Z" fill="white"/>
<path d="M261.188 304.943V356.1C261.188 357.314 262.172 358.297 263.384 358.297C264.597 358.297 265.581 357.314 265.581 356.1V306.023C264.119 305.633 262.656 305.264 261.188 304.943Z" fill="white"/>
<path d="M304.347 210.393C304.347 199.21 295.281 190.144 284.098 190.144H262.284C251.101 190.144 242.036 199.209 242.036 210.393V275.639C242.036 286.823 251.1 295.889 262.284 295.889H284.098C295.28 295.889 304.347 286.823 304.347 275.639V210.393Z" fill="#ADAFEC"/>
<path opacity="0.5" d="M284.098 190.144H262.285C257.23 190.144 252.613 192 249.065 195.061C250.176 194.874 251.314 194.769 252.478 194.769H274.291C285.474 194.769 294.541 203.833 294.541 215.017V280.265C294.541 286.393 291.814 291.883 287.512 295.597C297.069 293.974 304.348 285.659 304.348 275.639V210.393C304.347 199.209 295.281 190.144 284.098 190.144Z" fill="#393280"/>
<path d="M298.73 297.556C298.73 300.094 296.673 302.149 294.138 302.149H237.027C234.49 302.149 232.435 300.094 232.435 297.556C232.435 295.019 234.491 292.964 237.027 292.964H294.138C296.673 292.963 298.73 295.019 298.73 297.556Z" fill="#ADAFEC"/>
<path d="M242.279 335.332C242.279 335.332 250.964 345.644 251.351 347.64C251.351 347.64 256.176 348.759 261.187 344.15L254.165 330.967L242.279 335.332Z" fill="#FFD5CF"/>
<path d="M257.633 337.478L254.165 330.967L242.279 335.332C242.279 335.332 245.331 338.954 247.897 342.322C250.851 341.424 253.642 340.15 256.262 338.366C256.622 338.126 257.107 337.827 257.633 337.478Z" fill="#FFBDAE"/>
<path d="M264.88 349.739C254.459 358.993 239.596 366.235 239.596 366.235C237.432 363.052 245.879 350.16 246.391 349.027C245.367 343.454 253.95 341.82 254.975 345.631C257.375 345.679 259.676 343.26 260.806 342.416C261.935 341.571 267.519 347.525 264.88 349.739Z" fill="#30393E"/>
<path d="M260.807 342.416C260.31 342.787 259.587 343.463 258.728 344.1C257.927 347.517 255.483 350.839 253.561 353.552C252 355.725 250.937 357.954 250.305 360.268C254.939 357.431 260.331 353.777 264.879 349.739C267.518 347.525 261.935 341.571 260.807 342.416Z" fill="#1A1F21"/>
<path d="M251.67 361.929C246.023 365.265 241.459 367.1 241.106 367.238C240.347 367.541 239.486 367.169 239.184 366.406C238.881 365.647 239.252 364.784 240.012 364.482C240.17 364.42 255.809 358.127 264.954 347.562C265.49 346.945 266.424 346.877 267.046 347.414C267.664 347.948 267.732 348.885 267.195 349.504C262.648 354.757 256.726 358.944 251.67 361.929Z" fill="white"/>
<path d="M245.281 351.278C245.757 351.079 246.043 350.67 246.522 350.454C247.111 350.189 247.773 350.023 248.409 349.927C249.651 349.739 251.09 350.168 252.266 349.83C253.042 349.606 253.116 348.497 252.419 348.131C250.739 347.249 244.198 348.185 244.774 351.016C244.814 351.22 245.093 351.357 245.281 351.278Z" fill="white"/>
<path d="M242.491 355.315C242.501 355.322 242.51 355.329 242.52 355.335C242.732 355.473 243.065 355.444 243.265 355.306C245.454 353.789 248.345 353.384 250.948 353.744C251.797 353.86 252.32 352.726 251.495 352.289C248.954 350.944 243.677 351.631 242.213 354.336C242.066 354.609 242.108 355.026 242.365 355.226C242.407 355.257 242.449 355.287 242.491 355.315Z" fill="white"/>
<path d="M250.954 269.341C250.954 269.341 222.844 274.244 217.789 285.075C216.609 287.607 230.445 322.872 243.438 339.746C243.438 339.746 251.405 339.883 255.605 332.979C255.605 332.979 247.043 307.517 242.709 299.586C242.709 299.586 259.254 299.081 263.326 298.068C267.398 297.055 284.963 267.612 250.954 269.341Z" fill="#9B68C4"/>
<path d="M250.953 269.341C250.953 269.341 236.919 271.791 226.9 277.048C232.958 275.698 239.136 275.101 244.787 276.608C253.562 278.633 249.849 283.696 245.125 288.082C240.062 292.807 234.663 296.181 237.7 303.606C240.401 311.03 244.788 316.429 246.476 324.529C247.374 329.205 247.893 333.978 248.536 338.743C250.925 337.851 253.667 336.165 255.605 332.979C255.605 332.979 247.044 307.517 242.71 299.586C242.71 299.586 259.254 299.081 263.327 298.068C267.398 297.055 284.963 267.612 250.953 269.341Z" fill="#633870"/>
<path d="M257.398 284.52C257.489 278.129 263.29 276.298 266.523 272.041C266.03 271.738 265.492 271.456 264.912 271.194C260.437 272.607 256.127 274.38 254.434 278.527C253.314 281.268 253.896 286.972 254.04 289.868C254.183 292.809 256.213 298.91 256.899 298.857C257.57 298.804 258.221 298.748 258.84 298.691C259.383 294.05 257.33 289.189 257.398 284.52Z" fill="#4B2B56"/>
<path d="M265.581 330.967C265.581 330.967 268.609 343.626 268.682 345.658C268.682 345.658 274.419 351.787 280.084 348.009L278.881 327.881L265.581 330.967Z" fill="#FFD5CF"/>
<path d="M279.6 339.9L278.882 327.881L265.581 330.967C265.581 330.967 266.521 334.898 267.366 338.729C271.238 339.654 275.474 340.166 279.6 339.9Z" fill="#FFBDAE"/>
<path d="M282.347 352.762C269.321 357.723 252.857 359.23 252.857 359.23C251.963 355.487 264.428 346.424 265.309 345.546C266.326 339.971 274.931 341.484 274.541 345.41C276.768 346.308 279.777 344.861 281.132 344.471C282.488 344.082 285.598 351.628 282.347 352.762Z" fill="#30393E"/>
<path d="M265.675 359.482C259.211 360.6 254.295 360.7 253.916 360.703C253.099 360.719 252.425 360.065 252.412 359.244C252.399 358.426 253.051 357.751 253.87 357.739C254.04 357.736 270.893 357.394 283.188 350.755C283.909 350.368 284.807 350.635 285.197 351.356C285.586 352.075 285.317 352.976 284.597 353.363C278.483 356.664 271.46 358.482 265.675 359.482Z" fill="white"/>
<path d="M263.474 347.259C263.989 347.241 264.402 346.96 264.925 346.927C265.57 346.887 266.249 346.968 266.877 347.104C268.106 347.367 269.298 348.28 270.519 348.38C271.323 348.445 271.785 347.434 271.263 346.845C270.005 345.425 263.556 343.983 263.091 346.834C263.058 347.038 263.27 347.266 263.474 347.259Z" fill="white"/>
<path d="M259.434 350.044C259.441 350.055 259.448 350.064 259.456 350.073C259.603 350.276 259.926 350.369 260.162 350.309C262.746 349.666 265.594 350.311 267.901 351.572C268.651 351.982 269.542 351.106 268.925 350.405C267.028 348.247 261.849 347.02 259.523 349.031C259.287 349.232 259.178 349.638 259.349 349.916C259.376 349.96 259.406 350.003 259.434 350.044Z" fill="white"/>
<path d="M268.392 270.395C268.392 270.395 259.345 274.951 257.634 281.532C255.923 288.113 259.422 316.462 263.327 335.866C263.327 335.866 271.616 339.039 280.223 332.98C280.223 332.98 278.691 301.612 278.783 299.925C278.873 298.237 289.976 299.081 291.934 296.043C293.89 293.006 295.375 276.301 291.934 268.371L268.392 270.395Z" fill="#9B68C4"/>
<path d="M291.934 268.37L268.392 270.394C268.392 270.394 259.344 274.95 257.634 281.531C257.477 282.135 257.365 282.927 257.292 283.873C259.624 284.965 264.925 284.37 266.048 284.37C270.434 284.37 279.547 287.407 277.523 293.482C276.847 295.506 274.485 296.182 274.148 297.868C273.473 300.231 275.496 302.594 276.171 304.618C278.143 309.124 278.472 313.631 279.506 317.941C279.122 309.626 278.735 300.797 278.782 299.923C278.872 298.235 289.975 299.079 291.933 296.041C293.889 293.005 295.374 276.3 291.934 268.37Z" fill="#633870"/>
<path d="M237.994 175.689C233.202 173.54 233.763 163.142 244.567 159.88C252.265 157.555 270.543 156.32 274.591 167.008C278.64 177.694 275.16 188.665 280.896 189.708C286.634 190.751 299.234 197.5 286.297 212.686C273.36 227.873 240.4 228.661 232.751 217.748C225.102 206.837 232.356 199.458 235.564 193.52C238.773 187.583 238.779 178.515 237.994 175.689Z" fill="#633870"/>
<path d="M274.261 199.888C272.799 196.291 269.494 195.075 269.494 195.075C263.491 194.648 258.675 177.053 258.675 177.053C255.525 175.928 241.246 173.012 241.246 173.012C238.434 175.487 238.939 180.991 238.939 184.253C238.939 189.652 236.688 195.839 238.601 201.014C239.837 204.389 245.575 206.637 243.549 210.575C241.974 213.725 239.163 216.201 237.475 219.351C237.134 219.957 236.848 220.576 236.584 221.201C244.463 226.017 259.46 226.505 271.804 222.081C273.063 215.521 275.343 202.555 274.261 199.888Z" fill="#4B2B56"/>
<path d="M280.897 189.708C276.626 188.931 277.464 182.647 276.497 175.076C275.627 177.414 274.539 179.709 273.81 182.228C272.797 185.603 270.997 191.227 275.048 193.252C278.985 195.163 283.146 195.615 286.521 198.651C289.597 201.415 290.207 204.708 289.619 208.064C296.577 196.116 286.015 190.638 280.897 189.708Z" fill="#4B2B56"/>
<path d="M238.954 172.927C238.198 168.644 240.909 165.13 244.534 163.134C247.217 161.656 250.585 161.476 253.53 160.869C253.818 160.808 253.754 160.333 253.462 160.355C249.392 160.667 245.225 161.015 241.808 163.46C238.673 165.704 237.039 169.476 238.496 173.053C238.61 173.334 239.008 173.232 238.954 172.927Z" fill="#8A41B6"/>
<path d="M236.892 195.601C235.152 198.711 232.048 201.826 231.876 205.587C231.737 208.623 232.691 211.825 235.46 213.419C235.803 213.616 236.319 213.191 236.044 212.834C233.86 210.005 232.361 207.517 233.241 203.778C233.915 200.909 235.964 198.416 236.936 195.621C236.945 195.596 236.907 195.579 236.892 195.601Z" fill="#8A41B6"/>
<path d="M259.488 160.616C258.386 165.958 263.305 171.243 267.691 173.627C268.017 173.806 268.369 173.374 268.093 173.106C264.414 169.528 259.385 166.464 259.581 160.629C259.582 160.576 259.498 160.563 259.488 160.616Z" fill="#8A41B6"/>
<path d="M256.79 160.935C254.838 161.438 252.924 162.353 251.697 164.013C250.565 165.55 249.397 167.827 249.873 169.778C249.955 170.118 250.495 170.221 250.654 169.88C251.408 168.252 251.435 166.5 252.377 164.899C253.401 163.16 255.04 161.898 256.844 161.065C256.921 161.031 256.864 160.916 256.79 160.935Z" fill="#8A41B6"/>
<path d="M251.987 213.249C251.624 217.401 249.737 265.895 248.95 269.045C248.163 272.194 281.347 273.207 284.723 269.045C288.098 264.883 280.673 205.728 273.474 203.358C266.274 200.988 252.775 204.25 251.987 213.249Z" fill="#30393E"/>
<path d="M257.632 219.323C257.54 212.348 256.598 204.586 256.598 204.586C253.9 205.711 247.488 208.861 246.622 209.968C246.46 210.176 246.349 210.516 246.286 210.977C243.875 213.452 237.474 219.95 232.639 224.159C226.565 229.447 214.302 238.896 214.302 238.896C214.302 238.896 218.352 241.597 222.964 241.821C226.956 242.015 243.478 235.39 247.858 233.603C247.757 246.534 246.768 265.34 246.364 266.231C245.8 267.469 236.239 270.618 231.401 272.756C226.565 274.892 226.901 276.805 230.501 275.343C234.1 273.881 251.65 271.293 253.318 267.242C254.987 263.196 257.724 226.298 257.632 219.323Z" fill="#FFF9F3"/>
<path d="M250.199 260.81C251.172 254.25 251.334 247.607 252.224 241.047C252.71 237.644 251.352 227.195 249.47 227.519C245.157 228.261 240.48 230.273 236.754 232.218C230.93 235 225.313 238.144 219.696 241.278C220.716 241.557 221.822 241.767 222.963 241.821C226.955 242.015 243.477 235.39 247.857 233.603C247.756 246.534 246.767 265.34 246.363 266.231C245.8 267.469 236.238 270.618 231.401 272.756C228.299 274.127 227.333 275.399 227.983 275.755C233.078 273.726 238.216 271.842 243.152 269.559C247.203 267.616 249.552 265.268 250.199 260.81Z" fill="#EADFD3"/>
<path d="M268.545 201.775C268.545 201.775 267.959 229.448 267.903 237.66C267.847 245.873 265.935 268.37 263.235 270.62C260.535 272.87 256.578 277.267 256.937 282.995C257.049 284.794 259.075 283.332 260.649 281.195C262.224 279.057 271.11 276.132 276.96 280.969C282.81 285.807 286.184 298.293 290.46 299.98C294.733 301.668 303.395 300.881 299.796 295.706C296.197 290.531 297.659 276.471 292.935 269.832C289.758 265.37 290.573 239.46 289.224 229.223C287.872 218.987 280.249 202.213 268.545 201.775Z" fill="#FFF9F3"/>
<path d="M282.275 243.315C284.896 243.626 287.503 243.978 290.113 244.301C289.905 238.411 289.698 232.838 289.221 229.222C288.13 220.946 282.934 208.401 274.801 203.668C276.955 207.182 279.134 210.757 281.06 214.397C282.519 217.233 284.219 220.311 284.543 223.551C285.11 229.058 279.197 230.841 274.986 232.218C272.66 232.944 270.306 233.584 267.939 234.223C267.922 235.569 267.909 236.738 267.903 237.66C267.894 238.91 267.842 240.494 267.752 242.283C269.398 242.306 271.022 242.344 272.635 242.344C275.875 242.344 279.035 242.91 282.275 243.315Z" fill="#F4EBE4"/>
<path d="M290.391 251.656C290.327 250.159 290.268 248.641 290.214 247.126C286.275 247.126 282.333 247.262 278.397 247.289C275.21 247.31 270.849 246.672 267.415 247.535C267.341 248.492 267.26 249.469 267.171 250.455C270.211 251.537 274.155 251.29 277.068 251.385C281.499 251.529 285.951 251.673 290.391 251.656Z" fill="#EADFD3"/>
<path d="M287.974 267.253C287.419 267.123 286.825 267.119 286.271 266.935C283.551 266.031 270.772 266.622 267.608 265.243C267.289 265.102 266.999 265.45 267.235 265.726C268.512 267.228 270.305 267.849 272.192 268.074C270.947 268.424 269.748 268.827 268.624 269.276C263.48 271.326 259.897 274.73 258.477 280.107C258.419 280.321 258.719 280.534 258.873 280.339C262.033 276.342 265.52 273.092 270.33 271.227C273.039 270.177 276.002 269.693 278.873 269.35C281.886 268.993 285.027 269.319 287.973 268.626C288.654 268.466 288.655 267.412 287.974 267.253Z" fill="#EADFD3"/>
<path d="M272.094 202.208C271.116 205.761 272.432 209.651 271.849 213.317C271.582 215.002 271.129 216.596 270.994 218.303C270.809 220.634 271.594 223.135 271.728 225.475C272.009 230.356 270.324 235.326 269.463 240.093C268.769 243.936 267.889 247.758 267.586 251.658C267.57 251.872 267.92 251.919 267.959 251.708C269.561 243.173 273.862 235.476 274.467 226.651C274.602 224.683 274.374 222.684 274.176 220.728C273.929 218.285 274.346 216.112 274.565 213.685C274.91 209.865 273.655 205.777 272.367 202.208C272.322 202.082 272.132 202.066 272.094 202.208Z" fill="#F4EBE4"/>
<path d="M267.903 201.775C267.903 201.775 267.448 248.724 266.354 258.04C266.354 258.04 270.885 239.909 272.01 231.81C273.136 223.71 272.01 217.299 272.01 217.299C272.01 217.299 273.455 214.606 273.726 211.113C273.954 208.205 272.797 202.338 271.786 201.775C270.772 201.213 269.172 200.876 267.903 201.775Z" fill="#FFF9F3"/>
<path d="M252.701 206.127C251.017 208.256 250.558 210.796 250.003 213.413C249.37 216.399 251.015 218.995 251.801 221.801C252.921 225.798 252.465 230.297 252.656 234.404C252.832 238.172 253.362 241.999 253.961 245.72C254.001 245.971 254.367 245.892 254.382 245.662C254.573 242.309 254.187 238.992 253.964 235.645C253.728 232.07 254.256 228.541 254.339 224.971C254.398 222.426 253.802 220.015 252.769 217.709C251.081 213.942 252.533 210.312 253.295 206.47C253.357 206.16 252.943 205.82 252.701 206.127Z" fill="#F4EBE4"/>
<path d="M256.913 204.316C256.913 204.316 258.511 245.76 254.684 259.245L253.094 220.561C253.094 220.561 251.65 217.869 251.378 214.374C251.15 211.468 252.522 205.879 253.318 205.037C254.096 204.215 255.642 203.726 256.913 204.316Z" fill="#FFF9F3"/>
<path d="M250.812 240.646C251.514 242.009 260.121 241.762 264.852 241.762C268.54 241.762 268.838 235.915 263.759 235.466C258.68 235.018 249.814 238.706 250.812 240.646Z" fill="#5B6D75"/>
<path opacity="0.3" d="M263.759 235.467C260.567 235.185 255.879 236.537 253.084 238.063C254.088 239.511 258.049 238.593 259.373 238.548C260.567 238.548 261.816 238.982 262.685 239.797C263.331 240.354 263.691 241.03 263.884 241.767C264.22 241.764 264.545 241.763 264.853 241.763C268.54 241.762 268.839 235.916 263.759 235.467Z" fill="#5B6D75"/>
<path d="M269.756 233.691C269.756 233.691 261.778 232.834 260.163 233.032C258.547 233.23 254.197 236.296 254.13 237.285C254.065 238.273 255.382 238.273 256.074 237.912C256.767 237.549 259.14 235.768 260.228 235.735C261.317 235.703 264.558 240 269.96 238.131C271.174 237.715 271.701 234.549 269.756 233.691Z" fill="#FFD5CF"/>
<path d="M269.757 233.691C269.757 233.691 268.685 233.577 267.248 233.44C267.241 234.064 267.246 234.686 267.246 235.288C267.246 236.406 267.234 237.507 267.332 238.595C268.144 238.589 269.018 238.459 269.961 238.131C271.175 237.715 271.702 234.548 269.757 233.691Z" fill="#FFBDAE"/>
<path d="M273.757 202.61C271.497 203.09 292.717 228.517 291.057 229.63C289.397 230.742 269.141 231.491 268.547 232.533C267.951 233.573 269.337 240.177 268.547 241.214C267.755 242.251 305.476 243.156 308.839 239.436C313.755 233.998 290.537 199.042 273.757 202.61Z" fill="#FFF9F3"/>
<path d="M275.554 233.919C280.17 231.975 285.355 232.218 290.295 231.894C293.049 231.732 297.991 231.409 295.964 227.438C294.749 225.252 292.887 223.389 291.185 221.606C288.918 219.258 286.567 216.908 284.463 214.396C281.249 210.705 279.079 207.011 278.089 202.491C276.614 202.289 275.16 202.312 273.755 202.611C271.495 203.091 292.715 228.517 291.055 229.63C289.394 230.742 269.139 231.491 268.545 232.533C268.053 233.39 268.904 238.003 268.78 240.193C270.472 237.532 272.477 235.239 275.554 233.919Z" fill="white"/>
<path d="M290.855 294.865C291.408 297.754 298.015 299.695 299.003 296.317C299.241 295.505 298.724 294.625 297.918 294.405C296.84 294.11 295.76 294.732 294.652 294.718C293.545 294.704 292.36 294.217 291.267 294.325C290.977 294.354 290.799 294.574 290.855 294.865Z" fill="#EADFD3"/>
<path d="M257.045 199.412C257.045 199.412 258.101 207.512 258.079 209.199C258.059 210.886 267.394 209.649 267.507 206.949C267.62 204.249 264.246 196.747 264.246 196.747L257.045 199.412Z" fill="#FFD5CF"/>
<path d="M265.854 200.665C265.045 198.527 264.245 196.748 264.245 196.748L257.044 199.413C257.044 199.413 257.462 202.619 257.767 205.417C259.88 204.678 261.905 203.706 263.739 202.365C264.479 201.819 265.171 201.246 265.854 200.665Z" fill="#FFBDAE"/>
<path d="M241.246 173.013C241.246 173.013 235.049 188.305 242.142 198.292C249.237 208.279 265.907 200.357 267.904 195.743C267.904 195.743 265.423 193.746 264.804 187.547C264.185 181.348 262.049 170.326 241.246 173.013Z" fill="#FFD5CF"/>
<path d="M255.502 177.391C257.527 178.656 259.224 180.064 260.649 181.892C262.533 184.31 264.606 189.887 265.266 190.382C265.187 189.905 264.857 188.087 264.805 187.548C264.185 181.349 262.048 170.327 241.246 173.014C241.246 173.014 240.983 173.669 240.628 174.783C245.764 174.359 251.094 174.694 255.502 177.391Z" fill="#FFBDAE"/>
<path d="M249.953 194.055C249.79 194.505 249.861 194.962 249.791 195.435C249.692 196.093 249.383 196.717 248.93 197.195C248.167 198 246.655 198.072 245.622 198.177C245.567 198.182 245.556 198.252 245.607 198.271C246.959 198.774 248.277 198.815 249.484 197.914C250.572 197.098 251.23 195.213 250.429 193.993C250.301 193.796 250.031 193.842 249.953 194.055Z" fill="#FF8F8F"/>
<path d="M254.087 186.525C254.148 186.191 253.707 185.97 253.522 186.287C253.043 187.113 252.577 187.756 251.615 188.034C251.326 188.116 250.847 188.259 250.707 187.904C250.566 187.554 250.427 187.237 250.352 186.862C250.332 186.763 250.179 186.744 250.134 186.835C249.882 187.335 249.65 187.86 249.862 188.415C250.079 188.981 250.592 189.201 251.162 189.237C252.525 189.328 253.861 187.735 254.087 186.525Z" fill="#4B2B56"/>
<path d="M243.074 186.565C242.684 187.278 242.244 187.751 241.442 187.974C240.832 188.142 240.798 187.149 240.8 186.764C240.8 186.741 240.769 186.734 240.756 186.753C240.33 187.436 240.129 188.4 241.094 188.712C242.306 189.105 243.241 187.834 243.648 186.9C243.813 186.519 243.283 186.181 243.074 186.565Z" fill="#4B2B56"/>
<path d="M255.687 188.296C255.293 188.435 254.741 188.687 254.251 189.023C253.943 189.172 253.646 189.359 253.367 189.596C252.285 190.515 252.736 192.074 253.964 192.523C254.85 192.847 255.974 192.347 256.76 191.976C257.696 191.532 258.651 190.794 258.675 189.669C258.706 188.137 256.752 187.919 255.687 188.296Z" fill="#FF8F8F"/>
<path d="M239.426 187.998C238.636 187.932 238.086 188.777 238.148 189.492C238.15 189.519 238.158 189.547 238.162 189.573C238.158 189.601 238.15 189.63 238.147 189.657C238.072 190.287 238.563 190.974 239.048 191.296C239.314 191.472 239.657 191.562 239.973 191.565C240.498 191.57 240.868 191.269 241.164 190.873C241.585 190.312 241.327 189.484 240.947 188.982C240.559 188.467 240.095 188.054 239.426 187.998Z" fill="#FF8F8F"/>
<path d="M251.626 181.423C252.054 181.296 252.465 181.319 252.887 181.462C253.322 181.611 253.542 181.944 253.832 182.267C253.97 182.421 254.266 182.26 254.189 182.06C253.815 181.084 252.43 180.851 251.563 181.195C251.423 181.248 251.475 181.467 251.626 181.423Z" fill="#4B2B56"/>
<path d="M243.252 182.064C242.825 181.939 242.412 181.961 241.99 182.104C241.554 182.253 241.336 182.586 241.046 182.908C240.907 183.062 240.611 182.902 240.689 182.701C241.062 181.727 242.449 181.491 243.315 181.836C243.454 181.89 243.403 182.109 243.252 182.064Z" fill="#4B2B56"/>
<path d="M245.2 188.553C245.091 189.124 244.49 191.684 243.327 192.233C242.166 192.782 242.196 194.559 243.714 194.976C245.233 195.397 246.685 193.912 246.621 191.942C246.557 189.972 245.405 187.492 245.2 188.553Z" fill="#FF8F8F"/>
<path d="M245.501 188.36C245.814 190.676 245.294 193.363 243.761 194.986C245.261 195.363 246.684 193.891 246.621 191.941C246.572 190.468 245.914 188.71 245.501 188.36Z" fill="#EA8686"/>
<path d="M243.322 193.57C243.412 193.269 243.622 193.088 243.545 192.745C243.528 192.666 243.455 192.601 243.379 192.579C242.75 192.4 242.538 193.2 242.742 193.646C242.861 193.91 243.25 193.81 243.322 193.57Z" fill="#FFA4A4"/>
<path d="M244.325 192.399C244.39 192.311 244.417 192.258 244.433 192.151C244.459 191.99 244.368 191.814 244.182 191.82C244.048 191.824 243.96 191.857 243.84 191.914C243.371 192.129 243.934 192.912 244.325 192.399Z" fill="#FFA4A4"/>
<path d="M271.85 194.565C271.85 197.208 269.707 199.351 267.065 199.351C264.421 199.351 262.279 197.208 262.279 194.565C262.279 191.922 264.421 189.779 267.065 189.779C269.707 189.779 271.85 191.922 271.85 194.565Z" fill="#FFD5CF"/>
<path d="M266.517 194.055C266.241 194.112 265.998 194.221 265.783 194.365C265.854 194.211 265.938 194.053 266.038 193.888C266.656 192.863 267.916 192.55 269.028 192.47C269.104 192.464 269.131 192.347 269.047 192.33C267.739 192.066 266.649 192.274 265.718 193.281C264.661 194.424 264.206 196.408 265.093 197.764C265.304 198.087 265.771 197.877 265.701 197.508C265.686 197.436 265.674 197.371 265.661 197.302C265.731 197.024 265.797 196.748 265.839 196.448C265.91 195.942 266.19 195.444 266.682 195.24C267.504 194.901 268.653 195.116 268.821 196.101C268.909 196.615 269.701 196.475 269.707 195.981C269.724 194.29 267.913 193.764 266.517 194.055Z" fill="#FFBDAE"/>
<path d="M227.784 221.202C227.784 225.438 224.349 228.872 220.114 228.872H144.824C140.586 228.872 137.152 225.438 137.152 221.202V157.826C137.152 153.59 140.586 150.156 144.824 150.156H220.114C224.349 150.156 227.784 153.59 227.784 157.826V221.202Z" fill="#29ABE2"/>
<path opacity="0.3" d="M215.723 162.115C215.723 157.879 212.289 154.445 208.053 154.445H137.947C137.444 155.467 137.153 156.612 137.153 157.827V221.203C137.153 225.439 140.587 228.873 144.825 228.873H214.931C215.432 227.851 215.723 226.706 215.723 225.491V162.115Z" fill="#29ABE2"/>
<path d="M191.82 189.242C191.82 197.739 184.934 204.624 176.438 204.624C167.942 204.624 161.055 197.738 161.055 189.242C161.055 180.746 167.942 173.86 176.438 173.86C184.934 173.86 191.82 180.747 191.82 189.242Z" fill="white"/>
<path opacity="0.3" d="M184.825 185.605H180.075V180.856C180.075 180 179.383 179.307 178.528 179.307H174.348C173.492 179.307 172.8 180.001 172.8 180.856V185.605H168.051C167.195 185.605 166.503 186.298 166.503 187.152V191.331C166.503 192.186 167.196 192.88 168.051 192.88H172.8V197.628C172.8 198.483 173.493 199.174 174.348 199.174H178.528C179.384 199.174 180.075 198.482 180.075 197.628V192.88H184.825C185.681 192.88 186.373 192.186 186.373 191.331V187.152C186.373 186.298 185.681 185.605 184.825 185.605Z" fill="#29ABE2"/>
<path d="M248.757 238.94C248.757 239.897 247.98 240.673 247.023 240.673H196.27C195.313 240.673 194.536 239.897 194.536 238.94C194.536 237.981 195.313 237.205 196.27 237.205H247.023C247.98 237.205 248.757 237.981 248.757 238.94Z" fill="#5B6D75"/>
<path opacity="0.3" d="M216.004 238.46H248.681C248.472 237.737 247.814 237.205 247.023 237.205H196.27C195.313 237.205 194.536 237.981 194.536 238.94C194.536 239.897 195.313 240.673 196.27 240.673H214.344C214.301 240.521 214.27 240.362 214.27 240.194C214.27 239.236 215.047 238.46 216.004 238.46Z" fill="#5B6D75"/>
<path d="M202.812 235.866C196.641 235.866 195.435 236.28 195.435 233.924V227.746C195.435 224.018 192.414 220.996 188.685 220.996H174.728C170.999 220.996 167.978 224.018 167.978 227.746V233.924C167.978 236.636 169.582 238.969 171.89 240.042C172.317 240.43 172.878 240.673 173.502 240.673H174.728H188.685H202.812C204.139 240.673 205.215 239.597 205.215 238.269C205.215 236.944 204.139 235.866 202.812 235.866Z" fill="#5B6D75"/>
<path opacity="0.3" d="M187.04 236.091V229.913C187.04 226.186 184.018 223.164 180.29 223.164H169.783C168.667 224.368 167.979 225.974 167.979 227.746V233.924C167.979 236.636 169.583 238.969 171.891 240.042C172.318 240.43 172.879 240.673 173.503 240.673H174.729H188.686H196.795C196.804 240.595 187.04 239.515 187.04 236.091Z" fill="#5B6D75"/>
<path d="M161.698 243.015H221.647V354.042C221.647 357.77 218.625 360.791 214.897 360.791H161.698V243.015Z" fill="#ADAFEC"/>
<path opacity="0.5" d="M161.698 243.015H221.647V245.734V253.004V354.042C221.647 357.77 218.625 360.791 214.897 360.791H202.238C204.435 359.677 205.944 357.404 205.944 354.774V253.004H161.697L161.698 243.015Z" fill="#393280"/>
<path d="M328.617 240.673H161.698V247.945H328.617V240.673Z" fill="#ADAFEC"/>
<path opacity="0.8" d="M133.025 277.319C133.025 281.907 129.306 285.627 124.718 285.627H50.6804C46.0916 285.627 42.3716 281.907 42.3716 277.319V239.418C42.3716 234.83 46.0916 231.11 50.6804 231.11H124.717C129.305 231.11 133.024 234.83 133.024 239.418L133.025 277.319Z" fill="white"/>
<path d="M80.6094 276.579C80.018 276.579 79.5063 276.163 79.3873 275.585L77.2667 265.27H56.3262C55.6369 265.27 55.0811 264.714 55.0811 264.023C55.0811 263.335 55.6369 262.778 56.3262 262.778H78.2804C78.8718 262.778 79.3835 263.194 79.5035 263.774L80.6084 269.154L86.3761 241.15C86.4961 240.57 87.0068 240.157 87.5963 240.157C87.6097 240.157 87.6231 240.157 87.6366 240.158C88.2443 240.178 88.7492 240.634 88.8299 241.235L91.8231 263.258L96.4062 250.948C96.6078 250.411 97.1569 250.071 97.7156 250.145C98.2868 250.209 98.7361 250.653 98.811 251.221L100.31 262.778H119.072C119.76 262.778 120.316 263.335 120.316 264.023C120.316 264.714 119.76 265.27 119.072 265.27H99.2151C98.5911 265.27 98.0603 264.806 97.9796 264.185L96.986 256.53L92.426 268.782C92.2235 269.319 91.683 269.64 91.1185 269.587C90.5511 269.523 90.099 269.082 90.0231 268.516L87.3457 248.803L81.8276 275.586C81.7086 276.163 81.1998 276.579 80.6094 276.579Z" fill="#393280"/>
<path opacity="0.8" d="M431.941 297.525C431.941 300.808 429.28 303.469 425.998 303.469H341.408C338.127 303.469 335.467 300.808 335.467 297.525V248.103C335.467 244.821 338.127 242.159 341.408 242.159H425.998C429.281 242.159 431.941 244.821 431.941 248.103V297.525Z" fill="white"/>
<path d="M362.792 249.469C367.96 249.469 372.613 252.053 375.334 256.253C378.06 252.053 382.71 249.469 387.879 249.469C396.139 249.469 402.857 256.186 402.857 264.445C402.857 266.393 402.204 268.6 400.927 271.021H419.775C420.615 271.021 421.294 271.702 421.294 272.542C421.294 273.382 420.615 274.063 419.775 274.063H393.871C393.302 274.063 392.781 273.748 392.523 273.244L389.623 267.669L386.446 279.421C386.279 280.043 385.739 280.49 385.096 280.541C385.057 280.543 385.019 280.545 384.978 280.545C384.382 280.545 383.838 280.198 383.591 279.647L380.162 272.006L379.301 273.358C379.021 273.797 378.541 274.063 378.018 274.063H369.071C368.231 274.063 367.55 273.382 367.55 272.542C367.55 271.702 368.231 271.021 369.071 271.021H377.182L379.11 267.99C379.41 267.519 379.944 267.248 380.502 267.291C381.059 267.33 381.553 267.673 381.779 268.184L384.622 274.518L387.706 263.11C387.871 262.504 388.389 262.062 389.011 261.995C389.633 261.927 390.235 262.248 390.524 262.805L394.793 271.022H397.423C399.005 268.459 399.814 266.246 399.814 264.446C399.814 257.866 394.461 252.51 387.879 252.51C382.918 252.51 378.549 255.5 376.751 260.128C376.524 260.713 375.964 261.1 375.333 261.1C374.705 261.1 374.146 260.714 373.917 260.128C372.119 255.501 367.752 252.51 362.791 252.51C356.21 252.51 350.858 257.865 350.858 264.446C350.858 272.819 367.736 287.111 375.33 292.753C377.128 291.401 381.413 288.097 385.894 284.008C386.511 283.444 387.478 283.487 388.042 284.107C388.609 284.729 388.566 285.689 387.943 286.258C381.953 291.721 376.282 295.832 376.223 295.875C375.961 296.064 375.649 296.162 375.332 296.162C375.021 296.162 374.71 296.064 374.445 295.875C373.353 295.088 347.816 276.498 347.816 264.446C347.818 256.186 354.534 249.469 362.792 249.469Z" fill="#393280"/>
<path opacity="0.8" d="M186.345 329.1C186.345 334.533 181.94 338.94 176.504 338.94H97.5397C92.1051 338.94 87.6987 334.533 87.6987 329.1V286.469C87.6987 281.035 92.1051 276.629 97.5397 276.629H176.504C181.94 276.629 186.345 281.035 186.345 286.469V329.1Z" fill="white"/>
<path d="M157.488 307.786C157.488 319.088 148.325 328.25 137.021 328.25C125.717 328.25 116.556 319.088 116.556 307.786C116.556 296.484 125.718 287.32 137.021 287.32C148.324 287.319 157.488 296.483 157.488 307.786Z" fill="#393280"/>
<path opacity="0.8" d="M353.306 318.332C353.306 320.889 351.233 322.962 348.677 322.962H311.529C308.972 322.962 306.899 320.889 306.899 318.332V298.277C306.899 295.721 308.972 293.648 311.529 293.648H348.677C351.233 293.648 353.306 295.721 353.306 298.277V318.332Z" fill="white"/>
<path d="M325.817 308.305C325.817 309.8 324.606 311.01 323.112 311.01C321.617 311.01 320.407 309.799 320.407 308.305C320.407 306.81 321.618 305.6 323.112 305.6C324.607 305.599 325.817 306.81 325.817 308.305Z" fill="#393280"/>
<path d="M332.809 308.305C332.809 309.8 331.598 311.01 330.105 311.01C328.612 311.01 327.397 309.799 327.397 308.305C327.397 306.81 328.613 305.6 330.105 305.6C331.598 305.599 332.809 306.81 332.809 308.305Z" fill="#393280"/>
<path d="M339.799 308.305C339.799 309.8 338.586 311.01 337.094 311.01C335.599 311.01 334.389 309.799 334.389 308.305C334.389 306.81 335.6 305.6 337.094 305.6C338.586 305.599 339.799 306.81 339.799 308.305Z" fill="#393280"/>
<path d="M132.809 322V318.842H135.946V322H132.809ZM135.7 313.1H133.055V312.3C133.055 311.397 133.164 310.611 133.383 309.941C133.602 309.271 133.889 308.684 134.244 308.178C134.613 307.672 135.023 307.221 135.475 306.824C135.939 306.428 136.411 306.052 136.89 305.696C137.382 305.327 137.854 304.958 138.305 304.589C138.77 304.22 139.18 303.81 139.535 303.358C139.904 302.907 140.198 302.395 140.417 301.82C140.636 301.246 140.745 300.569 140.745 299.79V299.4C140.745 298.744 140.622 298.136 140.376 297.575C140.13 297.001 139.788 296.502 139.351 296.078C138.927 295.654 138.428 295.319 137.854 295.073C137.293 294.827 136.685 294.704 136.028 294.704H135.454C134.798 294.704 134.183 294.827 133.608 295.073C133.048 295.319 132.549 295.654 132.111 296.078C131.688 296.502 131.353 297.001 131.106 297.575C130.86 298.136 130.737 298.744 130.737 299.4V300.59L128.092 300.159V299.4C128.092 298.402 128.276 297.466 128.646 296.591C129.028 295.716 129.548 294.95 130.204 294.294C130.86 293.638 131.626 293.125 132.501 292.756C133.39 292.373 134.333 292.182 135.331 292.182H136.172C137.17 292.182 138.106 292.373 138.981 292.756C139.856 293.125 140.622 293.638 141.278 294.294C141.935 294.95 142.447 295.716 142.816 296.591C143.199 297.466 143.391 298.402 143.391 299.4V299.79C143.391 300.733 143.281 301.561 143.062 302.271C142.844 302.982 142.55 303.611 142.181 304.158C141.825 304.705 141.415 305.19 140.95 305.614C140.499 306.038 140.027 306.435 139.535 306.804C139.057 307.173 138.585 307.535 138.12 307.891C137.669 308.246 137.259 308.636 136.89 309.06C136.534 309.483 136.247 309.955 136.028 310.475C135.81 310.994 135.7 311.603 135.7 312.3V313.1Z" fill="white"/>
<defs>
<linearGradient id="paint0_linear_206_3927" x1="240" y1="448.47" x2="240" y2="31.5303" gradientUnits="userSpaceOnUse">
<stop stop-color="#CCE4FC"/>
<stop offset="1" stop-color="#F6F9FE"/>
</linearGradient>
<linearGradient id="paint1_linear_206_3927" x1="245.152" y1="373.353" x2="245.152" y2="84.2547" gradientUnits="userSpaceOnUse">
<stop stop-color="#CCE4FC"/>
<stop offset="1" stop-color="#F6F9FE"/>
</linearGradient>
</defs>
</svg>
