<svg xmlns="http://www.w3.org/2000/svg" xmlns:xlink="http://www.w3.org/1999/xlink" width="535" height="370" viewBox="0 0 535 370">
  <defs>
    <clipPath id="clip-path">
      <rect id="Rectangle_1" data-name="Rectangle 1" width="535" height="370" transform="translate(0 94)" fill="#fff"/>
    </clipPath>
  </defs>
  <g id="csapp" transform="translate(0 -94)" clip-path="url(#clip-path)">
    <path id="Path_30" data-name="Path 30" d="M434.5,423s-24.359-71.52,17.565-122.6,51.919-73.624,53.741-76C497.626,296.6,474.4,343.984,459.64,362.125S434.5,423.013,434.5,423.013Z" fill="#b6d15a"/>
    <path id="Path_31" data-name="Path 31" d="M434.5,423s-14.264-57.369,27.661-108.452,41.823-87.775,43.645-90.146C497.626,296.6,474.4,343.984,459.64,362.125S434.5,423.013,434.5,423.013Z" fill="#a1bc33"/>
    <path id="Path_32" data-name="Path 32" d="M437.193,427.131s-4.13-61.372,39.566-92.734,56.3-46.992,58.228-48.47c-21.606,55.061-49.828,87.443-65.239,98.61S437.193,427.131,437.193,427.131Z" fill="#b6d15a"/>
    <path id="Path_33" data-name="Path 33" d="M437.193,427.131s.841-48.114,44.538-79.488S533.062,287.406,535,285.914c-21.606,55.062-49.828,87.443-65.239,98.611s-32.555,42.593-32.555,42.593Z" fill="#a1bc33"/>
    <path id="Path_34" data-name="Path 34" d="M149.253,287.928H136.048a8.308,8.308,0,0,1-8.3-8.3V267.875a91.751,91.751,0,0,1-18.546-5.062l-5.928,10.263a8.3,8.3,0,0,1-11.332,3.034l-11.434-6.6a8.314,8.314,0,0,1-3.034-11.347l6.042-10.466a93.361,93.361,0,0,1-13.295-13.616l-10.669,6.158A8.3,8.3,0,0,1,48.222,237.2l-6.6-11.435a8.312,8.312,0,0,1,3.034-11.346l10.975-6.336a91.779,91.779,0,0,1-4.551-18.142H38.088a8.307,8.307,0,0,1-8.3-8.3V168.435a8.307,8.307,0,0,1,8.3-8.3H51.549a92.453,92.453,0,0,1,4.984-17.606L44.64,135.671a8.313,8.313,0,0,1-3.034-11.346l6.6-11.436a8.3,8.3,0,0,1,11.332-3.034l12.25,7.076a94.264,94.264,0,0,1,12.849-12.558l-7.176-12.43A8.313,8.313,0,0,1,80.5,80.6l11.434-6.6a8.321,8.321,0,0,1,11.344,3.034l7.279,12.609A92.166,92.166,0,0,1,127.749,85.1V70.462a8.308,8.308,0,0,1,8.3-8.3h13.205a8.308,8.308,0,0,1,8.3,8.3V85.1a92.431,92.431,0,0,1,17.195,4.539l7.279-12.609a8.3,8.3,0,0,1,11.332-3.034l11.434,6.6a8.312,8.312,0,0,1,3.033,11.346l-7.176,12.43A92.8,92.8,0,0,1,213.5,116.931l12.25-7.076a8.3,8.3,0,0,1,11.332,3.034l6.6,11.436a8.312,8.312,0,0,1-3.033,11.346l-11.893,6.859a92.453,92.453,0,0,1,4.984,17.606H247.2a8.307,8.307,0,0,1,8.3,8.3v13.208a8.307,8.307,0,0,1-8.3,8.3H234.212a92.008,92.008,0,0,1-4.551,18.142l10.975,6.336a8.313,8.313,0,0,1,3.034,11.346l-6.6,11.435a8.312,8.312,0,0,1-11.345,3.035l-10.669-6.158a93.36,93.36,0,0,1-13.295,13.616L207.8,258.16a8.314,8.314,0,0,1-3.034,11.347l-11.434,6.6A8.3,8.3,0,0,1,182,273.076l-5.927-10.263a91.76,91.76,0,0,1-18.547,5.062v11.754a8.307,8.307,0,0,1-8.3,8.3ZM108.6,261.118l.548.217a90.734,90.734,0,0,0,19.388,5.29l.573.09v12.927a6.943,6.943,0,0,0,6.935,6.935h13.205a6.942,6.942,0,0,0,6.935-6.935V266.715l.573-.09a90.941,90.941,0,0,0,19.388-5.29l.549-.217,6.513,11.282a6.929,6.929,0,0,0,9.471,2.55l11.434-6.6a6.941,6.941,0,0,0,2.537-9.472l-6.616-11.461.446-.37a91.692,91.692,0,0,0,13.894-14.227l.37-.459,11.689,6.744a6.936,6.936,0,0,0,9.471-2.537l6.6-11.436a6.938,6.938,0,0,0-2.537-9.472L228,208.746l.2-.535a90.816,90.816,0,0,0,4.754-18.983l.077-.586h14.174a6.943,6.943,0,0,0,6.935-6.935V168.5a6.942,6.942,0,0,0-6.935-6.935H232.6l-.1-.561a90.638,90.638,0,0,0-5.226-18.448l-.216-.548,12.912-7.458a6.941,6.941,0,0,0,2.537-9.472l-6.6-11.436a6.93,6.93,0,0,0-9.471-2.549l-13.244,7.649-.37-.446a92.116,92.116,0,0,0-13.473-13.17l-.459-.369,7.763-13.45a6.938,6.938,0,0,0-2.537-9.472l-11.434-6.6a6.931,6.931,0,0,0-9.471,2.55L175.346,91.4l-.535-.2a90.239,90.239,0,0,0-18.037-4.755l-.573-.089v-15.8a6.943,6.943,0,0,0-6.935-6.935H136.06a6.942,6.942,0,0,0-6.934,6.935v15.8l-.574.089a91.093,91.093,0,0,0-18.036,4.755l-.536.2L102.115,77.78a6.93,6.93,0,0,0-9.47-2.55l-11.434,6.6a6.941,6.941,0,0,0-2.537,9.472l7.763,13.45-.459.369A92.09,92.09,0,0,0,72.5,118.295l-.37.446-13.244-7.649a6.93,6.93,0,0,0-9.471,2.549l-6.6,11.436a6.938,6.938,0,0,0,2.537,9.472l12.913,7.458-.217.548A90.7,90.7,0,0,0,52.823,161l-.1.561H38.113a6.942,6.942,0,0,0-6.934,6.935v13.208a6.942,6.942,0,0,0,6.934,6.935H52.288l.076.586a91.194,91.194,0,0,0,4.755,18.983l.2.535-11.969,6.91a6.941,6.941,0,0,0-2.537,9.472l6.6,11.436a6.931,6.931,0,0,0,9.471,2.55L70.58,232.37l.37.459a92.348,92.348,0,0,0,13.894,14.227l.446.37-6.616,11.461a6.938,6.938,0,0,0,2.537,9.472l11.434,6.6a6.931,6.931,0,0,0,9.47-2.55l6.514-11.282Zm34.047-33.835a50.8,50.8,0,1,1,50.8-50.8A50.863,50.863,0,0,1,142.651,227.283Zm0-100.23a49.44,49.44,0,1,0,49.432,49.439A49.5,49.5,0,0,0,142.651,127.053Z" fill="#fff"/>
    <path id="Path_35" data-name="Path 35" d="M402.279,223.229H395a4.891,4.891,0,0,1-4.882-4.883v-6.221a50.911,50.911,0,0,1-9.777-2.665l-3.136,5.431a4.812,4.812,0,0,1-2.957,2.27,4.863,4.863,0,0,1-3.7-.485l-6.3-3.633a4.881,4.881,0,0,1-1.784-6.668l3.2-5.545a50.417,50.417,0,0,1-7-7.178l-5.647,3.264a4.879,4.879,0,0,1-6.666-1.785l-3.633-6.3a4.891,4.891,0,0,1,1.784-6.667l5.826-3.366a51.274,51.274,0,0,1-2.4-9.549h-6.9a4.892,4.892,0,0,1-4.882-4.883v-7.279a4.892,4.892,0,0,1,4.882-4.883h7.164a51.9,51.9,0,0,1,2.626-9.268l-6.323-3.646a4.882,4.882,0,0,1-1.784-6.668l3.633-6.3a4.873,4.873,0,0,1,6.654-1.784l6.526,3.773a51.678,51.678,0,0,1,6.756-6.591l-3.824-6.629a4.875,4.875,0,0,1,1.784-6.655l6.3-3.646a4.873,4.873,0,0,1,6.654,1.785l3.888,6.731a51.178,51.178,0,0,1,9.025-2.384v-7.8A4.891,4.891,0,0,1,395,98.241h7.278a4.891,4.891,0,0,1,4.882,4.883v7.8a50.612,50.612,0,0,1,9.025,2.384l3.888-6.731a4.88,4.88,0,0,1,6.667-1.785l6.3,3.646a4.808,4.808,0,0,1,2.268,2.958,4.858,4.858,0,0,1-.484,3.7L431,121.724a52.523,52.523,0,0,1,6.756,6.591l6.526-3.773a4.873,4.873,0,0,1,6.654,1.784l3.633,6.3a4.876,4.876,0,0,1-1.785,6.655l-6.322,3.646a51.294,51.294,0,0,1,2.626,9.268h7.164a4.892,4.892,0,0,1,4.882,4.883v7.28a4.891,4.891,0,0,1-4.882,4.882h-6.9a51.41,51.41,0,0,1-2.4,9.549l5.825,3.366a4.876,4.876,0,0,1,1.785,6.655l-3.633,6.3a4.875,4.875,0,0,1-6.666,1.785l-5.647-3.263a51.905,51.905,0,0,1-7.011,7.177l3.2,5.546a4.875,4.875,0,0,1-1.784,6.655l-6.3,3.633a4.894,4.894,0,0,1-6.667-1.785l-3.136-5.431a50.347,50.347,0,0,1-9.776,2.665v6.221a4.892,4.892,0,0,1-4.882,4.883Zm-22.523-15.464.548.217a49.613,49.613,0,0,0,10.618,2.893l.573.09v7.381a3.526,3.526,0,0,0,3.519,3.519h7.278a3.525,3.525,0,0,0,3.518-3.519v-7.381l.574-.09A49.836,49.836,0,0,0,417,207.982l.548-.217,3.722,6.438a3.519,3.519,0,0,0,4.806,1.287l6.3-3.633a3.536,3.536,0,0,0,1.644-2.129,3.474,3.474,0,0,0-.357-2.664l-3.773-6.54.446-.37a50.564,50.564,0,0,0,7.61-7.79l.37-.459,6.666,3.851a3.521,3.521,0,0,0,4.806-1.288l3.633-6.3a3.49,3.49,0,0,0-1.288-4.793l-6.819-3.94.2-.535a49.259,49.259,0,0,0,2.6-10.39l.077-.587h8.081a3.525,3.525,0,0,0,3.518-3.518v-7.28a3.524,3.524,0,0,0-3.518-3.518h-8.311l-.1-.561a49.924,49.924,0,0,0-2.855-10.1l-.217-.549,7.342-4.245a3.538,3.538,0,0,0,1.645-2.129,3.486,3.486,0,0,0-.357-2.664l-3.633-6.3a3.538,3.538,0,0,0-2.129-1.645,3.479,3.479,0,0,0-2.664.357l-7.521,4.348-.369-.447a50.7,50.7,0,0,0-7.381-7.215l-.459-.37,4.411-7.637a3.49,3.49,0,0,0-1.288-4.793l-6.3-3.646a3.519,3.519,0,0,0-4.8,1.287l-4.462,7.726-.548-.2a49.516,49.516,0,0,0-9.878-2.6l-.574-.089v-8.975a3.525,3.525,0,0,0-3.518-3.519h-7.279a3.525,3.525,0,0,0-3.518,3.519v8.975l-.573.089a50.4,50.4,0,0,0-9.879,2.6l-.548.2-4.462-7.726a3.533,3.533,0,0,0-2.129-1.644,3.482,3.482,0,0,0-2.664.357l-6.3,3.646a3.51,3.51,0,0,0-1.3,4.793l4.411,7.637-.459.37a50.7,50.7,0,0,0-7.381,7.215l-.369.447-7.521-4.348a3.52,3.52,0,0,0-4.806,1.288l-3.632,6.3a3.52,3.52,0,0,0,1.287,4.806l7.342,4.245-.217.548a49.345,49.345,0,0,0-2.855,10.1l-.1.561h-8.311a3.526,3.526,0,0,0-3.518,3.519v7.279a3.526,3.526,0,0,0,3.518,3.519h8.082l.076.586a50.2,50.2,0,0,0,2.6,10.391l.2.535-6.82,3.939A3.52,3.52,0,0,0,343.9,188.2l3.632,6.3a3.52,3.52,0,0,0,4.806,1.288l6.667-3.85.369.459a50.6,50.6,0,0,0,7.61,7.789l.446.37-3.773,6.54a3.52,3.52,0,0,0,1.288,4.806l6.3,3.634a3.5,3.5,0,0,0,4.792-1.275l3.723-6.438Zm18.89-17.95a28.3,28.3,0,1,1,28.286-28.3A28.334,28.334,0,0,1,398.646,189.815Zm0-55.227a26.938,26.938,0,1,0,26.935,26.937A26.968,26.968,0,0,0,398.646,134.588Z" fill="#fff"/>
    <path id="Path_36" data-name="Path 36" d="M319.552,23.394A7.394,7.394,0,1,1,326.945,16,7.4,7.4,0,0,1,319.552,23.394Zm0-13.412a6.03,6.03,0,1,0,6.029,6.03A6.042,6.042,0,0,0,319.552,9.982Z" fill="#fff"/>
    <path id="Path_37" data-name="Path 37" d="M367.174,107.8h-1.363V76.823A11.382,11.382,0,0,0,354.44,65.452H331.6a12.747,12.747,0,0,1-12.734-12.736V22.705h1.364v30.01A11.381,11.381,0,0,0,331.6,64.088H354.44a12.747,12.747,0,0,1,12.734,12.736Z" fill="#fff"/>
    <path id="Path_38" data-name="Path 38" d="M102.88,24.975a7.394,7.394,0,1,1,7.393-7.394A7.4,7.4,0,0,1,102.88,24.975Zm0-13.412a6.03,6.03,0,1,0,6.029,6.03A6.033,6.033,0,0,0,102.88,11.563Z" fill="#fff"/>
    <path id="Path_39" data-name="Path 39" d="M153.664,47.922a7.394,7.394,0,1,1,7.393-7.394A7.4,7.4,0,0,1,153.664,47.922Zm0-13.412a6.03,6.03,0,1,0,6.029,6.03A6.034,6.034,0,0,0,153.664,34.511Z" fill="#fff"/>
    <path id="Path_40" data-name="Path 40" d="M267.609,14.776A7.394,7.394,0,1,1,275,7.381,7.4,7.4,0,0,1,267.609,14.776Zm0-13.412a6.03,6.03,0,1,0,6.029,6.03A6.034,6.034,0,0,0,267.609,1.364Z" fill="#fff"/>
    <path id="Path_41" data-name="Path 41" d="M301.706,104.871a5.456,5.456,0,1,1,5.456-5.457A5.463,5.463,0,0,1,301.706,104.871Zm0-9.919a4.449,4.449,0,1,0,4.449,4.449A4.462,4.462,0,0,0,301.706,94.952Z" fill="#fff"/>
    <path id="Path_42" data-name="Path 42" d="M7.393,88.4a7.394,7.394,0,1,1,7.393-7.394A7.4,7.4,0,0,1,7.393,88.4Zm0-13.411a6.03,6.03,0,1,0,6.029,6.03A6.033,6.033,0,0,0,7.393,74.988Z" fill="#fff"/>
    <path id="Path_43" data-name="Path 43" d="M502.113,98.229a7.394,7.394,0,1,1,7.393-7.394A7.4,7.4,0,0,1,502.113,98.229Zm0-13.412a6.03,6.03,0,1,0,6.029,6.03A6.033,6.033,0,0,0,502.113,84.817Z" fill="#fff"/>
    <path id="Path_44" data-name="Path 44" d="M480.277,157.816a7.394,7.394,0,1,1,7.394-7.394A7.4,7.4,0,0,1,480.277,157.816Zm0-13.412a6.03,6.03,0,1,0,6.03,6.031A6.034,6.034,0,0,0,480.277,144.4Z" fill="#fff"/>
    <path id="Path_45" data-name="Path 45" d="M22.167,149.262a4.513,4.513,0,1,1,4.512-4.513A4.521,4.521,0,0,1,22.167,149.262Zm0-8.185a3.672,3.672,0,1,0,3.671,3.672A3.673,3.673,0,0,0,22.167,141.077Z" fill="#fff"/>
    <path id="Path_46" data-name="Path 46" d="M56.622,109.383H55.258V78.4A12.747,12.747,0,0,1,67.992,65.668H90.834A11.382,11.382,0,0,0,102.205,54.3V24.286h1.364V54.3A12.747,12.747,0,0,1,90.834,67.032H67.992A11.382,11.382,0,0,0,56.622,78.4Z" fill="#fff"/>
    <path id="Path_47" data-name="Path 47" d="M234.263,54.258a7.394,7.394,0,1,1,7.393-7.394A7.4,7.4,0,0,1,234.263,54.258Zm0-13.412a6.03,6.03,0,1,0,6.029,6.03A6.033,6.033,0,0,0,234.263,40.847Z" fill="#fff"/>
    <path id="Path_48" data-name="Path 48" d="M222.217,96.316H204.7V94.952h17.514a11.382,11.382,0,0,0,11.37-11.372V53.57h1.364V83.58A12.747,12.747,0,0,1,222.217,96.316Z" fill="#fff"/>
    <path id="Path_49" data-name="Path 49" d="M420.75,178.9H77.03a8.86,8.86,0,0,0-8.859,8.86v212.7a8.86,8.86,0,0,0,8.859,8.86H420.75a8.86,8.86,0,0,0,8.859-8.86v-212.7A8.86,8.86,0,0,0,420.75,178.9Z" fill="#181c8b"/>
    <path id="Path_50" data-name="Path 50" d="M425.517,195.96H72.262V388.847H425.517Z" fill="#d7f7ff"/>
    <path id="Path_51" data-name="Path 51" d="M252.491,195.96H72.262V388.847H252.491Z" fill="#fff6f6"/>
    <path id="Path_52" data-name="Path 52" d="M206.449,231.4H92.555v2.728H206.449Z" fill="#d6e7ea"/>
    <path id="Path_53" data-name="Path 53" d="M231.063,241.281H92.555v3.009H231.063Z" fill="#d6e7ea"/>
    <path id="Path_54" data-name="Path 54" d="M183.708,251.314H92.555v3.009h91.153Z" fill="#d6e7ea"/>
    <path id="Path_55" data-name="Path 55" d="M231.05,251.314H195.295v3.009H231.05Z" fill="#d6e7ea"/>
    <path id="Path_56" data-name="Path 56" d="M231.063,261.335H92.555v3.008H231.063Z" fill="#d6e7ea"/>
    <path id="Path_57" data-name="Path 57" d="M231.063,271.355H92.555v3.009H231.063Z" fill="#d6e7ea"/>
    <path id="Path_58" data-name="Path 58" d="M231.063,281.388H126.883V284.4h104.18Z" fill="#d6e7ea"/>
    <path id="Path_59" data-name="Path 59" d="M116.43,281.388H92.555V284.4H116.43Z" fill="#d6e7ea"/>
    <path id="Path_60" data-name="Path 60" d="M206.449,302.283H92.555v2.729H206.449Z" fill="#d6e7ea"/>
    <path id="Path_61" data-name="Path 61" d="M231.063,312.176H92.555v3.009H231.063Z" fill="#d6e7ea"/>
    <path id="Path_62" data-name="Path 62" d="M231.063,322.2H194.849V325.2h36.214Z" fill="#d6e7ea"/>
    <path id="Path_63" data-name="Path 63" d="M114.148,322.2H92.555V325.2h21.593Z" fill="#d6e7ea"/>
    <path id="Path_64" data-name="Path 64" d="M182.344,322.2h-55.92V325.2h55.92Z" fill="#d6e7ea"/>
    <path id="Path_65" data-name="Path 65" d="M231.063,332.217H92.555v3.009H231.063Z" fill="#d6e7ea"/>
    <path id="Path_66" data-name="Path 66" d="M207.354,342.25H92.555v3.009h114.8Z" fill="#d6e7ea"/>
    <path id="Path_67" data-name="Path 67" d="M231.05,342.25H217.577v3.009H231.05Z" fill="#d6e7ea"/>
    <path id="Path_68" data-name="Path 68" d="M231.063,352.271H92.555v3.008H231.063Z" fill="#d6e7ea"/>
    <path id="Path_69" data-name="Path 69" d="M380.571,302.283H266.678v2.729H380.571Z" fill="#d6e7ea"/>
    <path id="Path_70" data-name="Path 70" d="M405.173,312.176H313.956v3.009h91.217Z" fill="#d6e7ea"/>
    <path id="Path_71" data-name="Path 71" d="M301.451,312.176H266.678v3.009h34.773Z" fill="#d6e7ea"/>
    <path id="Path_72" data-name="Path 72" d="M405.186,322.2H266.678V325.2H405.186Z" fill="#d6e7ea"/>
    <path id="Path_73" data-name="Path 73" d="M329.418,332.217h-62.74v3.009h62.74Z" fill="#d6e7ea"/>
    <path id="Path_74" data-name="Path 74" d="M405.173,332.217H341.464v3.009h63.709Z" fill="#d6e7ea"/>
    <path id="Path_75" data-name="Path 75" d="M405.186,342.25H266.678v3.009H405.186Z" fill="#d6e7ea"/>
    <path id="Path_76" data-name="Path 76" d="M405.173,352.271H308.5v3.008h96.673Z" fill="#d6e7ea"/>
    <path id="Path_77" data-name="Path 77" d="M296.913,352.271H266.678v3.008h30.235Z" fill="#d6e7ea"/>
    <path id="Path_78" data-name="Path 78" d="M19.758,407.8H478.034v9.1a22.929,22.929,0,0,1-22.919,22.923H42.677a22.929,22.929,0,0,1-22.919-22.923Z" fill="#181c8b"/>
    <path id="Path_79" data-name="Path 79" d="M477.971,418.079c.025-.4.063-.777.063-1.173v-9.1H19.758v9.1c0,.4.038.778.064,1.173h458.15Z" fill="#2a33a0"/>
    <path id="Path_80" data-name="Path 80" d="M46,426.238a4.257,4.257,0,1,1-4.257-4.258A4.258,4.258,0,0,1,46,426.238Z" fill="#010205"/>
    <path id="Path_81" data-name="Path 81" d="M61.185,426.238a4.257,4.257,0,1,1-4.257-4.258A4.258,4.258,0,0,1,61.185,426.238Z" fill="#010205"/>
    <path id="Path_82" data-name="Path 82" d="M455.574,422.631H433.751v6.361h21.823Z" fill="#010205"/>
    <path id="Path_83" data-name="Path 83" d="M135.614,451.608a1.809,1.809,0,0,1-1.81-1.81V166.689a1.81,1.81,0,1,1,3.62,0V449.8A1.808,1.808,0,0,1,135.614,451.608Z" fill="#ff6d5a"/>
    <path id="Path_84" data-name="Path 84" d="M177.067,451.608a1.809,1.809,0,0,1-1.81-1.81V166.689a1.81,1.81,0,1,1,3.62,0V449.8A1.808,1.808,0,0,1,177.067,451.608Z" fill="#ff6d5a"/>
    <path id="Path_85" data-name="Path 85" d="M177.067,189.521H135.614a1.81,1.81,0,0,1,0-3.62h41.453a1.81,1.81,0,0,1,0,3.62Z" fill="#ff6d5a"/>
    <path id="Path_86" data-name="Path 86" d="M177.067,216.434H135.614a1.811,1.811,0,0,1,0-3.621h41.453a1.811,1.811,0,0,1,0,3.621Z" fill="#ff6d5a"/>
    <path id="Path_87" data-name="Path 87" d="M177.067,243.359H135.614a1.81,1.81,0,0,1,0-3.621h41.453a1.81,1.81,0,0,1,0,3.621Z" fill="#ff6d5a"/>
    <path id="Path_88" data-name="Path 88" d="M177.067,270.284H135.614a1.81,1.81,0,0,1,0-3.62h41.453a1.81,1.81,0,0,1,0,3.62Z" fill="#ff6d5a"/>
    <path id="Path_89" data-name="Path 89" d="M177.067,297.2H135.614a1.811,1.811,0,0,1,0-3.621h41.453a1.811,1.811,0,0,1,0,3.621Z" fill="#ff6d5a"/>
    <path id="Path_90" data-name="Path 90" d="M177.067,324.122H135.614a1.811,1.811,0,0,1,0-3.621h41.453a1.811,1.811,0,0,1,0,3.621Z" fill="#ff6d5a"/>
    <path id="Path_91" data-name="Path 91" d="M177.067,351.034H135.614a1.81,1.81,0,0,1,0-3.62h41.453a1.81,1.81,0,1,1,0,3.62Z" fill="#ff6d5a"/>
    <path id="Path_92" data-name="Path 92" d="M177.067,377.959H135.614a1.81,1.81,0,0,1,0-3.62h41.453a1.81,1.81,0,0,1,0,3.62Z" fill="#ff6d5a"/>
    <path id="Path_93" data-name="Path 93" d="M177.067,404.872H135.614a1.811,1.811,0,0,1,0-3.621h41.453a1.811,1.811,0,0,1,0,3.621Z" fill="#ff6d5a"/>
    <path id="Path_94" data-name="Path 94" d="M177.067,431.8H135.614a1.811,1.811,0,0,1,0-3.621h41.453a1.811,1.811,0,0,1,0,3.621Z" fill="#ff6d5a"/>
    <path id="Path_95" data-name="Path 95" d="M265.493,224.045l-.854,4.9s-6-3.047-6.246-3.926a17.406,17.406,0,0,0,.968-2.461Z" fill="#ffac83"/>
    <path id="Path_96" data-name="Path 96" d="M258.571,232.727s10.554,8.108,12.9,9.854,6.335-3.4,2.345-6.807-6.807-7.726-6.692-9.728c-.752-2.129-3.11.23-3.811.587s-3.863-.995-4.156-3.634c-2.575,1.875-4.219,5.929-4.219,5.929s0,1.019,3.633,3.811Z" fill="#ff6d5a"/>
    <path id="Path_97" data-name="Path 97" d="M273.383,241.536c-2.346-1.734-14.149-10.773-14.149-10.773a20.174,20.174,0,0,1-3.467-3.569,17.987,17.987,0,0,0-.829,1.708s0,1.02,3.633,3.812c0,0,10.554,8.108,12.9,9.855.968.726,2.218.255,3.072-.778A1.327,1.327,0,0,1,273.383,241.536Z" fill="#ddd"/>
    <path id="Path_98" data-name="Path 98" d="M239.119,224.045l.854,4.9s6-3.047,6.246-3.926a17.5,17.5,0,0,1-.969-2.461Z" fill="#ffac83"/>
    <path id="Path_99" data-name="Path 99" d="M246.028,232.727s-10.554,8.108-12.9,9.854-6.335-3.4-2.345-6.807,6.807-7.726,6.692-9.728c.752-2.129,3.11.23,3.811.587s3.863-.995,4.156-3.634c2.575,1.875,4.219,5.929,4.219,5.929s0,1.019-3.633,3.811Z" fill="#ff6d5a"/>
    <path id="Path_100" data-name="Path 100" d="M231.216,241.536c2.346-1.734,14.149-10.773,14.149-10.773a20.174,20.174,0,0,0,3.467-3.569,17.987,17.987,0,0,1,.829,1.708s0,1.02-3.633,3.812c0,0-10.554,8.108-12.9,9.855-.969.726-2.218.255-3.072-.778A1.342,1.342,0,0,0,231.216,241.536Z" fill="#ddd"/>
    <path id="Path_101" data-name="Path 101" d="M278.15,176.9c-2.243-5.316-12.428-5.227-12.428-5.227l-13.269.625-.1.6c-.064-.369-.1-.6-.1-.6l-13.27-.625s-10.733-.242-12.976,5.074,11.6,46.686,12.976,47.935a50.794,50.794,0,0,0,6.705-1.568s-5.316-30.826-7.98-38.182c2.664-4.067,13.295-3.544,14.545-3.952a.312.312,0,0,0,.1-.077c.038.026.063.064.1.077,1.249.408,12.135-.5,14.786,3.57-2.664,7.343-8.222,38.551-8.222,38.551a50.857,50.857,0,0,0,6.7,1.569C267.111,223.42,280.406,182.217,278.15,176.9Z" fill="#12196b"/>
    <path id="Path_102" data-name="Path 102" d="M234.135,137.481s-6.807,14.266-2.027,25.523,9.624,12.048,9.624,12.048l1.593-9.817s-10.949-5.89-2.829-21.864C239.348,137.214,234.135,137.481,234.135,137.481Z" fill="#ffac83"/>
    <path id="Path_103" data-name="Path 103" d="M270.336,137.481s6.807,14.266,2.027,25.523-9.624,12.048-9.624,12.048l-1.593-9.817s10.949-5.89,2.829-21.864C265.123,137.214,270.336,137.481,270.336,137.481Z" fill="#ffac83"/>
    <path id="Path_104" data-name="Path 104" d="M230.553,141.561s6.3,1.466,8.936,5.24a82.567,82.567,0,0,1,8.578-21.265s-10.3.1-13.154,7.751a36.726,36.726,0,0,1-4.36,8.261Z" fill="#ff6d5a"/>
    <path id="Path_105" data-name="Path 105" d="M273.37,141.561s-6.3,1.466-8.935,5.24a82.548,82.548,0,0,0-8.579-21.265s8.528-.931,12.53,6.183c3.3,5.877,5,9.829,5,9.829Z" fill="#ff6d5a"/>
    <path id="Path_106" data-name="Path 106" d="M251.917,125.039s-10.465-1.339-12.39,5.571,1.733,30.125,1.733,30.125h20.931s4.8-20.525,2.779-30.329C263.912,125.039,255.562,125.077,251.917,125.039Z" fill="#ff6d5a"/>
    <path id="Path_107" data-name="Path 107" d="M248.692,119.2a16.8,16.8,0,0,1-.217,6.3c-.5,1.593-1.032,4.768,3.722,4.793,3.812.026,4.513-1.453,4.589-3.365,0-.179-.433-1.454-.6-2.078a22.87,22.87,0,0,1-.357-5.75c-2.014-.115-7.163.089-7.163.089Z" fill="#ffbaac"/>
    <path id="Path_108" data-name="Path 108" d="M259.336,113.412c0,4.717-3.111,8.542-6.96,8.542s-6.96-3.825-6.96-8.542,3.11-8.542,6.96-8.542S259.336,108.695,259.336,113.412Z" fill="#ffbaac"/>
    <path id="Path_109" data-name="Path 109" d="M258.9,113.017s.714-1.313,1.746-.561-.42,3.773-1.07,3.812-.995-1.007-.956-1.262.28-2,.28-2Z" fill="#ffbaac"/>
    <path id="Path_110" data-name="Path 110" d="M245.951,113.017s-.714-1.313-1.746-.561.421,3.773,1.071,3.812.994-1.007.956-1.262-.281-2-.281-2Z" fill="#ffbaac"/>
    <path id="Path_111" data-name="Path 111" d="M255.741,113.387a.51.51,0,0,1-.446.56.575.575,0,1,1,.446-.56Z" fill="#12196b"/>
    <path id="Path_112" data-name="Path 112" d="M255.423,113.616a.155.155,0,1,1-.153-.178A.162.162,0,0,1,255.423,113.616Z" fill="#fff"/>
    <path id="Path_113" data-name="Path 113" d="M256.9,112.711a3.173,3.173,0,0,0-1.733-1.262c-1.02-.191-1.046.624-.676.714a9.34,9.34,0,0,1,2.4.548Z" fill="#12196b"/>
    <path id="Path_114" data-name="Path 114" d="M249.317,113.387a.51.51,0,0,0,.446.56.575.575,0,1,0-.446-.56Z" fill="#12196b"/>
    <path id="Path_115" data-name="Path 115" d="M249.648,113.616a.155.155,0,1,0,.153-.178A.162.162,0,0,0,249.648,113.616Z" fill="#fff"/>
    <path id="Path_116" data-name="Path 116" d="M248.157,112.711a3.173,3.173,0,0,1,1.733-1.262c1.02-.191,1.046.624.676.714a9.34,9.34,0,0,0-2.4.548Z" fill="#12196b"/>
    <path id="Path_117" data-name="Path 117" d="M259.565,107.14c-.714-1.517-1.262-1.53-1.262-1.53s0-4.284-5.1-3.57c-3.734.956-3.824,2.461-7.52,3.455a4.343,4.343,0,0,1-1.606.242,4.4,4.4,0,0,0,1.8,1.517c-.982.281-2.052-.739-2.052-.739a2.912,2.912,0,0,0,1.262,2.333,9.491,9.491,0,0,0-.077,3.4,7.14,7.14,0,0,1,.829,2.307c.165,1.161-.115,2.155.114,3.506a13.883,13.883,0,0,0,2.779,5.049c1.67,1.555,3.99,1.644,6.259,1.007s3.352-4.539,3.8-5.533.114-3.493.318-4.335a10.506,10.506,0,0,1,.676-2.027,8.27,8.27,0,0,0-.255-5.086Zm-1.147,5.176a11.338,11.338,0,0,0-.077,1.3,13.95,13.95,0,0,1-.038,2.053c-.2,1.058-1.172,3.263-3.046,2.307s-5.188-.663-6.82-.1-1.428-1.938-1.746-2.868a3.4,3.4,0,0,1,0-2c.076-.561,1.032-1.326,1.032-2.958,1.8.408,6.361,1.084,8.681-1.81a4.651,4.651,0,0,0,1.874,3.353l.114.153A2.747,2.747,0,0,1,258.418,112.316Z" fill="#12196b"/>
    <path id="Path_118" data-name="Path 118" d="M249.775,118.613a28.34,28.34,0,0,0,5.392,0C253.74,120.551,251.445,121.507,249.775,118.613Z" fill="#fff"/>
    <path id="Path_119" data-name="Path 119" d="M287.71,129.386H217.271a7.891,7.891,0,0,0-7.891,7.892v29.87a7.891,7.891,0,0,0,7.891,7.891H287.71a7.89,7.89,0,0,0,7.89-7.891v-29.87A7.89,7.89,0,0,0,287.71,129.386Z" fill="#948dd5"/>
    <path id="Path_120" data-name="Path 120" d="M229.78,152.8a4.451,4.451,0,0,1-1.864-.391,3.53,3.53,0,0,1-1.382-1.127l1.112-1.338a3.191,3.191,0,0,0,.947.9,2.263,2.263,0,0,0,1.142.3q1.638,0,1.638-1.939v-5.44h-3.742v-1.639h5.7v6.974a3.778,3.778,0,0,1-.917,2.781A3.529,3.529,0,0,1,229.78,152.8Zm4.58-.151,4.734-10.521h1.924l4.749,10.521h-2.044l-4.073-9.484h.782l-4.058,9.484Zm2.179-2.435.526-1.533h5.681l.526,1.533Zm13.12,2.435-4.6-10.521h2.119l4.1,9.514h-1.217l4.148-9.514h1.954l-4.584,10.521Zm5.793,0,4.734-10.521h1.924l4.749,10.521h-2.044l-4.073-9.484h.782l-4.058,9.484Zm2.179-2.435.526-1.533h5.681l.526,1.533Z" fill="#fff"/>
    <path id="Path_121" data-name="Path 121" d="M400.6,62.823a14.061,14.061,0,0,1-5-.872,12.471,12.471,0,0,1-3.992-2.516,11.775,11.775,0,0,1-2.617-3.858,12.885,12.885,0,0,1,0-9.662,11.2,11.2,0,0,1,2.65-3.825,11.761,11.761,0,0,1,3.993-2.516,14.266,14.266,0,0,1,10.266.1,10.28,10.28,0,0,1,4.026,2.919l-2.818,2.65a8.412,8.412,0,0,0-6.274-2.751,9.226,9.226,0,0,0-3.389.6,7.749,7.749,0,0,0-4.4,4.328,9.435,9.435,0,0,0,0,6.643,7.749,7.749,0,0,0,4.4,4.328,9.226,9.226,0,0,0,3.389.6,8.647,8.647,0,0,0,3.422-.671,8.539,8.539,0,0,0,2.852-2.114l2.818,2.684a10.744,10.744,0,0,1-4.026,2.919A13.49,13.49,0,0,1,400.6,62.823Zm18.439-4.529V43.2h3.59v15.1ZM413.1,52.423V49.068h15.467v3.355Zm25.761,5.871V43.2h3.59v15.1Zm-5.939-5.871V49.068h15.467v3.355Z" fill="#fff"/>
    <path id="Path_122" data-name="Path 122" d="M295.6,149.516s3.314,3.315,3.237,6.744-4.142,5.52-5.545,4.475a3.478,3.478,0,0,1,.153-5.469c1.581-1.135,1.938-1.466,1.938-1.466l.229-4.284Z" fill="#ffbaac"/>
    <path id="Path_123" data-name="Path 123" d="M209.381,149.516s-3.315,3.315-3.238,6.744,4.143,5.52,5.545,4.475a3.478,3.478,0,0,0-.153-5.469c-1.581-1.135-1.938-1.466-1.938-1.466l-.229-4.284Z" fill="#ffbaac"/>
    <path id="Path_124" data-name="Path 124" d="M402.483,211.755H325.709a8.606,8.606,0,0,0-8.605,8.6v32.561a8.606,8.606,0,0,0,8.605,8.6h76.774a8.6,8.6,0,0,0,8.6-8.6V220.36A8.6,8.6,0,0,0,402.483,211.755Z" fill="#ff6d5a"/>
    <path id="Path_125" data-name="Path 125" d="M341.769,223.878h2.5v13.475h-2.5ZM334.8,237.353h-2.5V223.878h2.5Zm7.161-5.775h-7.373v-2.136h7.373Zm8.654,5.775V226H346.15v-2.118h11.434V226h-4.466v11.357Zm8.847,0V223.878h2.059l5.891,9.837h-1.078l5.794-9.837h2.06l.019,13.475H371.84l-.019-9.759h.5l-4.928,8.219h-1.117l-5.005-8.219h.578v9.759Zm18.385,0V223.878h2.5v11.358H387.4v2.117Z" fill="#fff"/>
    <path id="Path_126" data-name="Path 126" d="M269.9,269.749a11.173,11.173,0,0,0,1.058-5.24c4.55-.382,8.043-.459,8.043-.459s-.535,3.952,2.052,6.068c-5.086,2.359-11.153-.382-11.153-.382Z" fill="#ffac83"/>
    <path id="Path_127" data-name="Path 127" d="M277.717,246.827a5.861,5.861,0,0,1,2.88,3.493,8.219,8.219,0,0,1,.459,3.8c.077.382,1.517,3.493,1.517,3.493l-1.058.688s-.382,2.882-.459,3.723-1.058-.9-2.052,2.053c-3.034,2.575-8.043.459-8.043.459a51.894,51.894,0,0,1-2.881-10.327c-.688-4.857,4.4-10.556,9.637-7.356Z" fill="#ffac83"/>
    <path id="Path_128" data-name="Path 128" d="M268.717,247.069s2.053-4.156,8.655-2.958,8.77.051,8.936,1.785-3.3,2.537-3.3,2.537c.8,1.594-2.218,4.156-3.187,4.092a7.43,7.43,0,0,0-.739,2.219,7.068,7.068,0,0,0,.28,2.333h-.969s-.688-2.678-1.937-1.874-.344,3.136-.281,4.385a4.883,4.883,0,0,1-3.021,4.462c-2.205.778-4.78.153-6.258-2.919S263.083,249.121,268.717,247.069Z" fill="#352c23"/>
    <path id="Path_129" data-name="Path 129" d="M281.63,398.332l.332,4.513h3.913v-5.062Z" fill="#f2c897"/>
    <path id="Path_130" data-name="Path 130" d="M281.2,400.308s-.089,6.234,0,7.394c3.786.064,9.522.178,9.7,0s.523-4.794-2.689-4.207c-1.708.038-1.785-3.187-1.785-3.187Z" fill="#ff6d5a"/>
    <path id="Path_131" data-name="Path 131" d="M281.159,405.828c0,.854.012,1.555.038,1.874,3.786.064,9.522.178,9.7,0a4.469,4.469,0,0,0,.039-1.874Z" fill="#f2f2f2"/>
    <path id="Path_132" data-name="Path 132" d="M269.317,398.332l-.331,4.513h-3.9v-5.062Z" fill="#f2c897"/>
    <path id="Path_133" data-name="Path 133" d="M269.763,400.308s.089,6.234,0,7.394c-3.786.064-9.522.178-9.7,0s-.523-4.794,2.689-4.207c1.708.038,1.785-3.187,1.785-3.187Z" fill="#ff6d5a"/>
    <path id="Path_134" data-name="Path 134" d="M260.025,405.892a4.468,4.468,0,0,0,.038,1.823c.178.178,5.914.063,9.7,0,.026-.306.038-.995.038-1.823Z" fill="#f2f2f2"/>
    <path id="Path_135" data-name="Path 135" d="M288.909,352.73C288.73,334.971,287.124,314,287.124,314H275.6l-11.472,1.275s-1.657,19.7-1.836,37.456,1.555,46.328,1.555,46.328h6.5s2.932-26.938,2.384-38.921,2.881-28.2,2.881-28.2,3.429,16.216,2.88,28.2,2.384,38.921,2.384,38.921h6.5s1.734-28.582,1.555-46.328Z" fill="#12196b"/>
    <path id="Path_136" data-name="Path 136" d="M249.827,303.635s11.153-13.629,23.428-19.48c2.346.7,3.225,3.824,2.932,4.194s-15.067,15.337-15.067,15.337S253.74,309.091,249.827,303.635Z" fill="#f45145"/>
    <path id="Path_137" data-name="Path 137" d="M269.789,269.328s7.049.637,10.426,0c4.666,1.377,11.5,1.135,11.5,1.135s-.93,12.876-.841,14.253c-1.555,4.028-2.511,21.417-1.785,25.446s-2.562,6.043-5.3,6.77-19.032.369-20.128,0-2.932-6.77-2.562-15.2a67.835,67.835,0,0,0-.943-14.878s.675-12.225.395-14.151c5.953-2.192,9.242-3.391,9.242-3.391Z" fill="#ff6d5a"/>
    <path id="Path_138" data-name="Path 138" d="M260.547,272.719s-9.65,23.126-10.835,27.537c-1.594,5.916,5.392,6.834,6.909,4.488s4.321-11.678,4.321-11.678,3.543-17.223-.383-20.347Z" fill="#ff6d5a"/>
    <path id="Path_139" data-name="Path 139" d="M335.932,267.416a7.823,7.823,0,0,0,2.1-2.563,21.612,21.612,0,0,0,1.211-3.353s2.562.026,4.015.026c1.619,0,5.3-4.067,7.011-3.43s.115,4.552-3.072,7.458a51.53,51.53,0,0,1-7.623,5.47l-3.645-3.583Z" fill="#ffac83"/>
    <path id="Path_140" data-name="Path 140" d="M291.713,270.463s19.439,10.543,23.148,8.873,20.2-12.2,20.2-12.2a8.181,8.181,0,0,1,5.914,4.182c-12.4,20-17.412,19.888-22.421,22.272s-22.626-5.622-28.426-8.287c-3.378-7.356,1.568-14.839,1.568-14.839Z" fill="#ff6d5a"/>
    <path id="Path_141" data-name="Path 141" d="M129.229,144.761s-2.932-14.266.357-18.052,7.023,2.754,8.107,5.431,2.919,10.607,2.919,10.607Z" fill="#b6d15a"/>
    <path id="Path_142" data-name="Path 142" d="M164.129,217.212s-.433,3.722.1,5.341,13.066,5.9,15.309,6.171,2.677-2.448.268-4.195-9.178-7.177-9.84-8.643S164.129,217.212,164.129,217.212Z" fill="#a4c24f"/>
    <path id="Path_143" data-name="Path 143" d="M181.287,226.365c-.153.523-.6.842-1.39.74-2.077-.255-13.83-4.259-15.908-6.107.038.586-.612,1.53-.484,1.938.535,1.606,13.843,5.839,16.074,6.106,1.517.179,2.154-1.351,1.7-2.677Z" fill="#e6e6ee"/>
    <path id="Path_144" data-name="Path 144" d="M113.448,154.3s-2.907,7.432,4.971,13.016,31.714,12.367,31.765,14.317c.23,9.23,13.359,36.066,13.359,36.066l7.024-1.951s-10.185-35.364-11.179-40.285-33.41-21.061-33.41-21.061l-4.882-3.455s-5.94-1.058-7.648,3.366Z" fill="#12196b"/>
    <path id="Path_145" data-name="Path 145" d="M128.222,119.429a29.216,29.216,0,0,0-13.576-1.708c-6.972,1.02-11.561,27.282-12.3,34.09l-.726,6.808s-.14,2.32,8.132-2.473a20.22,20.22,0,0,1,16.214-1.773s9.841-23.495,9.917-25.4-7.66-9.561-7.66-9.561Z" fill="#a4c24f"/>
    <path id="Path_146" data-name="Path 146" d="M142.154,119.238s8.63,1.708,8.426-2.358-5.329-6.426-5.329-6.426c1.989-1.185-1.185-4.793-3.862-3.608,0-2.358-5.978-4.5-6.208,1.492-2.281-1.963-4.639.23-5.2,3.48a52.956,52.956,0,0,0-.37,8.5Z" fill="#352c23"/>
    <path id="Path_147" data-name="Path 147" d="M139.579,112.163s3.021,2.473,3.888,4.347-1.683,3.672-1.759,4.768.471,2.18.306,2.486-1.4.089-1.607.038-2.868,2.716-4.461,3.3-2.218-1.186-2.5-1.606-4.7,2.957-5.112,3.875-3.9-1.937-4.627-3.467a5.118,5.118,0,0,1,1.415-6.26c.408-.268,3.238-1.058,3.888-1.351s2.562-.982,2.677-1.071-.893-2.767.369-3.646,1.785,1.3,1.734,2.154a1.673,1.673,0,0,1-.446,1.135l.675.625a8.172,8.172,0,0,1,1.785-2.359c.752-.421,4.27,1.772,3.76-2.958Z" fill="#ffac83"/>
    <path id="Path_148" data-name="Path 148" d="M135.7,229.438s-1.249,3.544-1.083,5.227,11.434,8.656,13.55,9.421,3.161-1.8,1.2-4.029-7.355-9.039-7.674-10.619S135.7,229.438,135.7,229.438Z" fill="#a4c24f"/>
    <path id="Path_149" data-name="Path 149" d="M149.267,243.079c-1.963-.7-12.785-7.586-14.557-9.957a1.823,1.823,0,0,0-.714,1.657c.166,1.683,12.046,8.848,14.175,9.6a1.669,1.669,0,0,0,2.179-1.39,1.05,1.05,0,0,1-1.07.09Z" fill="#e6e6ee"/>
    <path id="Path_150" data-name="Path 150" d="M102.983,158.287s-3.467,10.977,2.626,18.46,25.468,12.15,25.392,14.1c-.459,10.569,4.155,39.075,4.155,39.075h7.2s-.523-35.212-.153-40.222-19.668-23.547-19.668-23.547l-.472-12.6s-14.06-1.3-19.057,4.729Z" fill="#12196b"/>
    <path id="Path_151" data-name="Path 151" d="M111.344,168.27a5.232,5.232,0,0,1-2.625-.039c-.1-.025-.2-.063-.306-.089A3.086,3.086,0,0,1,107,167.007c-.038-.051-8.834-19.174-9.255-20.155-.5-1.2,10.72-12.876,10.72-12.876l-7.394-5.291s-14.429,15.273-12.7,19.442c1.4,3.378,13.244,21.341,13.244,21.341.713,1.109,3.8,7.5,7.278,9s4.207-1.185,2.957-2.919a8.879,8.879,0,0,1-2.473-4.475,1.531,1.531,0,0,1,1.007-.637c.765-.128,2.231-.268,2.843-1.224s.344-1.5-1.9-.943Z" fill="#ffac83"/>
    <path id="Path_152" data-name="Path 152" d="M99.12,128.774s9.344-10.747,14.34-11.04,2.932,6.948,1.772,9.6-5.557,9.5-5.557,9.5l-10.568-8.044Z" fill="#b6d15a"/>
    <path id="Path_153" data-name="Path 153" d="M160.42,132.14H111.357a4.143,4.143,0,0,0-4.143,4.143v37.086a4.143,4.143,0,0,0,4.143,4.143H160.42a4.143,4.143,0,0,0,4.143-4.143V136.283A4.143,4.143,0,0,0,160.42,132.14Z" fill="#fff6f6"/>
    <path id="Path_154" data-name="Path 154" d="M147.711,148.458c0,6.476-11.74,22.718-11.74,22.718s-11.74-16.229-11.74-22.718a11.74,11.74,0,1,1,23.48,0Z" fill="#ff6d5a"/>
    <path id="Path_155" data-name="Path 155" d="M135.972,153.4a5.393,5.393,0,1,0-5.392-5.393A5.393,5.393,0,0,0,135.972,153.4Z" fill="#fff6f6"/>
    <path id="Path_156" data-name="Path 156" d="M164.55,154.692s3.212,3.213,3.136,6.54-4.028,5.367-5.392,4.335a3.362,3.362,0,0,1,.153-5.3c1.53-1.109,1.874-1.415,1.874-1.415l.216-4.156Z" fill="#ffac83"/>
    <path id="Path_157" data-name="Path 157" d="M111.344,168.269a5.239,5.239,0,0,1-2.626-.038c-.1-.025-.2-.064-.305-.089A3.081,3.081,0,0,1,107,167.007c0-.012-.676-1.453-1.645-3.556H97.692c2.205,3.416,3.926,6.03,3.926,6.03.714,1.109,3.8,7.5,7.279,9s4.206-1.185,2.957-2.919a8.879,8.879,0,0,1-2.473-4.475,1.529,1.529,0,0,1,1.007-.638c.765-.127,2.231-.267,2.843-1.223s.344-1.492-1.9-.944Z" fill="#ffac83"/>
    <path id="Path_158" data-name="Path 158" d="M420.979,342.2H413.7a47.112,47.112,0,0,0-2.728-9.65l6.437-3.71a3.971,3.971,0,0,0,1.453-5.406l-3.429-5.941a3.97,3.97,0,0,0-5.4-1.453l-6.616,3.812a47.309,47.309,0,0,0-7.049-6.884l3.875-6.719a3.952,3.952,0,0,0-1.453-5.4l-5.94-3.43a3.951,3.951,0,0,0-5.4,1.454l-3.926,6.807a47.565,47.565,0,0,0-9.433-2.486V295.3a3.955,3.955,0,0,0-3.951-3.952h-6.858a3.955,3.955,0,0,0-3.952,3.952v7.891a47.573,47.573,0,0,0-9.432,2.486l-3.926-6.807a3.971,3.971,0,0,0-5.4-1.454l-5.94,3.43a3.97,3.97,0,0,0-1.453,5.4l3.875,6.719a47.942,47.942,0,0,0-7.049,6.884l-6.616-3.812a3.951,3.951,0,0,0-5.4,1.453l-3.429,5.941A3.951,3.951,0,0,0,316,328.839l6.437,3.71a47.052,47.052,0,0,0-2.728,9.65h-7.278a3.955,3.955,0,0,0-3.952,3.952v6.859a3.955,3.955,0,0,0,3.952,3.952h7.049a47.528,47.528,0,0,0,2.485,9.919l-5.952,3.442a3.971,3.971,0,0,0-1.454,5.4l3.429,5.941a3.971,3.971,0,0,0,5.4,1.454l5.8-3.353a48.357,48.357,0,0,0,7.266,7.445l-3.289,5.686a3.952,3.952,0,0,0,1.453,5.4l5.94,3.43a3.951,3.951,0,0,0,5.4-1.454l3.225-5.584a47.386,47.386,0,0,0,10.133,2.767v6.4a3.955,3.955,0,0,0,3.952,3.952h6.858a3.955,3.955,0,0,0,3.951-3.952v-6.4a47.38,47.38,0,0,0,10.134-2.767l3.225,5.584a3.971,3.971,0,0,0,5.4,1.454l5.94-3.43a3.972,3.972,0,0,0,1.453-5.4l-3.289-5.686a47.781,47.781,0,0,0,7.266-7.445l5.8,3.353a3.952,3.952,0,0,0,5.4-1.454l3.428-5.941a3.95,3.95,0,0,0-1.453-5.4l-5.952-3.442a46.914,46.914,0,0,0,2.485-9.919h7.049a3.955,3.955,0,0,0,3.952-3.952v-6.859A3.955,3.955,0,0,0,420.979,342.2Zm-54.263,34.128a26.007,26.007,0,1,1,26-26.007A26,26,0,0,1,366.716,376.327Z" fill="#1059cd"/>
    <path id="Path_159" data-name="Path 159" d="M437.856,307.651s-2.243,34.74-2.434,47.476,1.211,47.182,1.211,47.182h4.4s5.431-22.654,5.061-29.768a90.125,90.125,0,0,0-1.874-13.666l4.959-26.122s4.117,27.256,6.322,29.309,5.2,8.427,5.94,11.792,9.484,26.02,9.484,26.02h4.512s-2.383-21.9-3.7-29.016-6.552-9.74-7.3-11.983-1.071-28.468-1.645-32.025,4.449-13.348-2.1-20.079-22.842.892-22.842.892Z" fill="#ffac83"/>
    <path id="Path_160" data-name="Path 160" d="M464.421,352.322c-.37-6.4-1.237-23.075-1.619-25.472-.561-3.557,4.448-13.348-2.1-20.079s-22.842.892-22.842.892S435,338.694,434.58,352.194c2.32,1.772,9.726,2.754,13.053,1.76l1.542-21.189s.765,15.694,2.626,22.056c4.3.471,9.688.178,12.62-2.486Z" fill="#12196b"/>
    <path id="Path_161" data-name="Path 161" d="M417.525,261.271c-.892-.5-14.226-12.15-19.949-16.714,0,0-.089-.076-.14-.114a2.874,2.874,0,0,1-.918-1.454s-.153-4.334-.127-5.52-1.262-1.122-1.607.293c-.2.855-.65,2.639-.994,3.978a8.411,8.411,0,0,1-3.9-2.779c-1.5-1.364-4.118-.969-3.06,2.486s6.718,5.813,7.687,6.616c5.264,5.788,16.456,19.021,19.5,20.691,3.747,2.053,22.026,4.093,22.026,4.093l1.045-7.65s-18.495-3.34-19.566-3.939Z" fill="#ffac83"/>
    <path id="Path_162" data-name="Path 162" d="M428.347,261.832s28.974,5.316,32.773,6.157.981,17.976.56,17.7-.293,12.583.549,17.5-4.487,6.235-6.45,6.8-16.431-.115-17.974,0c-3.926.28-3.938-6.745-2.409-13.769,2.129-9.689-1.7-18.613-1.7-18.613l-9.114-3.761S426.524,266.88,428.347,261.832Z" fill="#83aaff"/>
    <path id="Path_163" data-name="Path 163" d="M439.462,254.081s-8.578-4.526-6.169-7.79a7.168,7.168,0,0,1,6.08-2.906c-.994-2.091,6.973-3.188,8.541-.727,1.3-1.951,5.876,1.084,5.2,4.908,2.983-.357,8.184,5.775.255,13.628-2.345,2.321-4.117.727-4.117.727l-9.8-7.84Z" fill="#352c23"/>
    <path id="Path_164" data-name="Path 164" d="M445.517,249.631s-3.875.37-5.621,1.454-.638,3.977-1.173,4.921-1.593,1.542-1.632,1.887,1.109.854,1.313.93.88,3.838,1.874,5.2,2.5.242,2.957.051,1.657,5.176,1.5,6.17,5.252.714,6.667-.217,2.32-3.059,2.129-3.506-3.9-5.341-4.283-5.941.089-2.256.025-2.4,2.269-1.811,1.708-3.226-2.2.09-2.625.829a1.65,1.65,0,0,0-.268,1.186l-.918.14A8.072,8.072,0,0,0,447,254.17c-.4-.765-2.907-3.009-1.492-4.539Z" fill="#ffac83"/>
    <path id="Path_165" data-name="Path 165" d="M436.161,399.9a2.9,2.9,0,0,1,2.843.994c.637.536,2.549-.829,2.549-.829s3.136,3.825,1.568,8.032c-5.9.956-20.331.485-21.058,0s.242-4.462,5.112-4.4,8.973-3.812,8.973-3.812Z" fill="#4a50ac"/>
    <path id="Path_166" data-name="Path 166" d="M422.611,405.943a.832.832,0,0,1-.127-.166c-.714,1.02-.765,2.091-.408,2.333.726.484,15.156.956,21.058,0a7.015,7.015,0,0,0,.42-2.155C437.589,406.886,423.325,406.414,422.611,405.943Z" fill="#e6e6ee"/>
    <path id="Path_167" data-name="Path 167" d="M475.842,400.728s-.459-2.792-2.894-3.25-2.345-.09-3.607,1.9-5.953,5.38-6.437,8.032,7.788,2.078,10.682,1.045,2.7-1.045,3.072-2.129S475.842,400.728,475.842,400.728Z" fill="#4a50ac"/>
    <path id="Path_168" data-name="Path 168" d="M473.586,406.351c-2.422.879-8.643,1.415-10.287,0a3.505,3.505,0,0,0-.383,1.07c-.484,2.652,7.789,2.079,10.682,1.046s2.7-1.046,3.072-2.129a5.607,5.607,0,0,0-.051-1.938c-.293.918-.28.982-3.021,1.963Z" fill="#e6e6ee"/>
    <path id="Path_169" data-name="Path 169" d="M434.058,291.7c-1.046.255-19.631.739-27.291,1.288a1.446,1.446,0,0,0-.192.012,3.227,3.227,0,0,1-1.746-.459s-3.2-3.238-4.028-4.168-1.772.038-1.032,1.364c.446.8,1.376,2.5,2.065,3.786a8.982,8.982,0,0,1-5,.637c-2.129.026-3.863,2.18-.6,4.093s9.33-.293,10.643-.37c8.184.727,26.246,2.97,29.79,2.091,4.359-1.084,19.91-12.519,19.91-12.519l-4.627-6.655s-16.66,10.581-17.922,10.887Z" fill="#ffac83"/>
    <path id="Path_170" data-name="Path 170" d="M449.3,280.19s7.954-8.784,9.891-10.492,2.091-2.078,2.613-1.313,6.17,5.061,4.551,10.951S455.7,290.491,455.7,290.491l-6.4-10.314Z" fill="#83aaff"/>
    <path id="Path_171" data-name="Path 171" d="M111.191,360.685h-5.226a33.09,33.09,0,0,0-1.963-6.91l4.614-2.664a2.832,2.832,0,0,0,1.033-3.876l-2.46-4.258a2.832,2.832,0,0,0-3.875-1.033l-4.742,2.741a34.215,34.215,0,0,0-5.048-4.933l2.779-4.819a2.849,2.849,0,0,0-1.032-3.876l-4.257-2.46a2.848,2.848,0,0,0-3.875,1.032l-2.817,4.883a34.227,34.227,0,0,0-6.756-1.785v-5.66a2.832,2.832,0,0,0-2.83-2.83H69.827a2.831,2.831,0,0,0-2.83,2.83v5.66a33.994,33.994,0,0,0-6.756,1.785l-2.817-4.883A2.83,2.83,0,0,0,53.55,328.6l-4.258,2.46a2.832,2.832,0,0,0-1.032,3.876l2.779,4.819a34.219,34.219,0,0,0-5.048,4.933l-4.742-2.741a2.849,2.849,0,0,0-3.875,1.033l-2.46,4.258a2.849,2.849,0,0,0,1.033,3.876l4.614,2.664a34.936,34.936,0,0,0-1.963,6.91H33.371a2.832,2.832,0,0,0-2.83,2.83v4.908a2.832,2.832,0,0,0,2.83,2.831h5.048a34.009,34.009,0,0,0,1.785,7.113l-4.27,2.461A2.831,2.831,0,0,0,34.9,384.7l2.46,4.258a2.83,2.83,0,0,0,3.875,1.033l4.156-2.4a34.333,34.333,0,0,0,5.213,5.329l-2.358,4.08a2.848,2.848,0,0,0,1.033,3.875l4.257,2.461a2.847,2.847,0,0,0,3.875-1.033l2.307-4a33.025,33.025,0,0,0,7.266,1.976v4.59a2.832,2.832,0,0,0,2.83,2.83h4.908a2.832,2.832,0,0,0,2.83-2.83v-4.59a34.528,34.528,0,0,0,7.266-1.976l2.307,4A2.83,2.83,0,0,0,91,403.342l4.257-2.461a2.831,2.831,0,0,0,1.033-3.875l-2.358-4.08a34.917,34.917,0,0,0,5.214-5.329l4.156,2.4a2.847,2.847,0,0,0,3.875-1.033l2.46-4.258a2.847,2.847,0,0,0-1.032-3.875l-4.271-2.461a33.953,33.953,0,0,0,1.785-7.113h5.048A2.832,2.832,0,0,0,114,368.423v-4.908a2.831,2.831,0,0,0-2.829-2.83Zm-38.9,24.159a18.868,18.868,0,1,1,18.865-18.868A18.873,18.873,0,0,1,72.288,384.844Z" fill="#1059cd"/>
    <path id="Path_172" data-name="Path 172" d="M159.324,387.789H83.99a6.361,6.361,0,0,0-6.361,6.361V451.1a6.361,6.361,0,0,0,6.361,6.362h75.334a6.36,6.36,0,0,0,6.36-6.362V394.15A6.36,6.36,0,0,0,159.324,387.789Z" fill="#f6be39"/>
    <path id="Path_173" data-name="Path 173" d="M108.5,426.156a7.732,7.732,0,0,1-3.244-.68,6.165,6.165,0,0,1-2.407-1.962l1.936-2.329a5.563,5.563,0,0,0,1.648,1.57,3.939,3.939,0,0,0,1.989.523q2.85,0,2.851-3.374v-9.47h-6.514v-2.852h9.915V419.72a6.581,6.581,0,0,1-1.6,4.84A6.14,6.14,0,0,1,108.5,426.156Zm16.621,0a13.94,13.94,0,0,1-4.108-.6,9.107,9.107,0,0,1-3.113-1.6l1.178-2.642a9.517,9.517,0,0,0,2.72,1.439,9.862,9.862,0,0,0,3.323.575,7.153,7.153,0,0,0,2.328-.313,2.839,2.839,0,0,0,1.308-.838,1.977,1.977,0,0,0,.418-1.229,1.641,1.641,0,0,0-.6-1.334A4.171,4.171,0,0,0,127,418.8a21.686,21.686,0,0,0-2.119-.576q-1.151-.261-2.328-.6a11.164,11.164,0,0,1-2.119-.916,4.747,4.747,0,0,1-1.543-1.517,4.39,4.39,0,0,1-.6-2.407,4.949,4.949,0,0,1,.785-2.721,5.476,5.476,0,0,1,2.433-1.988,9.954,9.954,0,0,1,4.159-.758,13.034,13.034,0,0,1,3.27.418,9.463,9.463,0,0,1,2.825,1.2l-1.072,2.643a9.724,9.724,0,0,0-2.538-1.073,9.312,9.312,0,0,0-2.511-.366,6.537,6.537,0,0,0-2.3.34,2.9,2.9,0,0,0-1.282.889,2.106,2.106,0,0,0-.393,1.256,1.751,1.751,0,0,0,.576,1.36,4.423,4.423,0,0,0,1.543.785q.969.288,2.146.576,1.176.261,2.328.6a9.346,9.346,0,0,1,2.119.89,4.212,4.212,0,0,1,1.543,1.491,4.344,4.344,0,0,1,.6,2.38,4.916,4.916,0,0,1-.811,2.721,5.5,5.5,0,0,1-2.433,1.988A10.262,10.262,0,0,1,125.118,426.156Z" fill="#fff"/>
    <path id="Path_174" data-name="Path 174" d="M94.582,216.472H19.248a6.361,6.361,0,0,0-6.361,6.362v56.948a6.362,6.362,0,0,0,6.361,6.362H94.582a6.362,6.362,0,0,0,6.361-6.362V222.834A6.361,6.361,0,0,0,94.582,216.472Z" fill="#a4c24f"/>
    <path id="Path_175" data-name="Path 175" d="M21.121,254.578V236.266h7.534a9.989,9.989,0,0,1,4.16.785,6.041,6.041,0,0,1,2.694,2.249,6.9,6.9,0,0,1,0,6.959,6.043,6.043,0,0,1-2.694,2.25,10.006,10.006,0,0,1-4.16.784H23l1.517-1.6v6.88Zm3.4-6.514L23,246.416H28.5a5.158,5.158,0,0,0,3.375-.942,3.328,3.328,0,0,0,1.151-2.694,3.283,3.283,0,0,0-1.151-2.695,5.158,5.158,0,0,0-3.375-.942H23l1.517-1.674Zm28.2-11.8h3.4v18.312h-3.4Zm-9.47,18.312h-3.4V236.266h3.4Zm9.732-7.848H42.96v-2.9H52.979Zm8.046,7.848V236.266h7.534a9.989,9.989,0,0,1,4.159.785,6.041,6.041,0,0,1,2.695,2.249,6.9,6.9,0,0,1,0,6.959,6.043,6.043,0,0,1-2.695,2.25,10.005,10.005,0,0,1-4.159.784H62.908l1.517-1.6v6.88Zm3.4-6.514-1.517-1.648H68.4a5.158,5.158,0,0,0,3.375-.942,3.328,3.328,0,0,0,1.151-2.694,3.283,3.283,0,0,0-1.151-2.695,5.158,5.158,0,0,0-3.375-.942H62.908l1.517-1.674Z" fill="#fff"/>
  </g>
</svg>
