<svg width="40" height="41" viewBox="0 0 40 41" fill="none" xmlns="http://www.w3.org/2000/svg">
<path d="M1 14.0891H39M10 8.08911H10.018M18 8.08911H18.018M1 20.0891C1 11.1331 1 6.65311 3.782 3.87111C6.564 1.08911 11.042 1.08911 20 1.08911C28.956 1.08911 33.436 1.08911 36.218 3.87111C39 6.65311 39 11.1311 39 20.0891C39 29.0451 39 33.5251 36.218 36.3071C33.436 39.0891 28.958 39.0891 20 39.0891C11.044 39.0891 6.564 39.0891 3.782 36.3071C1 33.5251 1 29.0471 1 20.0891Z" stroke="#0D99FF" stroke-width="2" stroke-linecap="round" stroke-linejoin="round"/>
<path d="M12 22.0891L14.454 24.2031C15.484 25.0931 16 25.5371 16 26.0891C16 26.6411 15.484 27.0851 14.454 27.9751L12 30.0891M20 30.0891H28" stroke="#0D99FF" stroke-width="2" stroke-linecap="round" stroke-linejoin="round"/>
</svg>
