<svg width="93" height="92" viewBox="0 0 93 92" fill="none" xmlns="http://www.w3.org/2000/svg">
<g clip-path="url(#clip0_193_442)">
<path d="M82.3782 74.402H85.2207C86.2123 74.402 87.0164 75.2061 87.0164 76.1977C87.0164 77.1893 86.2123 77.9934 85.2207 77.9934H78.3971C77.4055 77.9934 76.6014 77.1893 76.6014 76.1977V69.374C76.6014 68.3825 77.4055 67.5783 78.3971 67.5783C79.3887 67.5783 80.1928 68.3825 80.1928 69.374V71.3498C85.6413 64.0555 88.6029 55.2051 88.6029 46C88.6029 22.6157 69.5786 3.59139 46.1943 3.59139C22.8101 3.59139 3.78573 22.6157 3.78573 46C3.78573 69.3843 22.8101 88.4086 46.1943 88.4086C47.9238 88.4086 49.6643 88.3036 51.3681 88.0965C52.3512 87.9776 53.2478 88.6778 53.3674 89.6624C53.4872 90.6468 52.7862 91.5421 51.8016 91.6617C49.9545 91.8862 48.0681 92 46.1943 92C33.9073 92 22.3556 87.2152 13.6674 78.5269C4.97915 69.8388 0.194336 58.2871 0.194336 46C0.194336 33.7129 4.97915 22.1612 13.6674 13.4731C22.3556 4.78481 33.9073 0 46.1943 0C58.4814 0 70.0331 4.78481 78.7212 13.4731C87.4095 22.1612 92.1943 33.7129 92.1943 46C92.1943 56.3685 88.7304 66.3224 82.3782 74.402Z" fill="#29ABE2"/>
<path d="M19.6726 64.8826C18.8346 65.4131 17.7254 65.1635 17.1947 64.326C13.0953 57.8514 11.2806 50.0649 12.0849 42.4007C12.9011 34.6228 16.4018 27.2881 21.9422 21.7475C28.6285 15.0612 37.4114 11.718 46.1945 11.718C54.9776 11.718 63.7604 15.061 70.4468 21.7475C83.8196 35.1202 83.8196 56.8794 70.4468 70.252C64.9148 75.7838 57.5922 79.2832 49.8272 80.1057C42.1772 80.9164 34.3991 79.1159 27.9273 75.0366C27.0881 74.5078 26.8369 73.3989 27.3656 72.56C27.8944 71.7208 29.0032 71.4696 29.8422 71.9983C42.0418 79.6874 57.6943 77.9253 67.9072 67.7125C79.8796 55.74 79.8796 36.2596 67.9072 24.2871C55.9349 12.3145 36.4541 12.3145 24.4819 24.2871C14.4102 34.3589 12.6216 50.3896 20.2293 62.4046C20.7596 63.2426 20.5105 64.352 19.6726 64.8826Z" fill="#29ABE2"/>
<path d="M69.5384 44.1752H71.7528C72.7444 44.1752 73.5485 44.9793 73.5485 45.9709C73.5485 46.9625 72.7444 47.7666 71.7528 47.7666H69.5384C68.5468 47.7666 67.7427 46.9625 67.7427 45.9709C67.7427 44.9793 68.5466 44.1752 69.5384 44.1752Z" fill="#29ABE2"/>
<path d="M18.8398 46.0291C18.8398 45.0375 19.644 44.2334 20.6355 44.2334H22.85C23.8416 44.2334 24.6457 45.0375 24.6457 46.0291C24.6457 47.0207 23.8416 47.8248 22.85 47.8248H20.6355C19.644 47.8248 18.8398 47.0208 18.8398 46.0291Z" fill="#29ABE2"/>
<path d="M48.0191 69.3442V71.5587C48.0191 72.5503 47.215 73.3544 46.2234 73.3544C45.2318 73.3544 44.4277 72.5503 44.4277 71.5587V69.3442C44.4277 68.3527 45.2318 67.5485 46.2234 67.5485C47.215 67.5485 48.0191 68.3527 48.0191 69.3442Z" fill="#29ABE2"/>
<path d="M44.3696 22.6558V20.4413C44.3696 19.4497 45.1737 18.6456 46.1653 18.6456C47.1569 18.6456 47.961 19.4497 47.961 20.4413V22.6558C47.961 23.6473 47.1569 24.4515 46.1653 24.4515C45.1737 24.4515 44.3696 23.6475 44.3696 22.6558Z" fill="#29ABE2"/>
<path d="M37.1935 57.5404C36.4921 58.2414 35.3554 58.2414 34.6538 57.5404C33.9526 56.8392 33.9526 55.7021 34.6538 55.0007L40.7396 48.915C40.2733 48.0458 40.0081 47.0534 40.0081 46C40.0081 42.5889 42.7831 39.8138 46.1942 39.8138C49.6054 39.8138 52.3804 42.5889 52.3804 46C52.3804 47.0534 52.115 48.0458 51.6489 48.915L63.9284 61.1945C64.6296 61.8957 64.6296 63.0327 63.9284 63.7341C63.227 64.4352 62.0903 64.4352 61.3887 63.7341L49.1092 51.4546C48.2401 51.9209 47.2476 52.1862 46.1942 52.1862C45.1409 52.1862 44.1484 51.9208 43.2793 51.4546L37.1935 57.5404ZM48.789 46C48.789 44.5692 47.6251 43.4052 46.1942 43.4052C44.7634 43.4052 43.5995 44.5692 43.5995 46C43.5995 47.4308 44.7634 48.5948 46.1942 48.5948C47.6251 48.5948 48.789 47.4308 48.789 46Z" fill="#29ABE2"/>
<path d="M24.4808 67.7136C24.8166 68.0476 25.0085 68.5109 25.0085 68.9831C25.0085 69.4554 24.8166 69.9169 24.4808 70.2527C24.1468 70.5865 23.6851 70.7788 23.2112 70.7788C22.739 70.7788 22.2757 70.5867 21.9417 70.2527C21.6078 69.9187 21.4155 69.4554 21.4155 68.9831C21.4155 68.5091 21.6077 68.0476 21.9417 67.7136C22.2757 67.3797 22.739 67.1874 23.2112 67.1874C23.6851 67.1874 24.1468 67.3797 24.4808 67.7136Z" fill="#29ABE2"/>
<path d="M58.6331 86.6348C59.1073 86.6348 59.5706 86.8253 59.9045 87.161C60.2385 87.495 60.4308 87.9566 60.4308 88.4305C60.4308 88.9028 60.2386 89.3661 59.9045 89.7001C59.5706 90.0339 59.1073 90.2262 58.6331 90.2262C58.1608 90.2262 57.6975 90.0341 57.3637 89.7001C57.0297 89.3661 56.8374 88.9028 56.8374 88.4305C56.8374 87.9565 57.0295 87.495 57.3637 87.161C57.6975 86.8253 58.1608 86.6348 58.6331 86.6348Z" fill="#29ABE2"/>
</g>
<defs>
<clipPath id="clip0_193_442">
<rect width="92" height="92" fill="white" transform="matrix(1 0 0 -1 0.194336 92)"/>
</clipPath>
</defs>
</svg>
