<svg width="93" height="92" viewBox="0 0 93 92" fill="none" xmlns="http://www.w3.org/2000/svg">
<path d="M46.1946 56.9088C29.8234 56.9088 23.9008 46.8742 23.6565 46.4473C23.4986 46.1702 23.4986 45.8296 23.6565 45.5523C23.9008 45.1253 29.8234 35.0908 46.1946 35.0908C62.5653 35.0908 68.4885 45.1255 68.7328 45.5523C68.8909 45.8296 68.8909 46.1702 68.7328 46.4473C68.4885 46.8742 62.5653 56.9088 46.1946 56.9088ZM25.5206 45.9998C26.8634 47.8921 32.857 55.1045 46.1946 55.1045C59.584 55.1045 65.5382 47.8945 66.8698 46.002C65.5307 44.1125 59.5363 36.8949 46.1946 36.8949C32.857 36.8949 26.8632 44.1074 25.5206 45.9998Z" fill="#29ABE2"/>
<path d="M58.2338 47.5555C57.6869 47.5274 57.3051 47.1022 57.3322 46.6046C57.3434 46.4043 57.3485 46.2028 57.3485 45.9996C57.3485 42.7769 55.9454 39.7092 53.4987 37.5831C53.1222 37.2565 53.0823 36.6868 53.4093 36.3109C53.7342 35.9345 54.3063 35.8938 54.6815 36.2217C57.523 38.6902 59.1527 42.2541 59.1527 45.9996C59.1527 46.2357 59.1462 46.4701 59.1339 46.7021C59.1078 47.1833 58.7096 47.5555 58.2338 47.5555Z" fill="#29ABE2"/>
<path d="M38.2985 55.9991C38.089 55.9991 37.8781 55.9263 37.7077 55.7783C34.8662 53.3098 33.2363 49.7457 33.2363 45.9998C33.2363 45.1058 33.3285 44.2132 33.5099 43.3462C33.6115 42.8582 34.0938 42.5432 34.5777 42.6484C35.0653 42.75 35.3777 43.2282 35.2754 43.7162C35.1198 44.4616 35.0404 45.2298 35.0404 45.9998C35.0404 49.2231 36.4436 52.29 38.8905 54.4156C39.2669 54.7426 39.3069 55.3124 38.9803 55.6883C38.8018 55.8939 38.551 55.9991 38.2985 55.9991Z" fill="#29ABE2"/>
<path d="M46.1945 51.4988C43.1622 51.4988 40.6953 49.0321 40.6953 45.9998C40.6953 42.9675 43.162 40.5006 46.1945 40.5006C49.2268 40.5006 51.6937 42.9673 51.6937 45.9998C51.6937 49.0323 49.2268 51.4988 46.1945 51.4988ZM46.1945 42.3049C44.1571 42.3049 42.4996 43.9624 42.4996 45.9998C42.4996 48.0372 44.1571 49.6945 46.1945 49.6945C48.232 49.6945 49.8894 48.0371 49.8894 45.9998C49.8894 43.9622 48.2318 42.3049 46.1945 42.3049Z" fill="#29ABE2"/>
<path d="M27.9331 81.0798H12.0164C11.5183 81.0798 11.1143 80.6757 11.1143 80.1776V63.9568C11.1143 63.4587 11.5183 63.0546 12.0164 63.0546H17.5011C17.999 63.0546 18.4032 63.4587 18.4032 63.9568V73.687H27.9331C28.4312 73.687 28.8353 74.0913 28.8353 74.5892V80.1776C28.8353 80.6757 28.4312 81.0798 27.9331 81.0798ZM12.9186 79.2755H27.031V75.4913H17.5011C17.003 75.4913 16.5989 75.0873 16.5989 74.5892V64.8589H12.9186V79.2755Z" fill="#29ABE2"/>
<path d="M80.3726 81.0798H64.4559C63.958 81.0798 63.5537 80.6757 63.5537 80.1776V74.5892C63.5537 74.0913 63.958 73.687 64.4559 73.687H73.986V63.9568C73.986 63.4587 74.39 63.0546 74.8881 63.0546H80.3726C80.8705 63.0546 81.2747 63.4587 81.2747 63.9568V80.1776C81.2747 80.6757 80.8707 81.0798 80.3726 81.0798ZM65.358 79.2755H79.4704V64.8589H75.7903V74.5892C75.7903 75.0873 75.3862 75.4913 74.8881 75.4913H65.358V79.2755Z" fill="#29ABE2"/>
<path d="M17.5011 28.9454H12.0164C11.5183 28.9454 11.1143 28.5414 11.1143 28.0433V11.8218C11.1143 11.3237 11.5183 10.9197 12.0164 10.9197H27.9331C28.4312 10.9197 28.8353 11.3237 28.8353 11.8218V17.4108C28.8353 17.9089 28.4312 18.313 27.9331 18.313H18.4032V28.0433C18.4032 28.5414 17.999 28.9454 17.5011 28.9454ZM12.9186 27.1411H16.5989V17.4108C16.5989 16.9127 17.003 16.5087 17.5011 16.5087H27.031V12.724H12.9186V27.1411Z" fill="#29ABE2"/>
<path d="M48.8818 19.3204H43.5071C43.0092 19.3204 42.605 18.9163 42.605 18.4182V5.22616C42.605 4.72807 43.0092 4.32401 43.5071 4.32401H48.8818C49.3797 4.32401 49.7839 4.72807 49.7839 5.22616V18.4182C49.7839 18.9163 49.3797 19.3204 48.8818 19.3204ZM44.4093 17.5161H47.9798V6.12831H44.4093V17.5161Z" fill="#29ABE2"/>
<path d="M80.3726 28.9454H74.8881C74.39 28.9454 73.986 28.5414 73.986 28.0433V18.313H64.4559C63.958 18.313 63.5537 17.9089 63.5537 17.4108V11.8218C63.5537 11.3237 63.958 10.9197 64.4559 10.9197H80.3726C80.8705 10.9197 81.2747 11.3237 81.2747 11.8218V28.0433C81.2747 28.5414 80.8707 28.9454 80.3726 28.9454ZM75.7903 27.1411H79.4704V12.724H65.358V16.5087H74.8881C75.3862 16.5087 75.7903 16.9127 75.7903 17.4108V27.1411Z" fill="#29ABE2"/>
<path d="M48.8818 87.676H43.5071C43.0092 87.676 42.605 87.2719 42.605 86.7739V73.5812C42.605 73.0833 43.0092 72.6791 43.5071 72.6791H48.8818C49.3797 72.6791 49.7839 73.0833 49.7839 73.5812V86.7739C49.7839 87.2719 49.3797 87.676 48.8818 87.676ZM44.4093 85.8717H47.9798V74.4834H44.4093V85.8717Z" fill="#29ABE2"/>
<path d="M86.9682 49.5895H73.7762C73.2781 49.5895 72.874 49.1854 72.874 48.6873V43.3127C72.874 42.8146 73.2781 42.4105 73.7762 42.4105H86.9682C87.4663 42.4105 87.8704 42.8146 87.8704 43.3127V48.6873C87.8704 49.1854 87.4663 49.5895 86.9682 49.5895ZM74.6785 47.7852H86.0663V44.2148H74.6785V47.7852Z" fill="#29ABE2"/>
<path d="M18.613 49.5895H5.42022C4.92231 49.5895 4.51807 49.1854 4.51807 48.6873V43.3127C4.51807 42.8146 4.92231 42.4105 5.42022 42.4105H18.613C19.1109 42.4105 19.5152 42.8146 19.5152 43.3127V48.6873C19.5152 49.1854 19.1111 49.5895 18.613 49.5895ZM6.32255 47.7852H17.7111V44.2148H6.32255V47.7852Z" fill="#29ABE2"/>
<path d="M64.4557 32.9868C64.3531 32.9868 64.2491 32.9693 64.1475 32.9321C58.7306 30.961 52.6904 29.9615 46.1947 29.9615C39.6987 29.9615 33.6587 30.961 28.2418 32.9321C27.7744 33.1012 27.2568 32.8611 27.0859 32.393C26.9155 31.9249 27.1569 31.4073 27.6252 31.2371C33.24 29.1933 39.4879 28.1572 46.1947 28.1572C52.9015 28.1572 59.1494 29.1931 64.7643 31.2371C65.2324 31.4075 65.4738 31.9249 65.3034 32.393C65.17 32.7595 64.8241 32.9868 64.4557 32.9868Z" fill="#29ABE2"/>
<path d="M46.1946 63.8423C39.4867 63.8423 33.2393 62.8062 27.6251 60.7629C27.157 60.5925 26.9156 60.0751 27.0858 59.607C27.2562 59.1376 27.7765 58.8975 28.2417 59.0677C33.6575 61.0381 39.6981 62.0378 46.1946 62.0378C52.691 62.0378 58.7316 61.0381 64.1474 59.0677C64.615 58.898 65.1324 59.1387 65.3031 59.607C65.4735 60.0751 65.2321 60.5925 64.764 60.7629C59.1498 62.806 52.9025 63.8423 46.1946 63.8423Z" fill="#29ABE2"/>
</svg>
