<svg width="97" height="84" viewBox="0 0 97 84" fill="none" xmlns="http://www.w3.org/2000/svg">
<g clip-path="url(#clip0_193_397)">
<path d="M96.0887 23.4753C96.0887 14.4793 87.6219 7.16032 77.2146 7.16032C71.9669 7.16032 67.2132 9.02179 63.7891 12.0202H55.0008C54.4099 10.5695 53.6268 9.27535 52.6535 8.17115C50.1507 5.33178 46.5345 3.83087 42.1956 3.83087C41.5452 3.83087 40.8901 3.86526 40.2414 3.93306C35.9376 1.51564 30.4254 1.40702 25.3851 3.66521C21.3728 5.46274 18.2687 8.47548 16.5456 12.0202H6.11246C3.24761 12.0202 0.916992 14.0348 0.916992 16.5111V64.4129C0.916992 66.8892 3.24761 68.9039 6.11246 68.9039H34.9664V71.8506H28.5591C25.34 71.8506 22.7209 74.1146 22.7209 76.8973V80.8235C22.7209 81.4448 23.3036 81.9486 24.0222 81.9486H63.8465C64.5653 81.9486 65.1479 81.4448 65.1479 80.8235V76.8973C65.1479 74.1146 62.529 71.8506 59.3096 71.8506H52.9024V68.9039H81.7563C84.6211 68.9039 86.9518 66.8892 86.9518 64.4129V37.4465C92.4233 34.5864 96.0887 29.3941 96.0887 23.4753ZM60.8484 42.9633C61.0742 43.1036 61.3404 43.1744 61.6073 43.1744C61.8306 43.1744 62.0546 43.1248 62.2561 43.0245L70.7449 38.8051C72.8158 39.4589 74.9892 39.7902 77.2144 39.7902C77.7559 39.7902 78.2916 39.7693 78.8215 39.7304V61.8713H58.6406V55.5357C58.6406 52.5933 57.5857 49.7586 55.5899 47.3375C54.6893 46.245 53.6264 45.2736 52.4336 44.4387V43.0102C52.4336 39.8572 49.6934 37.2486 46.1639 36.8658C47.1502 35.9352 48.0277 34.8761 48.7729 33.713C53.4288 30.6477 56.3119 25.1513 56.3119 19.2984C56.3119 19.214 56.3083 19.1318 56.3076 19.0479H59.0471C58.5873 20.4562 58.3406 21.9411 58.3406 23.4749C58.3406 27.079 59.7292 30.5939 62.2628 33.4332L60.3309 41.8299C60.2312 42.2627 60.4337 42.7059 60.8484 42.9633ZM9.04721 61.8715V19.0482H15.0433C15.2204 24.6476 17.8473 29.8213 22.1571 33.0314C22.9962 34.486 24.0354 35.7955 25.2337 36.9161C21.889 37.438 19.3432 39.9713 19.3432 43.0104V44.4411C18.1522 45.2753 17.0908 46.2462 16.1911 47.3378C14.1958 49.7591 13.1413 52.5941 13.1413 55.5359V61.8715H9.04721ZM35.6724 38.8608C28.3623 38.8608 22.4151 32.2757 22.4151 24.1813C22.4151 23.4925 22.4582 22.8028 22.5439 22.1217C27.7938 21.911 33.6773 19.7634 37.8377 16.4879C38.1909 16.2108 38.5911 16.0973 39.0599 16.1405C39.5371 16.1843 39.8925 16.3618 40.1786 16.6991C42.4618 19.4332 45.5399 21.7634 48.9064 23.317C48.922 23.6179 48.9296 23.904 48.9296 24.1813C48.9296 32.2757 42.9825 38.8608 35.6724 38.8608ZM52.0912 58.132C52.0912 58.5891 51.661 58.9609 51.1322 58.9609C50.6006 58.9609 50.1678 58.5891 50.1678 58.132C50.1678 57.6724 50.6004 57.2985 51.1322 57.2985C51.661 57.2987 52.0912 57.6724 52.0912 58.132ZM49.0395 42.3183C48.9441 42.0057 48.6977 41.7434 48.3631 41.5987L43.5604 39.523V39.066H45.2677C47.7547 39.066 49.7819 40.7949 49.8286 42.9352C49.5827 42.8198 49.3338 42.7088 49.0808 42.6034C49.0806 42.5081 49.0681 42.4123 49.0395 42.3183ZM23.414 41.5988C23.0793 41.7436 22.8328 42.0058 22.7374 42.3188C22.7088 42.4128 22.6963 42.5086 22.6963 42.6039C22.4433 42.7093 22.1943 42.8205 21.9485 42.936C21.9948 40.7953 24.0222 39.066 26.5096 39.066H28.1212C28.1528 39.0843 28.1851 39.1018 28.2169 39.12V39.5232L23.414 41.5988ZM39.1138 45.5101C38.2041 46.1612 37.0717 46.5174 35.8884 46.5174C34.7052 46.5174 33.5719 46.1592 32.6612 45.5051L30.9122 40.3315C32.4155 40.8375 34.0145 41.111 35.6724 41.111C37.5122 41.111 39.2794 40.7737 40.924 40.1559L39.1138 45.5101ZM35.8884 48.7675C36.6492 48.7675 37.3957 48.6697 38.1087 48.483L35.8884 55.0506L33.6676 48.482C34.381 48.6692 35.1275 48.7675 35.8884 48.7675ZM15.7444 55.5359C15.7444 52.565 17.0824 49.7352 19.3433 47.5526V54.0083C17.7892 54.1286 16.5666 55.2593 16.5666 56.6335V60.086C16.5666 60.7073 17.1494 61.2111 17.868 61.2111H20.0493V58.9609H19.1694V56.6335C19.1694 56.4199 19.3703 56.2464 19.6173 56.2464H21.6775C21.9245 56.2464 22.1255 56.4199 22.1255 56.6335V58.9609H21.2455V61.2111H23.4269C24.1457 61.2111 24.7282 60.7073 24.7282 60.086V56.6335C24.7282 55.2577 23.5027 54.1262 21.9461 54.0079V45.5755C22.5805 45.1993 23.2536 44.864 23.9616 44.5754L25.5614 46.6292L22.7363 49.4258C22.3913 49.7675 22.3171 50.2546 22.5484 50.6616L28.9149 61.8715H15.7444V55.5359ZM31.8149 61.8715L25.2666 50.3419L28.1799 47.458C28.5679 47.074 28.6086 46.5126 28.2792 46.0897L25.9028 43.0388L28.7062 41.8273L34.6392 59.3769C34.8015 59.8565 35.3103 60.1864 35.8885 60.1864C36.4668 60.1864 36.9756 59.8565 37.1379 59.3769L43.0711 41.8271L45.8754 43.0393L43.5026 46.0903C43.1739 46.5129 43.2146 47.0735 43.6016 47.4574L46.5105 50.3414L39.962 61.8715H31.8149ZM49.2285 50.6616C49.4596 50.255 49.3856 49.7679 49.0412 49.4263L46.2198 46.6292L47.8168 44.5756C48.5242 44.8637 49.1968 45.1985 49.8306 45.5739V55.2638C48.5062 55.7147 47.5649 56.8288 47.5649 58.1318C47.5649 59.8295 49.1652 61.2109 51.132 61.2109C53.0961 61.2109 54.6939 59.8295 54.6939 58.1318C54.6939 56.8295 53.755 55.7157 52.4334 55.2645V47.5488C54.6976 49.7316 56.0375 52.563 56.0375 55.5357V61.8713H42.8616L49.2285 50.6616ZM61.6401 14.2702C61.0092 15.0653 60.4571 15.9105 59.9948 16.7979H56.178C56.0812 15.9199 55.9295 15.0775 55.7297 14.2702H61.6401ZM26.5828 5.66278C30.9141 3.72257 35.6211 3.85819 39.1742 6.02528C39.4493 6.19319 39.7891 6.26244 40.1222 6.21793C40.807 6.12715 41.5047 6.08087 42.1956 6.08087C45.741 6.08087 48.5629 7.24275 50.5831 9.53468C51.5374 10.6173 52.2789 11.9328 52.8014 13.4386C52.8085 13.4609 52.8157 13.4831 52.8243 13.5049C53.4063 15.2099 53.7089 17.157 53.7089 19.2985C53.7089 22.4567 52.7765 25.4841 51.1329 27.9653C51.3943 26.7483 51.5328 25.4817 51.5328 24.1811C51.5328 23.6644 51.5093 23.1247 51.461 22.5308C51.4285 22.1315 51.153 21.7772 50.7376 21.6003C47.5271 20.2343 44.4472 17.9668 42.2871 15.3791L42.2826 15.3736C41.563 14.5223 40.5438 14.0138 39.3356 13.9031C38.1205 13.7904 36.9979 14.1088 36.0874 14.823C32.0794 17.9784 26.3259 19.9609 21.4284 19.8865C20.7858 19.8764 20.2215 20.2798 20.1189 20.8335C19.9157 21.931 19.8127 23.0575 19.8127 24.1814C19.8127 25.1949 19.8967 26.1875 20.0575 27.1524C18.5005 24.6201 17.6366 21.6029 17.6366 18.4424C17.6362 13.114 21.1479 8.09756 26.5828 5.66278ZM59.3098 74.1008C61.0937 74.1008 62.5451 75.3554 62.5451 76.8973V79.6984H25.3238V76.8973C25.3238 75.3552 26.7752 74.1008 28.5591 74.1008H34.9664H37.5693H50.2996H52.9026H59.3098ZM50.2996 71.8506H37.5693V68.9039H50.2996V71.8506ZM84.349 64.4129C84.349 65.6486 83.1861 66.6538 81.7565 66.6538H52.9026H50.2996H37.5693H34.9664H6.11246C4.68301 66.6538 3.51993 65.6486 3.51993 64.4129V16.5111C3.51993 15.2756 4.68282 14.2704 6.11246 14.2704H15.6617C15.411 15.0965 15.2316 15.9411 15.131 16.7981H7.74583C7.02701 16.7981 6.44445 17.3018 6.44445 17.9231V62.9965C6.44445 63.6179 7.0272 64.1216 7.74583 64.1216H14.4429H57.3392H80.1231C80.8419 64.1216 81.4245 63.6179 81.4245 62.9965V39.3806C82.4323 39.1814 83.4092 38.9116 84.3488 38.5787L84.349 64.4129ZM77.2146 37.5402C75.1094 37.5402 73.0593 37.197 71.1211 36.5199C70.7503 36.3902 70.3313 36.4153 69.9846 36.5877L63.4428 39.8392L64.9335 33.3596C65.0099 33.0282 64.9096 32.6843 64.6603 32.4237C62.2635 29.9166 60.9434 26.7387 60.9434 23.4753C60.9434 15.7197 68.2427 9.41048 77.2146 9.41048C86.1866 9.41048 93.4858 15.7199 93.4858 23.4753C93.4858 31.2306 86.1865 37.5402 77.2146 37.5402ZM88.5801 19.5172H81.7987V13.6553C81.7987 13.034 81.2159 12.5302 80.4973 12.5302H73.9318C73.213 12.5302 72.6305 13.034 72.6305 13.6553V19.5171H65.8542C65.1354 19.5171 64.5529 20.0208 64.5529 20.6422V26.3127C64.5529 26.9341 65.1356 27.4378 65.8542 27.4378H72.6305V33.2995C72.6305 33.9209 73.2132 34.4246 73.9318 34.4246H80.4973C81.2161 34.4246 81.7987 33.9209 81.7987 33.2995V27.4378H88.5801C89.2989 27.4378 89.8815 26.9341 89.8815 26.3127V20.6422C89.8817 20.021 89.2989 19.5172 88.5801 19.5172ZM87.2787 25.1878H80.4973C79.7785 25.1878 79.1959 25.6915 79.1959 26.3129V32.1746H75.2334V26.3129C75.2334 25.6915 74.6507 25.1878 73.932 25.1878H67.1558V21.7674H73.9318C74.6507 21.7674 75.2332 21.2637 75.2332 20.6423V14.7804H79.1957V20.6422C79.1957 21.2635 79.7785 21.7672 80.4971 21.7672H87.2785L87.2787 25.1878Z" fill="#29ABE2"/>
</g>
<defs>
<clipPath id="clip0_193_397">
<rect width="95.1728" height="82.268" fill="white" transform="translate(0.916016 0.864349)"/>
</clipPath>
</defs>
</svg>
