<svg width="60" height="53" viewBox="0 0 60 53" fill="none" xmlns="http://www.w3.org/2000/svg">
<path d="M59.9998 14.3534C59.9998 8.64268 54.662 3.99657 48.1009 3.99657C44.7926 3.99657 41.7958 5.17824 39.6371 7.08167H34.0967C33.7241 6.16071 33.2304 5.3392 32.6168 4.63826C31.039 2.83581 28.7592 1.88303 26.0238 1.88303C25.6138 1.88303 25.2008 1.90486 24.7919 1.9479C22.0786 0.413314 18.6035 0.344362 15.426 1.77787C12.8965 2.91894 10.9396 4.83144 9.85326 7.08167H3.27588C1.46978 7.08167 0.000488281 8.36054 0.000488281 9.93246V40.3407C0.000488281 41.9126 1.46978 43.1916 3.27588 43.1916H21.4663V45.0622H17.427C15.3975 45.0622 13.7463 46.4994 13.7463 48.2658V50.7582C13.7463 51.1526 14.1137 51.4724 14.5668 51.4724H39.6733C40.1264 51.4724 40.4937 51.1526 40.4937 50.7582V48.2658C40.4937 46.4994 38.8426 45.0622 36.8131 45.0622H32.7737V43.1916H50.9642C52.7703 43.1916 54.2396 41.9126 54.2396 40.3407V23.2224C57.689 21.4068 59.9998 18.1106 59.9998 14.3534ZM37.7831 26.7244C37.9255 26.8135 38.0933 26.8584 38.2616 26.8584C38.4024 26.8584 38.5436 26.8269 38.6706 26.7633L44.0222 24.0848C45.3278 24.4998 46.698 24.7101 48.1008 24.7101C48.4422 24.7101 48.7799 24.6969 49.114 24.6722V38.7273H36.3913V34.7054C36.3913 32.8376 35.7263 31.0381 34.468 29.5012C33.9003 28.8077 33.2302 28.191 32.4782 27.661V26.7542C32.4782 24.7527 30.7507 23.0967 28.5256 22.8537C29.1474 22.2629 29.7006 21.5907 30.1704 20.8523C33.1056 18.9064 34.9232 15.4173 34.9232 11.7019C34.9232 11.6483 34.921 11.5961 34.9205 11.5428H36.6476C36.3577 12.4369 36.2022 13.3795 36.2022 14.3531C36.2022 16.641 37.0776 18.8723 38.6748 20.6747L37.4569 26.0049C37.3941 26.2797 37.5217 26.561 37.7831 26.7244ZM5.12604 38.7274V11.543H8.90615C9.01783 15.0975 10.6739 18.3818 13.3909 20.4196C13.9199 21.343 14.5751 22.1743 15.3305 22.8856C13.2219 23.2169 11.6169 24.8251 11.6169 26.7543V27.6625C10.8661 28.1921 10.197 28.8084 9.62978 29.5014C8.37189 31.0384 7.70709 32.8381 7.70709 34.7055V38.7274H5.12604ZM21.9114 24.1202C17.3029 24.1202 13.5536 19.9399 13.5536 14.8015C13.5536 14.3643 13.5808 13.9265 13.6348 13.4941C16.9445 13.3604 20.6536 11.997 23.2765 9.91778C23.4992 9.74183 23.7515 9.66981 24.047 9.69725C24.3478 9.725 24.5719 9.83771 24.7522 10.0518C26.1917 11.7874 28.1322 13.2666 30.2546 14.2529C30.2644 14.4439 30.2692 14.6255 30.2692 14.8015C30.2692 19.9399 26.5199 24.1202 21.9114 24.1202ZM32.2623 36.3535C32.2623 36.6437 31.9912 36.8797 31.6578 36.8797C31.3226 36.8797 31.0498 36.6437 31.0498 36.3535C31.0498 36.0618 31.3225 35.8245 31.6578 35.8245C31.9912 35.8246 32.2623 36.0618 32.2623 36.3535ZM30.3385 26.315C30.2783 26.1165 30.1229 25.95 29.912 25.8581L26.8842 24.5405V24.2504H27.9606C29.5285 24.2504 30.8065 25.3479 30.8359 26.7066C30.6809 26.6333 30.524 26.5629 30.3645 26.4959C30.3644 26.4355 30.3565 26.3747 30.3385 26.315ZM14.1833 25.8582C13.9723 25.9501 13.8169 26.1166 13.7568 26.3153C13.7387 26.375 13.7309 26.4358 13.7309 26.4962C13.5714 26.5632 13.4144 26.6337 13.2594 26.7071C13.2886 25.3481 14.5668 24.2504 16.1349 24.2504H17.1509C17.1708 24.262 17.1912 24.2732 17.2112 24.2847V24.5406L14.1833 25.8582ZM24.081 28.3411C23.5075 28.7544 22.7936 28.9806 22.0476 28.9806C21.3017 28.9806 20.5872 28.7532 20.0131 28.338L18.9104 25.0538C19.8581 25.375 20.8662 25.5486 21.9114 25.5486C23.0713 25.5486 24.1854 25.3345 25.2222 24.9423L24.081 28.3411ZM22.0476 30.409C22.5272 30.409 22.9978 30.3468 23.4474 30.2283L22.0476 34.3975L20.6475 30.2277C21.0973 30.3465 21.5679 30.409 22.0476 30.409ZM9.34818 34.7055C9.34818 32.8196 10.1917 31.0232 11.6171 29.6377V33.7358C10.6372 33.8122 9.8665 34.53 9.8665 35.4023V37.594C9.8665 37.9884 10.2339 38.3082 10.6869 38.3082H12.0621V36.8797H11.5074V35.4023C11.5074 35.2667 11.634 35.1566 11.7898 35.1566H13.0886C13.2443 35.1566 13.371 35.2667 13.371 35.4023V36.8797H12.8162V38.3082H14.1914C14.6446 38.3082 15.0119 37.9884 15.0119 37.594V35.4023C15.0119 34.529 14.2392 33.8107 13.2579 33.7356V28.3826C13.6579 28.1439 14.0822 27.931 14.5286 27.7478L15.5371 29.0516L13.7561 30.8269C13.5386 31.0437 13.4918 31.353 13.6376 31.6113L17.6513 38.7274H9.34818V34.7055ZM19.4795 38.7274L15.3512 31.4084L17.1879 29.5777C17.4325 29.3339 17.4581 28.9775 17.2505 28.709L15.7524 26.7724L17.5197 26.0033L21.2601 37.1438C21.3624 37.4483 21.6831 37.6577 22.0477 37.6577C22.4122 37.6577 22.733 37.4483 22.8353 37.1438L26.5758 26.0032L28.3437 26.7727L26.8478 28.7094C26.6406 28.9777 26.6663 29.3336 26.9103 29.5773L28.7441 31.4081L24.6157 38.7274H19.4795ZM30.4576 31.6113C30.6033 31.3532 30.5567 31.044 30.3395 30.8272L28.5608 29.0516L29.5676 27.7479C30.0136 27.9308 30.4376 28.1433 30.8372 28.3816V34.5328C30.0022 34.819 29.4088 35.5263 29.4088 36.3534C29.4088 37.4312 30.4177 38.3081 31.6576 38.3081C32.8958 38.3081 33.9032 37.4312 33.9032 36.3534C33.9032 35.5267 33.3113 34.8197 32.4781 34.5332V29.6353C33.9055 31.021 34.7502 32.8183 34.7502 34.7054V38.7273H26.4437L30.4576 31.6113ZM38.2822 8.50997C37.8845 9.01467 37.5365 9.55119 37.245 10.1145H34.8388C34.7778 9.55721 34.6821 9.02242 34.5562 8.50997H38.2822ZM16.181 3.04593C18.9116 1.81428 21.879 1.90037 24.1191 3.27605C24.2925 3.38264 24.5067 3.4266 24.7167 3.39834C25.1485 3.34071 25.5883 3.31134 26.0238 3.31134C28.259 3.31134 30.038 4.0489 31.3116 5.50383C31.9132 6.1911 32.3807 7.02618 32.7101 7.98202C32.7146 7.9962 32.7191 8.01027 32.7245 8.02415C33.0914 9.10647 33.2822 10.3425 33.2822 11.702C33.2822 13.7068 32.6944 15.6286 31.6582 17.2036C31.823 16.4311 31.9103 15.627 31.9103 14.8014C31.9103 14.4734 31.8955 14.1308 31.8651 13.7538C31.8446 13.5003 31.6709 13.2754 31.409 13.1631C29.385 12.296 27.4433 10.8566 26.0815 9.21387L26.0787 9.21041C25.6251 8.67001 24.9825 8.34718 24.2208 8.2769C23.4547 8.2054 22.747 8.40746 22.1731 8.86085C19.6463 10.8639 16.0191 12.1224 12.9315 12.0752C12.5264 12.0688 12.1706 12.3249 12.106 12.6764C11.9779 13.373 11.9129 14.0882 11.9129 14.8016C11.9129 15.445 11.9659 16.0751 12.0673 16.6876C11.0857 15.0801 10.541 13.1647 10.541 11.1585C10.5408 7.77598 12.7547 4.59154 16.181 3.04593ZM36.8132 46.4906C37.9378 46.4906 38.8528 47.287 38.8528 48.2658V50.044H15.3873V48.2658C15.3873 47.2869 16.3023 46.4906 17.427 46.4906H21.4663H23.1073H31.1329H32.7738H36.8132ZM31.1329 45.0622H23.1073V43.1916H31.1329V45.0622ZM52.5987 40.3407C52.5987 41.1251 51.8656 41.7632 50.9643 41.7632H32.7738H31.1329H23.1073H21.4663H3.27588C2.37471 41.7632 1.64146 41.1251 1.64146 40.3407V9.93246C1.64146 9.14819 2.37459 8.51007 3.27588 8.51007H9.29603C9.13795 9.03446 9.02486 9.57067 8.96146 10.1146H4.30561C3.85244 10.1146 3.48518 10.4344 3.48518 10.8288V39.4416C3.48518 39.836 3.85256 40.1558 4.30561 40.1558H8.52764H35.5709H49.9346C50.3877 40.1558 50.755 39.836 50.755 39.4416V24.4501C51.3904 24.3236 52.0062 24.1524 52.5986 23.941L52.5987 40.3407ZM48.1009 23.2818C46.7738 23.2818 45.4813 23.0639 44.2594 22.6341C44.0256 22.5518 43.7615 22.5677 43.5429 22.6772L39.4187 24.7412L40.3586 20.628C40.4067 20.4176 40.3435 20.1993 40.1863 20.0338C38.6753 18.4423 37.843 16.425 37.843 14.3534C37.843 9.43012 42.4447 5.42498 48.1009 5.42498C53.7572 5.42498 58.3588 9.43022 58.3588 14.3534C58.3588 19.2765 53.7571 23.2818 48.1009 23.2818ZM55.2661 11.8408H50.9909V8.11962C50.9909 7.72519 50.6235 7.40542 50.1704 7.40542H46.0314C45.5782 7.40542 45.211 7.72519 45.211 8.11962V11.8407H40.939C40.4858 11.8407 40.1186 12.1605 40.1186 12.5549V16.1546C40.1186 16.549 40.486 16.8688 40.939 16.8688H45.211V20.5898C45.211 20.9843 45.5783 21.304 46.0314 21.304H50.1704C50.6236 21.304 50.9909 20.9843 50.9909 20.5898V16.8688H55.2661C55.7193 16.8688 56.0865 16.549 56.0865 16.1546V12.5549C56.0867 12.1606 55.7193 11.8408 55.2661 11.8408ZM54.4457 15.4405H50.1704C49.7173 15.4405 49.35 15.7602 49.35 16.1547V19.8757H46.8519V16.1547C46.8519 15.7602 46.4846 15.4405 46.0315 15.4405H41.7596V13.2692H46.0314C46.4846 13.2692 46.8518 12.9494 46.8518 12.555V8.83382H49.3499V12.5549C49.3499 12.9493 49.7173 13.2691 50.1703 13.2691H54.4456L54.4457 15.4405Z" fill="#29ABE2"/>
</svg>
