<svg width="50" height="50" viewBox="0 0 50 50" fill="none" xmlns="http://www.w3.org/2000/svg">
<g clip-path="url(#clip0_257_758)">
<path d="M36.9531 17.7108C37.0221 17.6375 37.0898 17.5626 37.1545 17.4839C38.0334 16.4172 38.4978 14.9213 38.4978 13.1577C38.4988 12.2561 38.2276 11.3751 37.7198 10.63C37.212 9.88492 36.4911 9.31042 35.6516 8.98162C34.812 8.65283 33.8927 8.58504 33.0139 8.78712C32.1352 8.9892 31.3379 9.45175 30.7263 10.1143C29.899 9.53369 28.9422 9.16423 27.9395 9.03811C28.0085 8.96487 28.0762 8.88987 28.1412 8.81116C29.0201 7.74446 29.485 6.24847 29.485 4.48499C29.4877 3.89431 29.3738 3.30891 29.1496 2.7624C28.9255 2.21589 28.5956 1.71905 28.1789 1.3004C27.7622 0.88175 27.2669 0.549546 26.7214 0.322865C26.176 0.0961836 25.5911 -0.0205078 25.0004 -0.0205078C24.4098 -0.0205078 23.8249 0.0961836 23.2794 0.322865C22.734 0.549546 22.2387 0.88175 21.822 1.3004C21.4053 1.71905 21.0754 2.21589 20.8513 2.7624C20.6271 3.30891 20.5132 3.89431 20.5159 4.48499C20.5159 6.24847 20.9806 7.74446 21.8598 8.81116C21.9246 8.88987 21.9924 8.96487 22.0614 9.03811C21.0584 9.16421 20.1015 9.53374 19.274 10.1145C18.6624 9.45195 17.8651 8.9894 16.9863 8.78732C16.1076 8.58523 15.1883 8.65302 14.3487 8.98182C13.5091 9.31062 12.7883 9.88512 12.2805 10.6302C11.7727 11.3753 11.5015 12.2563 11.5024 13.1579C11.5024 14.9213 11.967 16.4172 12.8458 17.4841C12.9105 17.5628 12.9782 17.6377 13.0472 17.711C11.5425 17.9001 10.1585 18.6315 9.15453 19.7681C8.15058 20.9047 7.59565 22.3685 7.59375 23.885V26.6837C7.59437 27.2481 7.81886 27.7893 8.21798 28.1884C8.61709 28.5875 9.15823 28.812 9.72266 28.8126H17.0408C16.7559 29.5355 16.6098 30.3056 16.6101 31.0825V33.884C16.6107 34.4484 16.8352 34.9896 17.2343 35.3887C17.6334 35.7878 18.1745 36.0123 18.739 36.0129H31.2618C31.8262 36.0123 32.3674 35.7878 32.7665 35.3887C33.1656 34.9896 33.3901 34.4484 33.3907 33.884V31.0823C33.391 30.3053 33.2449 29.5352 32.96 28.8123H40.278C40.8425 28.8117 41.3836 28.5872 41.7827 28.1881C42.1818 27.789 42.4063 27.2479 42.4069 26.6834V23.8848C42.405 22.3682 41.85 20.9044 40.846 19.7678C39.842 18.6312 38.4579 17.8998 36.9531 17.7108ZM34.016 10.0409C34.8421 10.0422 35.6339 10.3711 36.2177 10.9555C36.8015 11.5398 37.1297 12.3319 37.1303 13.1579C37.1303 16.2351 35.534 17.6456 34.0407 17.6618H33.9887C32.4955 17.6456 30.8991 16.2351 30.8991 13.1579C30.8986 12.5604 31.071 11.9755 31.3954 11.4737C31.4095 11.4543 31.4225 11.4343 31.4345 11.4136C31.7197 10.9911 32.1042 10.645 32.5543 10.4057C33.0044 10.1663 33.5063 10.0411 34.0161 10.0409H34.016ZM25 1.36761C25.8264 1.36854 26.6187 1.69723 27.203 2.28158C27.7874 2.86593 28.1161 3.65821 28.117 4.4846C28.117 7.56175 26.5199 8.97239 25.026 8.9885H24.974C23.4799 8.97239 21.883 7.56175 21.883 4.4846C21.8839 3.65821 22.2126 2.86593 22.797 2.28158C23.3813 1.69723 24.1736 1.36854 25 1.36761ZM22.8297 10.3561H24.9774C24.985 10.3561 24.9925 10.3568 25 10.3568C25.0075 10.3568 25.015 10.3562 25.0226 10.3561H27.1703C28.17 10.3569 29.1449 10.6681 29.9602 11.2467C29.6774 11.844 29.5311 12.4967 29.5316 13.1575C29.5316 14.9209 29.9962 16.4168 30.875 17.4837C30.9396 17.5618 31.007 17.6369 31.0758 17.7099C30.3544 17.8 29.6547 18.0175 29.0093 18.3523C28.6372 17.6074 28.065 16.981 27.3569 16.5431C26.6487 16.1053 25.8326 15.8733 25 15.8733C24.1674 15.8733 23.3513 16.1053 22.6431 16.5431C21.935 16.981 21.3628 17.6074 20.9907 18.3523C20.3453 18.0176 19.6456 17.8001 18.9242 17.71C18.9926 17.6369 19.0609 17.5621 19.1251 17.4837C20.004 16.417 20.4684 14.9211 20.4684 13.1575C20.469 12.4967 20.3226 11.844 20.0398 11.2467C20.8552 10.6683 21.83 10.3572 22.8297 10.3565V10.3561ZM25.026 24.8616H24.974C23.4799 24.8454 21.883 23.4348 21.883 20.3576C21.8828 20.0958 21.9156 19.8349 21.9807 19.5813C21.9899 19.5551 21.9974 19.5285 22.0033 19.5014C22.1893 18.8501 22.5824 18.2771 23.1231 17.8692C23.6638 17.4613 24.3227 17.2407 25 17.2407C25.6774 17.2408 26.3362 17.4615 26.8769 17.8695C27.4175 18.2775 27.8105 18.8506 27.9964 19.5019C28.0023 19.5286 28.0098 19.5549 28.0187 19.5808C28.0839 19.8346 28.1167 20.0956 28.1164 20.3576C28.117 23.4352 26.5199 24.8458 25.026 24.8619V24.8616ZM15.9839 10.0409C16.4937 10.0411 16.9957 10.1663 17.4459 10.4056C17.896 10.6449 18.2806 10.991 18.5658 11.4136C18.5778 11.4343 18.5908 11.4543 18.6049 11.4737C18.9293 11.9755 19.1016 12.5604 19.1012 13.1579C19.1012 16.2351 17.5048 17.6456 16.0115 17.6618H15.9596C14.4663 17.6456 12.8698 16.2351 12.8698 13.1579C12.8704 12.3319 13.1986 11.5399 13.7824 10.9556C14.3662 10.3712 15.1579 10.0423 15.9839 10.0409ZM9.72207 27.4448C9.52013 27.4448 9.32646 27.3646 9.18363 27.2218C9.04079 27.0791 8.96048 26.8855 8.96035 26.6835V23.8848C8.96146 22.5979 9.473 21.3639 10.3828 20.4537C11.2925 19.5434 12.5262 19.0312 13.8131 19.0294H15.9622C15.9697 19.0294 15.9772 19.0301 15.9848 19.0301C15.9923 19.0301 15.9998 19.0294 16.0073 19.0294H18.1564C19.003 19.0292 19.8346 19.2533 20.5664 19.6789C20.5322 19.9037 20.515 20.1307 20.515 20.358C20.515 22.1215 20.9797 23.6175 21.8589 24.6842C21.9237 24.7629 21.9914 24.8379 22.0604 24.9112C21.2125 25.0174 20.3956 25.2972 19.6605 25.7331C18.9255 26.169 18.2881 26.7517 17.7882 27.4448H9.72207ZM32.023 33.8837C32.023 34.0857 31.9428 34.2795 31.7999 34.4223C31.6571 34.5652 31.4633 34.6454 31.2613 34.6454H18.7383C18.5363 34.6454 18.3425 34.5652 18.1997 34.4223C18.0568 34.2795 17.9766 34.0857 17.9766 33.8837V31.0823C17.9757 30.1773 18.2295 29.2904 18.709 28.5229C18.7203 28.507 18.7308 28.4904 18.7407 28.4735C19.1789 27.7861 19.7831 27.2202 20.4977 26.828C21.2123 26.4358 22.0142 26.23 22.8293 26.2295H24.9771C24.9846 26.2295 24.9921 26.2302 24.9996 26.2302C25.0071 26.2302 25.0146 26.2296 25.0222 26.2295H27.1699C27.9848 26.23 28.7864 26.4357 29.5008 26.8276C30.2152 27.2195 30.8194 27.785 31.2576 28.4719C31.2679 28.4896 31.2788 28.5068 31.2906 28.5234C31.7699 29.2907 32.0237 30.1773 32.023 31.082V33.8837ZM41.0392 26.6835C41.039 26.8854 40.9588 27.0789 40.8161 27.2216C40.6733 27.3644 40.4798 27.4446 40.2779 27.4448H32.2115C31.7116 26.7517 31.0742 26.1691 30.3392 25.7332C29.6042 25.2973 28.7873 25.0175 27.9395 24.9112C28.0084 24.8379 28.0762 24.7629 28.1411 24.6842C29.02 23.6175 29.4849 22.1215 29.4849 20.358C29.4849 20.1307 29.4677 19.9037 29.4335 19.6789C30.1653 19.2533 30.9968 19.0292 31.8434 19.0294H33.9926C34.0001 19.0294 34.0076 19.0301 34.0151 19.0301C34.0227 19.0301 34.0301 19.0294 34.0376 19.0294H36.1867C37.4737 19.0312 38.7073 19.5434 39.6171 20.4537C40.5268 21.3639 41.0384 22.5979 41.0395 23.8848L41.0392 26.6835Z" fill="#29ABE2"/>
<path d="M47.68 18.7846C46.1602 18.4508 44.6773 19.2983 44.3743 20.6728C44.3718 20.6846 44.3695 20.6966 44.3675 20.7085L42.495 32.0423C41.3574 31.7089 40.157 31.8686 39.3114 32.511L32.872 37.3916C31.4335 38.4832 30.6719 39.8362 30.544 41.5277L29.9572 49.2649C29.9501 49.3588 29.9624 49.4531 29.9935 49.5419C30.0246 49.6308 30.0736 49.7123 30.1376 49.7813C30.2016 49.8503 30.2792 49.9053 30.3655 49.943C30.4518 49.9806 30.5449 50 30.639 50H40.6129C40.7851 50 40.9509 49.9351 41.0773 49.8182C41.2036 49.7012 41.2812 49.541 41.2946 49.3693C41.508 46.6285 43.4032 45.0334 45.4094 43.3439C47.368 41.6948 49.3932 39.9895 49.4765 37.1952L49.9 22.8474C49.9 22.8411 49.9 22.8349 49.9 22.8286C49.9 22.6814 49.9047 22.5302 49.9091 22.377C49.945 21.1509 49.9985 19.2984 47.68 18.7846ZM48.5426 22.3372C48.538 22.4943 48.5328 22.6567 48.5328 22.8157L48.1096 37.1543C48.0445 39.3371 46.4153 40.709 44.5285 42.2975C42.627 43.8985 40.4883 45.699 40.0072 48.6328H31.377L31.9079 41.6308C32.0056 40.3346 32.5751 39.3336 33.6988 38.4811L40.1382 33.6004C40.7707 33.1201 41.8247 33.1201 42.7017 33.6004L42.703 33.6011L42.7041 33.6017C42.9597 33.7391 43.1878 33.9224 43.3768 34.1426C44.2309 35.1414 43.6866 36.224 42.9607 36.8476L38.9384 40.3052C38.8009 40.4234 38.716 40.5914 38.7023 40.7722C38.6887 40.9531 38.7474 41.1319 38.8657 41.2694C38.9839 41.4069 39.1519 41.4919 39.3327 41.5055C39.5135 41.5191 39.6924 41.4604 39.8299 41.3422L43.852 37.8851C45.3875 36.5658 45.6196 34.6615 44.4163 33.2544C44.2277 33.0339 44.0135 32.8364 43.7784 32.6663L45.7129 20.9518C45.8604 20.3326 46.6225 19.9532 47.3852 20.1201C48.5474 20.3774 48.5807 21.0214 48.5426 22.3372ZM19.4561 41.5274C19.3282 39.8357 18.5666 38.4828 17.1278 37.391L10.6892 32.5109C9.8431 31.8688 8.64271 31.7088 7.5056 32.0422L5.63255 20.7085C5.6306 20.6966 5.62835 20.6846 5.62571 20.6728C5.32298 19.2981 3.83861 18.4506 2.31566 18.785C0.00149646 19.2985 0.0551097 21.1507 0.090559 22.3762C0.0949535 22.5295 0.0994457 22.6809 0.0997386 22.8283V22.8471L0.523567 37.1947C0.605305 39.9894 2.63118 41.6949 4.59036 43.3442C6.59691 45.0337 8.49212 46.6288 8.7055 49.3696C8.7189 49.5412 8.79653 49.7014 8.92289 49.8183C9.04925 49.9351 9.21503 50 9.38714 50H19.3612C19.4553 50 19.5485 49.9806 19.6347 49.9429C19.721 49.9052 19.7986 49.8502 19.8626 49.7811C19.9266 49.7121 19.9757 49.6305 20.0067 49.5416C20.0377 49.4528 20.05 49.3584 20.0429 49.2645L19.4561 41.5274ZM9.9929 48.6328C9.51155 45.6996 7.37278 43.8994 5.47142 42.2984C3.58431 40.7098 1.95472 39.3379 1.89075 37.1549L1.46722 22.8158C1.46722 22.6563 1.46195 22.4935 1.45745 22.3367C1.41937 21.0211 1.45257 20.3773 2.61029 20.1199C3.37611 19.952 4.13919 20.3321 4.28675 20.9513L6.2222 32.6654C5.98646 32.8362 5.77129 33.0338 5.58099 33.2541C4.3806 34.6618 4.61419 36.5658 6.14827 37.8843L10.1705 41.3413C10.2386 41.3998 10.3176 41.4444 10.4029 41.4724C10.4882 41.5004 10.5782 41.5113 10.6677 41.5046C10.7573 41.4978 10.8446 41.4735 10.9247 41.433C11.0048 41.3925 11.0762 41.3366 11.1347 41.2685C11.1933 41.2004 11.2378 41.1214 11.2658 41.0361C11.2939 40.9508 11.3048 40.8608 11.298 40.7713C11.2913 40.6818 11.267 40.5944 11.2264 40.5143C11.1859 40.4342 11.13 40.3628 11.0619 40.3043L7.03958 36.8472C6.314 36.2237 5.76917 35.141 6.61859 34.1449C6.80977 33.9242 7.03944 33.74 7.29642 33.6013L7.29759 33.6007L7.29886 33.6C8.17571 33.1199 9.22982 33.1198 9.86273 33.6L16.3014 38.4803C17.4253 39.3329 17.9944 40.3338 18.0925 41.6303L18.6236 48.6322L9.9929 48.6328Z" fill="#29ABE2"/>
</g>
<defs>
<clipPath id="clip0_257_758">
<rect width="50" height="50" fill="white"/>
</clipPath>
</defs>
</svg>
