<svg width="46" height="46" viewBox="0 0 46 46" fill="none" xmlns="http://www.w3.org/2000/svg">
<g clip-path="url(#clip0_257_761)">
<path d="M45.3971 38.235H0.60295C0.269741 38.235 0 37.9653 0 37.6318V7.59973C0 7.26672 0.269741 6.99619 0.60295 6.99619H9.87653C10.2097 6.99619 10.4796 7.26672 10.4796 7.59973C10.4796 7.93255 10.2097 8.20318 9.87653 8.20318H1.2061V37.0288H44.7942V8.20308H35.2008C34.8674 8.20308 34.5978 7.93245 34.5978 7.59963C34.5978 7.26662 34.8674 6.99609 35.2008 6.99609H45.397C45.7305 6.99609 46.0001 7.26662 46.0001 7.59963V37.6317C46.0002 37.9653 45.7306 38.235 45.3971 38.235Z" fill="#29ABE2"/>
<path d="M33.7107 47.6379H12.2781C11.9444 47.6379 11.6748 47.3682 11.6748 47.0348V45.0716C11.6748 44.7384 11.9444 44.4685 12.2781 44.4685H14.6906C16.2113 44.4586 17.4136 43.2565 17.4232 41.732V37.6314C17.4232 37.2982 17.6931 37.0283 18.0263 37.0283C18.3599 37.0283 18.6295 37.2982 18.6295 37.6314V41.7357C18.6154 43.9322 16.887 45.6608 14.6943 45.6746H12.8811V46.4317H33.1075V45.6746H31.2978C29.1307 45.6608 27.3707 43.8938 27.3707 41.7357V37.6314C27.3707 37.2982 27.6404 37.0283 27.9739 37.0283C28.3072 37.0283 28.577 37.2982 28.577 37.6314V41.7357C28.577 43.2328 29.7993 44.4586 31.3017 44.4685H33.7105C34.0437 44.4685 34.3136 44.7384 34.3136 45.0716V47.0348C34.3138 47.3682 34.0439 47.6379 33.7107 47.6379Z" fill="#29ABE2"/>
<path d="M24.1888 43.1672H18.1325C17.7989 43.1672 17.5293 42.8976 17.5293 42.5641C17.5293 42.2308 17.7989 41.9609 18.1325 41.9609H24.1888C24.5221 41.9609 24.7919 42.2308 24.7919 42.5641C24.792 42.8975 24.5221 43.1672 24.1888 43.1672Z" fill="#29ABE2"/>
<path d="M43.0433 33.8224H2.94485C2.61154 33.8224 2.3418 33.5527 2.3418 33.2196C2.3418 32.886 2.61154 32.6162 2.94485 32.6162H43.0433C43.3765 32.6162 43.6461 32.886 43.6461 33.2196C43.6461 33.5527 43.3765 33.8224 43.0433 33.8224Z" fill="#29ABE2"/>
<path d="M23.668 36.0343H22.4381C22.1047 36.0343 21.835 35.7646 21.835 35.4312C21.835 35.0979 22.1047 34.8281 22.4381 34.8281H23.668C24.0012 34.8281 24.2709 35.0979 24.2709 35.4312C24.2709 35.7645 24.0012 36.0343 23.668 36.0343Z" fill="#29ABE2"/>
<path d="M9.87668 17.7246C9.54308 17.7246 9.27344 17.4544 9.27344 17.1215V6.80684C9.27344 5.33938 10.4622 4.14551 11.923 4.14551H13.3424C13.6758 4.14551 13.9453 4.41574 13.9453 4.74915C13.9453 5.08196 13.6758 5.3521 13.3424 5.3521H11.923C11.1273 5.3521 10.4797 6.00501 10.4797 6.80694V17.1215C10.4797 17.4543 10.2099 17.7246 9.87668 17.7246ZM35.6981 11.8815C35.3647 11.8815 35.0949 11.6112 35.0949 11.2778V8.92426C35.0949 8.12884 34.4474 7.48124 33.6515 7.48124H32.2321C31.8989 7.48124 31.6293 7.21091 31.6293 6.8777C31.6293 6.54479 31.8989 6.27466 32.2321 6.27466H33.6515C35.1125 6.27466 36.3011 7.46341 36.3011 8.92417V11.2777C36.3011 11.6112 36.0316 11.8815 35.6981 11.8815Z" fill="#29ABE2"/>
<path d="M13.3421 17.7245C13.0089 17.7245 12.7388 17.4543 12.7388 17.1215V-1.03503C12.7388 -1.36834 13.0089 -1.63867 13.3421 -1.63867H32.2318C32.5654 -1.63867 32.8353 -1.36844 32.8353 -1.03503V11.2777C32.8353 11.6111 32.5654 11.8814 32.2318 11.8814C31.8986 11.8814 31.629 11.6111 31.629 11.2777V-0.432083H13.945V17.1214C13.945 17.4542 13.6755 17.7245 13.3421 17.7245Z" fill="#1D9FD9"/>
<path d="M34.6098 29.3042H10.9651C10.0715 29.3042 9.30928 28.6726 9.15297 27.8027L7.29761 18.3373C7.21926 17.8674 7.33693 17.4262 7.62678 17.0783C7.90913 16.7214 8.32926 16.518 8.80055 16.518H15.6508L20.0474 10.9063C20.1615 10.7604 20.3369 10.6748 20.5221 10.6748H37.91C38.3815 10.6748 38.8017 10.8781 39.0928 11.2469C39.3825 11.5941 39.4948 12.0435 39.3995 12.5012L36.4203 27.8112C36.2654 28.6726 35.5033 29.3042 34.6098 29.3042ZM8.80055 17.7244C8.69904 17.7244 8.62601 17.7595 8.56362 17.8386C8.48793 17.9298 8.46675 18.0137 8.48468 18.1222L10.3388 27.5797C10.3943 27.8885 10.6513 28.0982 10.965 28.0982H34.6097C34.9233 28.0982 35.1804 27.8885 35.2345 27.5891L38.2168 12.2627C38.2385 12.1581 38.22 12.0838 38.1561 12.0072C38.084 11.916 38.0112 11.8814 37.91 11.8814H20.8159L16.4195 17.4931C16.3055 17.639 16.1302 17.7245 15.9448 17.7245H8.80055V17.7244Z" fill="#29ABE2"/>
<path d="M23.349 26.749C23.2567 26.749 23.1642 26.7279 23.0794 26.6854C19.8595 25.0755 17.734 22.8912 17.2482 20.6931C16.837 18.8431 17.4106 17.6314 17.9647 16.9409C18.6933 16.0322 19.8346 15.4902 21.0177 15.4902C21.9289 15.4902 22.7543 15.8166 23.3505 16.3908C23.9492 15.817 24.7773 15.4902 25.6889 15.4902C26.874 15.4902 28.0165 16.033 28.7456 16.9418C29.2993 17.6322 29.873 18.8431 29.4617 20.6941C28.9758 22.8945 26.846 25.0791 23.6185 26.6859C23.5334 26.7282 23.4413 26.749 23.349 26.749ZM21.0176 16.6964C20.1971 16.6964 19.4075 17.0701 18.9055 17.6956C18.3484 18.391 18.1825 19.3366 18.426 20.4325C18.8203 22.2164 20.6084 24.0417 23.3496 25.4691C26.097 24.0441 27.8893 22.2189 28.2836 20.4328C28.5273 19.3371 28.3615 18.3913 27.8045 17.6965C27.3018 17.0704 26.511 16.6964 25.6887 16.6964C24.8912 16.6964 24.2283 17.0486 23.8701 17.6614C23.7621 17.8468 23.5637 17.9605 23.349 17.9605C23.3488 17.9605 23.3482 17.9605 23.3482 17.9605C23.133 17.9605 22.9352 17.8456 22.8272 17.6598C22.4726 17.0477 21.813 16.6964 21.0176 16.6964Z" fill="#29ABE2"/>
<path d="M24.2715 22.7509C24.228 22.7509 24.1842 22.7465 24.1408 22.7366C23.9497 22.6941 23.791 22.5618 23.7154 22.3809L23.1015 20.918H16.0152C15.6819 20.918 15.4121 20.6473 15.4121 20.3145C15.4121 19.9815 15.6819 19.7109 16.0152 19.7109H23.5026C23.7455 19.7109 23.9646 19.8568 24.0589 20.0809L24.4979 21.1277L25.782 19.9619C25.8934 19.8616 26.0377 19.8055 26.1875 19.8055H30.694C31.0275 19.8055 31.2973 20.076 31.2973 20.409C31.2973 20.7417 31.0275 21.0124 30.694 21.0124H26.4209L24.6773 22.5945C24.565 22.6964 24.4197 22.7509 24.2715 22.7509Z" fill="#1D9FD9"/>
<path d="M18.8664 7.69418H17.0565C16.7229 7.69418 16.4531 7.42375 16.4531 7.09064V6.06174H15.4363C15.1027 6.06174 14.833 5.79171 14.833 5.45879V3.64866C14.833 3.31535 15.1027 3.04561 15.4363 3.04561H16.4531V2.02835C16.4531 1.69514 16.7229 1.4248 17.0565 1.4248H18.8664C19.1998 1.4248 19.4695 1.69504 19.4695 2.02835V3.04561H20.4984C20.8317 3.04561 21.1013 3.31526 21.1013 3.64866V5.45879C21.1013 5.79171 20.8317 6.06174 20.4984 6.06174H19.4695V7.09064C19.4695 7.42375 19.1998 7.69418 18.8664 7.69418ZM17.6593 6.4873H18.2632V5.45879C18.2632 5.12548 18.5329 4.85515 18.8664 4.85515H19.8955V4.25161H18.8664C18.5329 4.25161 18.2632 3.98187 18.2632 3.64856V2.63139H17.6593V3.64866C17.6593 3.98197 17.3897 4.25171 17.0565 4.25171H16.0392V4.85525H17.0565C17.3897 4.85525 17.6593 5.12558 17.6593 5.45889V6.4873Z" fill="#1D9FD9"/>
<path d="M29.9964 3.55425H24.2834C23.9498 3.55425 23.6802 3.28391 23.6802 2.9512C23.6802 2.61779 23.9498 2.34766 24.2834 2.34766H29.9964C30.3297 2.34766 30.5995 2.61779 30.5995 2.9512C30.5995 3.28391 30.3297 3.55425 29.9964 3.55425Z" fill="#1D9FD9"/>
<path d="M29.9964 6.51128H22.9941C22.6609 6.51128 22.3911 6.24104 22.3911 5.90774C22.3911 5.57472 22.6609 5.30469 22.9941 5.30469H29.9964C30.3297 5.30469 30.5995 5.57472 30.5995 5.90774C30.5995 6.24104 30.3297 6.51128 29.9964 6.51128Z" fill="#1D9FD9"/>
<path d="M29.9964 9.4561H22.9941C22.6609 9.4561 22.3911 9.18645 22.3911 8.85295C22.3911 8.51964 22.6609 8.25 22.9941 8.25H29.9964C30.3297 8.25 30.5995 8.51964 30.5995 8.85295C30.5995 9.18645 30.3297 9.4561 29.9964 9.4561Z" fill="#1D9FD9"/>
</g>
<defs>
<clipPath id="clip0_257_761">
<rect width="46" height="46" fill="white"/>
</clipPath>
</defs>
</svg>
