<svg width="52" height="52" viewBox="0 0 52 52" fill="none" xmlns="http://www.w3.org/2000/svg">
<path d="M49.3117 23.7073C49.3117 11.5503 39.4216 1.66016 27.2645 1.66016C15.1075 1.66016 5.21734 11.5503 5.21734 23.7073C5.21734 25.9803 5.56062 28.2127 6.23805 30.3556H4.51656C3.50906 30.3556 2.68945 31.1752 2.68945 32.1827V37.9535C2.68945 38.2328 2.85805 38.4847 3.11602 38.5913C3.2582 38.6492 3.40852 38.702 3.55273 38.7579V48.6074C3.55273 49.5621 4.32867 50.338 5.28336 50.338H28.7727C29.7274 50.338 30.5034 49.5621 30.5034 48.6074V45.5118C41.267 43.9284 49.3117 34.6649 49.3117 23.7073ZM30.5034 43.2866V38.7589C30.6476 38.702 30.7989 38.6502 30.9401 38.5923C31.1991 38.4857 31.3666 38.2338 31.3666 37.9545V33.8697C32.9815 33.9591 34.5445 34.1013 36.0253 34.2912C34.7842 38.4258 32.8413 41.6809 30.5034 43.2866ZM31.3666 32.4874V32.1838C31.3666 31.1763 30.547 30.3566 29.5395 30.3566H27.9531V24.398H37.498C37.4462 27.4255 37.0572 30.3343 36.397 32.9505C34.7995 32.7383 33.1115 32.5819 31.3666 32.4874ZM21.0418 27.2224C21.1657 27.2224 21.2703 27.327 21.2703 27.4509V30.3566H12.7868V27.4509C12.7868 27.327 12.8914 27.2224 13.0153 27.2224H21.0418ZM21.0418 25.8422H17.0829C17.0585 25.3618 17.0413 24.8804 17.0331 24.3959H26.5739V30.3546H22.6485V27.4489C22.6485 26.5633 21.9274 25.8422 21.0418 25.8422ZM6.61383 23.0177C6.74078 19.1787 7.91891 15.6027 9.86992 12.567C11.7346 13.2718 14.0787 13.8456 16.7264 14.262C16.0784 16.9179 15.7006 19.8754 15.6519 23.0177H6.61383ZM18.1077 14.4621C20.7341 14.8084 23.6073 15.0055 26.5739 15.0319V23.0167H17.0301C17.0809 19.9505 17.4627 17.052 18.1077 14.4621ZM38.8762 23.0177C38.8274 19.8754 38.4496 16.9169 37.8016 14.262C40.4494 13.8456 42.7934 13.2718 44.6581 12.567C46.6102 15.6027 47.7873 19.1787 47.9142 23.0177H38.8762ZM37.497 23.0177H27.9531V15.0329C30.9198 15.0065 33.793 14.8095 36.4194 14.4631C37.0653 17.052 37.4472 19.9505 37.497 23.0177ZM27.9531 13.6527V3.09117C31.3951 3.55531 34.377 7.46344 36.0558 13.1215C33.5441 13.4445 30.7948 13.6273 27.9531 13.6527ZM26.5739 3.09117V13.6527C23.7322 13.6273 20.9829 13.4445 18.4712 13.1215C20.1511 7.46344 23.132 3.55633 26.5739 3.09117ZM38.8782 24.397H47.9162C47.7903 28.2208 46.6203 31.8029 44.6683 34.8498C42.8097 34.147 40.4504 33.568 37.7793 33.1476C38.4415 30.4684 38.8274 27.5037 38.8782 24.397ZM43.8537 11.3959C42.0916 12.0287 39.904 12.5456 37.4452 12.9245C36.2569 8.82336 34.4003 5.56117 32.1345 3.62437C36.8937 4.77914 41.0151 7.58125 43.8537 11.3959ZM22.3936 3.62437C20.1277 5.56117 18.2712 8.82336 17.0829 12.9245C14.6251 12.5446 12.4374 12.0287 10.6743 11.3959C13.513 7.58125 17.6344 4.77914 22.3936 3.62437ZM6.61078 24.397H15.6539C15.662 24.8804 15.6773 25.3618 15.7016 25.8432H13.0143C12.1277 25.8432 11.4066 26.5643 11.4066 27.4509V30.3566H7.69445C7.04242 28.4361 6.67781 26.4373 6.61078 24.397ZM4.06867 32.1827C4.06867 31.9359 4.26977 31.7348 4.51656 31.7348H29.5405C29.7873 31.7348 29.9884 31.9359 29.9884 32.1827V37.4873C27.2127 38.567 23.8774 39.2647 20.278 39.5328V39.2992C20.278 38.0825 19.2878 37.0923 18.0711 37.0923H15.986C14.7693 37.0923 13.7791 38.0815 13.7791 39.2992V39.5328C10.1797 39.2657 6.84336 38.568 4.06766 37.4873V32.1827H4.06867ZM18.8978 39.2992V41.3843C18.8978 41.8403 18.5261 42.212 18.0701 42.212H15.986C15.53 42.212 15.1583 41.8403 15.1583 41.3843V39.2992C15.1583 38.8432 15.53 38.4725 15.986 38.4725H18.0701C18.5261 38.4715 18.8978 38.8432 18.8978 39.2992ZM28.7727 48.9598H5.28437C5.09344 48.9598 4.93297 48.7984 4.93297 48.6084V39.2535C7.56344 40.1178 10.5727 40.6845 13.7801 40.9151V41.3843C13.7801 42.601 14.7703 43.5912 15.987 43.5912H18.0711C19.2878 43.5912 20.278 42.601 20.278 41.3843V40.9151C23.4844 40.6845 26.4947 40.1178 29.1241 39.2535V48.6084C29.1231 48.7984 28.9627 48.9598 28.7727 48.9598ZM32.0888 43.8045C34.3739 41.8515 36.2284 38.5568 37.4198 34.4872C39.903 34.8701 42.1048 35.3921 43.8639 36.0238C41.0323 39.8405 36.9069 42.6548 32.0888 43.8045Z" fill="#29ABE2"/>
</svg>
