<svg width="520" height="428" viewBox="0 0 520 428" fill="none" xmlns="http://www.w3.org/2000/svg">
<path d="M467.591 145.141H337.42C336.136 145.141 335.095 144.1 335.095 142.816V39.9572C335.095 38.6731 336.136 37.6318 337.42 37.6318H467.592C468.876 37.6318 469.917 38.6727 469.917 39.9572V142.816C469.916 144.1 468.875 145.141 467.591 145.141Z" fill="#F3F1FC"/>
<path opacity="0.8" d="M447.659 76.4611H406.388C406.196 76.4611 406.041 76.3059 406.041 76.1142V72.78C406.041 72.5887 406.196 72.4336 406.387 72.4336H447.659C447.85 72.4336 448.006 72.5891 448.006 72.7808V76.1142C448.006 76.3059 447.85 76.4611 447.659 76.4611Z" fill="#CDDDFD"/>
<path d="M456.651 85.7168H406.305C406.159 85.7168 406.041 85.5986 406.041 85.4524V81.9718C406.041 81.8257 406.16 81.707 406.305 81.707H456.65C456.797 81.707 456.915 81.8257 456.915 81.9718V85.4524C456.916 85.5986 456.797 85.7168 456.651 85.7168Z" fill="#CDDDFD"/>
<path d="M461.36 95.7854H406.293C406.154 95.7854 406.041 95.6724 406.041 95.5331V92.0106C406.041 91.8713 406.154 91.7583 406.293 91.7583H461.36C461.499 91.7583 461.612 91.8713 461.612 92.0106V95.5331C461.612 95.6724 461.499 95.7854 461.36 95.7854Z" fill="#CDDDFD"/>
<path opacity="0.8" d="M384.48 112.364H354.981C354.824 112.364 354.696 112.236 354.696 112.079V108.88C354.696 108.724 354.823 108.597 354.98 108.597H384.48C384.637 108.597 384.764 108.724 384.764 108.881V112.079C384.764 112.237 384.637 112.364 384.48 112.364Z" fill="#CDDDFD"/>
<path d="M423.214 121.019H354.993C354.829 121.019 354.696 120.887 354.696 120.722V117.567C354.696 117.403 354.83 117.27 354.994 117.27H423.214C423.378 117.27 423.512 117.403 423.512 117.567V120.722C423.511 120.887 423.378 121.019 423.214 121.019Z" fill="#CDDDFD"/>
<path d="M429.58 130.436H354.981C354.824 130.436 354.696 130.308 354.696 130.152V126.953C354.696 126.797 354.824 126.669 354.98 126.669H429.58C429.737 126.669 429.864 126.796 429.864 126.953V130.152C429.864 130.309 429.738 130.436 429.58 130.436Z" fill="#CDDDFD"/>
<path d="M467.031 37.6313H337.981C336.387 37.6313 335.095 39.2284 335.095 41.1983V50.8988H469.916V41.1983C469.916 39.2288 468.625 37.6313 467.031 37.6313Z" fill="#54A6FE"/>
<path d="M474.347 155.542H344.176C342.578 155.542 341.277 154.242 341.277 152.644V49.7848C341.277 48.1866 342.578 46.8867 344.176 46.8867H474.347C475.945 46.8867 477.245 48.1866 477.245 49.7848V152.644C477.245 154.242 475.945 155.542 474.347 155.542ZM344.176 48.033C343.21 48.033 342.424 48.8185 342.424 49.7848V152.644C342.424 153.61 343.21 154.395 344.176 154.395H474.347C475.313 154.395 476.099 153.61 476.099 152.644V49.7848C476.099 48.8185 475.313 48.033 474.347 48.033H344.176Z" fill="#F2F7F7"/>
<path d="M392.884 77.7546C392.882 80.8392 392.166 83.7271 390.99 86.3933L390.777 86.3846C391.982 84.031 392.718 81.4726 392.72 78.739C392.724 73.2572 387.658 68.8106 381.407 68.8069C376.711 68.8042 372.684 71.3111 370.969 74.8814L370.515 74.6355C371.87 69.85 376.269 66.3437 381.49 66.3467C387.786 66.3504 392.888 71.4587 392.884 77.7546Z" fill="#AAB2E8"/>
<path d="M392.72 78.7389C392.718 81.4725 391.982 84.0309 390.776 86.3845L383.477 86.0806L382.295 84.7769L381.518 83.9236L381.448 85.0545L381.289 87.6283L379.999 83.7267L379.292 81.5851L379.021 83.7948L378.305 89.666L376.871 81.4435L376.319 78.2919L375.843 81.4235L374.395 90.9347L373.492 79.3433L373.199 75.5629L372.439 79.2435L370.767 87.3546L369.593 85.0642L369.115 84.1333L368.638 85.0334L367.372 87.4148L366.015 84.1808L365.348 82.5909L364.998 84.2471L364.217 87.9341L362.91 83.1234L362.252 80.7043L361.874 83.149L360.855 89.718L359.783 81.8618L359.431 79.2921L358.762 81.7647L357.614 85.9989L350.208 86.3412C349.023 83.9929 348.3 81.442 348.302 78.7129C348.305 73.2311 353.376 68.7902 359.627 68.7939C364.807 68.797 369.172 71.854 370.513 76.0227C370.639 75.6329 370.792 75.2518 370.969 74.8813C372.683 71.311 376.71 68.8037 381.406 68.8067C387.657 68.8101 392.723 73.2571 392.72 78.7389Z" fill="#CED4F4"/>
<path d="M383.477 86.0806L390.777 86.3845C390.632 86.6707 390.479 86.955 390.32 87.2352L383.289 87.6208H383.069L382.916 87.4547L382.358 86.8428L382.122 90.2591L381.971 92.7983L381.156 90.3551L379.759 86.1563L378.908 93.2555L378.497 96.7083L377.89 93.2487L376.397 85.3105L374.748 95.6445L374.063 100.161L373.703 95.5718L372.728 83.7394L371.216 90.9396L369.115 87.0266L367.274 90.5924L365.695 86.7249L364.807 90.3302L364.352 92.4711L363.769 90.3253L362.539 86.357L361.344 93.4686L360.791 97.0224L360.302 93.4249L359.098 85.1075L358.52 87.2352L358.418 87.6057L358.033 87.6035L350.759 87.3621C350.565 87.0258 350.382 86.6854 350.208 86.3408L357.614 85.9985L358.762 81.7643L359.431 79.2917L359.783 81.8615L360.855 89.7176L361.874 83.1486L362.252 80.7039L362.91 83.123L364.217 87.9337L364.998 84.2467L365.348 82.5905L366.015 84.1804L367.372 87.4144L368.638 85.033L369.115 84.133L369.593 85.0638L370.767 87.3542L372.439 79.2431L373.199 75.5625L373.492 79.3429L374.395 90.9343L375.843 81.4231L376.319 78.2915L376.871 81.4431L378.305 89.6656L379.021 83.7944L379.292 81.5847L379.999 83.7263L381.289 87.628L381.448 85.0541L381.518 83.9232L382.295 84.7765L383.477 86.0806Z" fill="#AAB2E8"/>
<path d="M383.289 87.6207L390.32 87.2351C384.571 97.3254 370.498 103.482 370.498 103.482C370.498 103.482 356.535 97.4143 350.76 87.3624L358.034 87.6038L358.419 87.6061L358.521 87.2355L359.099 85.1078L360.303 93.4253L360.791 97.0227L361.345 93.4689L362.54 86.3573L363.77 90.3257L364.353 92.4714L364.808 90.3306L365.696 86.7252L367.275 90.5927L369.116 87.0269L371.216 90.9399L372.728 83.7397L373.704 95.5721L374.063 100.16L374.748 95.6437L376.398 85.3097L377.89 93.2479L378.498 96.7075L378.909 93.2547L379.759 86.1555L381.157 90.3543L381.972 92.7975L382.122 90.2583L382.359 86.842L382.917 87.4539L383.07 87.62L383.289 87.6207Z" fill="#CED4F4"/>
<path d="M370.515 74.6351L370.97 74.881C370.793 75.2512 370.64 75.6326 370.514 76.0224C369.173 71.8537 364.808 68.7967 359.628 68.7937C353.377 68.7899 348.306 73.2308 348.303 78.7126C348.301 81.4417 349.023 83.9926 350.209 86.3409L349.998 86.3515C348.84 83.6929 348.138 80.8083 348.14 77.7279C348.143 71.4319 353.251 66.3297 359.547 66.3335C364.769 66.3365 369.163 69.8481 370.515 74.6351Z" fill="#AAB2E8"/>
<path d="M383.089 85.6895L381.906 84.3869L381.13 83.5325L381.06 84.6637L380.901 87.2364L379.611 83.3362L378.903 81.1943L378.633 83.404L377.916 89.2748L376.481 81.0535L375.931 77.9011L375.454 81.0324L374.006 90.5443L373.104 78.9529L372.811 75.1729L372.052 78.8535L370.38 86.9634L369.204 84.6731L368.726 83.7433L368.249 84.6422L366.984 87.0248L365.627 83.7908L364.96 82.2016L364.609 83.8563L363.828 87.5437L362.52 82.7341L361.863 80.3154L361.485 82.759L360.466 89.3276L359.395 81.4722L359.044 78.9006L358.374 81.3739L357.226 85.6078L343.454 86.2457L357.645 86.6463L358.03 86.6467L358.131 86.278L358.709 84.1504L359.914 93.0342L360.402 96.6327L360.956 93.0775L362.153 85.3988L363.382 89.9357L363.963 92.0807L364.418 89.9387L365.306 85.7659L366.44 88.4735L366.885 89.5354L367.412 88.5435L368.727 86.0679L370.127 88.7883L370.827 90.1492L371.128 88.6806L372.339 82.7816L373.314 95.1803L373.674 99.7696L374.358 95.2522L376.009 84.3519L377.501 92.8583L378.107 96.3164L378.52 92.8643L379.369 85.7663L380.769 89.964L381.583 92.4072L381.734 89.8683L381.97 85.8849L382.528 86.4965L382.68 86.6625L382.899 86.6622L394.996 86.4268L383.089 85.6895Z" fill="url(#paint0_linear_848_2)"/>
<path d="M306.735 427.5L102.475 427.303C91.8591 427.293 83.2607 418.882 83.2705 408.516L83.6437 19.7461C83.6539 9.10636 92.4959 0.49033 103.393 0.500497L306.637 0.695933C317.534 0.706477 326.359 9.33984 326.349 19.9796L325.976 408.75C325.966 419.115 317.352 427.51 306.735 427.5Z" fill="#7F9CE5"/>
<path d="M297.089 423.684L104.057 423.498C93.9986 423.488 85.8529 415.309 85.8623 405.23L86.2257 26.3299C86.2355 15.9839 94.6124 7.60583 104.936 7.61524L297.006 7.80015C307.33 7.80994 315.691 16.2049 315.681 26.5509L315.317 405.451C315.308 415.53 307.147 423.693 297.089 423.684Z" fill="#AFC3FE"/>
<path d="M298.36 47.7773H104.356V376.272H298.36V47.7773Z" fill="#F3F1FC"/>
<path d="M241.032 28.103H163.626V33.7731H241.032V28.103Z" fill="#7F9CE5"/>
<path d="M221.934 411.527L176.191 411.483C174.28 411.482 172.732 409.927 172.733 408.011L172.739 402.173C172.741 400.258 174.292 398.707 176.204 398.708L221.946 398.752C223.857 398.754 225.405 400.308 225.403 402.224L225.398 408.063C225.396 409.978 223.845 411.529 221.934 411.527Z" fill="#7F9CE5"/>
<path opacity="0.06" d="M298.477 69.6343L104.236 334.211L104.198 376.166L298.202 376.366L298.477 69.6343Z" fill="white"/>
<path opacity="0.03" d="M83.6441 19.746C83.6542 9.10589 92.32 0.489841 103 0.500009L133.705 0.529383C126.679 3.42939 121.728 10.3561 121.72 18.4491L121.344 409.816C121.337 417.734 126.19 424.516 133.076 427.332L102.092 427.303C91.6877 427.293 83.2607 418.882 83.2705 408.516L83.6441 19.746Z" fill="#231F20"/>
<path d="M225.698 298.424V325.345H227.587V299.256L241.041 286.95V261.923H239.152V286.119L225.698 298.424Z" fill="#BDBDDB"/>
<path d="M226.736 321.63C229.212 321.63 231.22 323.638 231.22 326.115C231.22 328.592 229.212 330.6 226.736 330.6C224.259 330.6 222.251 328.592 222.251 326.115C222.251 323.638 224.259 321.63 226.736 321.63Z" fill="#BDBDDB"/>
<path d="M226.736 323.779C228.026 323.779 229.072 324.825 229.072 326.115C229.072 327.405 228.026 328.451 226.736 328.451C225.446 328.451 224.4 327.405 224.4 326.115C224.4 324.825 225.447 323.779 226.736 323.779Z" fill="#D2D2EA"/>
<path d="M255.86 279.686V307.437H253.801V280.543L239.138 267.858V242.06H241.196V267.001L255.86 279.686Z" fill="#BDBDDB"/>
<path d="M258.177 311.731C260.086 309.822 260.086 306.728 258.177 304.819C256.269 302.91 253.174 302.91 251.265 304.819C249.356 306.727 249.356 309.822 251.265 311.731C253.174 313.64 256.269 313.64 258.177 311.731Z" fill="#BDBDDB"/>
<path d="M254.726 305.73C253.321 305.73 252.181 306.87 252.181 308.276C252.181 309.682 253.321 310.822 254.726 310.822C256.132 310.822 257.272 309.682 257.272 308.276C257.272 306.87 256.132 305.73 254.726 305.73Z" fill="#D2D2EA"/>
<path d="M245.743 299.066C246.914 299.066 247.863 300.015 247.863 301.186C247.863 302.358 246.914 303.307 245.743 303.307C244.571 303.307 243.622 302.358 243.622 301.186C243.622 300.015 244.571 299.066 245.743 299.066Z" fill="#BDBDDB"/>
<path d="M245.743 292.401C246.914 292.401 247.863 293.35 247.863 294.521C247.863 295.693 246.914 296.642 245.743 296.642C244.571 296.642 243.622 295.693 243.622 294.521C243.622 293.35 244.571 292.401 245.743 292.401Z" fill="#BDBDDB"/>
<path d="M245.743 285.736C246.914 285.736 247.863 286.686 247.863 287.857C247.863 289.028 246.914 289.977 245.743 289.977C244.571 289.977 243.622 289.028 243.622 287.857C243.622 286.686 244.571 285.736 245.743 285.736Z" fill="#BDBDDB"/>
<path d="M156.312 279.94V306.861H158.201V280.772L171.655 268.466V243.439H169.766V267.635L156.312 279.94Z" fill="#BDBDDB"/>
<path d="M160.517 310.801C162.268 309.05 162.269 306.21 160.517 304.459C158.766 302.707 155.926 302.707 154.175 304.459C152.424 306.21 152.424 309.05 154.175 310.801C155.926 312.552 158.766 312.552 160.517 310.801Z" fill="#BDBDDB"/>
<path d="M157.352 305.295C158.643 305.295 159.688 306.341 159.688 307.631C159.688 308.921 158.643 309.967 157.352 309.967C156.062 309.967 155.017 308.921 155.017 307.631C155.017 306.341 156.062 305.295 157.352 305.295Z" fill="#D2D2EA"/>
<path d="M211.294 276.642V304.392H209.235V277.499L194.572 264.814V239.015H196.631V263.957L211.294 276.642Z" fill="#BDBDDB"/>
<path d="M213.614 308.687C215.523 306.778 215.523 303.684 213.614 301.775C211.705 299.866 208.61 299.866 206.701 301.775C204.793 303.684 204.793 306.778 206.701 308.687C208.61 310.596 211.705 310.596 213.614 308.687Z" fill="#BDBDDB"/>
<path d="M210.163 302.687C208.757 302.687 207.617 303.826 207.617 305.232C207.617 306.638 208.757 307.778 210.163 307.778C211.569 307.778 212.708 306.638 212.708 305.232C212.708 303.826 211.569 302.687 210.163 302.687Z" fill="#D2D2EA"/>
<path d="M201.179 296.021C202.35 296.021 203.3 296.971 203.3 298.142C203.3 299.313 202.35 300.262 201.179 300.262C200.008 300.262 199.059 299.313 199.059 298.142C199.059 296.971 200.008 296.021 201.179 296.021Z" fill="#BDBDDB"/>
<path d="M201.179 289.357C202.35 289.357 203.3 290.306 203.3 291.477C203.3 292.649 202.35 293.598 201.179 293.598C200.008 293.598 199.059 292.649 199.059 291.477C199.059 290.306 200.008 289.357 201.179 289.357Z" fill="#BDBDDB"/>
<path d="M201.179 282.692C202.35 282.692 203.3 283.642 203.3 284.813C203.3 285.984 202.35 286.933 201.179 286.933C200.008 286.933 199.059 285.984 199.059 284.813C199.059 283.642 200.008 282.692 201.179 282.692Z" fill="#BDBDDB"/>
<path d="M140.394 355.21L127.214 355.382L128.584 409.265C128.584 409.287 128.584 409.31 128.584 409.332C128.585 409.418 128.588 409.504 128.593 409.589L128.593 409.611C128.594 409.624 128.595 409.636 128.596 409.648C128.788 413.209 131.421 416.012 134.603 415.97C137.878 415.928 140.494 412.887 140.446 409.177C140.444 409.041 140.438 408.905 140.429 408.771L140.394 355.21Z" fill="#BBBBE6"/>
<path d="M128.997 355.358L127.214 355.382L128.584 409.265C128.584 409.287 128.584 409.31 128.584 409.332C128.585 409.418 128.588 409.504 128.593 409.589L128.593 409.612C128.594 409.624 128.595 409.636 128.596 409.648C128.668 410.989 129.087 412.222 129.75 413.236L128.997 355.358Z" fill="#DBDCF5"/>
<path d="M137.36 355.25L138.133 414.58C139.56 413.336 140.473 411.377 140.445 409.177C140.443 409.041 140.437 408.905 140.428 408.771L140.392 355.21L137.36 355.25Z" fill="#8E8DB4"/>
<path d="M139.649 408.354C139.647 408.218 139.641 408.082 139.633 407.948L139.554 373.583C137.655 373.659 135.108 374.386 132.817 374.382C131.14 374.379 129.612 373.791 128.526 373.544L129.356 408.421C129.356 408.444 129.356 408.466 129.356 408.488C129.357 408.574 129.36 408.66 129.364 408.746L129.365 408.768C129.365 408.78 129.366 408.793 129.367 408.805C129.54 412.365 131.829 415.173 134.59 415.137C137.432 415.099 139.697 412.063 139.649 408.354Z" fill="#834BF0"/>
<path d="M140.436 356.675L127.26 356.846C126.989 356.85 126.765 356.633 126.762 356.361L126.756 355.888L140.916 355.704L140.922 356.177C140.926 356.448 140.708 356.671 140.436 356.675Z" fill="#7F7FA5"/>
<path d="M141.799 355.935L125.88 356.142C125.531 356.146 125.226 354.602 125.202 352.709C125.177 350.816 125.442 349.265 125.79 349.26L141.71 349.053C142.058 349.048 142.363 350.593 142.388 352.486C142.412 354.378 142.147 355.93 141.799 355.935Z" fill="#DBDCF5"/>
<path d="M137.6 373.655L138.115 413.228C139.081 411.993 139.672 410.264 139.647 408.354C139.646 408.217 139.64 408.082 139.632 407.947L139.553 373.583C138.956 373.607 138.295 373.632 137.6 373.655Z" fill="#7546E8"/>
<path d="M127.223 355.478C126.962 355.481 126.748 355.273 126.744 355.012L126.684 350.366C126.68 350.105 126.889 349.891 127.149 349.888C127.41 349.884 127.624 350.093 127.628 350.354L127.688 355C127.692 355.261 127.483 355.475 127.223 355.478Z" fill="#BBBBE6"/>
<path d="M129.425 355.45C129.164 355.453 128.95 355.245 128.946 354.984L128.886 350.338C128.882 350.077 129.091 349.863 129.352 349.859C129.612 349.856 129.826 350.065 129.83 350.325L129.89 354.971C129.894 355.232 129.685 355.446 129.425 355.45Z" fill="#BBBBE6"/>
<path d="M131.627 355.421C131.366 355.424 131.152 355.216 131.149 354.955L131.088 350.309C131.085 350.048 131.293 349.834 131.554 349.831C131.814 349.827 132.029 350.036 132.032 350.296L132.093 354.943C132.096 355.204 131.888 355.417 131.627 355.421Z" fill="#BBBBE6"/>
<path d="M133.831 355.392C133.57 355.395 133.356 355.187 133.353 354.926L133.292 350.28C133.289 350.019 133.497 349.805 133.758 349.802C134.018 349.798 134.233 350.007 134.236 350.268L134.297 354.914C134.3 355.174 134.091 355.389 133.831 355.392Z" fill="#BBBBE6"/>
<path d="M136.034 355.363C135.773 355.367 135.559 355.158 135.556 354.897L135.495 350.251C135.492 349.991 135.7 349.776 135.961 349.773C136.222 349.77 136.436 349.978 136.439 350.239L136.5 354.885C136.503 355.146 136.295 355.36 136.034 355.363Z" fill="#BBBBE6"/>
<path d="M138.235 355.335C137.975 355.338 137.76 355.13 137.757 354.869L137.696 350.223C137.693 349.962 137.902 349.748 138.162 349.745C138.423 349.741 138.637 349.95 138.64 350.211L138.701 354.857C138.704 355.117 138.496 355.331 138.235 355.335Z" fill="#BBBBE6"/>
<path d="M140.438 355.306C140.178 355.309 139.963 355.101 139.96 354.84L139.899 350.194C139.896 349.933 140.105 349.719 140.365 349.716C140.626 349.712 140.84 349.921 140.844 350.182L140.904 354.828C140.908 355.089 140.699 355.303 140.438 355.306Z" fill="#BBBBE6"/>
<path opacity="0.2" d="M131.069 399.854C130.715 399.854 130.428 399.567 130.428 399.212V388.575C130.428 388.221 130.715 387.933 131.069 387.933C131.424 387.933 131.711 388.22 131.711 388.575V399.212C131.711 399.567 131.424 399.854 131.069 399.854Z" fill="white"/>
<path d="M128.505 373.543C128.505 373.543 133.317 374.981 136.169 373.332C139.021 371.682 141.143 373.39 138.242 375.772C135.254 378.223 128.505 373.543 128.505 373.543Z" fill="#6B3DC1"/>
<path d="M116.243 355.21L103.063 355.382L104.434 409.265C104.434 409.287 104.433 409.31 104.434 409.332C104.435 409.418 104.438 409.504 104.442 409.589L104.442 409.611C104.442 409.624 104.444 409.636 104.445 409.648C104.637 413.209 107.27 416.012 110.452 415.97C113.727 415.928 116.343 412.887 116.295 409.177C116.293 409.041 116.288 408.905 116.279 408.771L116.243 355.21Z" fill="#BBBBE6"/>
<path d="M104.847 355.358L103.063 355.382L104.434 409.265C104.434 409.287 104.433 409.31 104.434 409.332C104.435 409.418 104.438 409.504 104.442 409.589L104.442 409.612C104.442 409.624 104.444 409.636 104.445 409.648C104.517 410.989 104.936 412.222 105.6 413.236L104.847 355.358Z" fill="#DBDCF5"/>
<path d="M113.211 355.25L113.983 414.58C115.411 413.336 116.324 411.377 116.295 409.177C116.293 409.041 116.288 408.905 116.279 408.771L116.243 355.21L113.211 355.25Z" fill="#8E8DB4"/>
<path d="M115.498 408.354C115.496 408.218 115.491 408.082 115.483 407.948L115.404 373.583C113.505 373.659 110.957 374.386 108.667 374.382C106.99 374.379 105.462 373.791 104.376 373.544L105.206 408.421C105.206 408.444 105.206 408.466 105.206 408.488C105.207 408.574 105.21 408.66 105.213 408.746L105.214 408.768C105.214 408.78 105.215 408.793 105.216 408.805C105.389 412.365 107.679 415.173 110.439 415.137C113.282 415.099 115.546 412.063 115.498 408.354Z" fill="#FD3B4C"/>
<path d="M116.286 356.675L103.11 356.846C102.838 356.85 102.615 356.633 102.611 356.361L102.605 355.888L116.766 355.704L116.772 356.177C116.775 356.448 116.558 356.671 116.286 356.675Z" fill="#7F7FA5"/>
<path d="M117.649 355.935L101.729 356.142C101.381 356.146 101.076 354.602 101.051 352.709C101.027 350.816 101.292 349.265 101.64 349.26L117.559 349.053C117.908 349.048 118.213 350.593 118.237 352.486C118.262 354.378 117.997 355.93 117.649 355.935Z" fill="#DBDCF5"/>
<path d="M113.45 373.655L113.965 413.228C114.931 411.993 115.523 410.264 115.498 408.354C115.496 408.217 115.491 408.082 115.483 407.947L115.404 373.583C114.807 373.607 114.145 373.632 113.45 373.655Z" fill="#EF2E45"/>
<path d="M103.072 355.479C102.812 355.482 102.597 355.273 102.594 355.013L102.533 350.366C102.53 350.106 102.738 349.892 102.999 349.888C103.26 349.885 103.474 350.093 103.477 350.354L103.538 355C103.541 355.261 103.333 355.475 103.072 355.479Z" fill="#BBBBE6"/>
<path d="M105.274 355.45C105.014 355.453 104.799 355.245 104.796 354.984L104.735 350.338C104.732 350.077 104.941 349.863 105.201 349.859C105.462 349.856 105.676 350.065 105.679 350.325L105.74 354.971C105.743 355.232 105.535 355.446 105.274 355.45Z" fill="#BBBBE6"/>
<path d="M107.477 355.421C107.216 355.424 107.002 355.216 106.999 354.955L106.939 350.309C106.935 350.048 107.144 349.834 107.404 349.831C107.665 349.827 107.879 350.036 107.883 350.296L107.943 354.943C107.946 355.204 107.738 355.417 107.477 355.421Z" fill="#BBBBE6"/>
<path d="M109.68 355.392C109.419 355.395 109.205 355.187 109.201 354.926L109.141 350.28C109.137 350.019 109.346 349.805 109.606 349.802C109.867 349.798 110.081 350.007 110.085 350.268L110.145 354.914C110.149 355.174 109.94 355.389 109.68 355.392Z" fill="#BBBBE6"/>
<path d="M111.883 355.363C111.623 355.367 111.408 355.158 111.405 354.897L111.345 350.251C111.341 349.991 111.55 349.776 111.811 349.773C112.071 349.77 112.285 349.978 112.289 350.239L112.349 354.885C112.352 355.146 112.144 355.36 111.883 355.363Z" fill="#BBBBE6"/>
<path d="M114.085 355.335C113.824 355.338 113.61 355.13 113.607 354.869L113.546 350.223C113.543 349.962 113.751 349.748 114.012 349.745C114.272 349.741 114.487 349.95 114.49 350.211L114.551 354.857C114.554 355.117 114.345 355.331 114.085 355.335Z" fill="#BBBBE6"/>
<path d="M116.288 355.306C116.027 355.309 115.813 355.101 115.81 354.84L115.749 350.194C115.746 349.933 115.954 349.719 116.215 349.716C116.475 349.712 116.689 349.921 116.693 350.182L116.754 354.828C116.757 355.089 116.549 355.303 116.288 355.306Z" fill="#BBBBE6"/>
<path opacity="0.2" d="M106.919 399.854C106.565 399.854 106.277 399.567 106.277 399.212V388.575C106.277 388.221 106.565 387.933 106.919 387.933C107.274 387.933 107.561 388.22 107.561 388.575V399.212C107.561 399.567 107.274 399.854 106.919 399.854Z" fill="white"/>
<path d="M104.354 373.543C104.354 373.543 109.166 374.981 112.019 373.332C114.871 371.682 116.992 373.39 114.091 375.772C111.104 378.223 104.354 373.543 104.354 373.543Z" fill="#B20B1F"/>
<path d="M164.029 355.21L150.85 355.382L152.22 409.265C152.22 409.287 152.22 409.31 152.22 409.332C152.221 409.418 152.224 409.504 152.229 409.589L152.229 409.611C152.229 409.624 152.231 409.636 152.231 409.648C152.424 413.209 155.057 416.012 158.238 415.97C161.514 415.928 164.13 412.887 164.082 409.177C164.08 409.041 164.074 408.905 164.065 408.771L164.029 355.21Z" fill="#BBBBE6"/>
<path d="M152.633 355.358L150.85 355.382L152.22 409.265C152.22 409.287 152.22 409.31 152.22 409.332C152.221 409.418 152.224 409.504 152.229 409.589L152.229 409.612C152.229 409.624 152.231 409.636 152.231 409.648C152.304 410.989 152.723 412.222 153.387 413.236L152.633 355.358Z" fill="#DBDCF5"/>
<path d="M160.998 355.25L161.77 414.58C163.198 413.336 164.111 411.377 164.083 409.177C164.081 409.041 164.075 408.905 164.066 408.771L164.03 355.21L160.998 355.25Z" fill="#8E8DB4"/>
<path d="M163.286 408.354C163.284 408.218 163.279 408.082 163.271 407.948L163.192 373.583C161.293 373.659 158.745 374.386 156.455 374.382C154.778 374.379 153.25 373.791 152.164 373.544L152.994 408.421C152.994 408.444 152.994 408.466 152.994 408.488C152.995 408.574 152.998 408.66 153.002 408.746L153.002 408.768C153.002 408.78 153.003 408.793 153.004 408.805C153.177 412.365 155.467 415.173 158.227 415.137C161.069 415.099 163.334 412.063 163.286 408.354Z" fill="#F99A00"/>
<path d="M164.075 356.675L150.898 356.846C150.626 356.85 150.403 356.633 150.4 356.361L150.394 355.888L164.554 355.704L164.56 356.177C164.564 356.448 164.346 356.671 164.075 356.675Z" fill="#7F7FA5"/>
<path d="M165.437 355.935L149.517 356.142C149.169 356.146 148.864 354.602 148.839 352.709C148.815 350.816 149.08 349.265 149.428 349.26L165.347 349.053C165.695 349.048 166 350.593 166.025 352.486C166.05 354.378 165.785 355.93 165.437 355.935Z" fill="#DBDCF5"/>
<path d="M161.238 373.655L161.753 413.228C162.719 411.993 163.311 410.264 163.286 408.354C163.284 408.217 163.279 408.082 163.271 407.947L163.192 373.583C162.594 373.607 161.933 373.632 161.238 373.655Z" fill="#ED8D03"/>
<path d="M150.861 355.479C150.601 355.482 150.386 355.273 150.383 355.013L150.322 350.366C150.319 350.106 150.528 349.892 150.788 349.888C151.049 349.885 151.263 350.093 151.266 350.354L151.327 355C151.33 355.261 151.122 355.475 150.861 355.479Z" fill="#BBBBE6"/>
<path d="M153.063 355.45C152.803 355.453 152.589 355.245 152.585 354.984L152.524 350.338C152.521 350.077 152.73 349.863 152.99 349.859C153.251 349.856 153.465 350.065 153.469 350.325L153.529 354.971C153.533 355.232 153.324 355.446 153.063 355.45Z" fill="#BBBBE6"/>
<path d="M155.265 355.421C155.005 355.424 154.791 355.216 154.787 354.955L154.727 350.309C154.723 350.048 154.932 349.834 155.192 349.831C155.453 349.827 155.667 350.036 155.671 350.296L155.731 354.943C155.735 355.204 155.526 355.417 155.265 355.421Z" fill="#BBBBE6"/>
<path d="M157.468 355.392C157.207 355.395 156.993 355.187 156.989 354.926L156.929 350.28C156.925 350.019 157.134 349.805 157.395 349.802C157.655 349.798 157.869 350.007 157.873 350.268L157.933 354.914C157.937 355.174 157.729 355.389 157.468 355.392Z" fill="#BBBBE6"/>
<path d="M159.672 355.363C159.412 355.367 159.197 355.158 159.194 354.897L159.134 350.251C159.13 349.991 159.339 349.776 159.6 349.773C159.86 349.77 160.074 349.978 160.078 350.239L160.139 354.885C160.142 355.146 159.933 355.36 159.672 355.363Z" fill="#BBBBE6"/>
<path d="M161.874 355.335C161.613 355.338 161.399 355.13 161.396 354.869L161.335 350.223C161.332 349.962 161.54 349.748 161.801 349.745C162.061 349.741 162.276 349.95 162.279 350.211L162.339 354.857C162.343 355.117 162.134 355.331 161.874 355.335Z" fill="#BBBBE6"/>
<path d="M164.077 355.306C163.816 355.309 163.602 355.101 163.599 354.84L163.538 350.194C163.535 349.933 163.743 349.719 164.004 349.716C164.265 349.712 164.479 349.921 164.482 350.182L164.543 354.828C164.547 355.089 164.338 355.303 164.077 355.306Z" fill="#BBBBE6"/>
<path opacity="0.2" d="M154.707 399.854C154.353 399.854 154.065 399.567 154.065 399.212V388.575C154.065 388.221 154.353 387.933 154.707 387.933C155.061 387.933 155.349 388.22 155.349 388.575V399.212C155.349 399.567 155.062 399.854 154.707 399.854Z" fill="white"/>
<path d="M152.144 373.543C152.144 373.543 156.955 374.981 159.808 373.332C162.66 371.682 164.781 373.39 161.88 375.772C158.893 378.223 152.144 373.543 152.144 373.543Z" fill="#E2890A"/>
<path opacity="0.15" d="M140.398 359.775H127.327L127.458 364.931H140.401L140.398 359.775Z" fill="#231F20"/>
<path opacity="0.15" d="M116.246 359.775H103.175L103.306 364.931H116.249L116.246 359.775Z" fill="#231F20"/>
<path d="M106.54 373.797C106.84 374.064 106.867 374.522 106.6 374.821C106.334 375.121 105.876 375.148 105.577 374.882C105.277 374.615 105.25 374.157 105.516 373.858C105.782 373.558 106.241 373.531 106.54 373.797Z" fill="#FF374D"/>
<path d="M105.854 374.233C105.923 374.294 105.929 374.4 105.868 374.469C105.807 374.539 105.701 374.545 105.631 374.483C105.562 374.422 105.556 374.316 105.618 374.247C105.679 374.178 105.785 374.172 105.854 374.233Z" fill="#FF6C79"/>
<path d="M110.355 371.751C110.546 371.921 110.563 372.213 110.393 372.403C110.224 372.594 109.932 372.611 109.741 372.442C109.55 372.272 109.533 371.98 109.703 371.79C109.872 371.599 110.164 371.581 110.355 371.751Z" fill="#FF374D"/>
<path d="M109.919 372.028C109.963 372.068 109.967 372.135 109.928 372.179C109.889 372.223 109.821 372.227 109.777 372.188C109.733 372.149 109.729 372.081 109.768 372.037C109.808 371.993 109.875 371.989 109.919 372.028Z" fill="#FF6C79"/>
<path d="M110.45 372.936C110.641 373.106 110.658 373.398 110.489 373.589C110.319 373.78 110.027 373.797 109.837 373.627C109.646 373.458 109.629 373.165 109.798 372.975C109.968 372.784 110.26 372.767 110.45 372.936Z" fill="#FF374D"/>
<path d="M110.014 373.214C110.058 373.253 110.062 373.32 110.023 373.365C109.984 373.409 109.917 373.413 109.873 373.374C109.829 373.334 109.825 373.267 109.864 373.223C109.903 373.179 109.97 373.175 110.014 373.214Z" fill="#FF6C79"/>
<path d="M108.94 373.025C109.13 373.195 109.148 373.487 108.978 373.678C108.809 373.868 108.516 373.885 108.326 373.716C108.135 373.546 108.118 373.254 108.288 373.064C108.457 372.872 108.749 372.855 108.94 373.025Z" fill="#FF374D"/>
<path d="M108.503 373.303C108.547 373.342 108.55 373.409 108.512 373.453C108.472 373.497 108.405 373.501 108.361 373.462C108.317 373.423 108.313 373.356 108.352 373.311C108.391 373.268 108.458 373.264 108.503 373.303Z" fill="#FF6C79"/>
<path d="M107.603 371.887C107.793 372.057 107.811 372.349 107.641 372.54C107.472 372.731 107.18 372.747 106.989 372.578C106.798 372.409 106.781 372.116 106.951 371.926C107.12 371.735 107.412 371.718 107.603 371.887Z" fill="#FF374D"/>
<path d="M107.167 372.165C107.211 372.204 107.215 372.271 107.176 372.315C107.137 372.359 107.069 372.363 107.025 372.324C106.981 372.285 106.977 372.217 107.016 372.173C107.056 372.13 107.123 372.125 107.167 372.165Z" fill="#FF6C79"/>
<path d="M113.097 373.163C113.541 373.559 113.581 374.239 113.186 374.683C112.791 375.128 112.11 375.168 111.666 374.773C111.222 374.378 111.181 373.697 111.577 373.253C111.972 372.809 112.652 372.768 113.097 373.163Z" fill="#FF374D"/>
<path d="M112.08 373.81C112.183 373.901 112.192 374.058 112.101 374.161C112.01 374.264 111.853 374.273 111.75 374.182C111.648 374.091 111.639 373.934 111.73 373.831C111.821 373.728 111.978 373.719 112.08 373.81Z" fill="#FF6C79"/>
<path opacity="0.15" d="M164.033 359.775H150.962L151.093 364.931H164.037L164.033 359.775Z" fill="#231F20"/>
<path d="M181.211 427.5H85.9258V422.558C85.9258 420.557 87.5481 418.935 89.5492 418.935H177.588C179.589 418.935 181.212 420.557 181.212 422.558L181.211 427.5Z" fill="#889AC8"/>
<path d="M181.211 424.289H85.9258V427.5H181.211V424.289Z" fill="#AFB6DD"/>
<path d="M92.0075 420.678C91.0145 420.678 90.209 420.199 90.209 419.608V354.698C90.209 354.106 91.0141 353.627 92.0075 353.627C93.0009 353.627 93.806 354.106 93.806 354.698V419.608C93.806 420.199 93.0009 420.678 92.0075 420.678Z" fill="#889AC8"/>
<path d="M173.959 420.679C172.91 420.679 172.061 420.218 172.061 419.65V357.304C172.061 356.736 172.91 356.275 173.959 356.275C175.007 356.275 175.857 356.736 175.857 357.304V419.65C175.857 420.219 175.008 420.679 173.959 420.679Z" fill="#889AC8"/>
<path opacity="0.15" d="M93.806 361.591H90.209V365.186H93.806V361.591Z" fill="#231F20"/>
<path opacity="0.15" d="M175.857 361.591H172.061V365.186H175.857V361.591Z" fill="#231F20"/>
<path d="M176.079 363.369H89.8599C89.44 363.369 89.0996 363.029 89.0996 362.609V360.535C89.0996 360.115 89.44 359.774 89.8599 359.774H176.08C176.5 359.774 176.84 360.115 176.84 360.535V362.609C176.84 363.029 176.499 363.369 176.079 363.369Z" fill="#889AC8"/>
<path d="M58.4513 291.497C1.13549 296.415 -19.3878 377.717 21.2393 408.185L58.4513 387.247C58.4769 380.404 61.3438 375.378 67.7151 372.595V363.418H63.1393C61.5295 363.418 60.1158 364.362 59.508 365.768C55.5555 364.667 33.3654 365.426 31.7446 343.641C33.8576 305.042 58.5854 302.29 58.5854 302.29L58.4513 291.497Z" fill="#BBBBE6"/>
<path d="M58.497 292.45L58.4514 291.497C1.13521 296.414 -19.3877 377.716 21.2394 408.184L25.198 405.957C-10.1982 375.25 7.57502 302.558 58.497 292.45Z" fill="#8E8DB4"/>
<path d="M112.288 371.668C110.885 373.105 64.2582 378.787 63.276 377.538C62.2939 376.289 62.2002 364.361 63.276 362.925C64.3515 361.489 110.979 361.676 112.288 362.925C113.598 364.174 113.692 370.232 112.288 371.668Z" fill="#BBBBE6"/>
<path d="M124.975 425.684V413.07C124.975 410.372 122.837 408.184 120.199 408.184H54.7465V374.957C54.7465 369.279 49.2323 364.68 43.6816 364.68C43.6816 364.68 33.4516 364.043 30.4846 373.913L20.4323 408.184C18.0708 408.184 16.1562 410.143 16.1562 412.559V425.683L124.975 425.684Z" fill="#312B78"/>
<path d="M20.4316 408.184H54.7459V406.251H20.9984L20.4316 408.184Z" fill="#8E8DB4"/>
<path d="M119.498 360.306C118.339 359.505 60.6811 359.479 59.5442 360.306C58.4077 361.133 58.1302 365.081 59.5442 365.641C60.9579 366.201 118.138 365.934 119.498 365.641C120.857 365.348 120.656 361.106 119.498 360.306Z" fill="#312B78"/>
<path d="M128.006 427.5H13.4808C12.0551 427.5 10.8994 426.344 10.8994 424.918V416.681C10.8994 415.255 12.0551 414.1 13.4808 414.1H128.006C129.432 414.1 130.588 415.255 130.588 416.681V424.918C130.588 426.344 129.432 427.5 128.006 427.5Z" fill="#BBBBE6"/>
<path d="M42.4272 384.273C46.2664 384.273 49.3787 381.337 49.3787 377.716C49.3787 374.094 46.2664 371.159 42.4272 371.159C38.5879 371.159 35.4756 374.094 35.4756 377.716C35.4756 381.337 38.5879 384.273 42.4272 384.273Z" fill="#8E8DB4"/>
<path d="M37.748 377.716C37.748 380.154 39.8433 382.13 42.4281 382.13C45.0129 382.13 47.1082 380.154 47.1082 377.716C47.1082 375.278 45.0129 373.301 42.4281 373.301C39.8433 373.301 37.748 375.278 37.748 377.716Z" fill="#DBDCF5"/>
<path d="M100.107 341.328L99.7827 341.565C99.0785 342.079 98.0907 341.925 97.5767 341.221L91.7383 333.222C91.2242 332.518 91.3783 331.53 92.0828 331.016L92.4071 330.779C93.1112 330.265 94.099 330.419 94.613 331.124L100.451 339.123C100.965 339.827 100.811 340.814 100.107 341.328Z" fill="#D5D9DF"/>
<path d="M101.858 337.48L95.5846 342.059C93.8449 343.329 91.405 342.948 90.1352 341.208L88.258 338.636C86.9882 336.896 87.3689 334.457 89.1087 333.187L95.3824 328.608C97.1222 327.338 99.562 327.719 100.832 329.458L102.709 332.03C103.979 333.77 103.598 336.21 101.858 337.48Z" fill="#312B78"/>
<path d="M33.9987 251.099C31.795 252.708 31.3123 255.798 32.921 258.002L35.5788 261.644C37.1876 263.848 40.2785 264.33 42.4822 262.721C44.6863 261.113 45.1687 258.022 43.56 255.818L40.9021 252.177C39.2938 249.973 36.2028 249.49 33.9987 251.099Z" fill="#312B78"/>
<path d="M99.8714 333.626L92.5199 338.992C88.8577 341.665 83.722 340.863 81.0487 337.201L34.1436 272.939C31.4703 269.277 32.2724 264.141 35.9346 261.468L43.2861 256.102C46.9483 253.429 52.084 254.231 54.7573 257.893L101.663 322.155C104.336 325.817 103.534 330.953 99.8714 333.626Z" fill="#8E8DB4"/>
<path d="M38.4202 264.17C37.6569 263.124 36.723 262.286 35.6991 261.659C32.2448 264.378 31.5297 269.36 34.1427 272.94L81.0482 337.201C83.41 340.437 87.6925 341.435 91.1841 339.781C91.2518 337.805 90.6625 335.743 89.3633 333.963L38.4202 264.17Z" fill="#DBDCF5"/>
<path d="M100.564 329.693L47.2409 256.64C46.7732 256 46.2765 255.415 45.7662 254.877C44.8986 255.138 44.0577 255.538 43.2842 256.102L35.9323 261.468C35.1588 262.033 34.5217 262.712 34.0088 263.459C34.365 264.109 34.7714 264.76 35.2387 265.401L88.5613 338.454C89.0287 339.095 89.5254 339.68 90.036 340.217C90.9036 339.957 91.7445 339.557 92.518 338.992L99.8695 333.626C100.643 333.062 101.281 332.383 101.793 331.636C101.437 330.985 101.031 330.334 100.564 329.693Z" fill="#BBBBE6"/>
<path d="M98.7198 319.48L79.3981 333.583C77.3706 335.063 74.7516 334.925 73.548 333.276C72.3445 331.627 73.0122 329.091 75.0396 327.611L94.3613 313.508C96.3884 312.028 99.0079 312.165 100.211 313.814C101.415 315.463 100.747 318 98.7198 319.48Z" fill="#312B78"/>
<path d="M63.3744 310.623C69.7409 307.986 72.7641 300.687 70.127 294.32C67.4898 287.954 60.1909 284.931 53.8244 287.568C47.4579 290.205 44.4347 297.504 47.0719 303.87C49.709 310.237 57.0079 313.26 63.3744 310.623Z" fill="#8E8DB4"/>
<path d="M66.7445 301.05C67.8106 296.535 65.0148 292.01 60.4998 290.944C55.9848 289.878 51.4604 292.674 50.3942 297.189C49.3281 301.704 52.124 306.229 56.639 307.295C61.154 308.361 65.6784 305.565 66.7445 301.05Z" fill="#E5E5E5"/>
<path d="M390.799 191.734C390.799 191.734 386.163 186.501 385.34 185.156C384.518 183.81 382.442 177.172 381.386 176.716C380.331 176.261 379.686 177.333 380.129 179.348C380.511 181.082 381.807 185.193 382.169 186.366C382.531 187.538 386.917 193.411 388.202 194.049C389.488 194.686 392.73 193.413 390.799 191.734Z" fill="#FCC2B4"/>
<path d="M395.86 190.311C395.86 190.311 390.666 183.98 388.202 180.661C385.738 177.341 382.631 173.889 381.396 174.402C380.162 174.915 382.725 177.744 384.896 180.922C387.067 184.1 391.609 191.149 392.997 191.909C394.385 192.669 397.17 191.772 395.86 190.311Z" fill="#FCC2B4"/>
<path d="M393.81 190.887C393.81 190.887 387.946 184.427 385.27 180.823C382.595 177.218 379.445 173.055 378.104 173.612C376.764 174.169 379.343 177.617 381.7 181.069C384.058 184.52 389.194 191.797 390.701 192.622C392.208 193.447 395.233 192.473 393.81 190.887Z" fill="#FCC2B4"/>
<path d="M400.146 201.266C398.645 202.706 395.578 203.262 392.986 201.897C391.689 201.216 390.159 199.351 388.884 197.598C387.616 195.827 386.54 194.173 386.28 193.439C385.795 192.006 384.773 190.037 387.298 189.064C388.553 188.577 396.051 187.52 398.297 188.07C400.52 188.603 400.895 200.548 400.146 201.266Z" fill="#FCC2B4"/>
<path d="M399.187 188.978C398.754 188.152 398.115 187.456 397.483 186.77C395.552 184.674 392.52 180.324 391.688 180.484C390.857 180.643 389.508 183.19 391.498 185.233C393.174 186.954 394.906 189.561 396.626 192.542C396.626 192.542 399.619 189.804 399.187 188.978Z" fill="#FCC2B4"/>
<path d="M391.291 193.103C389.861 192.162 385.14 187.936 384.681 186.669C384.414 185.941 384.56 184.481 384.505 182.997C384.48 181.507 384.244 179.996 383.807 179.283C383.459 178.689 382.7 178.295 382.096 178.172C381.475 178.061 381.019 178.224 381.153 178.72C381.448 179.767 381.511 181.935 381.438 184.021C381.398 186.123 381.201 188.136 381.983 189.266C382.644 190.195 383.421 191.309 384.49 192.349C385.633 193.671 387.594 195.988 389.338 196.947C390.658 197.272 392.323 193.792 391.291 193.103Z" fill="#FCC2B4"/>
<path d="M392.971 193.94C393.023 194.006 393.112 194 393.178 193.964C393.245 193.926 393.303 193.849 393.265 193.743C392.528 191.715 392.454 189.463 393.055 187.401C393.077 187.323 393.051 187.267 393.025 187.234C392.978 187.175 392.897 187.142 392.831 187.154C392.783 187.163 392.749 187.198 392.732 187.256C392.101 189.421 392.176 191.776 392.942 193.888C392.95 193.908 392.959 193.926 392.971 193.94Z" fill="#FBA896"/>
<path d="M389.758 191.891C389.785 191.909 389.822 191.904 389.844 191.879C389.868 191.852 389.866 191.81 389.839 191.786C389.805 191.756 386.519 188.838 385.488 187.727C384.598 186.767 384.594 186.139 384.581 184.06C384.579 183.741 384.576 183.389 384.571 182.997C384.529 180.072 383.919 179.296 382.993 178.445C382.105 177.629 381.145 178.315 381.136 178.322C381.106 178.344 381.1 178.385 381.121 178.414C381.142 178.444 381.184 178.45 381.214 178.429C381.249 178.403 382.097 177.801 382.904 178.542C383.805 179.37 384.398 180.127 384.439 182.998C384.445 183.39 384.447 183.742 384.449 184.06C384.462 186.18 384.466 186.82 385.392 187.817C386.426 188.933 389.718 191.855 389.751 191.885C389.753 191.887 389.755 191.889 389.758 191.891Z" fill="#FBA896"/>
<path d="M386.302 182.379L386.168 182.494L389.679 186.579L389.813 186.464L386.302 182.379Z" fill="#FBA896"/>
<path d="M451.106 195.024C449.694 197.31 447.044 199.114 450.843 201.359C453.423 202.883 456.749 203.071 459.467 202.295C462.793 201.346 465.905 199.761 468.53 197.649C469.275 197.049 470.001 196.385 470.386 195.541C471.312 193.51 469.092 192.142 469.013 190.197C468.78 184.395 468.338 178.302 469.092 172.478C469.171 171.853 469.237 171.163 469.525 170.585C469.424 170.41 469.279 170.251 469.037 170.134C468.27 169.761 467.235 169.846 466.42 169.982C465.459 170.141 464.531 170.43 463.583 170.648C461.326 171.168 459.082 171.865 456.986 172.801C454.938 173.717 453.183 174.986 451.369 176.233C450.767 176.647 450.101 176.989 449.568 177.485C449.372 177.668 449.126 177.911 449.11 178.185C449.088 178.558 449.526 178.805 449.724 179.083C451.04 180.936 451.462 183.71 451.765 185.932C452.101 188.405 452.343 190.936 451.788 193.391C451.648 194.013 451.405 194.541 451.106 195.024Z" fill="#FCC2B4"/>
<path d="M451.121 195C460.248 196.376 466.18 191.394 468.931 188.253C468.781 184.887 468.622 181.448 468.702 178.037L467.345 177.84L449.147 178.047C449.132 178.093 449.115 178.138 449.112 178.186C449.091 178.559 449.529 178.805 449.726 179.084C451.042 180.937 451.465 183.71 451.767 185.932C452.104 188.405 452.346 190.936 451.791 193.391C451.652 194.004 451.413 194.524 451.121 195Z" fill="#FBA896"/>
<path d="M453.349 191.263C443.113 188.834 442.33 182.313 443.106 176.274C443.585 172.541 442.313 167.784 442.235 163.755C442.378 160.149 443.498 157.138 447.576 156.179C455.997 154.198 473.845 153.227 469.827 169.697C469.827 169.697 474.607 167.924 474.699 173.898C474.791 179.871 470.547 180.549 469.324 180.969C469.324 180.969 463.586 193.692 453.349 191.263Z" fill="#FCC2B4"/>
<path d="M442.543 167.479C442.543 167.479 444.034 162.535 450.95 163.467C457.866 164.401 458.221 168.421 465.786 165.292C465.786 165.292 466.312 170.149 468.859 172.108C471.405 174.067 476.137 160.451 472.537 159.005C468.937 157.56 442.197 155.752 442.543 167.479Z" fill="#FBA896"/>
<path d="M450.386 183.628C450.349 183.735 450.712 183.996 451.399 184.177C451.742 184.269 452.163 184.324 452.634 184.33C453.104 184.327 453.623 184.271 454.151 184.136C454.678 183.995 455.157 183.789 455.568 183.56C455.975 183.323 456.316 183.069 456.569 182.82C457.093 182.313 457.259 181.927 457.182 181.845C457.094 181.748 456.729 182.009 456.188 182.321C455.913 182.485 455.577 182.658 455.198 182.83C454.815 182.994 454.388 183.152 453.925 183.277C453.462 183.395 453.012 183.467 452.598 183.512C452.183 183.549 451.805 183.563 451.485 183.555C450.845 183.544 450.427 183.503 450.386 183.628Z" fill="#F6876E"/>
<path d="M452.312 181.441C452.305 181.315 451.867 181.258 451.571 180.737C451.419 180.478 451.332 180.168 451.362 179.764C451.385 179.366 451.519 178.91 451.681 178.395C452.325 176.317 452.658 174.571 452.424 174.499C452.189 174.427 451.477 176.053 450.832 178.132C450.67 178.653 450.524 179.209 450.544 179.759C450.553 180.035 450.6 180.287 450.699 180.538C450.797 180.776 450.931 180.97 451.078 181.125C451.372 181.436 451.723 181.57 451.961 181.572C452.201 181.577 452.316 181.496 452.312 181.441Z" fill="#F69D7D"/>
<path d="M454.692 170.439C454.779 170.534 455.125 170.34 455.68 170.111C456.236 169.879 457.004 169.631 457.906 169.598C458.768 169.568 459.581 169.76 460.144 169.952C460.43 170.051 460.663 170.132 460.829 170.189C461.002 170.244 461.117 170.261 461.153 170.21C461.188 170.161 461.149 170.055 461.03 169.907C460.906 169.755 460.704 169.573 460.419 169.387C459.851 169.017 458.938 168.672 457.855 168.711C456.811 168.748 455.896 169.158 455.365 169.567C454.821 169.979 454.613 170.356 454.692 170.439Z" fill="#3B4159"/>
<path d="M449.667 170.88C449.741 170.792 449.506 170.43 448.934 170.058C448.376 169.686 447.434 169.342 446.391 169.38C445.308 169.417 444.421 169.826 443.881 170.236C443.609 170.441 443.421 170.638 443.308 170.798C443.2 170.954 443.169 171.062 443.207 171.109C443.247 171.157 443.36 171.132 443.528 171.065C443.689 170.996 443.916 170.899 444.195 170.78C444.743 170.548 445.54 170.299 446.402 170.268C447.304 170.237 448.087 170.43 448.659 170.622C449.228 170.812 449.588 170.981 449.667 170.88Z" fill="#3B4159"/>
<path d="M456.359 173.743C456.264 174.704 456.789 175.571 457.53 175.68C458.271 175.788 458.949 175.096 459.042 174.136C459.137 173.175 458.613 172.308 457.871 172.199C457.13 172.091 456.453 172.782 456.359 173.743Z" fill="#3B4159"/>
<path d="M445.776 175.047C445.712 176.01 446.207 176.864 446.881 176.953C447.556 177.043 448.154 176.335 448.218 175.371C448.281 174.408 447.786 173.555 447.112 173.465C446.438 173.376 445.84 174.084 445.776 175.047Z" fill="#3B4159"/>
<path d="M468.98 162.837C468.98 162.837 463.763 163.962 458.608 163.158C453.452 162.353 443.62 159.137 442.456 168.014C442.456 168.014 433.417 164.995 433.332 153.909C433.332 153.909 436.631 155.016 438.099 157.219C438.099 157.219 431.825 147.747 436.415 140.766C436.415 140.766 440.33 146.941 450.17 144.722C460.01 142.503 473.283 142.744 473.135 151.238C473.135 151.238 486.2 152.066 474.636 172.309C474.636 172.309 469.172 176.84 468.283 173.5C467.394 170.16 467.302 164.604 468.98 162.837Z" fill="#3F3C51"/>
<path d="M458.3 155.702C453.314 155.956 448.059 153.734 448.059 153.734C447.882 155.493 452.253 158.319 452.253 158.319C452.253 158.319 449.503 156.864 442.784 160.397C439.135 162.315 436.751 162.258 435.327 161.81C438.012 166.524 442.458 168.014 442.458 168.014C443.622 159.137 453.454 162.353 458.609 163.158C463.765 163.962 468.982 162.837 468.982 162.837C467.303 164.604 467.395 170.16 468.285 173.5C469.174 176.84 474.637 172.309 474.637 172.309C476.438 169.156 477.641 166.475 478.39 164.194C475.302 156.816 462.88 155.468 458.3 155.702Z" fill="#312F3D"/>
<path d="M474.699 173.897C474.641 170.164 472.752 169.456 471.344 169.451C470.458 169.448 470.023 170.819 469.835 171.684C468.633 177.223 469.324 180.969 469.324 180.969C470.546 180.549 474.791 179.871 474.699 173.897Z" fill="#FCC2B4"/>
<path d="M472.844 172.413C473.393 173.811 473.129 175.383 472.852 176.818C472.77 177.244 472.677 177.695 472.412 177.981C472.147 178.267 471.65 178.285 471.434 177.903C471.225 177.533 471.388 177.071 471.51 176.678C471.633 176.285 471.652 175.715 471.322 175.516C471.168 175.424 470.989 175.454 470.83 175.378C470.484 175.211 470.407 174.661 470.427 174.228C470.455 173.628 470.551 173.039 470.714 172.484C470.874 171.939 471.168 171.367 471.654 171.32C472.164 171.271 472.617 171.835 472.844 172.413Z" fill="url(#paint1_linear_848_2)"/>
<path d="M452.694 146.347C466.559 142.769 471.361 148.418 473.135 151.238C473.283 142.744 460.01 142.503 450.17 144.722C440.33 146.941 436.415 140.767 436.415 140.767C436.415 140.767 438.829 149.926 452.694 146.347Z" fill="#585075"/>
<path d="M484.518 356.621C469.04 359.552 452.065 358.992 434.313 356.621V291.153H484.518V356.621Z" fill="white"/>
<path d="M458.386 419.453H444.789L443.561 407.406H458.386V419.453Z" fill="#FCC2B4"/>
<path d="M489.75 419.453H503.348L502.438 407.406H487.612L489.75 419.453Z" fill="#FCC2B4"/>
<path d="M444.399 415.62C439.111 421.206 425.582 420.812 428.486 427.5H459.934C460.218 423.02 459.678 419.076 458.387 415.62C450.984 417.525 446.093 417.684 444.399 415.62Z" fill="#2E2A45"/>
<path d="M502.9 415.62C507.408 420.812 521.752 421.56 518.813 427.5H487.365C487.081 423.02 487.62 419.076 488.911 415.62C494.986 417.218 500.146 417.782 502.9 415.62Z" fill="#2E2A45"/>
<path d="M447.832 196.425L452.674 195.565L468.604 195.301H472.651L454.004 212.889L449.57 205.172L447.832 196.425Z" fill="#FCC2B4"/>
<path d="M459.962 299.77L484.518 412.989C492.504 414.063 499.27 414.261 503.984 412.989L493.433 292.735L477.88 270.047L435.176 276.027L430.492 334.594L441.241 412.989C445.848 414.209 452.514 414.114 460.796 412.989L459.962 299.77Z" fill="#3C3B4D"/>
<path d="M451.704 195.714C452.551 201.457 462.101 201.853 469.739 195.26L472.652 195.301L477.88 282.403C460.626 284.703 446.268 285.155 436.814 282.403L440.634 258.265L439.133 232.279L432.857 220.803L446.57 196.746C447.864 196.393 449.53 196.103 451.704 195.714Z" fill="#5BD1D5"/>
<path d="M436.812 282.404L436.893 281.894C444.098 282.255 462.911 277.048 464.887 270.048C467.301 261.491 467.237 253.309 467.237 253.309L476.471 258.953L477.878 282.404C460.624 284.703 446.266 285.155 436.812 282.404Z" fill="#50C9C9"/>
<path d="M470.957 195.26C470.957 195.26 490.024 195.969 493.753 202.89C497.482 209.811 489.936 227.134 486.808 236.033C485.377 240.103 485.255 244.494 486.508 248.619C494.807 275.935 500.456 328.016 503.984 357.922C494.527 359.614 486.089 360.295 475.107 360.296C475.107 360.296 465.238 242.787 465.056 231.004C464.874 219.22 470.957 195.26 470.957 195.26Z" fill="#E4ECFF"/>
<path d="M466.042 248.533C466.513 255.09 467.143 262.072 467.817 270.726C469.255 269.91 474.269 267.298 480.904 268.349C487.467 269.388 491.407 273.347 492.536 274.568C491.758 268.597 490.42 263.933 489.657 260.623C488.653 256.262 487.604 252.225 486.508 248.619C485.749 246.119 485.502 243.521 485.738 240.956C485.09 242.104 482.504 246.366 477.014 248.382C471.824 250.286 467.347 248.969 466.042 248.533Z" fill="#CFE0F9"/>
<path d="M448.956 196.137C448.956 196.137 430.766 198.071 428.856 203.743C426.946 209.415 426.991 224.233 427.537 228.849C428.082 233.466 432.585 242.831 432.585 242.831L421.397 357.922C426.794 359.496 433.271 360.156 440.361 360.296C440.361 360.296 445.819 255.363 445.137 246.393C436.405 223.573 448.956 196.137 448.956 196.137Z" fill="#E4ECFF"/>
<path d="M451.813 192.077L451.915 195.7L448.914 196.233C443.903 208.76 441.17 221.543 442.391 234.767C438.378 222.954 437.888 210.11 443.593 198.684L447.994 197.214L444.145 196.853C446.011 194.245 449.169 192.392 451.813 192.077Z" fill="#CFE0F9"/>
<path d="M470.276 190.996C473.418 191.908 475.355 193.775 477.843 195.943L472.987 197.608L477.388 199.499C474.237 214.18 466.542 224.643 465.354 237.057C463.044 216.992 470.107 206.486 469.409 195.368L470.276 190.996Z" fill="#CFE0F9"/>
<path d="M403.078 198.243L401.978 195.252C401.978 195.252 394.521 198.538 392.012 202.88L394.277 205.194L403.078 198.243Z" fill="#5FDFDC"/>
<path d="M429.342 202.361C424.279 210.054 421.161 218.385 421.161 218.385C421.161 218.385 418.583 214.356 418.21 217.874L403.509 196.638C403.509 196.638 394.712 197.967 392.743 205.032C392.743 205.032 409.618 239.075 417.582 241.298C425.547 243.52 436.977 222.383 436.977 222.383L437.542 201.978C437.628 200.703 430.049 201.287 429.342 202.361Z" fill="#E4ECFF"/>
<path d="M504.904 256.132C505.263 254.032 505.297 250.631 505.094 248.498C504.578 243.092 503.438 237.716 502.863 232.309C501.993 224.141 501.78 214.398 497.749 206.663C496.693 204.636 495.187 202.614 493.283 201.194C493.046 201.052 492.806 200.916 492.56 200.794C491.603 200.315 490.611 200.176 489.606 200.468C489.017 200.64 488.47 200.916 487.947 201.208C487.324 201.556 486.767 201.992 486.277 202.486C485.273 203.501 484.55 204.73 483.986 206.01C482.919 208.429 482.323 211.034 482.225 213.691C482.14 216.014 482.365 218.335 482.695 220.654C484.126 224.886 485.677 229.102 486.414 233.46C486.916 236.438 487.505 239.41 487.961 242.393C488.387 245.185 488.717 247.986 488.887 250.789C489.027 253.111 489.139 255.543 490.107 257.768C490.58 258.857 491.31 259.868 492.329 260.602C493.389 261.366 494.676 261.776 495.971 261.909C498.231 262.141 500.698 261.683 502.234 260.157C503.625 258.775 504.586 257.995 504.904 256.132Z" fill="#E4ECFF"/>
<path d="M438.543 230.772L427.006 232.355C426.419 232.436 425.862 232.093 425.691 231.545L424.65 228.211C424.435 227.523 424.91 226.807 425.648 226.706L437.184 225.123C437.772 225.042 438.329 225.385 438.5 225.933L439.541 229.267C439.756 229.955 439.281 230.671 438.543 230.772Z" fill="#FBB700"/>
<path d="M456.956 268.64L430.179 272.315C428.732 272.513 427.391 271.531 427.199 270.132L416.33 233.276C416.138 231.877 417.165 230.57 418.612 230.372L445.389 226.697C446.836 226.498 448.177 227.481 448.369 228.88L459.239 265.735C459.43 267.134 458.403 268.442 456.956 268.64Z" fill="#545FAF"/>
<path d="M437.757 230.88L426.22 232.463C425.633 232.544 425.076 232.201 424.905 231.653L423.863 228.319C423.649 227.631 424.123 226.915 424.861 226.814L436.398 225.23C436.986 225.15 437.543 225.493 437.714 226.04L438.755 229.375C438.97 230.063 438.495 230.779 437.757 230.88Z" fill="#FBB700"/>
<path d="M437.963 227.787L437.688 226.98C437.554 226.551 437.129 226.289 436.675 226.351L425.138 227.934L425.064 227.398L436.602 225.815C437.329 225.715 438.01 226.135 438.223 226.813L438.496 227.613L437.963 227.787Z" fill="#E78600"/>
<path d="M461.268 255.279C461.181 254.597 461.022 253.92 460.715 253.3C460.418 252.7 459.984 252.184 459.483 251.745C458.808 251.154 458.062 250.633 457.353 250.085C456.626 249.523 455.896 248.966 455.156 248.421C454.514 247.949 453.87 247.433 453.175 247.04C452.909 246.889 452.628 246.771 452.323 246.744C451.641 246.515 450.946 246.321 450.254 246.138C449.338 245.895 448.414 245.677 447.483 245.509C446.709 245.37 445.926 245.258 445.138 245.27C444.353 245.282 443.631 245.458 442.904 245.743C442.321 245.973 441.691 246.083 441.134 246.378C440.922 246.49 440.69 246.647 440.621 246.891C440.56 247.107 440.674 247.304 440.835 247.444C441.016 247.601 441.241 247.717 441.48 247.802C442.69 248.06 443.963 247.794 445.176 247.714C445.571 247.687 445.974 247.732 446.366 247.781C446.952 247.854 447.532 247.978 448.099 248.141C448.486 248.251 448.866 248.38 449.242 248.522C449.115 248.516 448.989 248.51 448.862 248.51C448.243 248.506 447.639 248.642 447.026 248.713C446.424 248.782 445.846 248.841 445.271 249.044L445.256 249.05C444.854 249.113 444.458 249.206 444.067 249.356C443.351 249.631 442.685 250.014 442.046 250.434C441.803 250.594 441.554 250.743 441.305 250.893C440.906 251.059 440.51 251.231 440.129 251.429C439.738 251.633 439.302 251.907 439.064 252.29C438.781 252.745 439.143 253.092 439.564 253.252C440.255 253.517 440.917 253.224 441.521 252.881C442.301 252.439 443.103 252.075 443.955 251.79C444.819 251.5 445.695 251.392 446.604 251.474C446.636 251.477 446.668 251.483 446.701 251.486C446.641 251.492 446.581 251.495 446.522 251.506C446.093 251.583 445.73 251.831 445.381 252.077C444.481 252.711 443.513 253.242 442.574 253.817C442.093 254.112 441.61 254.39 441.123 254.67C440.803 254.854 438.964 255.844 439.85 256.311C440.101 256.444 440.425 256.46 440.703 256.46C441.086 256.46 441.47 256.371 441.831 256.243C442.629 255.962 443.352 255.507 444.061 255.053C444.44 254.81 444.818 254.537 445.228 254.346C445.753 254.103 446.342 254.031 446.914 254.038C447.824 254.051 448.712 254.213 449.588 254.438C449.262 254.44 448.937 254.441 448.611 254.452C447.194 254.499 446.17 255.142 444.98 255.82C444.412 256.144 443.764 256.297 443.21 256.641C442.878 256.846 442.5 257.222 442.696 257.649C442.839 257.963 443.241 258.004 443.543 257.985C444.553 257.922 445.448 257.415 446.377 257.069C447.449 256.67 448.597 256.591 449.725 256.462C451.012 256.315 451.834 256.9 452.926 257.472C453.459 257.751 454.004 258.009 454.557 258.246C455.677 258.728 456.842 259.155 458.031 259.43C458.483 259.535 458.967 259.581 459.42 259.451C459.768 259.35 460.056 259.159 460.296 258.907C461.267 258.056 461.423 256.486 461.268 255.279Z" fill="#FCC2B4"/>
<path d="M444.858 245.759C446.386 245.569 447.875 245.672 449.377 246.002C450.898 246.338 452.385 246.836 453.803 247.481C453.87 247.512 453.937 247.545 454.005 247.576C453.734 247.385 453.459 247.202 453.175 247.041C452.909 246.89 452.628 246.772 452.323 246.745C451.642 246.516 450.946 246.322 450.254 246.139C449.338 245.896 448.414 245.678 447.483 245.51C446.71 245.371 445.926 245.259 445.138 245.271C444.353 245.283 443.631 245.459 442.904 245.744C442.321 245.974 441.691 246.084 441.134 246.379C440.981 246.46 440.82 246.565 440.715 246.709C442.072 246.297 443.448 245.934 444.858 245.759Z" fill="#F6DFC9"/>
<path d="M441.042 251.351C441.786 250.981 442.568 250.689 443.35 250.412C444.138 250.132 444.921 249.837 445.728 249.615C446.57 249.385 447.439 249.197 448.313 249.138C449.018 249.091 449.729 249.1 450.434 249.04C449.989 248.753 449.471 248.597 448.945 248.513C448.918 248.512 448.891 248.51 448.863 248.51C448.243 248.506 447.639 248.642 447.026 248.713C446.424 248.782 445.846 248.842 445.271 249.044L445.256 249.05C444.854 249.113 444.458 249.206 444.068 249.356C443.351 249.631 442.685 250.014 442.046 250.435C441.804 250.595 441.555 250.743 441.306 250.893C440.906 251.06 440.51 251.231 440.13 251.429C439.738 251.634 439.302 251.907 439.065 252.29C438.942 252.487 438.945 252.661 439.016 252.81C439.575 252.185 440.293 251.723 441.042 251.351Z" fill="#F4B79F"/>
<path d="M446.18 251.458C446.897 251.293 447.64 251.221 448.373 251.101C447.476 250.917 446.562 250.828 445.644 250.883C444.63 250.943 443.637 251.178 442.694 251.554C442.249 251.733 441.802 251.935 441.388 252.18C441.081 252.363 440.795 252.578 440.487 252.761C440.165 252.952 439.706 253.169 439.32 253.131C439.396 253.178 439.478 253.22 439.564 253.253C440.255 253.517 440.917 253.225 441.521 252.882C442.301 252.439 443.103 252.076 443.955 251.79C444.683 251.546 445.422 251.439 446.18 251.458Z" fill="#F6DFC9"/>
<path d="M459.607 258.296C459.168 258.372 458.71 258.45 458.263 258.446C457.306 258.438 456.331 258.159 455.435 257.845C454.491 257.515 453.583 257.1 452.673 256.693C451.902 256.347 451.138 255.999 450.307 255.822C449.536 255.657 448.743 255.651 447.971 255.811C446.944 256.025 446.009 256.498 445.066 256.943C444.616 257.155 444.161 257.382 443.688 257.535C443.419 257.622 443.121 257.67 442.839 257.642C442.789 257.637 442.737 257.628 442.687 257.615C442.69 257.627 442.691 257.638 442.697 257.649C442.84 257.963 443.241 258.004 443.543 257.985C444.553 257.922 445.449 257.415 446.377 257.069C447.45 256.67 448.598 256.591 449.725 256.462C451.013 256.315 451.835 256.9 452.926 257.472C453.459 257.751 454.005 258.009 454.558 258.246C455.677 258.728 456.843 259.155 458.032 259.43C458.484 259.535 458.967 259.581 459.42 259.451C459.768 259.35 460.056 259.159 460.296 258.907C460.59 258.649 460.81 258.324 460.969 257.964C460.441 258.149 459.865 258.252 459.607 258.296Z" fill="#F6DFC9"/>
<path d="M446.914 254.039C447.824 254.051 448.712 254.213 449.588 254.438C449.586 254.438 449.586 254.438 449.584 254.438C450.004 254.479 450.421 254.504 450.831 254.437C450.002 254.024 449.119 253.714 448.209 253.54C447.26 253.359 446.258 253.314 445.314 253.546C444.247 253.807 443.35 254.504 442.427 255.067C441.96 255.352 441.476 255.621 440.962 255.813C440.621 255.94 440.229 255.992 439.872 255.902C439.8 255.884 439.726 255.858 439.658 255.825C439.572 256.008 439.602 256.181 439.85 256.311C440.1 256.444 440.425 256.46 440.702 256.46C441.086 256.46 441.469 256.371 441.83 256.244C442.628 255.962 443.351 255.507 444.06 255.054C444.44 254.811 444.817 254.537 445.228 254.346C445.753 254.103 446.341 254.031 446.914 254.039Z" fill="#F6DFC9"/>
<path d="M446.367 247.782C446.953 247.855 447.532 247.978 448.1 248.141C448.332 248.207 448.559 248.281 448.786 248.359C448.968 248.369 449.149 248.383 449.331 248.398C448.568 247.996 447.79 247.617 446.97 247.351C446.083 247.062 445.159 246.93 444.225 246.997C443.722 247.033 443.205 247.107 442.722 247.255C442.315 247.38 441.909 247.531 441.481 247.562C441.285 247.577 441.079 247.558 440.896 247.491C441.066 247.624 441.267 247.727 441.481 247.803C442.69 248.061 443.963 247.795 445.177 247.714C445.572 247.687 445.975 247.733 446.367 247.782Z" fill="#F6DFC9"/>
<path d="M459.975 260.992C459.975 260.992 488.841 265.105 496.482 263.02C504.123 260.935 505.204 253.749 502.246 250.689C499.285 247.628 493.94 246.616 488.339 248.193C482.739 249.771 460.477 250.517 460.477 250.517L459.975 260.992Z" fill="#E4ECFF"/>
<path d="M414.572 420.518L389.298 381.504V354.269H389.658C390.827 354.269 391.775 353.565 391.775 352.697V350.384C391.775 349.515 390.827 348.811 389.658 348.811H372.682C371.513 348.811 370.565 349.515 370.565 350.384V352.697C370.565 353.565 371.513 354.269 372.682 354.269H373.042V381.504L347.768 420.518C347.768 423.264 350.379 425.556 353.858 426.101V427.499H408.349V426.12C411.893 425.613 414.572 423.299 414.572 420.518Z" fill="#EAEBF9"/>
<path d="M349.854 420.518L375.128 381.504V354.269H374.768C373.599 354.269 372.651 353.565 372.651 352.697V350.384C372.651 349.515 373.599 348.811 374.768 348.811H372.682C371.513 348.811 370.565 349.515 370.565 350.384V352.697C370.565 353.565 371.513 354.269 372.682 354.269H373.042V381.504L347.768 420.518C347.768 423.264 350.379 425.556 353.858 426.101V427.499H355.944V426.101C352.465 425.556 349.854 423.264 349.854 420.518Z" fill="#BBBBE6"/>
<path d="M388.002 383.338V376.144H375.163V383.338L351.869 418.665C351.869 421.519 354.887 423.833 358.609 423.833H403.731C407.453 423.833 410.471 421.519 410.471 418.665L388.002 383.338Z" fill="#FD3B4C"/>
<path d="M355.079 418.665L378.373 383.338V376.144H375.163V383.338L351.869 418.665C351.869 421.519 354.887 423.833 358.609 423.833H361.819C358.096 423.833 355.079 421.519 355.079 418.665Z" fill="#EF2E45"/>
<path d="M46.4892 199.9C47.1388 198.47 47.7018 196.728 48.1055 195.036C48.5126 193.321 48.8112 191.564 48.923 189.795C49.1723 186.258 48.7344 182.722 47.6705 179.574C47.1482 177.994 46.4791 176.503 45.6969 175.118C45.3298 174.404 44.879 173.766 44.4666 173.096C44.0038 172.478 43.5813 171.814 43.0842 171.239C42.6045 170.643 42.1191 170.055 41.5968 169.517C41.0963 168.948 40.5582 168.436 40.0212 167.923C38.9528 166.883 37.7621 165.825 36.638 164.771C32.0841 160.535 27.5004 156.283 23.2304 151.15C21.1148 148.559 19.0365 145.762 17.3694 142.276C16.5387 140.541 15.8127 138.628 15.3235 136.529C14.8317 134.437 14.5997 132.158 14.6916 129.911C14.7775 127.661 15.1736 125.477 15.7475 123.47C16.0277 122.454 16.373 121.509 16.7255 120.561C17.116 119.631 17.5129 118.708 17.9637 117.862C18.8501 116.15 19.8236 114.574 20.8614 113.146C21.8906 111.699 22.9672 110.359 24.0695 109.095C26.266 106.546 28.5661 104.288 30.8697 102.108L37.7527 95.6937C40.0264 93.5755 42.2467 91.4056 44.3017 89.052C46.3209 86.6932 48.2648 84.1378 49.3904 81.1775C49.5512 80.8164 49.6498 80.4368 49.7669 80.0628C49.8995 79.6915 49.9741 79.3097 50.0573 78.9282C50.1548 78.5652 50.2079 78.1306 50.264 77.7006C50.3126 77.2717 50.4026 76.8469 50.4203 76.4127C50.5905 74.6835 50.5483 72.9233 50.3777 71.1821C50.1992 69.4404 49.8539 67.7179 49.3621 66.07C48.8861 64.4395 48.2493 62.7716 47.5342 61.4378L47.4894 61.3542C47.1787 60.775 47.2672 59.9496 47.6864 59.5105C48.084 59.0944 48.6387 59.1783 48.9596 59.6811C49.9789 61.2868 50.7268 62.9369 51.3907 64.7618C52.0305 66.5792 52.5174 68.5182 52.8168 70.5336C53.1083 72.5468 53.2487 74.6345 53.1388 76.7188C53.1358 77.2423 53.0593 77.7552 53.0213 78.2752C52.9761 78.7926 52.9354 79.3078 52.8255 79.8625C52.7332 80.4082 52.6447 80.9591 52.4926 81.4663C52.3529 81.9826 52.223 82.5113 52.0384 82.9851C50.6662 86.9282 48.5562 89.8655 46.4433 92.5425C44.2897 95.1718 42.0325 97.5197 39.7689 99.7773C35.2349 104.265 30.6215 108.444 26.5244 113.213C25.5004 114.402 24.5221 115.638 23.6142 116.931C22.692 118.213 21.8699 119.577 21.1484 120.987C20.7771 121.689 20.4739 122.421 20.167 123.15C19.8861 123.908 19.5991 124.672 19.3841 125.45C18.9345 127.001 18.6498 128.583 18.5831 130.155C18.4299 133.298 19.2214 136.418 20.5899 139.277C21.9516 142.14 23.7697 144.769 25.7279 147.222C27.6978 149.673 29.81 151.981 31.979 154.219C34.1394 156.473 36.3511 158.671 38.5793 160.856C39.7 161.968 40.7954 162.995 41.9443 164.175C42.5201 164.764 43.0921 165.36 43.6352 166.02C44.1944 166.645 44.7227 167.331 45.2431 168.028C45.7775 168.701 46.2494 169.484 46.7491 170.212C47.207 171.005 47.6939 171.758 48.104 172.611C48.5453 173.425 48.9181 174.315 49.3011 175.191C49.6423 176.107 49.9831 177.02 50.2523 177.988C51.3809 181.818 51.7394 186.104 51.2966 190.167C51.0865 192.202 50.6869 194.182 50.1401 196.066C49.5723 197.961 48.9245 199.705 48.0098 201.445C47.6999 202.034 47.1079 202.168 46.6881 201.743C46.2863 201.336 46.1872 200.566 46.4504 199.984L46.4892 199.9Z" fill="url(#paint2_linear_848_2)"/>
<path d="M19.4332 199.53C18.8273 198.082 18.3178 196.326 17.9657 194.624C17.611 192.898 17.3658 191.134 17.3078 189.362C17.1662 185.82 17.7119 182.299 18.871 179.18C19.4415 177.615 20.1555 176.143 20.9794 174.78C21.3685 174.076 21.838 173.451 22.2707 172.793C22.7524 172.188 23.1945 171.536 23.7089 170.974C24.2067 170.391 24.7098 169.817 25.2483 169.293C25.7661 168.739 26.3193 168.241 26.8713 167.743C27.9709 166.733 29.1937 165.708 30.349 164.685C35.0302 160.576 39.7412 156.451 44.1656 151.436C46.3591 148.905 48.5218 146.165 50.2943 142.727C51.1778 141.015 51.9614 139.123 52.5146 137.038C53.07 134.961 53.3713 132.689 53.3476 130.44C53.3303 128.189 53.0008 125.995 52.4882 123.973C52.2393 122.95 51.923 121.995 51.5991 121.039C51.2373 120.098 50.8686 119.164 50.4438 118.306C49.6101 116.571 48.6848 114.968 47.6911 113.513C46.7063 112.038 45.6707 110.67 44.6076 109.376C42.4894 106.767 40.259 104.448 38.0229 102.206L31.3379 95.6054C29.1297 93.4254 26.976 91.1961 24.9937 88.7871C23.0472 86.3741 21.1817 83.7667 20.1472 80.7767C19.9973 80.411 19.9104 80.0292 19.8049 79.6518C19.6837 79.2771 19.6208 78.8934 19.5492 78.5097C19.4626 78.144 19.4231 77.7083 19.3798 77.2768C19.3444 76.8471 19.2675 76.4197 19.2626 75.9851C19.1448 74.2521 19.2408 72.4935 19.4641 70.7579C19.6957 69.0218 20.0934 67.3096 20.6353 65.676C21.161 64.059 21.8478 62.4096 22.6036 61.0957L22.6507 61.0136C22.9787 60.4431 22.9158 59.6158 22.5098 59.165C22.125 58.738 21.568 58.8069 21.2318 59.3009C20.1638 60.878 19.3658 62.5071 18.6469 64.3132C17.9522 66.1121 17.4061 68.0371 17.0458 70.0431C16.6929 72.0476 16.4892 74.1305 16.5355 76.2171C16.5223 76.7401 16.5833 77.2553 16.6055 77.7761C16.6353 78.2946 16.6598 78.8105 16.7528 79.3679C16.8285 79.9158 16.9 80.469 17.0367 80.98C17.1606 81.4997 17.2743 82.0322 17.4445 82.5104C18.6963 86.4897 20.7159 89.4831 22.7463 92.217C24.819 94.9039 27.0035 97.3128 29.1978 99.6314C33.5932 104.242 38.0775 108.545 42.0274 113.424C43.0147 114.64 43.9551 115.903 44.8231 117.221C45.7057 118.527 46.486 119.913 47.1646 121.342C47.5141 122.054 47.7954 122.794 48.0797 123.531C48.3376 124.296 48.6012 125.068 48.7921 125.851C49.1947 127.414 49.4308 129.003 49.4496 130.576C49.5073 133.723 48.6208 136.819 47.1661 139.639C45.7178 142.465 43.8202 145.043 41.7882 147.441C39.7446 149.837 37.5631 152.086 35.3266 154.264C33.0984 156.458 30.8209 158.594 28.5271 160.718C27.3729 161.799 26.2466 162.795 25.0623 163.943C24.4688 164.516 23.8791 165.097 23.3161 165.741C22.7381 166.351 22.1894 167.021 21.6475 167.705C21.0928 168.362 20.5976 169.132 20.0757 169.846C19.5937 170.627 19.0841 171.366 18.6484 172.207C18.1826 173.009 17.7827 173.889 17.3734 174.753C17.0043 175.66 16.6357 176.563 16.3374 177.523C15.0928 181.321 14.604 185.595 14.923 189.669C15.071 191.709 15.4099 193.699 15.8995 195.597C16.4093 197.507 17.0039 199.267 17.8652 201.032C18.157 201.63 18.7445 201.78 19.1775 201.366C19.5914 200.971 19.7138 200.204 19.4686 199.614L19.4332 199.53Z" fill="url(#paint3_linear_848_2)"/>
<path d="M24.7768 66.9243L46.2344 67.5886C46.617 67.6003 46.9374 67.1849 46.9503 66.6607C46.9631 66.1365 46.6629 65.702 46.2803 65.6899L24.8227 65.0256C24.4401 65.014 24.1196 65.4293 24.1068 65.9535C24.094 66.4777 24.3938 66.9123 24.7768 66.9243Z" fill="#F9AF7D"/>
<path d="M23.6069 76.2335L46.953 76.9562C47.3356 76.9678 47.6561 76.5525 47.6689 76.0283C47.6817 75.5041 47.3815 75.0695 46.9989 75.0579L23.6528 74.3352C23.2702 74.3235 22.9497 74.7389 22.9369 75.2631C22.9241 75.7869 23.2243 76.2215 23.6069 76.2335Z" fill="#F9AF7D"/>
<path d="M42.9279 85.0456L27.2368 84.5598C26.8541 84.5481 26.5333 84.9635 26.5209 85.4877C26.5085 86.0119 26.8082 86.4465 27.1912 86.4581L42.8823 86.9439C43.2649 86.9556 43.5854 86.5402 43.5982 86.016C43.611 85.4918 43.3105 85.0573 42.9279 85.0456Z" fill="#F9AF7D"/>
<path d="M22.9978 185.579L44.4554 186.243C44.838 186.255 45.1589 185.84 45.1713 185.315C45.1837 184.791 44.884 184.356 44.501 184.345L23.0434 183.68C22.6608 183.669 22.3403 184.084 22.3275 184.608C22.3151 185.132 22.6152 185.567 22.9978 185.579Z" fill="#F9AF7D"/>
<path d="M21.8412 194.332L45.1874 195.055C45.57 195.066 45.8904 194.651 45.9032 194.127C45.916 193.603 45.6159 193.168 45.2333 193.156L21.8872 192.434C21.5046 192.422 21.1841 192.838 21.1713 193.362C21.1585 193.886 21.4586 194.32 21.8412 194.332Z" fill="#F9AF7D"/>
<path d="M26.1147 175.946L41.8058 176.432C42.1884 176.444 42.5089 176.028 42.5217 175.504C42.5345 174.98 42.2343 174.545 41.8517 174.533L26.1606 174.048C25.778 174.036 25.4575 174.451 25.4447 174.975C25.4319 175.5 25.7317 175.935 26.1147 175.946Z" fill="#F9AF7D"/>
<path d="M22.0385 131.403L45.3846 132.126C45.7672 132.137 46.0877 131.722 46.1005 131.198C46.1133 130.674 45.8132 130.239 45.4306 130.227L22.0844 129.505C21.7018 129.493 21.381 129.908 21.3686 130.433C21.3558 130.957 21.6555 131.391 22.0385 131.403Z" fill="#F9AF7D"/>
<path d="M40.1089 140.176L26.9194 139.767C26.5368 139.755 26.2163 140.171 26.2035 140.695C26.1907 141.219 26.4908 141.654 26.8734 141.666L40.063 142.074C40.4456 142.086 40.7661 141.67 40.7789 141.146C40.7917 140.622 40.4915 140.188 40.1089 140.176Z" fill="#F9AF7D"/>
<path d="M27.3647 121.236L40.5542 121.644C40.9368 121.656 41.2573 121.24 41.2701 120.716C41.2829 120.192 40.9827 119.758 40.6001 119.746L27.4106 119.338C27.028 119.326 26.7075 119.741 26.6947 120.266C26.6819 120.789 26.9821 121.224 27.3647 121.236Z" fill="#F9AF7D"/>
<path d="M251.711 166.7L250.353 172.546L272.201 177.622L273.559 171.776L251.711 166.7Z" fill="#003340"/>
<path d="M299.841 179.755C325.618 173.055 345.075 162.085 343.3 155.255C341.524 148.424 319.188 148.319 293.411 155.019C267.634 161.72 261.551 169.311 263.327 176.142C265.102 182.973 274.064 186.456 299.841 179.755Z" fill="#DCDCEF"/>
<path opacity="0.46" d="M263.327 176.142C262.995 174.866 262.939 173.563 263.233 172.245C267.712 175.108 277.358 177.788 288.311 177.197C300.895 176.518 324.15 172.151 337.927 163.638C330.59 169.278 316.547 175.413 299.841 179.756C274.064 186.456 265.103 182.973 263.327 176.142Z" fill="#A3B6BF"/>
<path d="M160.393 167.132L138.544 172.208L139.902 178.054L161.751 172.978L160.393 167.132Z" fill="#003340"/>
<path d="M132.266 202.947C115.849 223.919 98.0343 237.393 92.4768 233.043C86.9197 228.692 95.724 208.165 112.142 187.193C128.559 166.221 137.946 163.667 143.503 168.018C149.061 172.369 148.684 181.975 132.266 202.947Z" fill="#DCDCEF"/>
<path opacity="0.46" d="M143.503 168.018C142.465 167.205 141.293 166.634 139.966 166.378C140.808 171.627 139.422 181.542 134.515 191.353C128.878 202.623 115.605 222.212 102.307 231.456C110.403 226.974 121.626 216.539 132.267 202.948C148.684 181.975 149.061 172.369 143.503 168.018Z" fill="#A3B6BF"/>
<path d="M149.116 95.2135C149.762 95.2135 150.287 94.6893 150.287 94.0423V75.4866C150.287 74.8396 149.762 74.3154 149.116 74.3154C148.469 74.3154 147.944 74.8396 147.944 75.4866V94.0419C147.944 94.6889 148.469 95.2135 149.116 95.2135Z" fill="#DCDCEF"/>
<path d="M146.726 74.3152C146.726 75.6358 147.796 76.7061 149.116 76.7061C150.437 76.7061 151.507 75.6355 151.507 74.3152C151.507 72.9949 150.437 71.9243 149.116 71.9243C147.796 71.9243 146.726 72.9949 146.726 74.3152Z" fill="#003340"/>
<path d="M261.449 95.213C262.096 95.213 262.621 94.6888 262.621 94.0418V75.4861C262.621 74.8391 262.096 74.3149 261.449 74.3149C260.803 74.3149 260.278 74.8391 260.278 75.4861V94.0414C260.278 94.6884 260.803 95.213 261.449 95.213Z" fill="#DCDCEF"/>
<path d="M259.058 74.3152C259.058 75.6358 260.128 76.7061 261.448 76.7061C262.769 76.7061 263.839 75.6355 263.839 74.3152C263.839 72.9949 262.769 71.9243 261.448 71.9243C260.128 71.9243 259.058 72.9949 259.058 74.3152Z" fill="#003340"/>
<path d="M259.68 114.341C264.843 114.341 269.028 108.816 269.028 101.999C269.028 95.1822 264.843 89.6562 259.68 89.6562C254.516 89.6562 250.331 95.1822 250.331 101.999C250.331 108.816 254.516 114.341 259.68 114.341Z" fill="#003340"/>
<path d="M150.887 114.341C156.05 114.341 160.235 108.816 160.235 101.999C160.235 95.1822 156.05 89.6562 150.887 89.6562C145.724 89.6562 141.538 95.1822 141.538 101.999C141.538 108.816 145.724 114.341 150.887 114.341Z" fill="#003340"/>
<path d="M205.284 143.756C236.304 143.756 261.451 125.87 261.451 103.808C261.451 81.7451 236.304 63.8599 205.284 63.8599C174.264 63.8599 149.117 81.7451 149.117 103.808C149.117 125.87 174.264 143.756 205.284 143.756Z" fill="#DCDCEF"/>
<path d="M165.808 75.397C158.612 82.1117 154.331 90.492 154.331 99.5866C154.331 121.65 179.478 139.535 210.498 139.535C225.888 139.535 239.827 135.129 249.972 127.998C239.711 137.573 223.515 143.756 205.282 143.756C174.262 143.756 149.115 125.871 149.115 103.808C149.116 92.6912 155.505 82.6393 165.808 75.397Z" fill="#BDBDDB"/>
<path d="M213.159 133.814C236.322 133.814 255.099 122.962 255.099 109.576C255.099 96.1896 236.322 85.3379 213.159 85.3379C189.996 85.3379 171.219 96.1896 171.219 109.576C171.219 122.962 189.996 133.814 213.159 133.814Z" fill="#1C3766"/>
<path d="M197.365 65.163C197.365 66.4535 200.913 67.5 205.289 67.5C209.665 67.5 213.213 66.4535 213.213 65.163C213.213 63.8721 209.659 63.5381 205.283 63.5381C200.907 63.5381 197.365 63.8725 197.365 65.163Z" fill="#2A354F"/>
<path d="M236.108 111.382C238.772 111.382 240.933 108.07 240.933 103.984C240.933 99.8989 238.772 96.5869 236.108 96.5869C233.443 96.5869 231.283 99.8989 231.283 103.984C231.283 108.07 233.443 111.382 236.108 111.382Z" fill="#59FFFF"/>
<path d="M192.529 111.382C195.193 111.382 197.353 108.07 197.353 103.984C197.353 99.8989 195.193 96.5869 192.529 96.5869C189.864 96.5869 187.704 99.8989 187.704 103.984C187.704 108.07 189.864 111.382 192.529 111.382Z" fill="#59FFFF"/>
<path d="M211.95 124.63H225.933C226.421 124.63 226.817 124.235 226.817 123.746C226.817 123.257 226.421 122.861 225.933 122.861H211.95C211.461 122.861 211.065 123.257 211.065 123.746C211.066 124.235 211.461 124.63 211.95 124.63Z" fill="#59FFFF"/>
<path d="M152.267 194.383C152.267 229.153 176.004 262.361 205.286 262.361C234.567 262.361 258.305 229.153 258.305 194.383C258.305 159.613 234.567 146.468 205.286 146.468C176.004 146.468 152.267 159.613 152.267 194.383Z" fill="#DCDCEF"/>
<path d="M152.267 194.383C152.267 159.612 176.004 146.468 205.286 146.468C214.926 146.468 223.956 147.904 231.745 151.055C231.756 151.063 231.768 151.07 231.78 151.077C229.219 160.003 220.439 177.462 191.234 173.649C158.937 169.431 149.281 211.028 191.325 259.771C168.819 251.338 152.267 223.413 152.267 194.383Z" fill="#BDBDDB"/>
<path d="M210.984 219.442H199.59C193.122 219.442 187.879 214.199 187.879 207.731V191.759H222.695V207.731C222.695 214.199 217.452 219.442 210.984 219.442Z" fill="#003340"/>
<path d="M216.501 204.247H194.072C193.581 204.247 193.183 203.849 193.183 203.357V200.932C193.183 200.441 193.581 200.042 194.072 200.042H216.501C216.992 200.042 217.39 200.441 217.39 200.932V203.357C217.391 203.849 216.993 204.247 216.501 204.247Z" fill="#59FFFF"/>
<path d="M354.486 354.925C352.72 353.304 350.388 352.402 347.959 352.402H318.896C317.971 352.402 313.815 356.961 311.16 359.985C309.694 361.655 308.896 363.772 308.896 365.966V418.267C308.896 423.366 313.15 427.499 318.398 427.499H351.845C357.092 427.499 361.346 423.366 361.346 418.267V365.572C361.346 363.4 360.559 361.299 359.124 359.634C357.647 357.92 355.916 356.236 354.486 354.925Z" fill="#ACD7E8"/>
<path d="M352.386 352.403H317.352C315.981 352.403 314.87 351.292 314.87 349.921V343.152C314.87 341.782 315.981 340.67 317.352 340.67H352.386C353.756 340.67 354.867 341.781 354.867 343.152V349.921C354.868 351.291 353.757 352.403 352.386 352.403Z" fill="#FDAE1E"/>
<path d="M348.687 425.306H320.802C315.795 425.306 311.736 421.247 311.736 416.24V368.927C311.736 363.92 315.795 359.861 320.802 359.861H348.687C353.694 359.861 357.753 363.92 357.753 368.927V416.24C357.753 421.247 353.694 425.306 348.687 425.306Z" fill="#86CCFD"/>
<path d="M356.581 356.924C354.955 355.307 353.38 353.915 352.449 353.118C351.908 352.655 351.213 352.402 350.492 352.402H318.896C318.256 352.402 316.074 354.58 313.91 356.924H356.581Z" fill="#34A4E8"/>
<path d="M314.871 347.758V349.63C314.871 351.161 316.149 352.402 317.725 352.402H352.015C353.591 352.402 354.869 351.161 354.869 349.63V347.758H314.871Z" fill="#FB9214"/>
<path d="M361.346 380.261H308.896V398.279H361.346V380.261Z" fill="#E9F2FF"/>
<path d="M361.346 394.262H308.896V398.279H361.346V394.262Z" fill="#DEEAF9"/>
<path opacity="0.56" d="M349.613 360.036C349.841 360.828 349.974 361.657 349.974 362.517V409.031C349.974 414.259 345.479 418.497 339.932 418.497H313.998C313.347 418.497 312.712 418.433 312.096 418.322C313.254 422.344 317.143 425.306 321.776 425.306H347.711C353.257 425.306 357.752 421.068 357.752 415.841V369.327C357.752 364.712 354.249 360.874 349.613 360.036Z" fill="#26A7FE"/>
<path d="M330.691 397.57V418.193C330.691 422.368 327.306 425.752 323.131 425.752H273.08C268.905 425.752 265.52 422.368 265.52 418.193V397.57C265.52 393.395 268.904 390.011 273.08 390.011H323.131C327.306 390.01 330.691 393.395 330.691 397.57Z" fill="#A8BFC6"/>
<path d="M330.69 398.969V419.846C330.69 424.073 327.264 427.499 323.037 427.499H273.173C268.946 427.499 265.52 424.073 265.52 419.846V398.969C265.52 394.743 268.946 391.316 273.173 391.316H323.037C327.264 391.316 330.69 394.742 330.69 398.969Z" fill="url(#paint4_linear_848_2)"/>
<path d="M274.139 420.256L277.297 422.878C278.343 423.747 279.835 423.523 280.629 422.377C281.422 421.231 281.217 419.599 280.171 418.729L277.013 416.107L274.139 420.256Z" fill="#BF3022"/>
<path d="M274.139 420.256L277.297 422.878C278.343 423.747 279.772 423.613 280.489 422.579C281.205 421.544 280.938 420.002 279.892 419.133L276.734 416.511L274.139 420.256Z" fill="#EF3430"/>
<path d="M274.397 419.881L277.555 422.503C278.602 423.372 279.973 423.322 280.618 422.391C281.262 421.46 280.937 420.002 279.891 419.133L276.733 416.511L274.397 419.881Z" fill="#F44437"/>
<path d="M274.213 420.317L271.058 417.69C270.013 416.819 269.81 415.186 270.606 414.041C271.401 412.897 272.893 412.675 273.939 413.546L277.093 416.173L274.213 420.317Z" fill="#B5911F"/>
<path d="M274.213 420.317L271.059 417.69C270.013 416.819 269.748 415.276 270.466 414.243C271.184 413.21 272.614 413.078 273.659 413.949L276.813 416.576L274.213 420.317Z" fill="#F7C959"/>
<path d="M274.473 419.943L271.319 417.316C270.274 416.446 269.95 414.986 270.596 414.057C271.243 413.127 272.614 413.079 273.659 413.95L276.813 416.577L274.473 419.943Z" fill="#F9C205"/>
<path d="M284.955 420.256L288.113 422.878C289.16 423.747 290.651 423.523 291.445 422.377C292.239 421.231 292.034 419.599 290.987 418.729L287.829 416.107L284.955 420.256Z" fill="#BF3022"/>
<path d="M284.955 420.256L288.113 422.878C289.16 423.747 290.589 423.613 291.305 422.579C292.022 421.544 291.754 420.002 290.708 419.133L287.55 416.511L284.955 420.256Z" fill="#EF3430"/>
<path d="M285.214 419.881L288.372 422.503C289.418 423.372 290.789 423.322 291.434 422.391C292.079 421.46 291.753 420.002 290.707 419.133L287.549 416.511L285.214 419.881Z" fill="#F44437"/>
<path d="M285.026 420.317L281.872 417.69C280.826 416.819 280.624 415.186 281.419 414.041C282.214 412.897 283.706 412.675 284.752 413.546L287.906 416.173L285.026 420.317Z" fill="#B5911F"/>
<path d="M285.026 420.317L281.872 417.69C280.827 416.819 280.562 415.276 281.28 414.243C281.998 413.21 283.427 413.078 284.472 413.949L287.627 416.576L285.026 420.317Z" fill="#F7C959"/>
<path d="M285.287 419.943L282.133 417.316C281.087 416.446 280.764 414.986 281.41 414.057C282.056 413.127 283.427 413.079 284.472 413.95L287.626 416.577L285.287 419.943Z" fill="#F9C205"/>
<path d="M295.772 420.256L298.93 422.878C299.977 423.747 301.469 423.523 302.262 422.377C303.056 421.231 302.851 419.599 301.805 418.729L298.647 416.107L295.772 420.256Z" fill="#BF3022"/>
<path d="M295.772 420.256L298.93 422.878C299.977 423.747 301.406 423.613 302.123 422.579C302.839 421.544 302.572 420.002 301.525 419.133L298.367 416.511L295.772 420.256Z" fill="#EF3430"/>
<path d="M296.032 419.881L299.19 422.503C300.237 423.372 301.608 423.322 302.253 422.391C302.898 421.46 302.572 420.002 301.525 419.133L298.367 416.511L296.032 419.881Z" fill="#F44437"/>
<path d="M295.845 420.317L292.691 417.69C291.646 416.819 291.443 415.186 292.239 414.041C293.034 412.897 294.526 412.675 295.571 413.546L298.726 416.173L295.845 420.317Z" fill="#B5911F"/>
<path d="M295.846 420.317L292.692 417.69C291.646 416.819 291.381 415.276 292.099 414.243C292.817 413.21 294.246 413.078 295.292 413.949L298.446 416.576L295.846 420.317Z" fill="#F7C959"/>
<path d="M296.105 419.943L292.951 417.316C291.906 416.445 291.582 414.985 292.228 414.056C292.874 413.126 294.246 413.078 295.291 413.949L298.445 416.576L296.105 419.943Z" fill="#F9C205"/>
<path d="M306.591 420.255L309.749 422.877C310.795 423.746 312.287 423.522 313.081 422.377C313.875 421.231 313.669 419.598 312.623 418.729L309.465 416.107L306.591 420.255Z" fill="#BF3022"/>
<path d="M306.591 420.255L309.749 422.877C310.795 423.746 312.224 423.612 312.941 422.578C313.658 421.544 313.39 420.001 312.344 419.132L309.186 416.51L306.591 420.255Z" fill="#EF3430"/>
<path d="M306.851 419.881L310.009 422.503C311.055 423.371 312.426 423.321 313.071 422.391C313.716 421.46 313.39 420.001 312.344 419.132L309.186 416.51L306.851 419.881Z" fill="#F44437"/>
<path d="M306.664 420.317L303.51 417.69C302.464 416.819 302.262 415.186 303.057 414.041C303.852 412.897 305.344 412.675 306.39 413.546L309.544 416.173L306.664 420.317Z" fill="#B5911F"/>
<path d="M306.664 420.317L303.51 417.69C302.465 416.819 302.199 415.276 302.918 414.243C303.635 413.21 305.065 413.078 306.11 413.949L309.264 416.576L306.664 420.317Z" fill="#F7C959"/>
<path d="M306.924 419.943L303.77 417.316C302.725 416.445 302.401 414.985 303.048 414.056C303.694 413.126 305.065 413.078 306.11 413.949L309.265 416.576L306.924 419.943Z" fill="#F9C205"/>
<path d="M317.407 420.255L320.565 422.877C321.612 423.746 323.103 423.522 323.897 422.377C324.691 421.231 324.486 419.598 323.44 418.729L320.282 416.107L317.407 420.255Z" fill="#BF3022"/>
<path d="M317.407 420.255L320.565 422.877C321.612 423.746 323.041 423.612 323.757 422.578C324.474 421.544 324.207 420.001 323.16 419.132L320.002 416.51L317.407 420.255Z" fill="#EF3430"/>
<path d="M317.667 419.881L320.825 422.503C321.871 423.371 323.243 423.321 323.887 422.391C324.532 421.46 324.207 420.001 323.16 419.132L320.002 416.51L317.667 419.881Z" fill="#F44437"/>
<path d="M317.48 420.317L314.326 417.69C313.281 416.819 313.078 415.186 313.873 414.041C314.668 412.897 316.16 412.675 317.206 413.546L320.36 416.173L317.48 420.317Z" fill="#B5911F"/>
<path d="M317.481 420.317L314.326 417.69C313.281 416.819 313.016 415.276 313.734 414.243C314.452 413.21 315.881 413.078 316.926 413.949L320.081 416.576L317.481 420.317Z" fill="#F7C959"/>
<path d="M317.74 419.943L314.586 417.316C313.54 416.445 313.217 414.985 313.863 414.056C314.509 413.126 315.88 413.078 316.926 413.949L320.08 416.576L317.74 419.943Z" fill="#F9C205"/>
<path d="M274.139 401.766L277.297 404.388C278.343 405.256 279.835 405.032 280.629 403.887C281.422 402.741 281.217 401.108 280.171 400.239L277.013 397.617L274.139 401.766Z" fill="#BF3022"/>
<path d="M274.139 401.766L277.297 404.388C278.343 405.256 279.772 405.123 280.489 404.088C281.205 403.054 280.938 401.511 279.892 400.643L276.734 398.021L274.139 401.766Z" fill="#EF3430"/>
<path d="M274.397 401.391L277.555 404.013C278.602 404.882 279.973 404.832 280.618 403.901C281.262 402.971 280.937 401.511 279.891 400.643L276.733 398.021L274.397 401.391Z" fill="#F44437"/>
<path d="M274.213 401.827L271.058 399.199C270.013 398.329 269.81 396.695 270.606 395.551C271.401 394.407 272.893 394.185 273.939 395.055L277.093 397.683L274.213 401.827Z" fill="#B5911F"/>
<path d="M274.213 401.827L271.059 399.199C270.013 398.329 269.748 396.786 270.466 395.753C271.184 394.72 272.614 394.588 273.659 395.459L276.813 398.086L274.213 401.827Z" fill="#F7C959"/>
<path d="M274.473 401.452L271.319 398.825C270.274 397.954 269.95 396.495 270.596 395.565C271.243 394.636 272.614 394.588 273.659 395.458L276.813 398.086L274.473 401.452Z" fill="#F9C205"/>
<path d="M284.955 401.766L288.113 404.388C289.16 405.256 290.651 405.032 291.445 403.887C292.239 402.741 292.034 401.108 290.987 400.239L287.829 397.617L284.955 401.766Z" fill="#BF3022"/>
<path d="M284.955 401.766L288.113 404.388C289.16 405.256 290.589 405.123 291.305 404.088C292.022 403.054 291.754 401.511 290.708 400.643L287.55 398.021L284.955 401.766Z" fill="#EF3430"/>
<path d="M285.214 401.391L288.372 404.013C289.418 404.882 290.789 404.832 291.434 403.901C292.079 402.971 291.753 401.511 290.707 400.643L287.549 398.021L285.214 401.391Z" fill="#F44437"/>
<path d="M285.026 401.827L281.872 399.199C280.826 398.329 280.624 396.695 281.419 395.551C282.214 394.407 283.706 394.185 284.752 395.055L287.906 397.683L285.026 401.827Z" fill="#B5911F"/>
<path d="M285.026 401.827L281.872 399.199C280.827 398.329 280.562 396.786 281.28 395.753C281.998 394.72 283.427 394.588 284.472 395.459L287.627 398.086L285.026 401.827Z" fill="#F7C959"/>
<path d="M285.287 401.452L282.133 398.825C281.087 397.954 280.764 396.495 281.41 395.565C282.056 394.636 283.427 394.588 284.472 395.458L287.626 398.086L285.287 401.452Z" fill="#F9C205"/>
<path d="M295.772 401.766L298.93 404.388C299.977 405.257 301.469 405.033 302.262 403.887C303.056 402.742 302.851 401.109 301.805 400.24L298.647 397.618L295.772 401.766Z" fill="#BF3022"/>
<path d="M295.772 401.766L298.93 404.388C299.977 405.257 301.406 405.123 302.123 404.089C302.839 403.055 302.572 401.512 301.525 400.643L298.367 398.021L295.772 401.766Z" fill="#EF3430"/>
<path d="M296.032 401.391L299.19 404.013C300.237 404.882 301.608 404.832 302.253 403.901C302.898 402.971 302.572 401.511 301.525 400.643L298.367 398.021L296.032 401.391Z" fill="#F44437"/>
<path d="M295.845 401.827L292.691 399.199C291.646 398.329 291.443 396.695 292.239 395.551C293.034 394.407 294.526 394.185 295.571 395.055L298.726 397.683L295.845 401.827Z" fill="#B5911F"/>
<path d="M295.846 401.827L292.692 399.199C291.646 398.329 291.381 396.786 292.099 395.753C292.817 394.72 294.246 394.588 295.292 395.459L298.446 398.086L295.846 401.827Z" fill="#F7C959"/>
<path d="M296.105 401.453L292.951 398.825C291.906 397.955 291.582 396.496 292.228 395.566C292.874 394.636 294.246 394.588 295.291 395.459L298.445 398.086L296.105 401.453Z" fill="#F9C205"/>
<path d="M306.591 401.766L309.749 404.388C310.795 405.256 312.287 405.032 313.081 403.887C313.875 402.741 313.669 401.108 312.623 400.239L309.465 397.617L306.591 401.766Z" fill="#BF3022"/>
<path d="M306.591 401.766L309.749 404.388C310.795 405.256 312.224 405.123 312.941 404.088C313.658 403.054 313.39 401.511 312.344 400.643L309.186 398.021L306.591 401.766Z" fill="#EF3430"/>
<path d="M306.851 401.391L310.009 404.013C311.055 404.882 312.426 404.831 313.071 403.901C313.716 402.97 313.39 401.511 312.344 400.642L309.186 398.02L306.851 401.391Z" fill="#F44437"/>
<path d="M306.664 401.827L303.51 399.199C302.464 398.329 302.262 396.695 303.057 395.551C303.852 394.407 305.344 394.185 306.39 395.055L309.544 397.683L306.664 401.827Z" fill="#B5911F"/>
<path d="M306.664 401.827L303.51 399.199C302.465 398.329 302.199 396.786 302.918 395.753C303.635 394.72 305.065 394.588 306.11 395.459L309.264 398.086L306.664 401.827Z" fill="#F7C959"/>
<path d="M306.924 401.453L303.77 398.825C302.725 397.955 302.401 396.496 303.048 395.566C303.694 394.636 305.065 394.588 306.11 395.459L309.265 398.086L306.924 401.453Z" fill="#F9C205"/>
<path d="M317.407 401.766L320.565 404.388C321.612 405.257 323.103 405.033 323.897 403.887C324.691 402.742 324.486 401.109 323.44 400.24L320.282 397.618L317.407 401.766Z" fill="#BF3022"/>
<path d="M317.407 401.766L320.565 404.388C321.612 405.257 323.041 405.123 323.757 404.089C324.474 403.055 324.207 401.512 323.16 400.643L320.002 398.021L317.407 401.766Z" fill="#EF3430"/>
<path d="M317.667 401.391L320.825 404.013C321.871 404.882 323.243 404.832 323.887 403.901C324.532 402.971 324.207 401.511 323.16 400.643L320.002 398.021L317.667 401.391Z" fill="#F44437"/>
<path d="M317.48 401.827L314.326 399.199C313.281 398.329 313.078 396.695 313.873 395.551C314.668 394.407 316.16 394.185 317.206 395.055L320.36 397.683L317.48 401.827Z" fill="#B5911F"/>
<path d="M317.481 401.827L314.326 399.199C313.281 398.329 313.016 396.786 313.734 395.753C314.452 394.72 315.881 394.588 316.926 395.459L320.081 398.086L317.481 401.827Z" fill="#F7C959"/>
<path d="M317.74 401.453L314.586 398.825C313.54 397.955 313.217 396.496 313.863 395.566C314.509 394.636 315.88 394.588 316.926 395.459L320.08 398.086L317.74 401.453Z" fill="#F9C205"/>
<path d="M324.851 408.517V409.067C324.851 409.178 324.761 409.268 324.65 409.268H271.561C271.45 409.268 271.359 409.178 271.359 409.067V408.517C271.359 408.406 271.45 408.315 271.561 408.315H324.65C324.761 408.315 324.851 408.405 324.851 408.517Z" fill="#A8BFC6"/>
<defs>
<linearGradient id="paint0_linear_848_2" x1="343.454" y1="87.4712" x2="394.996" y2="87.4712" gradientUnits="userSpaceOnUse">
<stop stop-color="#FC7EA2"/>
<stop offset="0.3569" stop-color="#FD6B8D"/>
<stop offset="1" stop-color="#FF405F"/>
</linearGradient>
<linearGradient id="paint1_linear_848_2" x1="470.913" y1="175.558" x2="472.881" y2="174.302" gradientUnits="userSpaceOnUse">
<stop stop-color="#F69D7D"/>
<stop offset="1" stop-color="#F69D7D"/>
</linearGradient>
<linearGradient id="paint2_linear_848_2" x1="33.9247" y1="201.99" x2="33.9247" y2="59.2441" gradientUnits="userSpaceOnUse">
<stop stop-color="#FC7EA2"/>
<stop offset="0.3569" stop-color="#FD6B8D"/>
<stop offset="1" stop-color="#FF405F"/>
</linearGradient>
<linearGradient id="paint3_linear_848_2" x1="34.0889" y1="201.599" x2="34.0889" y2="58.8837" gradientUnits="userSpaceOnUse">
<stop stop-color="#FC7EA2"/>
<stop offset="0.3569" stop-color="#FD6B8D"/>
<stop offset="1" stop-color="#FF405F"/>
</linearGradient>
<linearGradient id="paint4_linear_848_2" x1="265.519" y1="409.407" x2="330.69" y2="409.407" gradientUnits="userSpaceOnUse">
<stop stop-color="#FDFDFD"/>
<stop offset="0.2444" stop-color="#E2F7FE"/>
<stop offset="0.5298" stop-color="#C9F1FE"/>
<stop offset="0.79" stop-color="#B9EDFF"/>
<stop offset="1" stop-color="#B4ECFF"/>
</linearGradient>
</defs>
</svg>
