<svg xmlns="http://www.w3.org/2000/svg" width="56" height="56" viewBox="0 0 56 56">
  <g id="globally-icon" transform="translate(-528 -836)">
    <rect id="Rectangle_161" data-name="Rectangle 161" width="56" height="56" rx="6" transform="translate(528 836)" fill="#fff" opacity="0"/>
    <g id="Trusted" transform="translate(529.643 837.639)">
      <path id="Path_566" data-name="Path 566" d="M15.475,7.33a.729.729,0,1,1-.716-1.269A22.865,22.865,0,1,1,25.98,48.849h0A22.858,22.858,0,0,1,7.431,12.607l.019-.027a22.938,22.938,0,0,1,2.706-3.106.729.729,0,0,1,1.012,1.05,21.886,21.886,0,0,0-1.648,1.766h5.348A21.063,21.063,0,0,1,17.836,7.45a14.769,14.769,0,0,1,1.978-1.974,21.151,21.151,0,0,0-4.342,1.85ZM22.99,35.207a3.749,3.749,0,0,1,3.35,3h2.326c.164-1.328.3-2.759.412-4.274a3.751,3.751,0,0,1-2.749-2.9h-3.6l0,.042c.063,1.44.152,2.824.263,4.129Zm3.348,4.466a3.749,3.749,0,0,1-1.025,1.915l0,0a3.776,3.776,0,0,1-1.317.854,18.617,18.617,0,0,0,1.124,3.769c.347.755.646,1.172.869,1.172.5,0,1.082-1.3,1.661-3.514a40.623,40.623,0,0,0,.823-4.2H26.342ZM22.55,42.688a3.746,3.746,0,0,1-3.563-3.014h-2.5q.4.832.854,1.591c1.77,2.988,4.049,5.074,6.575,5.821-.042-.086-.086-.173-.126-.263a20.273,20.273,0,0,1-1.24-4.135ZM18.987,38.21a3.761,3.761,0,0,1,2.555-2.845c-.116-1.347-.208-2.761-.272-4.224l0-.1H13.951a30.614,30.614,0,0,0,1.884,7.176h3.151Zm5.291-.884a2.283,2.283,0,0,0-3.9,1.6v.038a2.285,2.285,0,0,0,4.569,0v-.038a2.285,2.285,0,0,0-.669-1.6ZM36.619,9.281A3.751,3.751,0,0,1,40.3,12.3h2.142c-.417-.5-.859-.985-1.32-1.446a21.4,21.4,0,0,0-8.971-5.367,16.345,16.345,0,0,1,3.414,3.95,3.793,3.793,0,0,1,1.057-.152Zm3.675,4.48a3.749,3.749,0,0,1-1.025,1.915l0,0a3.861,3.861,0,0,1-.739.574,33.351,33.351,0,0,1,.93,4.413l.036.269h7.294a21.359,21.359,0,0,0-3.233-7.176H40.295Zm-3.146,2.98a3.746,3.746,0,0,1-4.205-2.978H30.136c.263,2.163.459,4.582.572,7.176h7.315l-.01-.061a32.482,32.482,0,0,0-.861-4.135ZM32.944,12.3a3.748,3.748,0,0,1,1.025-1.915,3.633,3.633,0,0,1,.3-.269,14.069,14.069,0,0,0-3.683-3.99,8.631,8.631,0,0,0-2.6-1.259A19.756,19.756,0,0,1,29.6,10.2q.183.989.343,2.094Zm5.291-.884a2.283,2.283,0,0,0-3.9,1.6v.038a2.285,2.285,0,0,0,4.569,0V13.01A2.285,2.285,0,0,0,38.235,11.413Zm-7.427,15.23a3.757,3.757,0,0,1,2.871,2.93h4.514c.114-1.166.173-2.365.173-3.586s-.059-2.424-.173-3.588H30.759c.034,1.168.053,2.366.053,3.588l-.006.657Zm2.873,4.394a3.749,3.749,0,0,1-1.025,1.915l0,0a3.742,3.742,0,0,1-2.113,1.058c-.1,1.479-.24,2.887-.4,4.2h6a30.446,30.446,0,0,0,1.884-7.176H33.683Zm-7.351-1.463a3.759,3.759,0,0,1,3.022-2.959l0-.627c0-1.221-.019-2.42-.053-3.588H22.676c-.034,1.168-.053,2.366-.053,3.588,0,1.237.017,2.435.053,3.586h3.656Zm5.291-.884a2.283,2.283,0,0,0-3.9,1.6v.038a2.285,2.285,0,0,0,4.569,0v-.038A2.285,2.285,0,0,0,31.622,28.689ZM14.46,18.166A3.75,3.75,0,0,1,16.8,20.935h4.466c.111-2.589.307-5.011.572-7.176h-6a28.861,28.861,0,0,0-1.376,4.405ZM16.8,22.4a3.749,3.749,0,0,1-1.025,1.915l0,0a3.739,3.739,0,0,1-2.161,1.065l0,.6c0,1.221.059,2.42.173,3.586h7.435c-.034-1.183-.053-2.382-.053-3.586,0-1.221.019-2.42.053-3.588H16.8Zm-4.651,2.889a3.749,3.749,0,0,1-2.7-2.889H4.884a21.654,21.654,0,0,0,0,7.174h7.425q-.166-1.755-.168-3.586c0-.219,0-.452.008-.7Zm-2.7-4.352a3.755,3.755,0,0,1,3.576-3.014,30.727,30.727,0,0,1,1.248-4.159H8.412A21.312,21.312,0,0,0,6.29,17.594a21.1,21.1,0,0,0-1.107,3.344H9.445Zm5.291-.884a2.283,2.283,0,0,0-3.9,1.6v.038a2.285,2.285,0,0,0,4.569,0v-.038a2.285,2.285,0,0,0-.669-1.6ZM29.945,39.676a42.19,42.19,0,0,1-.886,4.565A13.747,13.747,0,0,1,28.025,47.1c2.54-.737,4.83-2.829,6.608-5.828q.449-.76.854-1.593H29.944ZM22.03,12.3q.16-1.1.343-2.094a19.833,19.833,0,0,1,1.614-5.337,10.456,10.456,0,0,0-5.023,3.525A19.156,19.156,0,0,0,16.487,12.3Zm7.218,8.639c-.114-2.6-.312-5.025-.577-7.176H23.307c-.267,2.149-.463,4.571-.577,7.176ZM28.47,12.3c-.1-.642-.2-1.252-.3-1.833-.673-3.634-1.454-5.882-2.18-5.882s-1.507,2.248-2.18,5.882c-.107.579-.208,1.189-.3,1.833h4.968ZM12.477,31.039H5.185a21.285,21.285,0,0,0,3.233,7.176H14.27a32.53,32.53,0,0,1-1.793-7.176Zm2.4,8.639H9.535c.417.5.857.985,1.32,1.446a21.374,21.374,0,0,0,8.965,5.366,16.817,16.817,0,0,1-3.735-4.478,23.743,23.743,0,0,1-1.208-2.334Zm17.28,6.812a21.4,21.4,0,0,0,8.965-5.366q.692-.692,1.32-1.446H37.1a23.976,23.976,0,0,1-1.208,2.336,16.773,16.773,0,0,1-3.733,4.476Zm5.548-8.275h5.849a21.25,21.25,0,0,0,3.233-7.176H39.5A32.476,32.476,0,0,1,37.706,38.214Zm1.959-8.639H47.09a21.654,21.654,0,0,0,0-7.174H39.665c.111,1.17.17,2.368.17,3.588s-.057,2.42-.168,3.586ZM13.14,8.864a.729.729,0,0,1-.867-1.172l.173-.13a.729.729,0,1,1,.867,1.172Z" fill="#29abe2"/>
    </g>
  </g>
</svg>
