<svg width="43" height="36" viewBox="0 0 43 36" fill="none" xmlns="http://www.w3.org/2000/svg">
<path d="M41.625 33.2773H39.75V17.9023C39.75 17.2062 39.4734 16.5385 38.9812 16.0462C38.4889 15.5539 37.8212 15.2773 37.125 15.2773H26.25V2.90234C26.25 2.20615 25.9734 1.53847 25.4812 1.04619C24.9889 0.553906 24.3212 0.277344 23.625 0.277344H5.625C4.92881 0.277344 4.26113 0.553906 3.76884 1.04619C3.27656 1.53847 3 2.20615 3 2.90234V33.2773H1.125C0.826631 33.2773 0.540483 33.3959 0.329505 33.6068C0.118526 33.8178 0 34.104 0 34.4023C0 34.7007 0.118526 34.9869 0.329505 35.1978C0.540483 35.4088 0.826631 35.5273 1.125 35.5273H41.625C41.9234 35.5273 42.2095 35.4088 42.4205 35.1978C42.6315 34.9869 42.75 34.7007 42.75 34.4023C42.75 34.104 42.6315 33.8178 42.4205 33.6068C42.2095 33.3959 41.9234 33.2773 41.625 33.2773ZM37.125 17.5273C37.2245 17.5273 37.3198 17.5669 37.3902 17.6372C37.4605 17.7075 37.5 17.8029 37.5 17.9023V33.2773H26.25V17.5273H37.125ZM5.25 2.90234C5.25 2.80289 5.28951 2.7075 5.35983 2.63718C5.43016 2.56685 5.52554 2.52734 5.625 2.52734H23.625C23.7245 2.52734 23.8198 2.56685 23.8902 2.63718C23.9605 2.7075 24 2.80289 24 2.90234V33.2773H20.25V23.9023C20.25 23.604 20.1315 23.3178 19.9205 23.1068C19.7095 22.8959 19.4234 22.7773 19.125 22.7773H10.125C9.82663 22.7773 9.54048 22.8959 9.32951 23.1068C9.11853 23.3178 9 23.604 9 23.9023V33.2773H5.25V2.90234ZM18 33.2773H11.25V25.0273H18V33.2773ZM9 11.9023C9 11.604 9.11853 11.3178 9.32951 11.1068C9.54048 10.8959 9.82663 10.7773 10.125 10.7773H13.5V7.40234C13.5 7.10398 13.6185 6.81783 13.8295 6.60685C14.0405 6.39587 14.3266 6.27734 14.625 6.27734C14.9234 6.27734 15.2095 6.39587 15.4205 6.60685C15.6315 6.81783 15.75 7.10398 15.75 7.40234V10.7773H19.125C19.4234 10.7773 19.7095 10.8959 19.9205 11.1068C20.1315 11.3178 20.25 11.604 20.25 11.9023C20.25 12.2007 20.1315 12.4869 19.9205 12.6978C19.7095 12.9088 19.4234 13.0273 19.125 13.0273H15.75V16.4023C15.75 16.7007 15.6315 16.9869 15.4205 17.1978C15.2095 17.4088 14.9234 17.5273 14.625 17.5273C14.3266 17.5273 14.0405 17.4088 13.8295 17.1978C13.6185 16.9869 13.5 16.7007 13.5 16.4023V13.0273H10.125C9.82663 13.0273 9.54048 12.9088 9.32951 12.6978C9.11853 12.4869 9 12.2007 9 11.9023Z" fill="#0D99FF"/>
</svg>
