<svg xmlns="http://www.w3.org/2000/svg" width="56" height="56" viewBox="0 0 56 56">
  <g id="innovation-icon" transform="translate(-379 -836)">
    <rect id="Rectangle_43" data-name="Rectangle 43" width="56" height="56" rx="6" transform="translate(379 836)" fill="#fff" opacity="0"/>
    <g id="Innovation" transform="translate(380.259 837.256)">
      <path id="Path_563" data-name="Path 563" d="M20.076,13.133h1.318l1.474-1.474a6.189,6.189,0,0,1,8.737,0l1.474,1.474H34.4V8.717a2.655,2.655,0,1,1,1.532,0v4.463A6.2,6.2,0,0,1,41.3,18.547h4.463a2.672,2.672,0,1,1,0,1.532H41.346V21.4l1.476,1.476a6.192,6.192,0,0,1,0,8.739l-1.476,1.476v1.318h4.416a2.655,2.655,0,1,1,0,1.532H41.3a6.2,6.2,0,0,1-5.367,5.367v4.463a2.659,2.659,0,0,1,1.119.67l.046.05a2.663,2.663,0,0,1-3.813,3.717l-.046-.05A2.661,2.661,0,0,1,34.4,45.771V41.355H33.077l-1.47,1.472a6.185,6.185,0,0,1-8.733,0L21.4,41.355H20.076v4.416a2.664,2.664,0,1,1-2.651.668,2.68,2.68,0,0,1,1.119-.67V41.305a6.2,6.2,0,0,1-5.367-5.367H8.714a2.659,2.659,0,0,1-.67,1.119l-.05.046A2.663,2.663,0,0,1,4.276,33.29l.05-.046a2.661,2.661,0,0,1,4.386,1.163h4.416V33.084l-1.472-1.47a6.189,6.189,0,0,1,0-8.739L13.129,21.4V20.081H8.714a2.664,2.664,0,1,1-.668-2.651,2.68,2.68,0,0,1,.67,1.119h4.463a6.2,6.2,0,0,1,5.367-5.367V8.719a2.672,2.672,0,1,1,1.532,0v4.416ZM7.294,35.188v-.04a1.136,1.136,0,0,0-1.9-.816l-.03.032a1.131,1.131,0,0,0,0,1.6A1.136,1.136,0,0,0,6.931,36l.03-.032a1.133,1.133,0,0,0,.333-.782ZM35.185,47.182h-.04a1.136,1.136,0,0,0-.816,1.9l.032.03a1.131,1.131,0,0,0,1.6,0A1.136,1.136,0,0,0,36,47.545l-.032-.03a1.133,1.133,0,0,0-.782-.333ZM7.294,19.331v-.04a1.135,1.135,0,1,0-1.937.822,1.117,1.117,0,0,0,.8.333,1.138,1.138,0,0,0,1.135-1.115ZM19.33,47.182h-.04a1.135,1.135,0,1,0,.822,1.937,1.117,1.117,0,0,0,.333-.8,1.138,1.138,0,0,0-1.115-1.135ZM47.181,35.149v.04a1.129,1.129,0,0,0,.333.782,1.131,1.131,0,0,0,1.6,0,1.134,1.134,0,1,0-1.937-.822ZM35.145,7.295h.04a1.129,1.129,0,0,0,.782-.333,1.131,1.131,0,0,0,0-1.6,1.134,1.134,0,1,0-.822,1.937ZM14.661,35.138v.056a4.665,4.665,0,0,0,4.623,4.623H35.193a4.665,4.665,0,0,0,4.623-4.629v-15.9a4.665,4.665,0,0,0-4.649-4.629H19.312a4.665,4.665,0,0,0-4.649,4.625V35.142ZM49.116,20.113a1.134,1.134,0,1,0-1.937-.822v.04a1.134,1.134,0,0,0,1.937.782ZM20.11,5.36A1.134,1.134,0,1,0,19.288,7.3h.04A1.134,1.134,0,0,0,20.11,5.36ZM33.422,27.348l.519,1.32a5.738,5.738,0,0,0,.85,1.771A5.8,5.8,0,0,0,36.6,31.3l1.27.5a.761.761,0,0,1,0,1.416l-1.318.519a5.738,5.738,0,0,0-1.771.85,5.8,5.8,0,0,0-.862,1.807l-.5,1.27a.761.761,0,0,1-1.416,0l-.519-1.32a5.727,5.727,0,0,0-.852-1.771,5.8,5.8,0,0,0-1.807-.862l-1.27-.5a.761.761,0,0,1,0-1.416l1.32-.519a5.726,5.726,0,0,0,1.771-.852,5.8,5.8,0,0,0,.862-1.807l.5-1.27a.761.761,0,0,1,1.416,0Zm.285,4.174a4.829,4.829,0,0,1-.989-1.785,4.775,4.775,0,0,1-.987,1.773,4.8,4.8,0,0,1-1.785.989,4.774,4.774,0,0,1,1.773.987,4.8,4.8,0,0,1,.989,1.785A4.775,4.775,0,0,1,33.7,33.5a4.83,4.83,0,0,1,1.785-.989A4.774,4.774,0,0,1,33.707,31.522Zm-8.374-14.7c.315.78.588,1.486.822,2.09a9.073,9.073,0,0,0,1.45,2.968,9.242,9.242,0,0,0,3.027,1.468c.5.189,1.087.417,2.01.784a.761.761,0,0,1,0,1.416c-.776.315-1.486.588-2.09.822a9.065,9.065,0,0,0-2.968,1.45,9.337,9.337,0,0,0-1.47,3.029c-.189.5-.417,1.087-.784,2.01a.761.761,0,0,1-1.416,0c-.315-.776-.588-1.486-.822-2.09a9.02,9.02,0,0,0-1.45-2.968,9.337,9.337,0,0,0-3.029-1.47c-.5-.189-1.087-.417-2.01-.784a.761.761,0,0,1,0-1.416c.78-.315,1.486-.588,2.09-.822a9.073,9.073,0,0,0,2.968-1.45,9.242,9.242,0,0,0,1.468-3.027c.189-.5.417-1.087.784-2.01a.761.761,0,0,1,1.416,0Zm-.6,2.641-.1-.261-.068.178c-.724,1.893-1.087,2.836-1.815,3.566s-1.651,1.079-3.5,1.793l-.261.1.177.068c1.893.724,2.836,1.087,3.566,1.815s1.081,1.655,1.793,3.5l.1.259.068-.176c.724-1.893,1.087-2.836,1.815-3.566s1.655-1.081,3.5-1.793l.259-.1-.176-.068c-1.893-.724-2.836-1.087-3.566-1.815s-1.079-1.651-1.793-3.5ZM23.56,13.129h7.353l-.391-.391a4.658,4.658,0,0,0-6.571,0ZM41.344,23.56v7.355l.393-.393a4.661,4.661,0,0,0,0-6.573l-.393-.393ZM30.915,41.346H23.558l.393.393a4.661,4.661,0,0,0,6.571,0l.393-.393ZM13.129,30.917V23.56l-.393.393a4.661,4.661,0,0,0,0,6.573l.393.393Z" transform="translate(0)" fill="#29abe2"/>
    </g>
  </g>
</svg>
