<svg width="52" height="52" viewBox="0 0 52 52" fill="none" xmlns="http://www.w3.org/2000/svg">
<path d="M46.28 17.16H43.108C40.508 9.98395 33.696 5.19995 26 5.19995C18.304 5.19995 11.492 9.98395 8.892 17.16H5.72C4.004 17.16 2.6 18.564 2.6 20.28V26.52C2.6 28.236 4.004 29.6399 5.72 29.6399H9.62C9.932 29.6399 10.244 29.484 10.452 29.224C10.66 28.964 10.712 28.6 10.608 28.288C10.088 26.728 9.828 25.0639 9.828 23.4C9.828 21.736 10.088 20.0719 10.608 18.5119C12.792 11.8039 18.928 7.27995 26 7.27995C33.072 7.27995 39.208 11.8039 41.34 18.5119C41.86 20.0719 42.12 21.736 42.12 23.4C42.12 25.0639 41.86 26.728 41.34 28.288C39.208 34.996 33.072 39.52 26 39.52H18.2C16.172 39.52 14.56 41.132 14.56 43.16C14.56 45.188 16.172 46.7999 18.2 46.7999H23.4C25.428 46.7999 27.04 45.188 27.04 43.16V41.548C34.32 41.132 40.612 36.504 43.108 29.6399H46.28C47.996 29.6399 49.4 28.236 49.4 26.52V20.28C49.4 18.564 47.996 17.16 46.28 17.16ZM8.268 27.5599H5.72C5.148 27.5599 4.68 27.092 4.68 26.52V20.28C4.68 19.708 5.148 19.24 5.72 19.24H8.268C7.956 20.592 7.8 21.996 7.8 23.4C7.8 24.8039 7.956 26.208 8.268 27.5599ZM24.96 43.16C24.96 44.0439 24.284 44.7199 23.4 44.7199H18.2C17.316 44.7199 16.64 44.0439 16.64 43.16C16.64 42.276 17.316 41.5999 18.2 41.5999H24.96V43.16ZM47.32 26.52C47.32 27.092 46.852 27.5599 46.28 27.5599H43.732C44.044 26.208 44.2 24.8039 44.2 23.4C44.2 21.996 44.044 20.592 43.732 19.24H46.28C46.852 19.24 47.32 19.708 47.32 20.28V26.52ZM39 23.4C39 16.224 33.176 10.4 26 10.4C18.824 10.4 13 16.224 13 23.4C13 26.52 14.092 29.4839 16.12 31.8239L13.312 34.6319C13 34.9439 12.948 35.36 13.104 35.776C13.26 36.14 13.624 36.4 14.04 36.4H26C33.176 36.4 39 30.576 39 23.4ZM18.304 31.0959C16.224 29.0159 15.08 26.312 15.08 23.4C15.08 17.368 19.968 12.48 26 12.48C32.032 12.48 36.92 17.368 36.92 23.4C36.92 29.4319 32.032 34.32 26 34.32H16.536L18.252 32.604C18.668 32.188 18.668 31.5119 18.304 31.0959ZM24.96 23.4C24.96 22.8279 25.428 22.36 26 22.36C26.572 22.36 27.04 22.8279 27.04 23.4C27.04 23.972 26.572 24.44 26 24.44C25.428 24.44 24.96 23.972 24.96 23.4ZM30.16 23.4C30.16 22.8279 30.628 22.36 31.2 22.36C31.772 22.36 32.24 22.8279 32.24 23.4C32.24 23.972 31.772 24.44 31.2 24.44C30.628 24.44 30.16 23.972 30.16 23.4ZM19.76 23.4C19.76 22.8279 20.228 22.36 20.8 22.36C21.372 22.36 21.84 22.8279 21.84 23.4C21.84 23.972 21.372 24.44 20.8 24.44C20.228 24.44 19.76 23.972 19.76 23.4Z" fill="#132255"/>
</svg>
