<svg width="369" height="374" viewBox="0 0 369 374" fill="none" xmlns="http://www.w3.org/2000/svg">
<g clip-path="url(#clip0_65_2299)">
<path fill-rule="evenodd" clip-rule="evenodd" d="M48.8567 260.579C39.3209 245.5 1.73083 217.634 10.5516 194.486C23.8848 159.497 55.1688 145.2 37.584 100.868C11.7135 35.652 44.1703 -5.0037 113.854 0.49619C129.125 1.70122 155.043 18.0946 169.848 24.6245C229.136 50.7728 311.452 -3.58738 349.419 72.8811C367.654 109.61 350.384 99.0185 350.384 128.858C350.384 160.692 390.949 189.757 352.315 217.65C335.558 229.748 325.161 263.123 323.653 263.693L48.8567 260.58V260.579Z" fill="#7EC4E4"/>
<path fill-rule="evenodd" clip-rule="evenodd" d="M63.8628 320.74C63.8628 324.429 66.8304 327.446 70.4575 327.446H309.018C312.645 327.446 315.613 324.429 315.613 320.74L290.797 231.035H88.6788L63.8628 320.74Z" fill="#69B7D9"/>
<path fill-rule="evenodd" clip-rule="evenodd" d="M57.984 244.273C28.2484 266.514 33.8214 263.123 37.5838 291.963C42.0962 326.55 -11.6968 373.999 58.8234 373.999C117.647 373.999 153.706 337.562 217.155 357.592C233.724 362.823 332.667 377.533 346.523 366.279C374.785 343.324 357.896 304.729 343.627 285.207C275.252 191.67 153.888 245.648 57.984 244.273Z" fill="#7EC4E4"/>
<path fill-rule="evenodd" clip-rule="evenodd" d="M53.5068 326.336C53.5068 330.254 56.6073 333.46 60.3975 333.46H309.687C313.477 333.46 316.578 330.254 316.578 326.336L290.646 231.037H79.4389L53.5068 326.336Z" fill="#66B5D8"/>
<path fill-rule="evenodd" clip-rule="evenodd" d="M286.313 238.765C299.118 244.876 314.776 258.214 317.537 237.365C320.348 216.138 328.143 228.057 343.408 221.626C352.09 217.969 348.955 214.929 348.351 207.099C347.933 201.692 371.384 200.214 363.197 180.794C358.876 170.541 348.243 173.118 341.572 179.533C334.53 186.306 334.958 186.929 325.606 183.494C309.577 177.606 315.137 195.509 303.368 200.468C297.523 202.93 288.316 195.013 284.387 204.661C283.225 207.515 285.334 216.707 282.087 218.075C272.576 222.081 260.905 217.046 268.552 235.185C274.58 249.488 292.196 242.641 286.313 238.765Z" fill="#901E78"/>
<path fill-rule="evenodd" clip-rule="evenodd" d="M345.076 191.206C341.465 195.453 337.66 199.434 333.684 203.175L339.461 207.559L332.607 204.178C328.88 207.616 325.007 210.847 320.999 213.893L328.289 219.425L319.444 215.062C314.06 219.056 308.445 222.728 302.631 226.124L311.985 233.222L300.306 227.461C290.301 233.13 279.733 238.017 268.776 242.362L266.333 238.206C277.248 234.104 287.8 229.402 297.943 224.029L298.226 206.528L300.599 222.601C306.385 219.448 312.034 216.069 317.539 212.453L317.756 198.991L319.547 211.119C323.67 208.35 327.71 205.445 331.663 202.397L331.819 192.733L333.084 201.294C337.176 198.088 341.175 194.728 345.076 191.206Z" fill="#7D2469"/>
<path fill-rule="evenodd" clip-rule="evenodd" d="M94.0704 243.771C79.7238 251.683 62.5787 268.117 57.9829 244.273C53.3038 219.993 45.1268 234.262 27.0939 227.883C16.8382 224.256 20.2455 220.54 20.4134 211.472C20.5282 205.211 -6.60329 205.096 1.51694 182.157C5.80352 170.046 18.2345 172.296 26.3596 179.239C34.9363 186.568 34.4858 187.315 45.0326 182.722C63.1114 174.85 57.9153 195.864 71.8174 200.782C78.7225 203.224 88.7982 193.474 93.981 204.329C95.5138 207.54 93.7056 218.279 97.5405 219.635C108.776 223.61 121.888 217.013 114.303 238.441C108.323 255.335 87.5518 248.637 94.0716 243.77L94.0704 243.771Z" fill="#EF9BA0"/>
<path fill-rule="evenodd" clip-rule="evenodd" d="M23.1096 192.93C27.5617 197.582 32.2154 201.913 37.0528 205.956L30.6899 211.4L38.3621 207.039C42.8902 210.749 47.5742 214.211 52.4006 217.452L44.3734 224.321L54.2728 218.693C60.748 222.932 67.4707 226.784 74.4024 230.304L64.0997 239.119L77.172 231.687C89.0896 237.543 101.603 242.46 114.527 246.728L117.062 241.772C104.202 237.781 91.7203 233.077 79.6637 227.57L78.1515 207.417L76.5053 226.105C69.6231 222.861 62.8822 219.35 56.2911 215.555L55.1279 200.052L53.8863 214.153C48.9463 211.241 44.0932 208.165 39.3283 204.921L38.4937 193.792L37.6168 203.746C32.6816 200.328 27.8443 196.725 23.1084 192.928L23.1096 192.93Z" fill="#D67E81"/>
<path fill-rule="evenodd" clip-rule="evenodd" d="M63.8628 317.136C63.8628 320.676 66.7109 323.573 70.1918 323.573H299.165C302.646 323.573 305.494 320.676 305.494 317.136L281.675 231.037H87.6812L63.8628 317.136Z" fill="#1F6A97"/>
<path fill-rule="evenodd" clip-rule="evenodd" d="M336.344 131.424C352.536 187.285 325.93 209.468 270.042 208.611C261.945 149.224 284.046 123.495 336.344 131.424Z" fill="#F8C300"/>
<path fill-rule="evenodd" clip-rule="evenodd" d="M318.211 151.733C304.731 177.57 285.121 202.594 248.973 193.984L253.528 210.146C276.083 212.867 308.083 191.811 320.352 177.419C313.856 183.472 306.643 187.251 298.777 188.96C306.968 178.623 313.389 165.504 318.212 151.733H318.211Z" fill="#EE9A69"/>
<path fill-rule="evenodd" clip-rule="evenodd" d="M71.7983 191.585C19.0464 200.881 -11.1433 131.116 23.3994 84.4666C34.0283 128.625 105.079 121.024 71.7983 191.585Z" fill="#469FC6"/>
<path fill-rule="evenodd" clip-rule="evenodd" d="M22.6313 133.037C44.4278 169.899 66.4997 192.181 89.1779 182.386L86.1909 189.058C56.8479 205.967 32.1527 159.664 22.6313 133.037Z" fill="#2F8BB0"/>
<path fill-rule="evenodd" clip-rule="evenodd" d="M96.8544 42.1372C103.053 44.9397 108.958 48.0706 114.566 51.5335C112.203 45.0532 111.69 39.1198 116.188 34.668C122.577 29.6112 128.721 33.7201 128.381 40.6206C126.798 46.4924 117.765 43.9568 115.541 52.142C121.23 55.7173 126.608 59.6402 131.671 63.917C129.508 57.398 129.176 51.4755 133.783 47.1626C140.311 42.2857 146.337 46.5649 145.805 53.4521C144.051 59.3034 135.021 56.4671 132.617 64.7224C137.427 68.8591 141.945 73.3206 146.169 78.1117C145.128 72.5261 145.733 67.6033 149.969 64.1343C156.805 59.6994 162.535 64.3674 161.549 71.2051C159.524 76.6301 151.488 73.8325 148.15 80.4082C152.093 85.081 155.767 90.0569 159.169 95.3382C158.684 88.1455 159.82 82.0238 165.614 78.9822C173.204 76.0156 177.874 81.7412 175.531 88.2409C172.228 93.5053 164.056 88.1008 159.588 95.9939C162.156 100.028 164.565 104.238 166.814 108.629L159.757 113.652C157.577 108.929 155.235 104.378 152.731 100C146.195 102.612 147.768 110.67 142.224 111.949C135.314 112.037 131.43 105.751 136.716 99.5522C140.787 95.7295 145.868 95.8478 151.399 97.7109C148.744 93.2325 145.915 88.94 142.912 84.8311C135.457 87.0902 137.372 95.727 131.614 97.0564C124.704 97.1446 120.819 90.8586 126.107 84.6584C130.385 80.6413 135.781 80.9757 141.641 83.1153C137.567 77.6975 133.183 72.607 128.491 67.8472C120.407 69.848 122.55 78.8603 116.659 80.2199C109.749 80.308 105.864 74.0221 111.151 67.8231C115.523 63.719 121.059 64.1573 127.066 66.4212C122.701 62.1119 118.075 58.0802 113.188 54.3251C104.612 56.1157 106.929 65.4094 100.939 66.7919C94.0293 66.8801 90.1437 60.5941 95.4315 54.3939C99.8425 50.2512 105.442 50.7354 111.511 53.0549C107.044 49.7211 102.364 46.612 97.4716 43.7298C89.0615 41.0312 86.5407 50.3273 80.6236 48.6018C74.5518 45.3019 74.2354 37.9196 81.8797 35.0942C87.8899 33.6018 92.6173 36.944 96.8532 42.1348L96.8544 42.1372Z" fill="white"/>
<path fill-rule="evenodd" clip-rule="evenodd" d="M226.077 52.3389C225.639 57.054 224.921 61.6507 223.915 66.1267C227.643 63.0996 231.433 61.414 235.387 63.3616C240.167 66.4153 238.858 71.3911 234.238 72.7362C230.013 73.0296 229.63 66.5106 223.736 66.9067C222.675 71.4624 221.314 75.8925 219.65 80.1946C223.45 77.2895 227.274 75.7258 231.159 77.7761C235.853 80.9625 234.406 85.8997 229.751 87.1156C225.5 87.2919 225.316 80.7053 219.335 80.9999C217.704 85.104 215.793 89.091 213.6 92.9584C217.04 91.0036 220.419 90.2839 223.665 92.2823C228.138 95.7718 226.366 100.603 221.641 101.508C217.61 101.408 217.625 95.4856 212.538 94.7841C210.358 98.4402 207.918 101.988 205.214 105.425C209.839 103.473 214.128 102.828 217.445 105.949C221.123 110.268 218.414 114.643 213.605 114.578C209.388 113.601 211.09 106.996 204.878 105.85C202.807 108.456 200.582 110.999 198.202 113.475L193.293 109.974C195.905 107.466 198.369 104.89 200.682 102.248C197.478 98.5428 192.53 101.408 190.429 98.0514C188.801 93.5259 192.056 89.5414 197.339 91.6109C200.78 93.4209 201.857 96.7908 201.887 100.851C204.232 98.0876 206.416 95.2502 208.439 92.3414C205.257 87.9488 200.007 91.1714 197.823 87.6867C196.195 83.16 199.45 79.1767 204.733 81.2463C208.351 83.148 209.357 86.7739 209.278 91.1159C211.92 87.205 214.274 83.1637 216.342 78.9956C213.187 74.132 207.742 77.5889 205.509 74.0233C203.88 69.4966 207.137 65.5133 212.418 67.5828C216.113 69.5256 217.083 73.2687 216.958 77.735C218.802 73.8845 220.406 69.9253 221.767 65.8562C218.64 60.6207 213.048 64.2563 210.776 60.6304C209.148 56.1037 212.403 52.1204 217.686 54.1899C221.416 56.1508 222.369 59.9446 222.221 64.4652C223.401 60.7681 224.384 56.9839 225.17 53.1093C225.034 46.9634 218.343 47.4174 218.134 43.1322C218.926 38.3881 223.714 36.5021 227.311 40.8887C229.659 44.5038 228.533 48.3737 226.079 52.3401L226.077 52.3389Z" fill="#901E78"/>
<path fill-rule="evenodd" clip-rule="evenodd" d="M244.476 163.728C261.581 168.133 283.898 180.684 282.285 154.556C280.644 127.952 293.017 140.651 310.127 129.147C319.858 122.604 315.302 119.64 312.69 110.219C310.887 103.713 339.181 96.3043 324.537 74.5365C316.806 63.0441 304.433 68.7336 297.818 78.1649C290.834 88.1214 291.506 88.7807 279.261 86.8186C258.271 83.4559 269.344 103.999 256.153 112.868C249.601 117.273 236.46 109.801 233.968 122.526C233.232 126.29 238.006 137.016 234.367 139.462C223.707 146.629 208.244 143.266 221.923 163.599C232.707 179.63 252.591 167.057 244.476 163.728Z" fill="#007CC3"/>
<path fill-rule="evenodd" clip-rule="evenodd" d="M304.892 91.5857C301.496 97.6374 297.801 103.41 293.837 108.931L301.942 112.905L292.761 110.413C289.031 115.503 285.072 120.377 280.905 125.056L291.132 130.072L279.284 126.855C273.662 133.021 267.68 138.847 261.39 144.385L274.515 150.822L258.87 146.575C248.002 155.89 236.261 164.386 223.916 172.314L219.937 167.821C232.291 160.2 244.056 151.936 255.163 142.948L251.324 121.501L258.066 140.569C264.379 135.334 270.473 129.857 276.333 124.124L273.38 107.628L278.467 122.016C282.841 117.648 287.081 113.134 291.183 108.467L289.062 96.6243L292.654 106.78C296.888 101.885 300.969 96.8248 304.893 91.5893L304.892 91.5857Z" fill="#006CA6"/>
<path fill-rule="evenodd" clip-rule="evenodd" d="M89.7814 104.13H279.576C282.455 104.13 284.812 106.525 284.812 109.454V226.592C284.812 229.52 282.455 231.917 279.576 231.917H89.7814C86.9019 231.917 84.5454 229.521 84.5454 226.592V109.454C84.5454 106.526 86.9019 104.13 89.7814 104.13Z" fill="#1A5F8A"/>
<path fill-rule="evenodd" clip-rule="evenodd" d="M94.7891 113.32H274.567C274.714 113.32 274.834 113.437 274.834 113.579V222.467C274.834 222.61 274.713 222.726 274.567 222.726H94.7891C94.6418 222.726 94.521 222.61 94.521 222.467V113.579C94.521 113.437 94.6418 113.32 94.7891 113.32Z" fill="#75C5F0"/>
<path fill-rule="evenodd" clip-rule="evenodd" d="M183.123 93.032C153.545 77.4295 134.096 109.277 148.127 134.289C151.927 143.454 159.224 149.723 159.525 161.781L207.929 161.657C207.343 148.754 215.928 140.797 217.393 127.292C218.524 105.519 203.48 86.9586 183.121 93.0308L183.123 93.032Z" fill="#0A0B0C"/>
<path fill-rule="evenodd" clip-rule="evenodd" d="M171.284 157.707C154.98 162.59 140.17 169.008 135.818 186.163L132.471 222.727H156.119L158.456 215.212L160.672 222.727H215.422L215.071 211.076L220.576 222.727H236.887L230.668 183.992C229.619 171.821 209.045 160.808 192.431 155.232L171.284 157.709V157.707Z" fill="white"/>
<path fill-rule="evenodd" clip-rule="evenodd" d="M167.655 158.833L155.368 174.581L170.813 190.988L161.401 196.779L181.881 222.727H196.791L208.464 196.055L200.983 192.677L212.567 173.375L198.352 157.39L192.432 155.231L200.258 165.413L190.605 215.115L168.883 162.036L171.283 157.707L167.655 158.833Z" fill="#DEDEDD"/>
<path fill-rule="evenodd" clip-rule="evenodd" d="M173.684 153.38L168.883 162.036L190.605 215.115L200.258 165.413L192.432 155.231L173.684 153.38Z" fill="#EE9A85"/>
<path fill-rule="evenodd" clip-rule="evenodd" d="M186.502 109.921C181.111 118.928 172.503 123.753 160.677 124.397C165.303 165.374 202.068 171.244 201.224 128.257C208.786 118.023 200.178 112.834 196.398 120.054C191.946 118.298 188.783 114.73 186.502 109.921Z" fill="#F7C5B4"/>
<path fill-rule="evenodd" clip-rule="evenodd" d="M172.879 171.798C181.939 172.99 190.746 172.418 199.323 170.232L190.605 215.115L172.879 171.798Z" fill="#901E78"/>
<path fill-rule="evenodd" clip-rule="evenodd" d="M111.138 291.48H92.5908L94.6683 283.262H112.803L111.138 291.48ZM105.87 238.958H113.357L112.73 242.184H105.054L105.87 238.958ZM116.894 238.958H125.317L124.724 242.184H116.299L116.895 238.958H116.894ZM128.962 238.958H136.997V242.184H128.396L128.961 238.958H128.962ZM140.316 238.958H148.854V242.184H140.316V238.958ZM152.171 238.958H160.084V242.184H152.171V238.958ZM163.402 238.958H172.018V242.184H163.402V238.958ZM175.334 238.958H183.949V242.184H175.334V238.958ZM187.268 238.958H195.181V242.184H187.268V238.958ZM198.498 238.958H207.113V242.184H198.498V238.958ZM210.431 238.958H218.345V242.184H210.431V238.958ZM221.662 238.958H230.277V242.184H221.662V238.958ZM233.595 238.958H242.097L242.662 242.184H233.595V238.958ZM245.742 238.958H253.327L253.894 242.184H246.336L245.743 238.958H245.742ZM256.974 238.958H263.488L264.303 242.184H257.566L256.974 238.958ZM264.826 244.254L266.536 251.02H254.678L253.66 244.254H264.826ZM251.217 251.02H242.043L241.024 244.254H250.298L251.217 251.02ZM238.582 251.02H231.513L230.495 244.254H237.662L238.581 251.02H238.582ZM228.054 251.02H219.64L218.623 244.254H227.134L228.054 251.02ZM216.181 251.02H207.634L206.815 244.254H215.261L216.181 251.02ZM203.942 251.02H195.474V244.254H203.193L203.942 251.02ZM192.589 251.02H184.243V244.254H192.589V251.02ZM181.358 251.02H172.484V244.254H181.358V251.02ZM169.6 251.02H160.891L161.64 244.254H169.6V251.02ZM157.2 251.02H149.541L150.46 244.254H158.02L157.201 251.02H157.2ZM146.079 251.02H138.174L139.263 244.254H147.098L146.081 251.02H146.079ZM134.266 251.02H126.739L127.986 244.254H135.391L134.267 251.02H134.266ZM123.082 251.02H114.67L115.918 244.254H124.398L123.082 251.02ZM111.013 251.02H102.82L104.53 244.254H112.328L111.013 251.02ZM267.06 253.089L268.949 260.562H261.817L260.934 253.089H267.06ZM258.475 260.562H249.182L248.299 253.089H257.645L258.475 260.562ZM245.841 260.562H237.296L236.545 253.089H245.011L245.841 260.562ZM234.226 260.562H226.392L225.945 253.089H233.573L234.226 260.562ZM222.521 260.562H213.901V253.089H222.031L222.521 260.562ZM210.662 260.562H201.969V253.089H210.662V260.562ZM198.729 260.562H190.036V253.089H198.729V260.562ZM186.797 260.562H177.821V253.089H186.797V260.562ZM174.582 260.562H166.509L166.998 253.089H174.583V260.562H174.582ZM162.636 260.562H153.738L154.508 253.089H163.082L162.635 260.562H162.636ZM149.955 260.562H142.205L143.166 253.089H150.655L149.955 260.562ZM138.696 260.562H129.837L131.002 253.089H139.639L138.697 260.562H138.696ZM126.179 260.562H119.082L120.46 253.089H127.439L126.179 260.562ZM115.331 260.562H100.408L102.297 253.089H116.784L115.331 260.562ZM269.472 262.632L271.504 270.666H254.733L253.448 262.632H269.474H269.472ZM251.157 270.667H242.801L241.516 262.633H249.874L251.157 270.667ZM239.224 270.667H230.166L228.881 262.633H237.941L239.224 270.667ZM226.588 270.667H217.523V262.633H225.306L226.588 270.667ZM214.061 270.667H204.889V262.633H214.061V270.667ZM201.426 270.667H192.955V262.633H201.426V270.667ZM189.492 270.667H181.022V262.633H189.492V270.667ZM177.56 270.667H169.179V262.633H177.56V270.667ZM165.716 270.667H156.544V262.633H165.716V270.667ZM153.082 270.667H143.475L144.902 262.633H153.082V270.667ZM140.548 270.667H130.84L132.267 262.633H141.833L140.548 270.667ZM127.913 270.667H119.47L120.952 262.633H129.199L127.914 270.667H127.913ZM115.618 270.667H97.8533L99.8849 262.633H117.18L115.618 270.667ZM272.027 272.737L274.165 281.192H251.083L250.03 272.737H272.027ZM247.164 281.192H238.448L237.396 272.737H246.449L247.165 281.192H247.164ZM234.529 281.192H225.813L224.76 272.737H233.813L234.529 281.192ZM221.894 281.192H212.924V272.737H221.177L221.894 281.192ZM209.103 281.192H200.29V272.737H209.103V281.192ZM196.468 281.192H187.655V272.737H196.468V281.192ZM183.833 281.192H175.02V272.737H183.833V281.192ZM171.199 281.192H162.386V272.737H171.199V281.192ZM158.564 281.192H149.372L150.088 272.737H158.564V281.192ZM145.453 281.192H136.737L137.453 272.737H146.506L145.454 281.192H145.453ZM132.818 281.192H123.811L125.398 272.737H133.87L132.818 281.192ZM120.384 281.192H95.1913L97.3291 272.737H122.26L120.384 281.192ZM275.782 287.588L276.766 291.48H268.36L267.676 287.588H275.782ZM265.525 291.48H256.172L255.614 287.588H264.805L265.525 291.48ZM255.446 286.425L254.992 283.263H264.003L264.589 286.425H255.446ZM253.932 291.48H244.289L244.045 287.588H253.211L253.931 291.48H253.932ZM241.797 291.48H227.442L226.928 283.262H241.245L241.796 291.48H241.797ZM224.951 291.48H210.596L210.081 283.262H224.4L224.951 291.48ZM208.105 291.48H146.908L147.459 283.262H207.553L208.105 291.48ZM144.416 291.48H135.123L136.319 283.262H144.931L144.416 291.48ZM132.902 291.48H114.221L116.042 283.262H133.257L132.903 291.48H132.902Z" fill="#75C5F0"/>
<path fill-rule="evenodd" clip-rule="evenodd" d="M211.349 307.412L213.271 315.67H186.948V307.412H211.349ZM185.908 315.67H157.126L159.048 307.412H185.908V315.67Z" fill="#75C5F0"/>
<path fill-rule="evenodd" clip-rule="evenodd" d="M161.359 297.481H209.038L211.154 306.575H159.243L161.359 297.481Z" fill="#75C5F0"/>
<path fill-rule="evenodd" clip-rule="evenodd" d="M195.248 152.421C206.992 157.078 215.433 169.932 215.433 185.055C215.433 186.757 215.325 188.43 215.118 190.065C214.764 189.966 214.403 189.912 214.035 189.912C213.562 189.912 213.1 189.998 212.652 190.161C212.885 188.499 213.008 186.794 213.008 185.055C213.008 170.618 204.637 158.432 193.189 154.602C193.91 153.967 194.598 153.242 195.246 152.421H195.248ZM173.696 153.381H173.685L171.079 158.077C163.674 163.363 158.607 172.59 158.08 183.22C157.698 183.129 157.299 183.081 156.889 183.081C156.478 183.081 156.047 183.133 155.649 183.23C156.256 169.817 163.508 158.431 173.677 153.366L173.694 153.38L173.696 153.381Z" fill="#3F4446"/>
<path fill-rule="evenodd" clip-rule="evenodd" d="M156.89 193.387C159.729 193.387 162.045 191.071 162.045 188.234C162.045 185.396 159.729 183.081 156.89 183.081C154.05 183.081 151.735 185.396 151.735 188.234C151.735 191.071 154.05 193.387 156.89 193.387Z" fill="#5E686E"/>
<path fill-rule="evenodd" clip-rule="evenodd" d="M156.89 190.615C158.201 190.615 159.271 189.545 159.271 188.234C159.271 186.923 158.201 185.853 156.89 185.853C155.578 185.853 154.508 186.923 154.508 188.234C154.508 189.545 155.578 190.615 156.89 190.615Z" fill="#3F4446"/>
<path fill-rule="evenodd" clip-rule="evenodd" d="M214.035 189.914C218.166 189.914 221.517 196.422 221.517 204.449C221.517 208.208 220.781 211.633 219.576 214.213C219.31 213.835 218.913 213.558 218.45 213.445C219.672 211.181 220.433 207.988 220.433 204.449C220.433 197.584 217.568 192.017 214.035 192.017C210.503 192.017 207.638 197.584 207.638 204.448C207.638 207.985 208.399 211.178 209.62 213.442C209.157 213.552 208.758 213.827 208.49 214.202C207.287 211.623 206.554 208.201 206.554 204.448C206.554 196.422 209.905 189.914 214.035 189.914Z" fill="#5E686E"/>
<path fill-rule="evenodd" clip-rule="evenodd" d="M210.069 217.265C211.137 217.265 212.006 216.394 212.006 215.328C212.006 214.262 211.135 213.39 210.069 213.39C209.002 213.39 208.13 214.26 208.13 215.328C208.13 216.395 209.001 217.265 210.069 217.265Z" fill="#3F4446"/>
<path fill-rule="evenodd" clip-rule="evenodd" d="M217.99 217.265C219.058 217.265 219.928 216.394 219.928 215.328C219.928 214.262 219.058 213.39 217.99 213.39C216.922 213.39 216.051 214.26 216.051 215.328C216.051 216.395 216.922 217.265 217.99 217.265Z" fill="#3F4446"/>
<path fill-rule="evenodd" clip-rule="evenodd" d="M51.8278 82.8979H118.923C122.905 82.8979 126.164 86.1556 126.164 90.1366V125.617L145.09 136.473L115.288 135.497H51.8278C47.8456 135.497 44.5869 132.239 44.5869 128.258V90.1366C44.5869 86.1556 47.8456 82.8979 51.8278 82.8979Z" fill="white"/>
<path fill-rule="evenodd" clip-rule="evenodd" d="M59.5846 118.409C64.8496 118.409 69.1434 114.117 69.1434 108.855C69.1434 103.592 64.8496 99.2988 59.5846 99.2988C54.3197 99.2988 50.0259 103.591 50.0259 108.855C50.0259 114.118 54.3197 118.409 59.5846 118.409Z" fill="#DEDEDD"/>
<path fill-rule="evenodd" clip-rule="evenodd" d="M61.2548 106.842C64.1295 107.497 66.2685 109.964 66.2685 112.907H53.189C53.189 109.962 55.3317 107.492 58.2111 106.84C57.2883 106.312 56.6663 105.317 56.6663 104.177C56.6663 102.483 58.0408 101.109 59.7354 101.109C61.43 101.109 62.8045 102.483 62.8045 104.177C62.8045 105.318 62.1812 106.313 61.2561 106.842H61.2548Z" fill="#C2C1C1"/>
<path fill-rule="evenodd" clip-rule="evenodd" d="M74.4444 99.3301H117.17C118.134 99.3301 118.923 100.119 118.923 101.082C118.923 102.046 118.134 102.834 117.17 102.834H74.4444C73.4806 102.834 72.6919 102.046 72.6919 101.082C72.6919 100.119 73.4806 99.3301 74.4444 99.3301Z" fill="#DEDEDD"/>
<path fill-rule="evenodd" clip-rule="evenodd" d="M74.4444 105.489H117.17C118.134 105.489 118.923 106.278 118.923 107.241C118.923 108.205 118.134 108.993 117.17 108.993H74.4444C73.4806 108.993 72.6919 108.205 72.6919 107.241C72.6919 106.278 73.4806 105.489 74.4444 105.489Z" fill="#DEDEDD"/>
<path d="M74.4444 111.648H117.17C118.138 111.648 118.923 112.433 118.923 113.4C118.923 114.368 118.138 115.152 117.17 115.152H74.4444C73.477 115.152 72.6919 114.368 72.6919 113.4C72.6919 112.433 73.477 111.648 74.4444 111.648Z" fill="#DEDEDD"/>
<path fill-rule="evenodd" clip-rule="evenodd" d="M87.6136 234.763C93.788 228.472 123.841 203.222 123.841 198.031V147.08C123.841 144.517 121.319 142.421 118.238 142.421H56.9444C53.862 142.421 51.3413 144.517 51.3413 147.08V198.031C51.3413 203.222 81.4319 228.464 87.6136 234.763Z" fill="#1A5F8A"/>
<path fill-rule="evenodd" clip-rule="evenodd" d="M87.6111 230.106C93.1623 224.449 120.184 201.746 120.184 197.08V151.268C120.184 148.964 117.917 147.08 115.146 147.08H60.0364C57.2656 147.08 54.9985 148.964 54.9985 151.268V197.08C54.9985 201.746 82.0527 224.443 87.6111 230.106Z" fill="white"/>
<path fill-rule="evenodd" clip-rule="evenodd" d="M62.5933 185.54V172.931H81.3061V154.223H93.9195V172.931H112.634V185.54H93.9195V204.247H81.3061V185.54H62.5933Z" fill="#1A5F8A"/>
<path fill-rule="evenodd" clip-rule="evenodd" d="M265.17 54.0668C267.696 54.0668 269.756 52.0069 269.756 49.4821C269.756 46.9574 267.696 44.8987 265.17 44.8987C262.645 44.8987 260.585 46.9574 260.585 49.4821C260.585 52.0069 262.646 54.0668 265.17 54.0668Z" fill="white"/>
<path fill-rule="evenodd" clip-rule="evenodd" d="M169.113 45.8633C172.435 45.8633 175.147 43.1538 175.147 39.831C175.147 36.5081 172.437 33.7986 169.113 33.7986C165.789 33.7986 163.08 36.5081 163.08 39.831C163.08 43.1538 165.79 45.8633 169.113 45.8633Z" fill="white"/>
<path fill-rule="evenodd" clip-rule="evenodd" d="M249.966 93.8761C252.492 93.8761 254.552 91.8174 254.552 89.2927C254.552 86.7679 252.493 84.708 249.966 84.708C247.439 84.708 245.38 86.7679 245.38 89.2927C245.38 91.8174 247.439 93.8761 249.966 93.8761Z" fill="white"/>
<path fill-rule="evenodd" clip-rule="evenodd" d="M48.1974 61.5457C51.5201 61.5457 54.2317 58.8362 54.2317 55.5146C54.2317 52.1929 51.5213 49.4822 48.1974 49.4822C44.8735 49.4822 42.1631 52.1917 42.1631 55.5146C42.1631 58.8374 44.8735 61.5457 48.1974 61.5457Z" fill="white"/>
<path fill-rule="evenodd" clip-rule="evenodd" d="M333.955 115.591C335.949 115.591 337.575 113.965 337.575 111.972C337.575 109.978 335.949 108.353 333.955 108.353C331.961 108.353 330.335 109.978 330.335 111.972C330.335 113.965 331.962 115.591 333.955 115.591Z" fill="white"/>
</g>
<defs>
<clipPath id="clip0_65_2299">
<rect width="369" height="374" fill="white"/>
</clipPath>
</defs>
</svg>
