<?xml version="1.0" encoding="UTF-8"?>
<svg id="Layer_2" data-name="Layer 2" xmlns="http://www.w3.org/2000/svg" xmlns:xlink="http://www.w3.org/1999/xlink" viewBox="0 0 530 238">
  <defs>
    <style>
      .cls-1 {
        letter-spacing: 0em;
      }

      .cls-2, .cls-3 {
        fill: #fff;
      }

      .cls-4 {
        font-family: Figtree-ExtraBold, Figtree;
        font-size: 32.99px;
        font-variation-settings: 'wght' 800;
        letter-spacing: .1em;
      }

      .cls-4, .cls-5 {
        fill: #263160;
        font-weight: 700;
      }

      .cls-6 {
        fill: #a6daf4;
      }

      .cls-7 {
        fill: #8ecfe8;
      }

      .cls-8 {
        fill: #f2f2f2;
      }

      .cls-9 {
        filter: url(#drop-shadow-1);
      }

      .cls-10 {
        letter-spacing: 0em;
      }

      .cls-3 {
        opacity: .35;
      }

      .cls-5 {
        font-family: Figtree-Bold, Figtree;
        font-size: 15px;
        font-variation-settings: 'wght' 700;
      }

      .cls-11 {
        fill: #fffffd;
      }

      .cls-12 {
        fill: #e6f8ff;
      }
    </style>
    <filter id="drop-shadow-1" x="184" y="107" width="64" height="63" filterUnits="userSpaceOnUse">
      <feOffset dx="2" dy="2"/>
      <feGaussianBlur result="blur" stdDeviation="3"/>
      <feFlood flood-color="#000" flood-opacity=".2"/>
      <feComposite in2="blur" operator="in"/>
      <feComposite in="SourceGraphic"/>
    </filter>
  </defs>
  <g id="Layer_1-2" data-name="Layer 1">
    <g>
      <path class="cls-8" d="M331.35,137.61h-122.41c-.63,0-1.15-.51-1.15-1.15V62.95c0-3.87,3.14-7.01,7-7.01h110.7c3.86,0,7,3.14,7,7.01v73.51c0,.63-.51,1.15-1.15,1.15Z"/>
      <g>
        <g>
          <path class="cls-6" d="M301.9,46.9c.28-1.1.97-2.03,1.95-2.61.79-.47,1.7-.67,2.6-.58.21.02.41.06.62.11,2.27.58,3.65,2.89,3.08,5.16-.58,2.27-2.89,3.65-5.16,3.08-2.27-.58-3.65-2.89-3.08-5.16Z"/>
          <path class="cls-6" d="M281.8,45.17v5.52c0,.16.1.3.25.36l4.34,1.5c.5,2.15,1.35,4.17,2.48,6l-2.02,4.13c-.07.14-.04.32.07.43l3.9,3.9c.11.11.29.14.43.07l4.14-2.01c1.82,1.13,3.84,1.98,5.99,2.49l1.5,4.35c.05.15.2.25.36.25h5.52c.16,0,.3-.1.36-.25l1.5-4.34c2.15-.5,4.17-1.35,6-2.48l4.13,2.02c.14.07.32.04.43-.07l3.9-3.9c.11-.11.14-.29.07-.43l-2.01-4.14c1.13-1.82,1.98-3.84,2.49-5.99l4.35-1.5c.15-.05.25-.2.25-.36v-5.52c0-.16-.1-.3-.25-.36l-4.34-1.5c-.5-2.15-1.35-4.17-2.48-6l2.02-4.13c.07-.14.04-.32-.07-.43l-3.9-3.9c-.11-.11-.29-.14-.43-.07l-4.14,2.01c-1.82-1.13-3.84-1.98-5.99-2.49l-1.5-4.35c-.05-.15-.2-.25-.36-.25h-5.52c-.16,0-.3.1-.36.25l-1.5,4.34c-2.15.5-4.17,1.35-6,2.48l-4.13-2.02c-.14-.07-.32-.04-.43.07l-3.9,3.9c-.11.11-.14.29-.07.43l2.01,4.14c-1.13,1.82-1.98,3.84-2.49,5.99l-4.35,1.5c-.15.05-.25.2-.25.36ZM296.31,38.2c2.58-2.57,6-3.99,9.64-3.99,7.52,0,13.63,6.13,13.62,13.64,0,.46-.02.93-.07,1.38-.2,1.99-.84,3.9-1.87,5.62-.09.15-.29.2-.44.11-.11-.07-.17-.19-.16-.31,0-.05.02-.09.04-.13.98-1.63,1.58-3.46,1.78-5.35.04-.44.07-.88.07-1.32,0-7.16-5.81-12.99-12.98-13-3.47,0-6.73,1.35-9.19,3.8-2.14,2.13-3.44,4.88-3.74,7.85-.05.44-.07.89-.07,1.33,0,2.56.74,4.95,2.02,6.96,2.3,3.62,6.35,6.03,10.96,6.03.93,0,1.85-.1,2.75-.29.17-.04.35.07.38.25,0,.03,0,.07,0,.1-.01.14-.11.25-.25.28-.05.01-.11.02-.16.03-.03,0-.06.01-.08.02,0,0-.02,0-.03,0-.71.14-1.44.22-2.17.24-.15,0-.3,0-.44,0-.47,0-.94-.02-1.4-.07-3.11-.32-6-1.68-8.24-3.93-2.57-2.58-3.99-6-3.99-9.64,0-.47.02-.94.07-1.4.32-3.11,1.68-6,3.93-8.24ZM305.46,53.46c-.27-.03-.53-.07-.8-.14-2.96-.75-4.76-3.77-4.01-6.74.36-1.44,1.26-2.64,2.54-3.4,1.27-.76,2.76-.98,4.2-.61,2.96.75,4.76,3.77,4.01,6.74-.68,2.7-3.25,4.43-5.93,4.16Z"/>
        </g>
        <g>
          <path class="cls-6" d="M326.37,68.99v3.69c0,.11.07.2.17.24l2.91,1c.34,1.44.9,2.79,1.66,4.01l-1.35,2.77c-.05.1-.03.21.05.29l2.61,2.61c.08.08.19.1.29.05l2.77-1.35c1.22.76,2.57,1.33,4.01,1.67l1,2.91c.04.1.13.17.24.17h3.69c.11,0,.2-.07.24-.17l1-2.91c1.44-.34,2.79-.9,4.01-1.66l2.77,1.35c.1.05.21.03.29-.05l2.61-2.61c.08-.08.1-.19.05-.29l-1.35-2.77c.76-1.22,1.33-2.57,1.67-4.01l2.91-1c.1-.04.17-.13.17-.24v-3.69c0-.11-.07-.2-.17-.24l-2.91-1c-.34-1.44-.9-2.79-1.66-4.01l1.35-2.77c.05-.1.03-.21-.05-.29l-2.61-2.61c-.08-.08-.19-.1-.29-.05l-2.77,1.35c-1.22-.76-2.57-1.33-4.01-1.67l-1-2.91c-.04-.1-.13-.17-.24-.17h-3.69c-.11,0-.2.07-.24.17l-1,2.91c-1.44.34-2.79.9-4.01,1.66l-2.77-1.35c-.1-.05-.21-.03-.29.05l-2.61,2.61c-.08.08-.1.19-.05.29l1.35,2.77c-.76,1.22-1.33,2.57-1.67,4.01l-2.91,1c-.1.04-.17.13-.17.24ZM335.87,64.14c1.78-1.78,4.14-2.75,6.65-2.75,2.51,0,4.87.98,6.65,2.76,1.78,1.78,2.75,4.14,2.75,6.65,0,.32-.02.64-.05.95-.14,1.37-.58,2.69-1.29,3.87-.14.24-.45.31-.69.17-.17-.1-.26-.29-.24-.48,0-.07.03-.14.07-.21.63-1.06,1.03-2.24,1.15-3.46.03-.28.04-.57.04-.85,0-2.25-.87-4.36-2.46-5.95-1.59-1.59-3.7-2.46-5.94-2.47-2.25,0-4.36.87-5.95,2.46-1.38,1.38-2.23,3.16-2.42,5.08-.03.29-.04.57-.04.86,0,2.25.87,4.36,2.46,5.95.01.01.03.03.04.04,0,0,0,0,.01.01.55.54,1.16.9,1.81,1.26,1.21.67,2.56.95,3.98.95.03,0-.42,0-.42,0v.17c1,0,1.46-.05,2.04-.17.27-.06.66.12.72.39.01.05.08.11.07.16-.02.21-.14.39-.36.44-.03,0-.04.01-.07.02-.63.13-1.26.19-1.9.19-.32,0-.64-.02-.95-.05-4.74-.48-8.45-4.5-8.44-9.36,0-.32.02-.65.05-.97.22-2.15,1.16-4.14,2.71-5.68ZM344.51,74.1c-.7.42-1.51.6-2.31.51-.18-.02-.37-.05-.55-.1-.98-.25-1.8-.86-2.32-1.73-.52-.87-.66-1.88-.42-2.86.51-2.02,2.57-3.24,4.59-2.73,2.02.51,3.25,2.57,2.73,4.59-.25.98-.86,1.8-1.73,2.32Z"/>
          <path class="cls-6" d="M340.19,72.27c-.38-.64-.49-1.38-.31-2.1.34-1.35,1.63-2.22,2.97-2.08.13.01.27.04.4.07,1.48.38,2.39,1.89,2.01,3.38-.18.72-.63,1.32-1.27,1.7-.64.38-1.38.49-2.1.31-.72-.18-1.32-.63-1.7-1.27Z"/>
        </g>
      </g>
      <path class="cls-2" d="M208.94,141c-2.53,0-4.94-2.01-4.94-4.54V62.95c0-5.76,5.04-9.95,10.8-9.95h110.7c5.76,0,10.5,4.19,10.5,9.95v73.51c0,2.53-2.12,4.54-4.65,4.54h-122.41Z"/>
      <g>
        <path class="cls-6" d="M196.72,49.84h-21.81c-.58,0-1.05-.47-1.05-1.05v-11.9c0-.58.47-1.05,1.05-1.05h21.81c.58,0,1.05.47,1.05,1.05v11.9c0,.58-.47,1.05-1.05,1.05ZM174.91,36.29c-.33,0-.6.27-.6.6v11.9c0,.33.27.6.6.6h21.81c.33,0,.6-.27.6-.6v-11.9c0-.33-.27-.6-.6-.6h-21.81Z"/>
        <path class="cls-6" d="M197.55,40.77h-23.46c-.12,0-.23-.1-.23-.23v-1.82c0-.12.1-.23.23-.23h23.46c.12,0,.23.1.23.23v1.82c0,.12-.1.23-.23.23ZM174.31,40.32h23.01v-1.37h-23.01v1.37Z"/>
        <path class="cls-6" d="M191.25,46.84c-.92,0-1.67-.75-1.67-1.67s.75-1.67,1.67-1.67c.44,0,.85.17,1.16.47.04.04.07.1.07.16,0,.06-.03.12-.07.16-.24.23-.37.55-.37.88s.13.65.38.88c.04.04.07.1.07.16s-.03.12-.07.16c-.31.3-.72.46-1.16.46ZM191.25,43.95c-.67,0-1.22.55-1.22,1.22s.55,1.22,1.22,1.22c.24,0,.48-.07.67-.2-.22-.29-.34-.64-.34-1.02s.12-.73.35-1.02c-.2-.13-.43-.2-.67-.2Z"/>
        <path class="cls-6" d="M193.25,46.84c-.92,0-1.67-.75-1.67-1.67s.75-1.67,1.67-1.67,1.67.75,1.67,1.67-.75,1.67-1.67,1.67ZM193.25,43.95c-.67,0-1.22.55-1.22,1.22s.55,1.22,1.22,1.22,1.22-.55,1.22-1.22-.55-1.22-1.22-1.22Z"/>
        <path class="cls-6" d="M185.07,43.52h-9.75c-.12,0-.23-.1-.23-.23s.1-.23.23-.23h9.75c.12,0,.23.1.23.23s-.1.23-.23.23Z"/>
        <path class="cls-6" d="M185.07,46.25h-9.75c-.12,0-.23-.1-.23-.23s.1-.23.23-.23h9.75c.12,0,.23.1.23.23s-.1.23-.23.23Z"/>
        <path class="cls-6" d="M176.9,37.62h-1.23c-.12,0-.23-.1-.23-.23s.1-.23.23-.23h1.23c.12,0,.23.1.23.23s-.1.23-.23.23Z"/>
        <path class="cls-6" d="M179.44,37.62h-1.23c-.12,0-.23-.1-.23-.23s.1-.23.23-.23h1.23c.12,0,.23.1.23.23s-.1.23-.23.23Z"/>
        <path class="cls-6" d="M181.97,37.62h-1.23c-.12,0-.23-.1-.23-.23s.1-.23.23-.23h1.23c.12,0,.23.1.23.23s-.1.23-.23.23Z"/>
        <path class="cls-6" d="M174.08,46.35h-2.73c-.58,0-1.05-.47-1.05-1.05v-11.9c0-.58.47-1.05,1.05-1.05h21.81c.58,0,1.05.47,1.05,1.05v2.66c0,.12-.1.23-.23.23h-19.08c-.33,0-.6.27-.6.6v9.23c0,.12-.1.23-.23.23ZM171.36,32.8c-.33,0-.6.27-.6.6v11.9c0,.33.27.6.6.6h2.5v-9.01c0-.58.47-1.05,1.05-1.05h18.86v-2.43c0-.33-.27-.6-.6-.6h-21.81Z"/>
      </g>
      <g>
        <path class="cls-6" d="M84.33,90.18c-1.19,0-2.16-.97-2.16-2.16s.97-2.16,2.16-2.16,2.16.97,2.16,2.16-.97,2.16-2.16,2.16ZM84.33,86.65c-.75,0-1.37.61-1.37,1.37s.61,1.37,1.37,1.37,1.37-.61,1.37-1.37-.61-1.37-1.37-1.37Z"/>
        <path class="cls-6" d="M173.23,119.22c-1.19,0-2.16-.97-2.16-2.16s.97-2.16,2.16-2.16,2.16.97,2.16,2.16-.97,2.16-2.16,2.16ZM173.23,115.69c-.75,0-1.37.61-1.37,1.37s.61,1.37,1.37,1.37,1.37-.61,1.37-1.37-.61-1.37-1.37-1.37Z"/>
        <g>
          <path class="cls-6" d="M149.88,140.99c-.22,0-.4-.18-.4-.4v-5.46c0-.22.18-.4.4-.4s.4.18.4.4v5.46c0,.22-.18.4-.4.4Z"/>
          <path class="cls-6" d="M152.61,138.26h-5.46c-.22,0-.4-.18-.4-.4s.18-.4.4-.4h5.46c.22,0,.4.18.4.4s-.18.4-.4.4Z"/>
        </g>
        <g>
          <path class="cls-6" d="M137.65,61.45c-.22,0-.4-.18-.4-.4v-5.46c0-.22.18-.4.4-.4s.4.18.4.4v5.46c0,.22-.18.4-.4.4Z"/>
          <path class="cls-6" d="M140.38,58.72h-5.46c-.22,0-.4-.18-.4-.4s.18-.4.4-.4h5.46c.22,0,.4.18.4.4s-.18.4-.4.4Z"/>
        </g>
        <g>
          <path class="cls-6" d="M119.55,31.23c-.22,0-.4-.18-.4-.4v-5.46c0-.22.18-.4.4-.4s.4.18.4.4v5.46c0,.22-.18.4-.4.4Z"/>
          <path class="cls-6" d="M122.29,28.49h-5.46c-.22,0-.4-.18-.4-.4s.18-.4.4-.4h5.46c.22,0,.4.18.4.4s-.18.4-.4.4Z"/>
        </g>
        <path class="cls-6" d="M151.31,120.45h-54.67c-1.17,0-2.13-.95-2.13-2.13s.95-2.13,2.13-2.13h54.67c1.17,0,2.13.95,2.13,2.13s-.95,2.13-2.13,2.13ZM96.64,116.99c-.74,0-1.33.6-1.33,1.33s.6,1.33,1.33,1.33h54.67c.74,0,1.33-.6,1.33-1.33s-.6-1.33-1.33-1.33h-54.67Z"/>
        <path class="cls-6" d="M175.82,88.02h-20.21c-.48,0-.86-.39-.86-.86h0c0-.48.39-.86.86-.86h20.21c.48,0,.86.39.86.86h0c0,.48-.39.86-.86.86Z"/>
        <path class="cls-6" d="M130.99,104.77h-15.46c-.48,0-.86-.39-.86-.86h0c0-.48.39-.86.86-.86h15.46c.48,0,.86.39.86.86h0c0,.48-.39.86-.86.86Z"/>
        <g>
          <g>
            <path class="cls-6" d="M123.11,94.12c-.14,0-.27-.12-.27-.26v-5.74c0-.14.12-.26.26-.26h5.71c.08,0,.15.03.2.09.09.1.09.26,0,.36l-5.71,5.73s-.11.08-.18.08ZM123.36,88.38v4.86l4.84-4.86h-4.84Z"/>
            <path class="cls-6" d="M123.1,94.12h-17.14c-.14,0-.26-.12-.26-.26v-31.08c0-.14.12-.26.26-.26h22.85c.14,0,.26.12.26.26v25.34c0,.14-.12.26-.26.26h-5.45v5.48c0,.14-.12.26-.26.26ZM106.22,93.6h16.62v-5.48c0-.14.12-.26.26-.26h5.45v-24.82h-22.33v30.56ZM112.35,88.16c-.4,0-.79-.2-1.02-.57l-.82-1.37c-.16-.27-.21-.59-.14-.9.08-.31.27-.57.54-.73l9.56-5.79s.11-.04.16-.04l2.67.28c.08,0,.15.05.19.12.04.07.05.15.03.22l-.89,2.66c-.02.06-.06.11-.11.14l-8.74,5.3s-.02.01-.03.01l-.79.48c-.19.12-.4.17-.61.17ZM120.67,79.3l-9.49,5.74c-.15.09-.26.24-.3.41-.04.17-.02.35.07.5l.82,1.37c.19.31.6.41.91.22l.81-.5s.02-.01.03-.02l8.64-5.23.75-2.26-2.26-.24Z"/>
            <path class="cls-6" d="M122.39,82.23c-.09,0-.17-.05-.22-.13l-1.78-2.94c-.05-.08-.05-.19,0-.27.05-.08.15-.13.25-.12l2.67.28c.08,0,.15.05.19.12.04.07.05.15.03.22l-.89,2.66c-.03.1-.12.16-.22.18,0,0-.02,0-.03,0ZM121.1,79.35l1.22,2.01.61-1.82-1.82-.19Z"/>
            <path class="cls-6" d="M113.65,87.53c-.09,0-.18-.05-.23-.12l-.89-1.47c-.05-.08-.05-.18,0-.26.03-.05.07-.09.12-.11l8.72-5.28c.06-.04.13-.05.2-.03.07.02.12.06.16.12l.89,1.47c.07.12.03.28-.09.36l-8.74,5.3s-.09.04-.13.04ZM113.11,85.89l.62,1.02,8.3-5.03-.62-1.03-8.3,5.03Z"/>
            <path class="cls-6" d="M112.75,86.06c-.09,0-.18-.05-.23-.13l-.88-1.46c-.03-.05-.05-.11-.04-.18.01-.08.05-.15.12-.19l8.75-5.3c.12-.08.28-.04.36.09l.89,1.47c.04.06.05.13.03.2-.02.07-.06.12-.12.16l-8.75,5.3s-.09.04-.13.04ZM112.22,84.42l.62,1.03,8.3-5.03-.62-1.03-8.3,5.03Z"/>
            <path class="cls-6" d="M112.35,88.16c-.4,0-.79-.2-1.02-.57l-.82-1.37c-.16-.27-.21-.59-.14-.9.08-.31.27-.57.54-.73l.81-.49c.1-.06.24-.05.32.04.01.01.03.03.04.05l1.78,2.93c.07.12.04.28-.08.36l-.82.5c-.19.12-.4.17-.61.17ZM111.77,84.69l-.59.36c-.15.09-.26.24-.3.41-.04.17-.02.35.07.5l.82,1.37c.19.31.6.41.91.22l.59-.36-.69-1.14h0s-.82-1.36-.82-1.36Z"/>
          </g>
          <g>
            <path class="cls-6" d="M123.1,94.12h-17.14c-.14,0-.26-.12-.26-.26v-31.08c0-.14.12-.26.26-.26h22.85c.14,0,.26.12.26.26v25.34c0,.14-.12.26-.26.26h-5.45v5.48c0,.14-.12.26-.26.26ZM106.22,93.6h16.62v-5.48c0-.14.12-.26.26-.26h5.45v-24.82h-22.33v30.56Z"/>
            <path class="cls-6" d="M123.11,94.12c-.07,0-.13-.03-.18-.08-.1-.1-.1-.27,0-.37l5.71-5.73c.1-.1.27-.1.37,0,.1.1.1.27,0,.37l-5.71,5.73c-.05.05-.12.08-.18.08Z"/>
            <path class="cls-6" d="M124.94,68.77h-15.39c-.14,0-.26-.12-.26-.26s.12-.26.26-.26h15.39c.14,0,.26.12.26.26s-.12.26-.26.26Z"/>
            <path class="cls-6" d="M124.94,72.9h-15.39c-.14,0-.26-.12-.26-.26s.12-.26.26-.26h15.39c.14,0,.26.12.26.26s-.12.26-.26.26Z"/>
            <path class="cls-6" d="M124.94,77.02h-15.39c-.14,0-.26-.12-.26-.26s.12-.26.26-.26h15.39c.14,0,.26.12.26.26s-.12.26-.26.26Z"/>
            <path class="cls-6" d="M112.35,88.16c-.4,0-.79-.2-1.02-.57l-.82-1.37c-.16-.27-.21-.59-.14-.9.08-.31.27-.57.54-.73l9.56-5.79s.11-.04.16-.04l2.67.28c.08,0,.15.05.19.12.04.07.05.15.03.22l-.89,2.66c-.02.06-.06.11-.11.14l-8.74,5.3s-.02.01-.03.01l-.79.48c-.19.12-.4.17-.61.17ZM120.67,79.3l-9.49,5.74c-.15.09-.26.24-.3.41-.04.17-.02.35.07.5l.82,1.37c.19.31.6.41.91.22l.81-.5s.02-.01.03-.02l8.64-5.23.75-2.26-2.26-.24Z"/>
            <path class="cls-6" d="M113.65,87.53c-.07,0-.12-.02-.17-.06-.02-.02-.04-.04-.06-.06l-1.78-2.94c-.07-.12-.03-.28.09-.36.12-.07.28-.03.36.09l1.76,2.91s.06.1.06.16c0,.14-.12.26-.26.26Z"/>
            <path class="cls-6" d="M122.39,82.23c-.09,0-.17-.04-.22-.13l-1.78-2.94c-.07-.12-.04-.28.09-.36.12-.07.28-.04.36.09l1.78,2.94c.07.12.03.28-.09.36-.04.03-.09.04-.13.04Z"/>
            <path class="cls-6" d="M112.75,86.06c-.09,0-.17-.04-.22-.13-.07-.12-.04-.28.09-.36l8.75-5.3c.12-.08.28-.04.36.09.07.12.04.28-.09.36l-8.75,5.3s-.09.04-.13.04Z"/>
          </g>
        </g>
      </g>
      <g>
        <path class="cls-6" d="M355.47,101.62c-1.19,0-2.16-.97-2.16-2.16s.97-2.16,2.16-2.16,2.16.97,2.16,2.16-.97,2.16-2.16,2.16ZM355.47,98.09c-.75,0-1.37.61-1.37,1.37s.61,1.37,1.37,1.37,1.37-.61,1.37-1.37-.61-1.37-1.37-1.37Z"/>
        <path class="cls-6" d="M444.37,130.66c-1.19,0-2.16-.97-2.16-2.16s.97-2.16,2.16-2.16,2.16.97,2.16,2.16-.97,2.16-2.16,2.16ZM444.37,127.13c-.75,0-1.37.61-1.37,1.37s.61,1.37,1.37,1.37,1.37-.61,1.37-1.37-.61-1.37-1.37-1.37Z"/>
        <g>
          <path class="cls-6" d="M421.02,152.43c-.22,0-.4-.18-.4-.4v-5.46c0-.22.18-.4.4-.4s.4.18.4.4v5.46c0,.22-.18.4-.4.4Z"/>
          <path class="cls-6" d="M423.75,149.7h-5.46c-.22,0-.4-.18-.4-.4s.18-.4.4-.4h5.46c.22,0,.4.18.4.4s-.18.4-.4.4Z"/>
        </g>
        <g>
          <path class="cls-6" d="M408.79,72.9c-.22,0-.4-.18-.4-.4v-5.46c0-.22.18-.4.4-.4s.4.18.4.4v5.46c0,.22-.18.4-.4.4Z"/>
          <path class="cls-6" d="M411.52,70.16h-5.46c-.22,0-.4-.18-.4-.4s.18-.4.4-.4h5.46c.22,0,.4.18.4.4s-.18.4-.4.4Z"/>
        </g>
        <g>
          <path class="cls-6" d="M390.69,42.67c-.22,0-.4-.18-.4-.4v-5.46c0-.22.18-.4.4-.4s.4.18.4.4v5.46c0,.22-.18.4-.4.4Z"/>
          <path class="cls-6" d="M393.42,39.94h-5.46c-.22,0-.4-.18-.4-.4s.18-.4.4-.4h5.46c.22,0,.4.18.4.4s-.18.4-.4.4Z"/>
        </g>
        <path class="cls-6" d="M422.45,131.89h-54.67c-1.17,0-2.13-.95-2.13-2.13s.95-2.13,2.13-2.13h54.67c1.17,0,2.13.95,2.13,2.13s-.95,2.13-2.13,2.13ZM367.78,128.44c-.74,0-1.33.6-1.33,1.33s.6,1.33,1.33,1.33h54.67c.74,0,1.33-.6,1.33-1.33s-.6-1.33-1.33-1.33h-54.67Z"/>
        <path class="cls-6" d="M446.96,99.46h-20.21c-.48,0-.86-.39-.86-.86h0c0-.48.39-.86.86-.86h20.21c.48,0,.86.39.86.86h0c0,.48-.39.86-.86.86Z"/>
        <path class="cls-6" d="M402.13,116.21h-15.46c-.48,0-.86-.39-.86-.86h0c0-.48.39-.86.86-.86h15.46c.48,0,.86.39.86.86h0c0,.48-.39.86-.86.86Z"/>
      </g>
      <g>
        <path class="cls-6" d="M394.44,173.5h-25.02c-.66,0-1.19-.54-1.19-1.19v-16.87c0-.66.53-1.19,1.19-1.19h25.02c.66,0,1.19.54,1.19,1.19v16.87c0,.66-.53,1.19-1.19,1.19ZM369.42,154.69c-.41,0-.74.33-.74.74v16.87c0,.41.33.74.74.74h25.02c.41,0,.74-.33.74-.74v-16.87c0-.41-.33-.74-.74-.74h-25.02Z"/>
        <path class="cls-6" d="M395.41,158.14h-26.95c-.12,0-.23-.1-.23-.23s.1-.23.23-.23h26.95c.12,0,.23.1.23.23s-.1.23-.23.23Z"/>
        <path class="cls-6" d="M371.02,157.13h-1.43c-.12,0-.23-.1-.23-.23v-1.43c0-.12.1-.23.23-.23h1.43c.12,0,.23.1.23.23v1.43c0,.12-.1.23-.23.23ZM369.82,156.68h.98v-.98h-.98v.98Z"/>
        <path class="cls-6" d="M373.79,157.13h-1.42c-.12,0-.23-.1-.23-.23v-1.43c0-.12.1-.23.23-.23h1.42c.12,0,.23.1.23.23v1.43c0,.12-.1.23-.23.23ZM372.59,156.68h.97v-.98h-.97v.98Z"/>
        <path class="cls-6" d="M376.57,157.13h-1.43c-.12,0-.23-.1-.23-.23v-1.43c0-.12.1-.23.23-.23h1.43c.12,0,.23.1.23.23v1.43c0,.12-.1.23-.23.23ZM375.37,156.68h.97v-.98h-.97v.98Z"/>
        <path class="cls-6" d="M378.45,170.39c-.05,0-.1-.02-.14-.05l-5.65-4.7c-.05-.04-.08-.11-.08-.17s.03-.13.08-.17l5.35-4.45c.1-.08.24-.07.32.03.08.1.07.24-.03.32l-5.14,4.27,5.44,4.53c.1.08.11.22.03.32-.04.05-.11.08-.17.08Z"/>
        <path class="cls-6" d="M385.41,170.39c-.06,0-.13-.03-.17-.08-.08-.1-.07-.24.03-.32l5.44-4.53-5.14-4.27c-.1-.08-.11-.22-.03-.32.08-.1.22-.11.32-.03l5.35,4.45c.05.04.08.11.08.17s-.03.13-.08.17l-5.65,4.7s-.09.05-.14.05Z"/>
        <path class="cls-6" d="M379.11,171.4s-.07,0-.1-.02c-.11-.06-.16-.19-.1-.3l5.6-11.17c.06-.11.19-.16.3-.1.11.06.16.19.1.3l-5.6,11.17c-.04.08-.12.12-.2.12Z"/>
      </g>
      <path class="cls-6" d="M325.5,56h-110.7c-3.86,0-6.8,3.09-6.8,6.95v73.51c0,.63.31,1.54.94,1.54h122.41c.63,0,1.65-.9,1.65-1.54V62.95c0-3.87-3.64-6.95-7.5-6.95ZM330,136h-120V62.95c0-2.6,2.2-3.95,4.8-3.95h110.7c2.6,0,4.5,1.35,4.5,3.95v73.05Z"/>
      <path class="cls-12" d="M216.48,63.47h107.34c.63,0,1.15.51,1.15,1.15v64.32c0,.63-.51,1.15-1.15,1.15h-107.34c-.63,0-1.15-.51-1.15-1.15v-64.32c0-.63.51-1.15,1.15-1.15Z"/>
      <path class="cls-6" d="M331.36,148.86h-122.42c-4.71,0-8.54-3.04-8.54-6.77v-5.62c0-.63.51-1.15,1.15-1.15h137.2c.63,0,1.15.51,1.15,1.15v5.62c0,3.73-3.83,6.77-8.53,6.77ZM202.7,137.61v4.48c0,2.43,2.86,4.48,6.25,4.48h122.42c3.38,0,6.24-2.05,6.24-4.48v-4.48h-134.9Z"/>
      <path class="cls-6" d="M270.15,145.69c-1.98,0-3.6-1.62-3.6-3.61s1.62-3.6,3.6-3.6,3.61,1.62,3.61,3.6-1.62,3.61-3.61,3.61ZM270.15,140.78c-.72,0-1.31.59-1.31,1.31s.59,1.31,1.31,1.31,1.31-.59,1.31-1.31-.59-1.31-1.31-1.31Z"/>
      <g class="cls-9">
        <path class="cls-2" d="M232.2,119.31c-5.93-6.36-15.93-6.7-22.28-.77-6.36,5.93-6.7,15.93-.77,22.28,5.93,6.36,15.93,6.7,22.28.77,6.36-5.93,6.7-15.93.77-22.28ZM228.68,138.63c-4.73,4.41-12.16,4.15-16.57-.57-4.41-4.73-4.15-12.16.57-16.57,4.73-4.41,12.16-4.15,16.57.57,4.41,4.73,4.15,12.16-.57,16.57Z"/>
        <circle class="cls-8" cx="220.84" cy="129.9" r="12.53" transform="translate(88.14 349.07) rotate(-89.27)"/>
        <circle class="cls-3" cx="212.75" cy="129.4" r="1.29"/>
        <path class="cls-7" d="M231.55,119.46c-5.77-5.91-15.24-6.04-21.15-.27-5.91,5.77-6.04,15.24-.27,21.15,5.77,5.91,15.24,6.04,21.15.27,5.91-5.77,6.04-15.24.27-21.15ZM211.87,138.65c-4.83-4.96-4.73-12.89.23-17.72,4.96-4.83,12.89-4.73,17.72.23,4.83,4.96,4.73,12.89-.23,17.72-4.96,4.83-12.89,4.73-17.72-.23Z"/>
        <path class="cls-7" d="M192.31,157.71h0c-1.41-1.45-1.38-3.77.07-5.18l10.81-10.54,5.11,5.24-10.81,10.54c-1.45,1.41-3.77,1.38-5.18-.07Z"/>
        <rect class="cls-11" x="202.92" y="139.57" width="9.08" height="6.74" rx="2.74" ry="2.74" transform="translate(164.99 -105.39) rotate(45.73)"/>
      </g>
      <text class="cls-5" transform="translate(213.3 188.29)"><tspan class="cls-10" x="0" y="0">P</tspan><tspan x="8.9" y="0">age Not </tspan><tspan class="cls-1" x="67.69" y="0">F</tspan><tspan x="75.88" y="0">ound</tspan></text>
      <text class="cls-4" transform="translate(233.45 109.58)"><tspan x="0" y="0">404</tspan></text>
    </g>
  </g>
</svg>