<svg width="34" height="43" viewBox="0 0 34 43" fill="none" xmlns="http://www.w3.org/2000/svg">
<path d="M9.8418 19.8086C9.8418 15.9186 13.0718 12.8086 17.0018 12.8086C20.9278 12.8086 24.1578 15.9186 24.1578 19.8086C24.1578 23.6986 20.9278 26.8086 16.9998 26.8086C13.0718 26.8086 9.8418 23.6986 9.8418 19.8086ZM17.0018 14.8086C14.1278 14.8086 11.8418 17.0706 11.8418 19.8086C11.8418 22.5466 14.1278 24.8086 17.0018 24.8086C19.8738 24.8086 22.1578 22.5446 22.1578 19.8086C22.1578 17.0726 19.8738 14.8086 16.9998 14.8086M14.9998 5.80859C14.7346 5.80859 14.4802 5.91395 14.2927 6.10149C14.1052 6.28902 13.9998 6.54338 13.9998 6.80859C13.9998 7.07381 14.1052 7.32816 14.2927 7.5157C14.4802 7.70324 14.7346 7.80859 14.9998 7.80859H18.9998C19.265 7.80859 19.5194 7.70324 19.7069 7.5157C19.8944 7.32816 19.9998 7.07381 19.9998 6.80859C19.9998 6.54338 19.8944 6.28902 19.7069 6.10149C19.5194 5.91395 19.265 5.80859 18.9998 5.80859H14.9998Z" fill="#0D99FF"/>
<path d="M13.754 0.808594H20.246C22.446 0.808594 24.162 0.808594 25.536 0.920594C26.932 1.03459 28.066 1.27059 29.086 1.78859C30.7799 2.65153 32.1571 4.02869 33.02 5.72259C33.54 6.74259 33.774 7.87659 33.888 9.27259C34 10.6466 34 12.3606 34 14.5626V29.0546C34 31.2546 34 32.9706 33.888 34.3446C33.774 35.7406 33.538 36.8746 33.02 37.8946C32.1571 39.5885 30.7799 40.9657 29.086 41.8286C28.066 42.3486 26.932 42.5826 25.536 42.6966C24.162 42.8086 22.448 42.8086 20.246 42.8086H13.754C11.554 42.8086 9.838 42.8086 8.464 42.6966C7.068 42.5826 5.934 42.3466 4.914 41.8286C3.22009 40.9657 1.84294 39.5885 0.98 37.8946C0.46 36.8746 0.226 35.7406 0.112 34.3446C-1.49012e-08 32.9706 0 31.2566 0 29.0546V14.5626C0 12.3626 -1.49012e-08 10.6466 0.112 9.27259C0.226 7.87659 0.462 6.74259 0.98 5.72259C1.84294 4.02869 3.22009 2.65153 4.914 1.78859C5.934 1.26859 7.068 1.03459 8.464 0.920594C9.84 0.808594 11.552 0.808594 13.754 0.808594ZM8.628 2.91459C7.354 3.01859 6.514 3.21859 5.822 3.57059C4.5044 4.24179 3.43319 5.31299 2.762 6.63059C2.41 7.32259 2.21 8.16259 2.106 9.43659C2 10.7186 2 12.3526 2 14.6086V29.0086C2 31.2646 2 32.8986 2.106 34.1806C2.186 35.1426 2.318 35.8606 2.532 36.4486L2.896 34.9086C3.496 32.6006 5.276 30.7706 7.586 30.0326L9.556 29.4006C9.88933 29.2939 10.2253 29.1946 10.564 29.1026C11.576 28.8266 12.558 29.1586 13.268 29.6226C14.052 30.1346 15.368 30.7806 17 30.7806C18.632 30.7806 19.948 30.1346 20.732 29.6206C21.442 29.1586 22.424 28.8266 23.438 29.1026C23.7753 29.1946 24.1113 29.2946 24.446 29.4026L26.414 30.0326C28.724 30.7726 30.502 32.6006 31.104 34.9086L31.11 34.9286L31.47 36.4486C31.682 35.8586 31.816 35.1426 31.894 34.1806C32 32.8986 32 31.2646 32 29.0086V14.6086C32 12.3526 32 10.7186 31.894 9.43659C31.79 8.16259 31.59 7.32259 31.238 6.63059C30.5668 5.31299 29.4956 4.24179 28.178 3.57059C27.486 3.21859 26.646 3.01859 25.374 2.91459C24.09 2.80859 22.456 2.80859 20.2 2.80859H13.8C11.544 2.80859 9.91 2.80859 8.628 2.91459ZM5.82 40.0466C6.512 40.3986 7.352 40.5986 8.626 40.7026C9.908 40.8086 11.542 40.8086 13.798 40.8086H20.198C22.454 40.8086 24.088 40.8086 25.37 40.7026C26.644 40.5986 27.484 40.3986 28.176 40.0466C28.838 39.7066 29.438 39.2686 29.956 38.7506L29.164 35.4026C28.74 33.7906 27.484 32.4746 25.804 31.9366L23.834 31.3066C23.5274 31.2085 23.2186 31.1171 22.908 31.0326C22.628 30.9566 22.238 31.0266 21.826 31.2966C20.852 31.9326 19.156 32.7806 16.998 32.7806C14.84 32.7806 13.144 31.9326 12.172 31.2966C11.758 31.0246 11.368 30.9566 11.088 31.0326C10.7773 31.1166 10.4687 31.2079 10.162 31.3066L8.194 31.9366C6.514 32.4746 5.256 33.7906 4.834 35.4026L4.04 38.7486C4.558 39.2686 5.158 39.7086 5.82 40.0466Z" fill="#0D99FF"/>
</svg>
