<svg id="Asset_1" data-name="Asset 1" xmlns="http://www.w3.org/2000/svg" xmlns:xlink="http://www.w3.org/1999/xlink" width="1979" height="1354.352" viewBox="0 0 1979 1354.352">
  <defs>
    <linearGradient id="linear-gradient" x1="0.5" y1="0.927" x2="0.5" y2="0.097" gradientUnits="objectBoundingBox">
      <stop offset="0" stop-color="#63d3ff"/>
      <stop offset="1" stop-color="#2864bf"/>
    </linearGradient>
    <linearGradient id="linear-gradient-2" x1="-0.263" y1="0.927" x2="-0.263" y2="0.097" xlink:href="#linear-gradient"/>
    <linearGradient id="linear-gradient-3" x1="-1.559" y1="0.017" x2="-1.559" y2="0.985" gradientUnits="objectBoundingBox">
      <stop offset="0" stop-color="#fff"/>
      <stop offset="1" stop-color="#2864bf"/>
    </linearGradient>
  </defs>
  <g id="Layer_2" data-name="Layer 2">
    <g id="Layer_1" data-name="Layer 1">
      <g id="Group_39" data-name="Group 39">
        <g id="Group_2" data-name="Group 2">
          <path id="Path_176" data-name="Path 176" d="M719.931,308.965H699.579V128.52A36.59,36.59,0,0,0,663.03,91.972H438.43a36.59,36.59,0,0,0-36.549,36.549v28A117.185,117.185,0,0,1,284.825,273.579H0V253.227H284.816a96.817,96.817,0,0,0,96.705-96.705v-28a56.964,56.964,0,0,1,56.9-56.9h224.6a56.964,56.964,0,0,1,56.9,56.9V308.965Z" transform="translate(0 -10.887)" fill="#9dc4f2"/>
          <path id="Path_177" data-name="Path 177" d="M284.816,186.372H0V166.02H284.816A20.41,20.41,0,0,0,305.2,145.635V0h20.352V145.635A40.783,40.783,0,0,1,284.816,186.372Z" fill="#9dc4f2"/>
          <path id="Path_178" data-name="Path 178" d="M284.816,224.532H0V204.18H284.816a58.611,58.611,0,0,0,58.546-58.546V0h20.352V145.635A78.989,78.989,0,0,1,284.816,224.532Z" fill="#9dc4f2"/>
          <path id="Path_179" data-name="Path 179" d="M2114.827,113.589H1704.4a40.783,40.783,0,0,1-40.738-40.738V0h20.352V72.851A20.4,20.4,0,0,0,1704.4,93.237h410.43a20.4,20.4,0,0,0,20.386-20.386V0h20.352V72.851a40.783,40.783,0,0,1-40.738,40.738Z" transform="translate(-252.885)" fill="#9dc4f2"/>
          <path id="Path_180" data-name="Path 180" d="M2107.987,151.749H1697.557a78.989,78.989,0,0,1-78.9-78.9V0h20.352V72.851a58.611,58.611,0,0,0,58.546,58.546h410.429a58.611,58.611,0,0,0,58.546-58.546V0h20.352V72.851a78.989,78.989,0,0,1-78.9,78.9Z" transform="translate(-246.044)" fill="#9dc4f2"/>
          <path id="Path_181" data-name="Path 181" d="M1719.94,520.618c-84.494,0-153.08-68.577-153.08-152.877V0h20.352V367.742c0,73.072,59.453,132.525,132.525,132.525s132.728-59.453,132.728-132.525V286.614a117.19,117.19,0,0,1,117.057-117.057h130.591a96.817,96.817,0,0,0,96.705-96.705V0h20.352V72.851a117.185,117.185,0,0,1-117.057,117.057H1969.522a96.817,96.817,0,0,0-96.706,96.705v81.128c0,84.3-68.577,152.876-152.876,152.876Z" transform="translate(-238.171)" fill="#9dc4f2"/>
        </g>
        <circle id="Ellipse_1" data-name="Ellipse 1" cx="603.221" cy="603.221" r="603.221" transform="translate(414.373 91.287)" fill="url(#linear-gradient)"/>
        <g id="Group_6" data-name="Group 6" transform="translate(494.456 172.134)">
          <g id="Group_3" data-name="Group 3" transform="translate(658.485)">
            <rect id="Rectangle_3" data-name="Rectangle 3" width="11.77" height="268.238" transform="translate(94.283 103.074) rotate(-45)" fill="#91bef2"/>
            <rect id="Rectangle_4" data-name="Rectangle 4" width="11.77" height="250.082" transform="translate(51.057 159.13) rotate(-45)" fill="#91bef2"/>
            <rect id="Rectangle_5" data-name="Rectangle 5" width="11.77" height="196.438" transform="translate(24.814 223.314) rotate(-45)" fill="#91bef2"/>
            <rect id="Rectangle_6" data-name="Rectangle 6" width="11.77" height="111.07" transform="translate(15.723 292.766) rotate(-45)" fill="#91bef2"/>
            <rect id="Rectangle_7" data-name="Rectangle 7" width="11.77" height="250.082" transform="translate(150.347 59.847) rotate(-45)" fill="#91bef2"/>
            <rect id="Rectangle_8" data-name="Rectangle 8" width="11.77" height="196.438" transform="translate(214.528 33.602) rotate(-45)" fill="#91bef2"/>
            <rect id="Rectangle_9" data-name="Rectangle 9" width="11.77" height="111.07" transform="translate(283.978 24.508) rotate(-45)" fill="#91bef2"/>
            <circle id="Ellipse_2" data-name="Ellipse 2" cx="14.39" cy="14.39" r="14.39" transform="translate(267.778 20.351) rotate(-45)" fill="#fff"/>
            <path id="Path_182" data-name="Path 182" d="M1788.866,245.326a14.391,14.391,0,1,1,0-20.352A14.387,14.387,0,0,1,1788.866,245.326Z" transform="translate(-1421.123 -205.69)" fill="#fff"/>
            <circle id="Ellipse_3" data-name="Ellipse 3" cx="14.39" cy="14.39" r="14.39" transform="translate(12.347 346.356) rotate(-9.79)" fill="#fff"/>
            <path id="Path_183" data-name="Path 183" d="M1629.676,249.906a23.085,23.085,0,1,1,0-32.648A23.088,23.088,0,0,1,1629.676,249.906Z" transform="translate(-1394.669 -204.13)" fill="#fff"/>
            <circle id="Ellipse_4" data-name="Ellipse 4" cx="27.882" cy="27.882" r="27.882" transform="translate(117.174 42.208) rotate(-24.02)" fill="#fff"/>
            <circle id="Ellipse_5" data-name="Ellipse 5" cx="29.425" cy="29.425" r="29.425" transform="translate(56.83 98.91) rotate(-45)" fill="#fff"/>
            <circle id="Ellipse_6" data-name="Ellipse 6" cx="27.941" cy="27.941" r="27.941" transform="translate(19.146 139.482) rotate(-22.84)" fill="#fff"/>
            <circle id="Ellipse_7" data-name="Ellipse 7" cx="23.176" cy="23.176" r="23.176" transform="translate(0 203.797) rotate(-17.11)" fill="#fff"/>
            <path id="Path_184" data-name="Path 184" d="M1390.684,550.964a14.463,14.463,0,1,1,0-20.454A14.464,14.464,0,0,1,1390.684,550.964Z" transform="translate(-1360.579 -252.13)" fill="#fff"/>
            <circle id="Ellipse_8" data-name="Ellipse 8" cx="14.39" cy="14.39" r="14.39" transform="translate(346.353 97.85) rotate(-42)" fill="#d9eaff"/>
            <circle id="Ellipse_9" data-name="Ellipse 9" cx="23.091" cy="23.091" r="23.091" transform="translate(325.602 161.359) rotate(-32.85)" fill="#d9eaff"/>
            <circle id="Ellipse_10" data-name="Ellipse 10" cx="27.882" cy="27.882" r="27.882" transform="matrix(0.991, -0.135, 0.135, 0.991, 299.408, 209.306)" fill="#d9eaff"/>
            <circle id="Ellipse_11" data-name="Ellipse 11" cx="29.425" cy="29.425" r="29.425" transform="translate(246.512 288.581) rotate(-45)" fill="#d9eaff"/>
            <circle id="Ellipse_12" data-name="Ellipse 12" cx="27.941" cy="27.941" r="27.941" transform="matrix(0.758, -0.652, 0.652, 0.758, 193.2, 328.325)" fill="#d9eaff"/>
            <circle id="Ellipse_13" data-name="Ellipse 13" cx="23.176" cy="23.176" r="23.176" transform="translate(136.621 348.294) rotate(-27.5)" fill="#d9eaff"/>
            <path id="Path_185" data-name="Path 185" d="M1483.3,643.584a14.463,14.463,0,1,1,0-20.454A14.464,14.464,0,0,1,1483.3,643.584Z" transform="translate(-1374.657 -266.209)" fill="#d9eaff"/>
          </g>
          <g id="Group_4" data-name="Group 4" transform="translate(0 656.455)">
            <rect id="Rectangle_10" data-name="Rectangle 10" width="11.77" height="268.238" transform="translate(95.597 103.788) rotate(-45)" fill="#91bef2"/>
            <rect id="Rectangle_11" data-name="Rectangle 11" width="11.77" height="250.082" transform="translate(52.372 159.853) rotate(-45)" fill="#91bef2"/>
            <rect id="Rectangle_12" data-name="Rectangle 12" width="11.77" height="196.438" transform="translate(26.129 224.037) rotate(-45)" fill="#91bef2"/>
            <rect id="Rectangle_13" data-name="Rectangle 13" width="11.77" height="111.07" transform="translate(17.037 293.489) rotate(-45)" fill="#91bef2"/>
            <rect id="Rectangle_14" data-name="Rectangle 14" width="11.77" height="250.082" transform="translate(151.655 60.576) rotate(-45)" fill="#91bef2"/>
            <rect id="Rectangle_15" data-name="Rectangle 15" width="11.77" height="196.438" transform="translate(215.842 34.324) rotate(-45)" fill="#91bef2"/>
            <rect id="Rectangle_16" data-name="Rectangle 16" width="11.77" height="111.07" transform="translate(285.286 25.237) rotate(-45)" fill="#91bef2"/>
            <circle id="Ellipse_14" data-name="Ellipse 14" cx="14.39" cy="14.39" r="14.39" transform="translate(269.093 21.066) rotate(-45)" fill="#fff"/>
            <circle id="Ellipse_15" data-name="Ellipse 15" cx="14.39" cy="14.39" r="14.39" transform="matrix(0.968, -0.25, 0.25, 0.968, 341.398, 19.754)" fill="#d9eaff"/>
            <path id="Path_186" data-name="Path 186" d="M626.406,1407.776a14.391,14.391,0,1,1,0-20.352A14.387,14.387,0,0,1,626.406,1407.776Z" transform="translate(-585.938 -1038.843)" fill="#d9eaff"/>
            <circle id="Ellipse_16" data-name="Ellipse 16" cx="23.091" cy="23.091" r="23.091" transform="translate(189.814 17.673) rotate(-22.5)" fill="#fff"/>
            <circle id="Ellipse_17" data-name="Ellipse 17" cx="29.425" cy="29.425" r="29.425" transform="matrix(0.968, -0.25, 0.25, 0.968, 63.966, 78.424)" fill="#fff"/>
            <circle id="Ellipse_18" data-name="Ellipse 18" cx="27.941" cy="27.941" r="27.941" transform="matrix(0.851, -0.526, 0.526, 0.851, 18.633, 146.04)" fill="#fff"/>
            <circle id="Ellipse_19" data-name="Ellipse 19" cx="23.176" cy="23.176" r="23.176" transform="translate(0 207.34) rotate(-22.5)" fill="#fff"/>
            <path id="Path_187" data-name="Path 187" d="M615.714,1325.934a14.463,14.463,0,1,1,0-20.454A14.464,14.464,0,0,1,615.714,1325.934Z" transform="translate(-584.294 -1026.384)" fill="#fff"/>
            <circle id="Ellipse_20" data-name="Ellipse 20" cx="14.39" cy="14.39" r="14.39" transform="translate(347.642 99.615) rotate(-45)" fill="#d9eaff"/>
            <circle id="Ellipse_21" data-name="Ellipse 21" cx="23.091" cy="23.091" r="23.091" transform="translate(330.164 153.565) rotate(-16.85)" fill="#d9eaff"/>
            <circle id="Ellipse_22" data-name="Ellipse 22" cx="27.882" cy="27.882" r="27.882" transform="translate(298.532 213.095) rotate(-13.28)" fill="#d9eaff"/>
            <circle id="Ellipse_23" data-name="Ellipse 23" cx="29.425" cy="29.425" r="29.425" transform="translate(248.328 282.705) rotate(-35.78)" fill="#d9eaff"/>
            <circle id="Ellipse_24" data-name="Ellipse 24" cx="27.941" cy="27.941" r="27.941" transform="translate(197.383 316.875) rotate(-22.5)" fill="#d9eaff"/>
            <circle id="Ellipse_25" data-name="Ellipse 25" cx="23.176" cy="23.176" r="23.176" transform="matrix(0.957, -0.29, 0.29, 0.957, 140.196, 343.394)" fill="#d9eaff"/>
            <path id="Path_188" data-name="Path 188" d="M708.334,1418.554a14.463,14.463,0,1,1,0-20.454A14.464,14.464,0,0,1,708.334,1418.554Z" transform="translate(-598.373 -1040.463)" fill="#d9eaff"/>
            <circle id="Ellipse_26" data-name="Ellipse 26" cx="27.882" cy="27.882" r="27.882" transform="translate(121.702 36.243) rotate(-13.28)" fill="#fff"/>
          </g>
          <g id="Group_5" data-name="Group 5" transform="translate(326.129 328.104)">
            <rect id="Rectangle_17" data-name="Rectangle 17" width="11.77" height="268.238" transform="translate(98.049 103.565) rotate(-45)" fill="#469cdf"/>
            <rect id="Rectangle_18" data-name="Rectangle 18" width="11.77" height="250.082" transform="translate(54.832 159.621) rotate(-45)" fill="#469cdf"/>
            <rect id="Rectangle_19" data-name="Rectangle 19" width="11.77" height="196.438" transform="translate(28.581 223.805) rotate(-45)" fill="#469cdf"/>
            <rect id="Rectangle_20" data-name="Rectangle 20" width="11.77" height="111.07" transform="translate(19.492 293.251) rotate(-45)" fill="#469cdf"/>
            <rect id="Rectangle_21" data-name="Rectangle 21" width="11.77" height="250.082" transform="translate(154.107 60.332) rotate(-45)" fill="#469cdf"/>
            <rect id="Rectangle_22" data-name="Rectangle 22" width="11.77" height="196.438" transform="translate(218.288 34.086) rotate(-45)" fill="#469cdf"/>
            <rect id="Rectangle_23" data-name="Rectangle 23" width="11.77" height="111.07" transform="translate(287.744 24.998) rotate(-45)" fill="#469cdf"/>
            <circle id="Ellipse_27" data-name="Ellipse 27" cx="14.39" cy="14.39" r="14.39" transform="translate(272.94 28.211) rotate(-66.16)" fill="#4da9e7"/>
            <circle id="Ellipse_28" data-name="Ellipse 28" cx="14.39" cy="14.39" r="14.39" transform="translate(344.703 18.251) rotate(-9.79)" fill="#4da9e7"/>
            <circle id="Ellipse_29" data-name="Ellipse 29" cx="14.39" cy="14.39" r="14.39" transform="matrix(0.968, -0.25, 0.25, 0.968, 15.268, 348.104)" fill="#b1e9ff"/>
            <circle id="Ellipse_30" data-name="Ellipse 30" cx="23.091" cy="23.091" r="23.091" transform="translate(192.592 16.655) rotate(-21.14)" fill="#4da9e7"/>
            <circle id="Ellipse_31" data-name="Ellipse 31" cx="29.425" cy="29.425" r="29.425" transform="matrix(0.25, -0.968, 0.968, 0.25, 66.417, 120.603)" fill="#4da9e7"/>
            <circle id="Ellipse_32" data-name="Ellipse 32" cx="27.941" cy="27.941" r="27.941" transform="translate(24.723 136.191) rotate(-16.85)" fill="#4da9e7"/>
            <circle id="Ellipse_33" data-name="Ellipse 33" cx="23.176" cy="23.176" r="23.176" transform="translate(0 218.025) rotate(-42.3)" fill="#4da9e7"/>
            <path id="Path_189" data-name="Path 189" d="M1003.2,938.454a14.463,14.463,0,1,1,0-20.454A14.464,14.464,0,0,1,1003.2,938.454Z" transform="translate(-969.324 -639.135)" fill="#4da9e7"/>
            <circle id="Ellipse_34" data-name="Ellipse 34" cx="14.39" cy="14.39" r="14.39" transform="translate(353.779 111.085) rotate(-80.21)" fill="#b1e9ff"/>
            <circle id="Ellipse_35" data-name="Ellipse 35" cx="23.091" cy="23.091" r="23.091" transform="translate(331.18 156.335) rotate(-22.5)" fill="#b1e9ff"/>
            <circle id="Ellipse_36" data-name="Ellipse 36" cx="27.882" cy="27.882" r="27.882" transform="translate(297.352 246.619) rotate(-64.52)" fill="#b1e9ff"/>
            <circle id="Ellipse_37" data-name="Ellipse 37" cx="29.425" cy="29.425" r="29.425" transform="translate(253.149 304.302) rotate(-66.57)" fill="#b1e9ff"/>
            <circle id="Ellipse_38" data-name="Ellipse 38" cx="23.176" cy="23.176" r="23.176" transform="translate(141.355 345.998) rotate(-22.5)" fill="#b1e9ff"/>
            <path id="Path_190" data-name="Path 190" d="M1095.824,1031.074a14.463,14.463,0,1,1,0-20.454A14.464,14.464,0,0,1,1095.824,1031.074Z" transform="translate(-983.403 -653.213)" fill="#b1e9ff"/>
            <circle id="Ellipse_39" data-name="Ellipse 39" cx="27.882" cy="27.882" r="27.882" transform="translate(124.188 36.022) rotate(-13.28)" fill="#4da9e7"/>
            <circle id="Ellipse_40" data-name="Ellipse 40" cx="27.941" cy="27.941" r="27.941" transform="matrix(0.608, -0.794, 0.794, 0.608, 197.186, 336.971)" fill="#b1e9ff"/>
          </g>
        </g>
        <g id="Group_12" data-name="Group 12" transform="translate(211.125)">
          <g id="Group_9" data-name="Group 9" transform="translate(209.599 571.379)">
            <g id="Group_7" data-name="Group 7" transform="translate(223.978 29.158)">
              <rect id="Rectangle_24" data-name="Rectangle 24" width="14.085" height="32.393" transform="translate(78.488 88.454) rotate(-45)" fill="#45628f"/>
              <rect id="Rectangle_25" data-name="Rectangle 25" width="14.085" height="78.855" transform="translate(0 9.96) rotate(-45)" fill="#fff"/>
              <path id="Path_191" data-name="Path 191" d="M939.984,883.25,955.536,898.8a26.952,26.952,0,0,1,6.8,11.465,27,27,0,0,1-11.465-6.8L935.32,887.914Z" transform="translate(-786.876 -734.795)" fill="#fff"/>
              <path id="Path_192" data-name="Path 192" d="M936.2,884.121a7.043,7.043,0,0,1-9.956,0L901.17,859.046l9.955-9.955L936.2,874.165A7.043,7.043,0,0,1,936.2,884.121Z" transform="translate(-781.685 -729.603)" fill="#45628f"/>
              <rect id="Rectangle_26" data-name="Rectangle 26" width="10.337" height="54.806" transform="translate(103.921 65.172) rotate(45)" fill="#45628f"/>
              <path id="Path_193" data-name="Path 193" d="M846.547,823.639a9.965,9.965,0,0,1,0-14.094l15.069-15.069a9.966,9.966,0,0,1,14.094,14.094L860.64,823.639A9.965,9.965,0,0,1,846.547,823.639Z" transform="translate(-772.938 -720.857)" fill="#fff"/>
              <rect id="Rectangle_27" data-name="Rectangle 27" width="42.502" height="42.502" rx="11.5" transform="translate(89.468 119.516) rotate(-45)" fill="#fff"/>
              <path id="Path_194" data-name="Path 194" d="M809.1,806.3l23.116,23.116a7.447,7.447,0,0,0,10.532,0l-14.289-14.289a18.118,18.118,0,0,1,0-25.618l13.135-13.135a18.118,18.118,0,0,1,25.618,0L881.5,790.668a7.447,7.447,0,0,0,0-10.532l-23.116-23.116a18.118,18.118,0,0,0-25.618,0L809.089,780.7a18.118,18.118,0,0,0,0,25.618Z" transform="translate(-766.882 -714.801)" fill="#fff"/>
            </g>
            <g id="Group_8" data-name="Group 8" transform="translate(77.82 11.134)">
              <rect id="Rectangle_28" data-name="Rectangle 28" width="13.619" height="112.402" transform="translate(152.215 16.129) rotate(90)" fill="#45628f"/>
              <path id="Path_195" data-name="Path 195" d="M634.86,732.808h112.4V727.4H634.86Zm0-45.868v5.41h112.4v-5.41Z" transform="translate(-595.047 -686.931)" fill="#fff"/>
              <path id="Path_196" data-name="Path 196" d="M627.723,686.938H587.91v5.088h8.344a17.842,17.842,0,0,1,0,35.684H587.91V732.8h39.813V686.93Z" transform="translate(-587.91 -686.93)" fill="#fff"/>
              <circle id="Ellipse_41" data-name="Ellipse 41" cx="22.938" cy="22.938" r="22.938" transform="translate(128.259 0.034)" fill="#fff"/>
              <circle id="Ellipse_42" data-name="Ellipse 42" cx="14.094" cy="14.094" r="14.094" transform="translate(137.104 8.879)" fill="#45628f"/>
            </g>
            <rect id="Rectangle_29" data-name="Rectangle 29" width="60.606" height="36.811" transform="translate(0 15.671)" fill="#45628f"/>
            <rect id="Rectangle_30" data-name="Rectangle 30" width="40.39" height="68.162" rx="7.39" transform="translate(49.837)" fill="#fff"/>
            <path id="Path_197" data-name="Path 197" d="M579.71,691.691a5.461,5.461,0,1,1,5.461,5.461A5.458,5.458,0,0,1,579.71,691.691Z" transform="translate(-508.843 -675.689)" fill="#45628f"/>
            <path id="Path_198" data-name="Path 198" d="M585.171,705.08a5.458,5.458,0,0,1,5.461,5.461V732.6a5.461,5.461,0,1,1-10.922,0V710.541A5.458,5.458,0,0,1,585.171,705.08Z" transform="translate(-508.843 -678.555)" fill="#45628f"/>
          </g>
          <rect id="Rectangle_31" data-name="Rectangle 31" width="61.276" height="148.17" transform="translate(170.303 125.749)" fill="#45628f"/>
          <path id="Path_199" data-name="Path 199" d="M544.358,110.531H387.742A32.575,32.575,0,0,1,355.17,77.96H576.929a32.575,32.575,0,0,1-32.571,32.571Z" transform="translate(-265.113 -11.85)" fill="#45628f"/>
          <path id="Path_200" data-name="Path 200" d="M393.57,116.37H550.2v32.419a21.714,21.714,0,0,1-21.7,21.7H415.27a21.714,21.714,0,0,1-21.7-21.7V116.37h0Z" transform="translate(-270.95 -17.689)" fill="#91bef2"/>
          <path id="Path_201" data-name="Path 201" d="M584.734,66.11H315.08A66.111,66.111,0,0,1,248.97,0H650.852a66.111,66.111,0,0,1-66.11,66.11Z" transform="translate(-248.97)" fill="#e6f2ff"/>
          <g id="Group_10" data-name="Group 10" transform="translate(22.349 415.717)">
            <path id="Path_202" data-name="Path 202" d="M491.6,654.852l-153.92-153.92a36.529,36.529,0,0,0-51.66,51.66l153.92,153.92a36.529,36.529,0,1,0,51.66-51.66Z" transform="translate(-275.325 -490.235)" fill="#e6f2ff"/>
            <path id="Path_203" data-name="Path 203" d="M482.39,697.3a20.435,20.435,0,1,0-28.9,0A20.437,20.437,0,0,0,482.39,697.3ZM330.217,545.127a20.435,20.435,0,1,0-28.9,0,20.437,20.437,0,0,0,28.9,0Z" transform="translate(-278.366 -493.276)" fill="#45628f"/>
          </g>
          <g id="Group_11" data-name="Group 11" transform="translate(9.883 262.459)">
            <path id="Path_204" data-name="Path 204" d="M487.392,392.918,344.038,536.272a48.863,48.863,0,1,1-69.1-69.1L418.288,323.815a48.863,48.863,0,0,1,69.1,69.1Z" transform="translate(-260.625 -309.505)" fill="#91bef2"/>
            <path id="Path_205" data-name="Path 205" d="M436.4,344.265a27.337,27.337,0,1,0,38.66,0A27.336,27.336,0,0,0,436.4,344.265Zm-141.03,141.03a27.337,27.337,0,1,0,38.66,0A27.336,27.336,0,0,0,295.375,485.295Z" transform="translate(-264.69 -313.572)" fill="#45628f"/>
          </g>
        </g>
        <g id="Group_13" data-name="Group 13" transform="translate(719.329 461.716)">
          <path id="Path_206" data-name="Path 206" d="M1439.17,1330.073,1255.435,826.194V649.26H1037.627V826.194L853.892,1330.073c-21.785,59.75,22.455,122.968,86.046,122.968h413.169c63.6,0,107.84-63.218,86.046-122.968Z" transform="translate(-848.271 -560.407)" fill="#fff"/>
          <path id="Path_207" data-name="Path 207" d="M945.247,1419.947a62.033,62.033,0,0,1-58.274-83.282L1072.5,827.885V626.02h158.668V827.885l185.524,508.78a62.02,62.02,0,0,1-58.274,83.273H945.238Z" transform="translate(-853.571 -556.875)" fill="#d6e1f0"/>
          <path id="Path_208" data-name="Path 208" d="M1287.261,1044.011c-101.454,30.4-195.793-28.493-270.841,0L886.982,1398.982a62.033,62.033,0,0,0,58.274,83.282h413.177a62.02,62.02,0,0,0,58.274-83.273L1287.27,1044.019Z" transform="translate(-853.572 -619.191)" fill="url(#linear-gradient-2)"/>
          <path id="Path_209" data-name="Path 209" d="M1290.8,633.333H1050.126a44.426,44.426,0,0,1,0-88.853H1290.8a44.426,44.426,0,1,1,0,88.853Z" transform="translate(-872.201 -544.48)" fill="#fff"/>
          <rect id="Rectangle_32" data-name="Rectangle 32" width="218.257" height="51.007" transform="translate(188.907 88.853)" fill="#d6e1f0"/>
          <path id="Path_210" data-name="Path 210" d="M1385.523,1343.92a24.641,24.641,0,0,1-23.15-16.205L1212.481,916.65a24.637,24.637,0,1,1,46.292-16.884l149.892,411.065a24.64,24.64,0,0,1-23.142,33.08Z" transform="translate(-903.405 -596.023)" fill="url(#linear-gradient-3)"/>
          <path id="Path_211" data-name="Path 211" d="M1138.968,1208.244a36.294,36.294,0,1,0-36.294,36.294A36.292,36.292,0,0,0,1138.968,1208.244Z" transform="translate(-881.425 -639.859)" fill="#fff"/>
          <path id="Path_212" data-name="Path 212" d="M1183.234,1303.13a36.294,36.294,0,1,0,36.294,36.294A36.292,36.292,0,0,0,1183.234,1303.13Z" transform="translate(-893.67 -659.799)" fill="#d9eaff"/>
          <path id="Path_213" data-name="Path 213" d="M1254.258,1120.294a36.294,36.294,0,1,0-36.294,36.294A36.292,36.292,0,0,0,1254.258,1120.294Z" transform="translate(-898.949 -626.49)" fill="#d9eaff"/>
          <path id="Path_214" data-name="Path 214" d="M1269.237,1240.02a18.147,18.147,0,1,0,18.147,18.147A18.146,18.146,0,0,0,1269.237,1240.02Z" transform="translate(-909.501 -650.206)" fill="#b1e9ff"/>
          <path id="Path_215" data-name="Path 215" d="M1442.207,1494.62a18.147,18.147,0,1,0,18.147,18.147A18.146,18.146,0,0,0,1442.207,1494.62Z" transform="translate(-935.794 -688.906)" fill="#b1e9ff"/>
          <path id="Path_216" data-name="Path 216" d="M1020.337,1197.22a18.147,18.147,0,1,0,18.147,18.147,18.146,18.146,0,0,0-18.147-18.147Z" transform="translate(-871.667 -643.7)" fill="#d9eaff"/>
          <path id="Path_217" data-name="Path 217" d="M1063.137,1382.95a18.147,18.147,0,1,0,18.147,18.147A18.146,18.146,0,0,0,1063.137,1382.95Z" transform="translate(-878.173 -671.932)" fill="#b1e9ff"/>
          <path id="Path_218" data-name="Path 218" d="M1318.767,1446.3a18.147,18.147,0,1,0,18.147,18.147A18.146,18.146,0,0,0,1318.767,1446.3Z" transform="translate(-917.03 -681.561)" fill="#d9eaff"/>
          <circle id="Ellipse_43" data-name="Ellipse 43" cx="18.147" cy="18.147" r="18.147" transform="translate(239.202 769.428)" fill="#fff"/>
          <circle id="Ellipse_44" data-name="Ellipse 44" cx="18.147" cy="18.147" r="18.147" transform="translate(264.989 373.542)" fill="#fff"/>
        </g>
        <g id="Group_19" data-name="Group 19" transform="translate(1266.913 655.161)">
          <path id="Path_219" data-name="Path 219" d="M1586.064,889.378l-12.3,28.84c23.71,16.154,72.122,39.627,104.66,50.5l27.874-45.325c-42.493-11.584-62.107-18.351-100.979-35.082l-19.241,1.068Z" transform="translate(-1506.132 -790.189)" fill="#fff"/>
          <g id="Group_14" data-name="Group 14" transform="translate(207.487 677.378)">
            <path id="Path_220" data-name="Path 220" d="M1786.979,1571.4h-19.5l-13.933,7.488a52.563,52.563,0,0,1-7.691,3.366l-4.1,1.416c-5.147,1.849-3.29,9.54,2.12,9.54h37.931a6.6,6.6,0,0,0,6.606-7.31Z" transform="translate(-1738.694 -1571.4)" fill="#29abe2"/>
            <path id="Path_221" data-name="Path 221" d="M1738.69,1590.75a5.224,5.224,0,0,0,5.164,5.4h37.931a6.557,6.557,0,0,0,6.5-5.4Z" transform="translate(-1738.689 -1574.341)" fill="#37384f"/>
          </g>
          <g id="Group_15" data-name="Group 15" transform="translate(132.89 677.378)">
            <path id="Path_222" data-name="Path 222" d="M1699.662,1571.4h-19.5l-14.229,7.488a54.547,54.547,0,0,1-7.827,3.366l-4.155,1.416c-5.224,1.849-3.663,9.54,1.747,9.54h37.931a6.9,6.9,0,0,0,6.886-7.31l-.865-14.5Z" transform="translate(-1650.725 -1571.4)" fill="#29abe2"/>
            <path id="Path_223" data-name="Path 223" d="M1650.729,1590.75a4.988,4.988,0,0,0,4.952,5.4h37.931a6.884,6.884,0,0,0,6.708-5.4Z" transform="translate(-1650.721 -1574.341)" fill="#37384f"/>
          </g>
          <path id="Path_224" data-name="Path 224" d="M1800.271,1155.77H1731.66l16.4,167.759c.085,0,13.187,184.693,13.187,184.693h30.138c8.489-62.743,14.043-113.411,9.76-166.207a269.316,269.316,0,0,1,.119-43.137c3.723-46.784,4.732-97.5-1-143.108Z" transform="translate(-1530.134 -830.844)" fill="#37384f"/>
          <path id="Path_225" data-name="Path 225" d="M1754.829,1155.72l-70.417.042-25.864,145.482a152.5,152.5,0,0,0-1.289,44.74l19.283,162.222h27.484c9.879-56.672,8.522-101.8,4.749-148.552a152.378,152.378,0,0,1,8.26-63.116c16.1-45.469,31.393-97.681,37.8-140.818Z" transform="translate(-1518.662 -830.836)" fill="#37384f"/>
          <path id="Path_226" data-name="Path 226" d="M1677.519,1067.849c0-24.7-.627-80.415-1.043-112.927a23.508,23.508,0,0,1,16.409-22.8c30.469-9.455,68.493-10.608,100.725-.458a23.51,23.51,0,0,1,16.341,24.109c-2.162,29.307-4.791,68.5-10.091,92.321a167.2,167.2,0,0,0-3.773,44.579l3.892,131.558a13.087,13.087,0,0,1-13.076,13.729H1665.334a13.085,13.085,0,0,1-13.085-13.458l25.389-156.625-.119-.025Z" transform="translate(-1518.062 -795.693)" fill="#fff"/>
          <rect id="Rectangle_33" data-name="Rectangle 33" width="189.264" height="2.544" transform="matrix(0.025, -1, 1, 0.025, 200.314, 431.793)" fill="#d9eaff"/>
          <path id="Path_227" data-name="Path 227" d="M1726.251,1031.993l-21.633-70.46,9.6-6.843H1704.11l20.963-28.789,2.052,1.5-18.011,24.745h13.059l-14.577,10.4,21.09,68.7Z" transform="translate(-1525.946 -795.902)" fill="#d9eaff"/>
          <path id="Path_228" data-name="Path 228" d="M1598.38,878.438a746.382,746.382,0,0,1-71.223-67,10.16,10.16,0,0,0-17.129,10.074c9.277,27.924,31.91,59.411,53.983,84.52l34.386-27.6Z" transform="translate(-1496.366 -778.002)" fill="#fff"/>
          <path id="Path_229" data-name="Path 229" d="M1721.642,1228.947l42.8-49.489a3.611,3.611,0,0,0-.9-5.605l-95.874-59.385a5.291,5.291,0,0,0-6.58.967l-42.8,49.489a3.611,3.611,0,0,0,.9,5.605l95.874,59.385a5.291,5.291,0,0,0,6.58-.967Z" transform="translate(-1512.755 -824.454)" fill="#8cadff"/>
          <path id="Path_230" data-name="Path 230" d="M1721.642,1235.227l42.8-49.489a3.611,3.611,0,0,0-.9-5.605l-95.874-59.385a5.291,5.291,0,0,0-6.58.967l-42.8,49.489a3.611,3.611,0,0,0,.9,5.605l95.874,59.385a5.291,5.291,0,0,0,6.58-.967Z" transform="translate(-1512.755 -825.408)" fill="#b5c8f2"/>
          <path id="Path_231" data-name="Path 231" d="M1717.037,1160.549l-15.6,7.818-13.254,1.5,4.113,5.927a11.606,11.606,0,0,0,10.719,4.927l7.522-.772,13.7-12.4-7.191-7.013Z" transform="translate(-1523.525 -831.569)" fill="#f492b8"/>
          <path id="Path_232" data-name="Path 232" d="M1813.677,1080.453l33.063-2.977c2.374-22.438-8.743-120.517-18.6-131.287l-38.016,6.962c2.3,45.427,10.066,79.118,18.834,110.841l4.715,16.451Z" transform="translate(-1539.02 -798.987)" fill="#fff"/>
          <path id="Path_233" data-name="Path 233" d="M1746.061,1032.39l-2.111-1.425,46.487-68.7-10.4-10.066h12.923l-8.989-25.067,2.4-.856,10.2,28.467h-10.252l7.42,7.174Z" transform="translate(-1532.002 -795.96)" fill="#d9eaff"/>
          <path id="Path_234" data-name="Path 234" d="M1805,1062.18c-19.512,25.7-68.323,61.938-89.887,82.018l11.27,15.332c38.592-18.223,82.374-39.584,108.959-64.422Z" transform="translate(-1527.618 -816.618)" fill="#fff"/>
          <path id="Path_235" data-name="Path 235" d="M1510.47,788.805a5.356,5.356,0,0,0-.577-.806l-13.856-15.4-2.027,2.417,7.725,10.549a4.9,4.9,0,0,1-1.052,6.843l-2.892,2.128a4.9,4.9,0,0,0,1.908,8.751l.916.2a4.945,4.945,0,0,1,2.561,1.425l5.885,6.216a6.3,6.3,0,0,0,10.015-7.488l-8.6-14.823Z" transform="translate(-1494.01 -772.6)" fill="#f492b8"/>
          <g id="Group_17" data-name="Group 17" transform="translate(234.886 196.065)">
            <rect id="Rectangle_34" data-name="Rectangle 34" width="4.07" height="16.002" transform="translate(7.327)" fill="#80ebeb"/>
            <path id="Path_236" data-name="Path 236" d="M1790.832,1020.687h-4.172v-9.031a2.086,2.086,0,1,1,4.172,0v9.031Z" transform="translate(-1773.38 -1004.686)" fill="#259acc"/>
            <g id="Group_16" data-name="Group 16" transform="translate(0 14.73)">
              <path id="Path_237" data-name="Path 237" d="M1772.509,1022.68h24.329v17.528a6.806,6.806,0,0,1-6.8,6.8H1779.3a6.805,6.805,0,0,1-6.8-6.8V1022.68h0Z" transform="translate(-1771.228 -1021.408)" fill="#fff"/>
              <path id="Path_238" data-name="Path 238" d="M1789.809,1048.053h-10.736a8.081,8.081,0,0,1-8.073-8.073v-18.8h26.873v18.8a8.081,8.081,0,0,1-8.073,8.073Zm-16.256-24.329v16.256a5.535,5.535,0,0,0,5.529,5.529h10.736a5.535,5.535,0,0,0,5.529-5.529v-16.256h-21.785Z" transform="translate(-1771 -1021.18)" fill="#d9eaff"/>
            </g>
            <rect id="Rectangle_35" data-name="Rectangle 35" width="2.086" height="14.068" transform="translate(15.366 11.914)" fill="#259acc"/>
          </g>
          <g id="Group_18" data-name="Group 18" transform="translate(188.946 49.048)">
            <path id="Path_239" data-name="Path 239" d="M1740.627,929.957l-2.527,92.457,32.868-94.314Z" transform="translate(-1720.058 -845.285)" fill="#259acc"/>
            <path id="Path_240" data-name="Path 240" d="M1767.834,888.479l-31.274,15.383c2.832.331,4.74,2.12,4.562,4.783l-.288,6.114,7.513,10.651,21.76-10.651-2.273-26.288Z" transform="translate(-1719.824 -839.261)" fill="#f492b8"/>
            <path id="Path_241" data-name="Path 241" d="M1727.87,888.105c-.127,5.758,5.546,10.88,16.3,6.75l17.282-11.083,8.192-24.6L1760,838.26l-31.961,1.967-.161,47.878Z" transform="translate(-1718.503 -831.629)" fill="#f492b8"/>
            <path id="Path_242" data-name="Path 242" d="M1771.362,926.475l-.78-9.065-22.54,7.072-6.589-5.317-.424,8.929-.339,12.4,9.023-8.5,16.307,9.82Z" transform="translate(-1720.452 -843.66)" fill="#29abe2"/>
            <path id="Path_243" data-name="Path 243" d="M1757.372,831.983h-30.816a21.233,21.233,0,0,1-7.963-1.543c-3.46,7.971-2.086,14.2,6.284,17.867l17.749,4.74a8.714,8.714,0,0,1,6.394,7.835c.416,5.6,1.484,8.573,3.35,8.412a10.394,10.394,0,0,1,.738-3.01c1.34-3.265,3.918-5.3,5.75-4.545s2.239,4.011.89,7.276a20.033,20.033,0,0,0-.229,14.9l6.25,6.708c4.918-1.73-.568-9.964.992-14.933l5.766-18.452c4.181-15.222-1.442-25.414-15.162-25.262Z" transform="translate(-1716.825 -830.44)" fill="#37384f"/>
            <path id="Path_244" data-name="Path 244" d="M1731.635,881.138h-9.175l5.325-13.4h3.85Z" transform="translate(-1717.681 -836.11)" fill="#f492b8"/>
            <path id="Path_245" data-name="Path 245" d="M1732.238,889.82c-.9,2.569.331,4.571,2.976,4.571s5.724-2,7.191-4.571Z" transform="translate(-1719.123 -839.466)" fill="#fff"/>
            <path id="Path_246" data-name="Path 246" d="M1749.319,934.61l7.25,4.367-5.961,11.838,2.086,30.714L1738.1,1023.4l1.145-41.874,8.658-31.011-3.129-11.626Z" transform="translate(-1720.058 -846.274)" fill="#37384f"/>
          </g>
        </g>
        <g id="Group_28" data-name="Group 28" transform="translate(804.018 20.812)">
          <circle id="Ellipse_45" data-name="Ellipse 45" cx="84.291" cy="84.291" r="84.291" transform="translate(0 145.972)" fill="#fff"/>
          <circle id="Ellipse_46" data-name="Ellipse 46" cx="49.014" cy="49.014" r="49.014" transform="translate(136.139 351.414) rotate(-45)" fill="#29abe2"/>
          <circle id="Ellipse_47" data-name="Ellipse 47" cx="72.113" cy="72.113" r="72.113" transform="translate(168.155 23.73) rotate(-9.47)" fill="#d9eaff"/>
          <g id="Group_25" data-name="Group 25" transform="translate(171.236 308.194)">
            <path id="Path_267" data-name="Path 267" d="M1217.014,457.244a1.337,1.337,0,0,0,1.221-.8,1.318,1.318,0,0,0-.687-1.747l-26.881-11.77a1.327,1.327,0,0,0-1.06,2.434l26.881,11.77a1.311,1.311,0,0,0,.534.11Z" transform="translate(-1155.958 -396.316)" fill="#d9eaff"/>
            <path id="Path_268" data-name="Path 268" d="M1168.961,466.183a1.308,1.308,0,0,0,1-.458l17.952-20.7a1.329,1.329,0,0,0-2.01-1.738l-17.952,20.7a1.327,1.327,0,0,0,1.009,2.2Z" transform="translate(-1152.738 -396.317)" fill="#d9eaff"/>
            <path id="Path_269" data-name="Path 269" d="M1185.314,443.364a1.337,1.337,0,0,0,1.221-.8,1.318,1.318,0,0,0-.687-1.747l-26.881-11.77a1.327,1.327,0,0,0-1.06,2.434l26.881,11.77a1.311,1.311,0,0,0,.534.11Z" transform="translate(-1151.14 -394.206)" fill="#d9eaff"/>
            <path id="Path_270" data-name="Path 270" d="M1188.718,438.6a1.542,1.542,0,0,0,.271-.025,1.327,1.327,0,0,0,1.035-1.569l-7.895-38.355a1.329,1.329,0,1,0-2.6.534l7.895,38.355A1.323,1.323,0,0,0,1188.718,438.6Z" transform="translate(-1154.543 -389.441)" fill="#d9eaff"/>
            <path id="Path_271" data-name="Path 271" d="M1190.131,441.763a1.308,1.308,0,0,0,1-.458l17.952-20.7a1.329,1.329,0,0,0-2.01-1.738l-17.952,20.7a1.327,1.327,0,0,0,1.009,2.2Z" transform="translate(-1155.956 -392.605)" fill="#d9eaff"/>
            <circle id="Ellipse_48" data-name="Ellipse 48" cx="10.43" cy="10.43" r="10.43" transform="translate(23.744 37.404)" fill="#45628f"/>
            <circle id="Ellipse_49" data-name="Ellipse 49" cx="7.293" cy="7.293" r="7.293" transform="translate(53.763 52.312)" fill="#fff"/>
            <circle id="Ellipse_50" data-name="Ellipse 50" cx="7.293" cy="7.293" r="7.293" transform="matrix(0.385, -0.923, 0.923, 0.385, 16.804, 13.463)" fill="#fff"/>
            <circle id="Ellipse_51" data-name="Ellipse 51" cx="7.293" cy="7.293" r="7.293" transform="translate(8.929 61.241)" fill="#fff"/>
            <circle id="Ellipse_52" data-name="Ellipse 52" cx="7.293" cy="7.293" r="7.293" transform="translate(44.833 19.842)" fill="#fff"/>
            <circle id="Ellipse_53" data-name="Ellipse 53" cx="7.293" cy="7.293" r="7.293" transform="translate(0 28.772)" fill="#fff"/>
          </g>
          <g id="Group_26" data-name="Group 26" transform="translate(11.838 157.81)">
            <path id="Path_272" data-name="Path 272" d="M962.1,291.154c0-15.408,31.825-27.484,72.453-27.484s72.453,12.067,72.453,27.484-31.825,27.484-72.453,27.484S962.1,306.562,962.1,291.154Zm4.876,0c0,10.922,27.153,22.608,67.577,22.608s67.577-11.694,67.577-22.608-27.153-22.608-67.577-22.608-67.577,11.694-67.577,22.608Z" transform="translate(-962.1 -218.701)" fill="#d9eaff"/>
            <path id="Path_273" data-name="Path 273" d="M1015.13,283.093c0-40.627,12.075-72.453,27.484-72.453s27.484,31.825,27.484,72.453-12.075,72.453-27.484,72.453-27.483-31.825-27.483-72.453Zm4.876,0c0,40.424,11.694,67.577,22.608,67.577s22.608-27.153,22.608-67.577-11.694-67.577-22.608-67.577-22.607,27.153-22.607,67.577Z" transform="translate(-970.161 -210.64)" fill="#d9eaff"/>
            <path id="Path_274" data-name="Path 274" d="M986.743,337.156c-5.512-5.512-4.978-16.095,1.5-29.79,6.122-12.94,16.884-27.458,30.3-40.873s27.933-24.176,40.873-30.3c13.7-6.479,24.278-7.013,29.79-1.5s4.978,16.095-1.5,29.79c-6.122,12.94-16.884,27.458-30.3,40.873s-27.933,24.176-40.873,30.3c-7.428,3.511-13.941,5.275-19.224,5.275-4.461,0-8.039-1.255-10.566-3.782ZM1061.5,240.6c-12.449,5.885-26.483,16.307-39.517,29.341s-23.447,27.068-29.341,39.517c-5.453,11.524-6.351,20.369-2.459,24.261s12.728,2.993,24.261-2.459c12.449-5.885,26.483-16.307,39.517-29.341s23.447-27.068,29.341-39.517c5.453-11.524,6.351-20.369,2.459-24.261-1.594-1.594-4.028-2.383-7.14-2.383-4.461,0-10.329,1.628-17.121,4.842Z" transform="translate(-965.272 -213.722)" fill="#29abe2"/>
            <path id="Path_275" data-name="Path 275" d="M1059.416,335.665c-12.94-6.123-27.458-16.884-40.873-30.3s-24.176-27.933-30.3-40.873c-6.479-13.7-7.013-24.278-1.5-29.79s16.095-4.978,29.79,1.5c12.94,6.123,27.458,16.884,40.873,30.3s24.176,27.933,30.3,40.873c6.479,13.7,7.013,24.278,1.5,29.79-2.519,2.527-6.105,3.782-10.566,3.782-5.283,0-11.8-1.764-19.224-5.275Zm-69.23-97.519c-3.892,3.892-2.993,12.728,2.459,24.261,5.885,12.449,16.307,26.483,29.341,39.517s27.068,23.456,39.517,29.341c11.524,5.453,20.369,6.351,24.261,2.459s2.993-12.728-2.459-24.261c-5.885-12.449-16.307-26.483-29.341-39.517S1026.9,246.49,1014.447,240.6c-6.792-3.214-12.661-4.842-17.121-4.842-3.112,0-5.537.789-7.14,2.383Z" transform="translate(-965.271 -213.723)" fill="#29abe2"/>
            <circle id="Ellipse_54" data-name="Ellipse 54" cx="14.586" cy="14.586" r="14.586" transform="translate(57.575 86.189) rotate(-87.64)" fill="#45628f"/>
          </g>
          <g id="Group_27" data-name="Group 27" transform="translate(194.734 40.608)">
            <path id="Path_276" data-name="Path 276" d="M1193.3,131.6h86.038a1.526,1.526,0,1,0,0-3.053H1193.3a1.526,1.526,0,0,0,0,3.053Z" transform="translate(-1179.907 -80.961)" fill="#29abe2"/>
            <path id="Path_277" data-name="Path 277" d="M1279.24,119.834l13.4-7.734,13.4,7.734V135.3l-13.4,7.742-13.4-7.742Z" transform="translate(-1193.202 -78.46)" fill="#29abe2"/>
            <path id="Path_278" data-name="Path 278" d="M1239.694,124.65a1.515,1.515,0,0,0,1.272-.687l25.66-38.779a1.53,1.53,0,0,0-2.552-1.688l-24.388,36.854L1215.3,83.5a1.53,1.53,0,1,0-2.552,1.688l25.66,38.779a1.536,1.536,0,0,0,1.272.687Z" transform="translate(-1183.056 -74.008)" fill="#29abe2"/>
            <path id="Path_279" data-name="Path 279" d="M1224.62,117.252l16.7-9.642,16.688,9.642v19.275l-16.688,9.633-16.7-9.633Z" transform="translate(-1184.9 -77.778)" fill="#45628f"/>
            <path id="Path_280" data-name="Path 280" d="M1177.78,119.834l13.39-7.734,13.4,7.734V135.3l-13.4,7.742-13.39-7.742Z" transform="translate(-1177.78 -78.46)" fill="#29abe2"/>
            <circle id="Ellipse_55" data-name="Ellipse 55" cx="8.802" cy="8.802" r="8.802" transform="translate(21.615 0)" fill="#29abe2"/>
            <circle id="Ellipse_56" data-name="Ellipse 56" cx="8.802" cy="8.802" r="8.802" transform="translate(74.403 0)" fill="#29abe2"/>
          </g>
        </g>
        <g id="Group_38" data-name="Group 38" transform="translate(231.858 844.619)">
          <g id="Group_29" data-name="Group 29" transform="translate(0 122.409)">
            <path id="Path_281" data-name="Path 281" d="M367.193,1379c-4.291-1.84-9.091.627-10.7,5.5-.051.153-.1.331-.144.475L308.1,1557.919a4.706,4.706,0,0,0,2.62,5.733,3.935,3.935,0,0,0,4.986-2.748l56.341-169.76c1.62-4.876-.551-10.312-4.851-12.152Z" transform="translate(-278.661 -1176.55)" fill="#deeafb"/>
            <path id="Path_282" data-name="Path 282" d="M557.492,1557.92l-48.251-172.94c-.042-.153-.093-.331-.144-.475-1.62-4.876-6.411-7.335-10.7-5.5s-6.462,7.276-4.851,12.152l56.341,169.76a3.932,3.932,0,0,0,4.986,2.748,4.714,4.714,0,0,0,2.62-5.733Z" transform="translate(-306.798 -1176.551)" fill="#deeafb"/>
            <path id="Path_283" data-name="Path 283" d="M286.708,1140.37a13.287,13.287,0,0,0-13.059,15.73l29.782,174.288a45.535,45.535,0,0,0,44.554,36.108H503.871c15.79,0,26.78-16.672,19.546-30.714-1.442-2.8-3.282-4.706-5.359-5.062l-119.576-20.471a45.532,45.532,0,0,1-34.1-26.78l-65.72-135.6a13.284,13.284,0,0,0-11.957-7.488h0Z" transform="translate(-273.419 -1140.37)" fill="#deeafb"/>
          </g>
          <g id="Group_30" data-name="Group 30" transform="translate(260.844 156.931)">
            <path id="Path_284" data-name="Path 284" d="M592.606,1238.4a6.044,6.044,0,0,1-6.046-6.046v-42.2h12.092v42.2A6.044,6.044,0,0,1,592.606,1238.4Z" transform="translate(-581.862 -1182.46)" fill="#fff"/>
            <rect id="Rectangle_36" data-name="Rectangle 36" width="16.248" height="15.264" rx="2.6" transform="translate(2.62)" fill="#45628f"/>
            <path id="Path_285" data-name="Path 285" d="M637.186,1238.4a6.044,6.044,0,0,1-6.046-6.046v-42.2h12.092v42.2A6.044,6.044,0,0,1,637.186,1238.4Z" transform="translate(-588.638 -1182.46)" fill="#fff"/>
            <rect id="Rectangle_37" data-name="Rectangle 37" width="16.248" height="15.264" rx="2.6" transform="translate(40.424)" fill="#45628f"/>
            <path id="Path_286" data-name="Path 286" d="M659.476,1238.4a6.044,6.044,0,0,1-6.046-6.046v-42.2h12.092v42.2A6.044,6.044,0,0,1,659.476,1238.4Z" transform="translate(-592.027 -1182.46)" fill="#fff"/>
            <rect id="Rectangle_38" data-name="Rectangle 38" width="16.248" height="15.264" rx="2.6" transform="translate(59.326)" fill="#45628f"/>
            <path id="Path_287" data-name="Path 287" d="M681.766,1238.4a6.044,6.044,0,0,1-6.046-6.046v-42.2h12.092v42.2A6.044,6.044,0,0,1,681.766,1238.4Z" transform="translate(-595.415 -1182.46)" fill="#fff"/>
            <rect id="Rectangle_39" data-name="Rectangle 39" width="16.248" height="15.264" rx="2.6" transform="translate(78.228)" fill="#45628f"/>
            <path id="Path_288" data-name="Path 288" d="M675.4,1220.3h-91.38a2.061,2.061,0,0,1,0-4.121H675.4a2.061,2.061,0,0,1,0,4.121Z" transform="translate(-581.163 -1186.415)" fill="#45628f"/>
            <path id="Path_289" data-name="Path 289" d="M671.951,1248.64H587.193a6.174,6.174,0,0,0-6.173,6.173h97.112a6.174,6.174,0,0,0-6.173-6.173Z" transform="translate(-581.02 -1191.349)" fill="#fff"/>
          </g>
          <g id="Group_32" data-name="Group 32" transform="translate(367.099 141.057)">
            <path id="Path_290" data-name="Path 290" d="M758.845,1232.194l-16.332-44.783V1171.69h-19.36v15.722l-16.332,44.783a8.142,8.142,0,0,0,7.649,10.931h36.718a8.142,8.142,0,0,0,7.649-10.931Z" transform="translate(-706.322 -1163.778)" fill="#fff"/>
            <path id="Path_291" data-name="Path 291" d="M739.753,1187.963V1168.9h-8.344v19.054l-7.038,19.292h22.412Z" transform="translate(-709.065 -1163.354)" fill="#d6e1f0"/>
            <path id="Path_292" data-name="Path 292" d="M745.026,1214.12H722.613l-9.633,26.407a2.61,2.61,0,0,0,.314,2.417,2.577,2.577,0,0,0,2.162,1.128h36.718a2.637,2.637,0,0,0,2.476-3.545Z" transform="translate(-707.309 -1170.228)" fill="#45628f"/>
            <path id="Path_293" data-name="Path 293" d="M745.658,1170.263H724.272a3.952,3.952,0,0,1,0-7.9h21.386a3.952,3.952,0,0,1,0,7.9Z" transform="translate(-708.45 -1162.36)" fill="#fff"/>
            <g id="Group_31" data-name="Group 31" transform="translate(14.075 39.822)">
              <circle id="Ellipse_57" data-name="Ellipse 57" cx="4.062" cy="4.062" r="4.062" transform="translate(0 19.894)" fill="#fff"/>
              <circle id="Ellipse_58" data-name="Ellipse 58" cx="4.062" cy="4.062" r="4.062" transform="translate(16.756 14.984)" fill="#fff"/>
              <circle id="Ellipse_59" data-name="Ellipse 59" cx="4.062" cy="4.062" r="4.062" transform="translate(7.327)" fill="#fff"/>
            </g>
          </g>
          <g id="Group_37" data-name="Group 37" transform="translate(37.136)">
            <path id="Path_294" data-name="Path 294" d="M462.8,1019.221l-33.4-5.631-14.407,24.677-22.082,44.062,30.9,14.128c30.825-20.428,40.382-45.86,38.991-77.235Z" transform="translate(-328.718 -998.69)" fill="#37384f"/>
            <path id="Path_295" data-name="Path 295" d="M420.481,1033.36l14.619,32.156c-2.7-.382-4.9.814-5.368,3.324l-1.2,5.724-9.514,8.031L401.46,1067.5l19.029-34.14Z" transform="translate(-330.017 -1001.695)" fill="#b3680a"/>
            <path id="Path_296" data-name="Path 296" d="M450.79,1060.588c-1.933,4.85-8.276,6.631-15.434-1.518l-6.682-7.31a24.616,24.616,0,0,1-4.2-26.881l1.425-3.1a18.559,18.559,0,0,1,4.639-6.207l1.772-1.543a18.479,18.479,0,0,1,29.188,21.073L450.8,1060.6Z" transform="translate(-333.174 -998.065)" fill="#b3680a"/>
            <path id="Path_297" data-name="Path 297" d="M455.46,1058.222l4.918,1.857a2.387,2.387,0,0,0,3.231-2.264l-.161-10.269-3.443-1.306-4.537,11.982Z" transform="translate(-338.226 -1003.653)" fill="#b3680a"/>
            <path id="Path_298" data-name="Path 298" d="M436.37,1161.683c8.242,24.88,21.217,48.141,30.3,52.152l18.308-21.013-9.794-45.512Z" transform="translate(-335.324 -1019.016)" fill="#b3680a"/>
            <path id="Path_299" data-name="Path 299" d="M471.305,1116.038c-4.189-19.69-19.4-31.4-33.665-28.764-15.535,6.623-14.84,42.069-5.478,70.324l43.9-16.917Z" transform="translate(-333.668 -1009.834)" fill="#a4a6d6"/>
            <path id="Path_300" data-name="Path 300" d="M566.238,1137.791l-12.432,14.764-13.576-6.589,11-19.716Z" transform="translate(-351.111 -1015.814)" fill="#b3680a"/>
            <path id="Path_301" data-name="Path 301" d="M539.7,1143.848l-9.235-22.124,6.1-2.264,15.756,13.678Z" transform="translate(-349.628 -1014.782)" fill="#b3680a"/>
            <g id="Group_33" data-name="Group 33" transform="translate(177.297 88.418)">
              <path id="Path_302" data-name="Path 302" d="M572.83,1146.83a6.05,6.05,0,0,1-8.548,0L534.45,1117,543,1108.45l29.832,29.833A6.049,6.049,0,0,1,572.83,1146.83Z" transform="translate(-527.529 -1101.527)" fill="#fff"/>
              <rect id="Rectangle_40" data-name="Rectangle 40" width="16.248" height="15.264" rx="2.6" transform="translate(0 11.489) rotate(-45)" fill="#45628f"/>
            </g>
            <path id="Path_303" data-name="Path 303" d="M464.066,1202.4l-4.036-13.916,71.613-42.739,9.981,9.76c-13.636,20.14-44.969,48.5-71.35,58.079l-6.19-11.193Z" transform="translate(-338.92 -1018.779)" fill="#b3680a"/>
            <path id="Path_304" data-name="Path 304" d="M450.147,1107.054a20.138,20.138,0,0,0-12.661-19.707c-13.526-5.376-24.923-8.192-36.837-7.92-27.738.627-52.058,24.236-49.5,51.863,5.4,58.308-11.2,93.627-11.2,132.109H448.392s.365-128.81,1.755-156.345Z" transform="translate(-320.668 -1008.694)" fill="#a4a6d6"/>
            <g id="Group_34" data-name="Group 34" transform="translate(29.897 88.019)">
              <path id="Path_305" data-name="Path 305" d="M363.35,1174.6c8.242,24.88,21.217,48.141,30.3,52.152l18.308-21.013-9.794-45.512L363.35,1174.6Z" transform="translate(-354.122 -1108.999)" fill="#b3680a"/>
              <path id="Path_306" data-name="Path 306" d="M398.3,1128.948c-4.189-19.69-19.4-31.4-33.665-28.764-15.535,6.623-14.84,42.069-5.478,70.324l43.9-16.917Z" transform="translate(-352.467 -1099.815)" fill="#a4a6d6"/>
              <path id="Path_307" data-name="Path 307" d="M536.038,1247.555l-7.818-1.314-22.955,7-4.215-10.973,16.714-9.922,15.544,2.917,11.278,9.794a10.212,10.212,0,0,1-8.556,2.493Z" transform="translate(-375.053 -1119.961)" fill="#b3680a"/>
              <path id="Path_308" data-name="Path 308" d="M403.439,1222.3l7.819-12.194,79.3,25.813-.789,13.941c-24.134,2.976-66.11-1.967-90.685-15.527l4.359-12.033Z" transform="translate(-359.553 -1116.581)" fill="#b3680a"/>
            </g>
            <path id="Path_309" data-name="Path 309" d="M394.069,1081.986,428.93,1122.3l2.705-39.788a77.1,77.1,0,0,0-22.76-3.1,51.287,51.287,0,0,0-14.814,2.569Z" transform="translate(-328.893 -1008.693)" fill="#fff"/>
            <path id="Path_310" data-name="Path 310" d="M339.948,1296.38c0,31.774,15.086,69.553,65.3,69.553H545.63l8.454-69.553H339.94Z" transform="translate(-320.666 -1041.675)" fill="#676fb0"/>
            <path id="Path_311" data-name="Path 311" d="M489.239,1549.59,485.83,1570h17.019l7.937-20.411Z" transform="translate(-342.842 -1080.164)" fill="#b3680a"/>
            <path id="Path_312" data-name="Path 312" d="M568.109,1297.829a28.713,28.713,0,0,0-36.447,18.9c-16.841,54.746-34.208,139.266-43.672,197.574H516.2l69.332-178.045a28.7,28.7,0,0,0-17.426-38.44Z" transform="translate(-343.17 -1041.674)" fill="#676fb0"/>
            <g id="Group_35" data-name="Group 35" transform="translate(140.454 488.879)">
              <path id="Path_313" data-name="Path 313" d="M484.248,1572.539h18.63l13.314,7.157a50.144,50.144,0,0,0,7.352,3.214l3.918,1.348c4.918,1.764,3.146,9.116-2.027,9.116H489.183a6.3,6.3,0,0,1-6.309-6.988l1.365-13.856Z" transform="translate(-482.842 -1572.53)" fill="#37384f"/>
              <path id="Path_314" data-name="Path 314" d="M530.424,1591.03a4.99,4.99,0,0,1-4.935,5.164H489.237a6.265,6.265,0,0,1-6.207-5.164Z" transform="translate(-482.87 -1575.342)" fill="#676fb0"/>
            </g>
            <path id="Path_315" data-name="Path 315" d="M576.18,1549.59,578.97,1570h17.011l1.747-20.411Z" transform="translate(-356.576 -1080.164)" fill="#b3680a"/>
            <path id="Path_316" data-name="Path 316" d="M586.984,1296.378c-17.579,0-30.655,20.216-30.714,35.616-.229,54.746,8.047,124,16.273,182.31h28.213l15.315-185.677c1.857-15.442-11.032-32.258-29.086-32.258Z" transform="translate(-353.549 -1041.674)" fill="#676fb0"/>
            <g id="Group_36" data-name="Group 36" transform="translate(219.852 488.879)">
              <path id="Path_317" data-name="Path 317" d="M577.878,1572.539h18.63l13.314,7.157a50.141,50.141,0,0,0,7.352,3.214l3.918,1.348c4.918,1.764,3.146,9.116-2.027,9.116H582.813a6.3,6.3,0,0,1-6.309-6.988l1.365-13.856Z" transform="translate(-576.472 -1572.53)" fill="#37384f"/>
              <path id="Path_318" data-name="Path 318" d="M624.054,1591.03a4.99,4.99,0,0,1-4.935,5.164H582.867a6.265,6.265,0,0,1-6.207-5.164Z" transform="translate(-576.5 -1575.342)" fill="#676fb0"/>
            </g>
            <path id="Path_319" data-name="Path 319" d="M469.264,1012.1c-5.139,2.535-10.261,3.367-15.34.551l-24.685-13.517c-10.931-6.139-22.684-3.29-30.07,9.362-8.039,13.754-47.522,57.189-69.731,79.678-37.329,50.125,21.251,64.846,37.057,41.959,4.825-6.987,42.5-57.214,56.688-110.367,8.641,7.225,42.917,24.3,46.089-7.666Z" transform="translate(-317.211 -996.019)" fill="#37384f"/>
            <path id="Path_320" data-name="Path 320" d="M556.24,1120.15l2.4,8.514,11.2,11.618a9.832,9.832,0,0,0-.187-14.229l-4.367-4.062-9.04-1.832Z" transform="translate(-353.545 -1014.887)" fill="#b3680a"/>
          </g>
          <path id="Path_321" data-name="Path 321" d="M758.336,1255.93H452.71a12.72,12.72,0,0,0,0,25.44H758.336a12.72,12.72,0,0,0,0-25.44Z" transform="translate(-298.739 -1035.526)" fill="#d9eaff"/>
        </g>
      </g>
    </g>
  </g>
</svg>
