<svg width="36" height="36" viewBox="0 0 36 36" fill="none" xmlns="http://www.w3.org/2000/svg">
<path d="M12.924 35.594C12.028 35.594 11.2653 35.2793 10.636 34.65C10.0067 34.0206 9.692 33.2586 9.692 32.364V25.902H3.232C2.336 25.902 1.57333 25.5873 0.944 24.958C0.314666 24.3286 0 23.566 0 22.67V13.136C0 12.24 0.314666 11.4773 0.944 10.848C1.57333 10.2186 2.33533 9.90329 3.23 9.90196H9.692V3.44196C9.692 2.54596 10.0067 1.78329 10.636 1.15396C11.2653 0.524627 12.028 0.209961 12.924 0.209961H22.46C23.356 0.209961 24.1187 0.524627 24.748 1.15396C25.3773 1.78329 25.692 2.54529 25.692 3.43996V9.90196H32.152C33.048 9.90196 33.8107 10.2166 34.44 10.846C35.0693 11.4753 35.384 12.238 35.384 13.134V22.67C35.384 23.566 35.0693 24.3286 34.44 24.958C33.8107 25.5873 33.0487 25.902 32.154 25.902H25.692V32.362C25.692 33.258 25.3773 34.0206 24.748 34.65C24.1187 35.2793 23.356 35.594 22.46 35.594H12.924ZM2 16.902H11.692C11.872 16.902 12.0287 16.9406 12.162 17.018C12.2953 17.0953 12.4067 17.2026 12.496 17.34L15.4 21.672L18.754 11.61C18.8353 11.39 18.9553 11.2166 19.114 11.09C19.2727 10.9633 19.4653 10.9006 19.692 10.902C19.872 10.902 20.0347 10.9406 20.18 11.018C20.3267 11.0953 20.4447 11.2026 20.534 11.34L24.204 16.902H33.384V13.134C33.384 12.774 33.2687 12.4786 33.038 12.248C32.8073 12.0173 32.5127 11.902 32.154 11.902H25.308C24.8427 11.902 24.4573 11.7486 24.152 11.442C23.8467 11.1353 23.6933 10.75 23.692 10.286V3.44196C23.692 3.08329 23.5767 2.78863 23.346 2.55796C23.1153 2.32729 22.8207 2.21196 22.462 2.21196H12.922C12.5633 2.21196 12.2687 2.32729 12.038 2.55796C11.8073 2.78863 11.692 3.08263 11.692 3.43996V10.286C11.692 10.7513 11.5387 11.1366 11.232 11.442C10.9253 11.7473 10.54 11.9006 10.076 11.902H3.232C2.87333 11.902 2.57867 12.0173 2.348 12.248C2.11733 12.4786 2.002 12.774 2.002 13.134L2 16.902ZM2 18.902V22.672C2 23.0306 2.11533 23.3253 2.346 23.556C2.57667 23.7866 2.87133 23.902 3.23 23.902H10.076C10.5413 23.902 10.9267 24.0553 11.232 24.362C11.5373 24.6686 11.6907 25.054 11.692 25.518V32.364C11.692 32.7226 11.8073 33.0173 12.038 33.248C12.2687 33.4786 12.564 33.594 12.924 33.594H22.462C22.8207 33.594 23.1153 33.4786 23.346 33.248C23.5767 33.0173 23.692 32.7226 23.692 32.364V25.518C23.692 25.0526 23.8453 24.6673 24.152 24.362C24.4587 24.0566 24.844 23.9033 25.308 23.902H32.154C32.5127 23.902 32.8073 23.7866 33.038 23.556C33.2687 23.3253 33.384 23.0306 33.384 22.672V18.902H23.692C23.5133 18.902 23.3507 18.8573 23.204 18.768C23.0573 18.6786 22.9353 18.5646 22.838 18.426L19.984 14.132L16.63 24.194C16.5487 24.414 16.4207 24.5873 16.246 24.714C16.0713 24.8406 15.87 24.9033 15.642 24.902C15.4633 24.902 15.3073 24.8633 15.174 24.786C15.0407 24.7086 14.9287 24.6013 14.838 24.464L11.13 18.902H2Z" fill="#0D99FF"/>
</svg>
