<?xml version="1.0" encoding="utf-8"?>
<!-- Generator: Adobe Illustrator 24.3.0, SVG Export Plug-In . SVG Version: 6.00 Build 0)  -->
<svg version="1.1" id="Layer_1" xmlns="http://www.w3.org/2000/svg" xmlns:xlink="http://www.w3.org/1999/xlink" x="0px" y="0px"
	 viewBox="0 0 146.16 34.02" style="enable-background:new 0 0 146.16 34.02;" xml:space="preserve">
<style type="text/css">
	.st0{fill:#010101;}
	.st1{fill:#29ABE2;}
</style>
<g>
	<g>
		<path class="st0" d="M2.03,28.82l0.4-0.99c0.71,0.37,1.46,0.55,2.27,0.55c0.75,0,1.3-0.15,1.65-0.44c0.3-0.25,0.44-0.58,0.44-0.98
			c0-0.33-0.09-0.6-0.27-0.83c-0.12-0.15-0.28-0.29-0.5-0.41c-0.22-0.12-0.57-0.28-1.07-0.47c-1-0.39-1.68-0.72-2.03-1
			c-0.46-0.37-0.69-0.87-0.69-1.51c0-0.76,0.26-1.35,0.79-1.78c0.53-0.42,1.27-0.64,2.22-0.64c0.86,0,1.67,0.19,2.42,0.56L7.23,21.8
			c-0.64-0.33-1.29-0.49-1.96-0.49c-0.51,0-0.9,0.1-1.19,0.3c-0.33,0.22-0.49,0.55-0.49,0.98c0,0.37,0.13,0.66,0.39,0.86
			c0.14,0.11,0.32,0.22,0.53,0.31c0.21,0.1,0.6,0.26,1.17,0.48c0.57,0.23,0.99,0.42,1.28,0.59c0.28,0.16,0.52,0.35,0.7,0.56
			c0.34,0.39,0.51,0.89,0.51,1.49c0,0.83-0.31,1.46-0.93,1.88c-0.58,0.4-1.39,0.6-2.44,0.6C3.7,29.37,2.78,29.18,2.03,28.82z"/>
		<path class="st0" d="M10.45,20.62c0.23,0,0.42,0.07,0.59,0.22c0.16,0.15,0.25,0.32,0.25,0.53c0,0.21-0.08,0.38-0.25,0.53
			c-0.17,0.15-0.37,0.22-0.6,0.22s-0.44-0.07-0.6-0.22c-0.16-0.15-0.25-0.32-0.25-0.53c0-0.21,0.08-0.38,0.25-0.52
			C9.99,20.69,10.2,20.62,10.45,20.62z M9.81,29.19V23.1h1.24v6.08H9.81z"/>
		<path class="st0" d="M13.55,29.19V23.1h1.2l0.06,0.92c0.21-0.2,0.4-0.37,0.56-0.49c0.53-0.4,1.12-0.61,1.77-0.61
			c0.5,0,0.91,0.1,1.23,0.31c0.33,0.21,0.54,0.5,0.64,0.88c0.24-0.22,0.44-0.4,0.63-0.54c0.56-0.44,1.17-0.65,1.82-0.65
			c0.44,0,0.82,0.09,1.14,0.26c0.32,0.17,0.55,0.41,0.68,0.71c0.14,0.31,0.21,0.84,0.21,1.58v3.72h-1.24v-3.9
			c0-0.47-0.05-0.81-0.16-1.01c-0.14-0.27-0.42-0.4-0.83-0.4c-0.67,0-1.38,0.43-2.12,1.3v4.01H17.9v-3.84c0-0.48-0.04-0.8-0.11-0.98
			c-0.14-0.33-0.43-0.49-0.88-0.49c-0.67,0-1.38,0.43-2.12,1.3v4.01H13.55z"/>
		<path class="st0" d="M25.63,32.16V23.1h1.18l0.06,0.61c0.55-0.52,1.23-0.78,2.03-0.78c0.97,0,1.67,0.32,2.09,0.97
			c0.38,0.58,0.58,1.32,0.58,2.22c0,0.87-0.2,1.58-0.61,2.14c-0.23,0.3-0.52,0.55-0.88,0.74c-0.47,0.25-1.01,0.38-1.61,0.38
			c-0.51,0-1.04-0.09-1.58-0.28v2.82L25.63,32.16z M26.87,28.06c0.46,0.27,0.94,0.4,1.45,0.4c0.7,0,1.21-0.25,1.54-0.74
			c0.28-0.43,0.42-0.97,0.42-1.62c0-0.66-0.13-1.21-0.38-1.64c-0.11-0.2-0.28-0.35-0.5-0.47c-0.22-0.12-0.47-0.17-0.73-0.17
			c-0.28,0-0.55,0.06-0.81,0.19c-0.26,0.13-0.48,0.3-0.65,0.52c-0.13,0.17-0.22,0.33-0.27,0.49c-0.05,0.16-0.07,0.38-0.07,0.66
			V28.06z"/>
		<path class="st0" d="M33.53,29.19v-8.93l1.24-0.24v9.17H33.53z"/>
		<path class="st0" d="M37.98,20.62c0.23,0,0.42,0.07,0.59,0.22c0.16,0.15,0.25,0.32,0.25,0.53c0,0.21-0.08,0.38-0.25,0.53
			c-0.17,0.15-0.37,0.22-0.6,0.22c-0.24,0-0.44-0.07-0.6-0.22c-0.16-0.15-0.25-0.32-0.25-0.53c0-0.21,0.08-0.38,0.25-0.52
			C37.53,20.69,37.74,20.62,37.98,20.62z M37.34,29.19V23.1h1.24v6.08H37.34z"/>
		<path class="st0" d="M42.59,24.01v5.18h-1.24v-5.18h-1.29l0.08-0.9h1.22v-0.69c0-1.49,0.7-2.24,2.1-2.24
			c0.44,0,0.86,0.07,1.26,0.22l-0.28,0.85c-0.3-0.12-0.59-0.17-0.88-0.17c-0.36,0-0.61,0.11-0.75,0.32
			c-0.14,0.21-0.22,0.58-0.22,1.1v0.61h1.81l-0.08,0.9H42.59z"/>
		<path class="st0" d="M47.67,29.24l-2.52-6.14h1.37l1.85,4.79l2.08-4.79h1.25l-4.11,9.06l-1.18-0.39L47.67,29.24z"/>
		<path class="st0" d="M53.55,20.62c0.23,0,0.42,0.07,0.59,0.22c0.16,0.15,0.25,0.32,0.25,0.53c0,0.21-0.08,0.38-0.25,0.53
			c-0.17,0.15-0.37,0.22-0.6,0.22c-0.24,0-0.44-0.07-0.6-0.22c-0.16-0.15-0.25-0.32-0.25-0.53c0-0.21,0.08-0.38,0.25-0.52
			C53.1,20.69,53.31,20.62,53.55,20.62z M52.91,29.19V23.1h1.24v6.08H52.91z"/>
		<path class="st0" d="M56.66,29.19V23.1h1.2l0.06,0.92c0.21-0.2,0.4-0.36,0.58-0.49c0.55-0.4,1.16-0.61,1.83-0.61
			c0.52,0,0.96,0.11,1.32,0.33c0.3,0.19,0.5,0.44,0.61,0.75c0.11,0.31,0.16,0.8,0.16,1.46v3.72h-1.24v-3.91
			c0-0.48-0.06-0.81-0.18-1.01c-0.16-0.26-0.46-0.39-0.91-0.39c-0.69,0-1.42,0.43-2.19,1.3v4.01H56.66z"/>
		<path class="st0" d="M68.7,28.53c-0.57,0.56-1.24,0.84-2.02,0.84c-0.62,0-1.14-0.15-1.57-0.44c-0.68-0.47-1.01-1.3-1.01-2.49
			c0-0.98,0.25-1.78,0.75-2.4c0.6-0.74,1.45-1.11,2.57-1.11c0.71,0,1.55,0.14,2.53,0.43v4.75c0,1.18-0.09,2.01-0.26,2.49
			c-0.17,0.49-0.51,0.86-1.02,1.13c-0.51,0.27-1.14,0.4-1.89,0.4c-0.79,0-1.49-0.12-2.09-0.35l0.4-0.87
			c0.54,0.21,1.12,0.31,1.72,0.31c0.84,0,1.39-0.24,1.64-0.73c0.17-0.33,0.25-0.86,0.25-1.6V28.53z M68.7,24.11
			c-0.44-0.19-0.88-0.28-1.3-0.28c-0.7,0-1.21,0.25-1.54,0.74c-0.32,0.49-0.48,1.11-0.48,1.87c0,1.35,0.51,2.03,1.53,2.03
			c0.62,0,1.1-0.23,1.46-0.7c0.13-0.16,0.22-0.33,0.26-0.49c0.05-0.16,0.07-0.38,0.07-0.66V24.11z"/>
		<path class="st0" d="M77.62,29.19V21.5h-2.88l0.08-1h6.96l-0.08,1h-2.8v7.69H77.62z"/>
		<path class="st0" d="M87.49,26.41h-4.64c0.02,0.47,0.13,0.88,0.32,1.23c0.31,0.56,0.95,0.83,1.93,0.83c0.66,0,1.25-0.18,1.77-0.55
			l0.51,0.75c-0.63,0.46-1.47,0.69-2.52,0.69c-1.02,0-1.8-0.26-2.36-0.77c-0.59-0.54-0.89-1.32-0.89-2.33
			c0-0.98,0.24-1.76,0.72-2.34c0.55-0.67,1.34-1.01,2.39-1.01c1.85,0,2.78,1.03,2.78,3.1C87.51,26.14,87.5,26.27,87.49,26.41z
			 M86.23,25.57c-0.01-0.39-0.08-0.71-0.19-0.96c-0.23-0.53-0.7-0.8-1.4-0.8c-0.51,0-0.93,0.16-1.23,0.47
			c-0.31,0.31-0.48,0.74-0.5,1.29H86.23z"/>
		<path class="st0" d="M93.71,27.88l0.54,0.78c-0.38,0.26-0.74,0.44-1.09,0.55c-0.35,0.1-0.77,0.16-1.26,0.16
			c-1.02,0-1.8-0.28-2.34-0.83c-0.54-0.57-0.81-1.34-0.81-2.31c0-1.07,0.33-1.9,0.98-2.49c0.59-0.53,1.36-0.8,2.3-0.8
			c0.7,0,1.38,0.17,2.03,0.52l-0.42,0.84c-0.54-0.3-1.07-0.46-1.58-0.46c-0.62,0-1.11,0.2-1.45,0.61c-0.38,0.44-0.56,1.02-0.56,1.73
			c0,0.64,0.15,1.17,0.46,1.58c0.35,0.47,0.89,0.71,1.63,0.71C92.69,28.46,93.22,28.27,93.71,27.88z"/>
		<path class="st0" d="M95.62,29.19v-8.94L96.86,20v4.04c0.4-0.4,0.79-0.69,1.16-0.86c0.37-0.17,0.78-0.26,1.23-0.26
			c0.45,0,0.85,0.09,1.19,0.26c0.34,0.17,0.58,0.41,0.72,0.71c0.14,0.31,0.22,0.84,0.22,1.58v3.72h-1.24v-3.78
			c0-0.53-0.05-0.89-0.15-1.09c-0.15-0.3-0.47-0.45-0.94-0.45c-0.69,0-1.42,0.43-2.2,1.3v4.01H95.62z"/>
		<path class="st0" d="M103.76,29.19V23.1h1.2l0.06,0.92c0.21-0.2,0.4-0.36,0.58-0.49c0.55-0.4,1.16-0.61,1.83-0.61
			c0.52,0,0.96,0.11,1.32,0.33c0.3,0.19,0.5,0.44,0.61,0.75c0.11,0.31,0.16,0.8,0.16,1.46v3.72h-1.24v-3.91
			c0-0.48-0.06-0.81-0.18-1.01c-0.16-0.26-0.46-0.39-0.91-0.39c-0.69,0-1.42,0.43-2.19,1.3v4.01H103.76z"/>
		<path class="st0" d="M114.56,22.93c0.96,0,1.74,0.3,2.33,0.9c0.55,0.56,0.82,1.33,0.82,2.32c0,0.98-0.27,1.76-0.82,2.32
			c-0.58,0.6-1.38,0.9-2.38,0.9c-1.01,0-1.8-0.3-2.38-0.9c-0.55-0.57-0.82-1.34-0.82-2.32c0-1,0.27-1.77,0.82-2.32
			C112.72,23.23,113.53,22.93,114.56,22.93z M114.54,23.83c-0.71,0-1.23,0.25-1.54,0.74c-0.27,0.43-0.41,0.96-0.41,1.57
			c0,0.61,0.13,1.14,0.4,1.57c0.3,0.5,0.81,0.75,1.52,0.75c0.71,0,1.21-0.25,1.52-0.75c0.27-0.44,0.4-0.97,0.4-1.57
			c0-0.62-0.13-1.15-0.4-1.57C115.72,24.07,115.23,23.83,114.54,23.83z"/>
		<path class="st0" d="M119.63,29.19v-8.93l1.24-0.24v9.17H119.63z"/>
		<path class="st0" d="M126.05,22.93c0.96,0,1.74,0.3,2.33,0.9c0.55,0.56,0.82,1.33,0.82,2.32c0,0.98-0.27,1.76-0.82,2.32
			c-0.58,0.6-1.38,0.9-2.38,0.9c-1.01,0-1.8-0.3-2.38-0.9c-0.55-0.57-0.82-1.34-0.82-2.32c0-1,0.27-1.77,0.82-2.32
			C124.2,23.23,125.01,22.93,126.05,22.93z M126.02,23.83c-0.71,0-1.23,0.25-1.54,0.74c-0.27,0.43-0.41,0.96-0.41,1.57
			c0,0.61,0.13,1.14,0.4,1.57c0.3,0.5,0.81,0.75,1.52,0.75c0.71,0,1.21-0.25,1.52-0.75c0.27-0.44,0.4-0.97,0.4-1.57
			c0-0.62-0.13-1.15-0.4-1.57C127.21,24.07,126.71,23.83,126.02,23.83z"/>
		<path class="st0" d="M135.07,28.53c-0.57,0.56-1.24,0.84-2.02,0.84c-0.62,0-1.14-0.15-1.57-0.44c-0.68-0.47-1.01-1.3-1.01-2.49
			c0-0.98,0.25-1.78,0.75-2.4c0.6-0.74,1.45-1.11,2.57-1.11c0.71,0,1.55,0.14,2.53,0.43v4.75c0,1.18-0.09,2.01-0.26,2.49
			c-0.17,0.49-0.51,0.86-1.02,1.13c-0.51,0.27-1.14,0.4-1.89,0.4c-0.79,0-1.49-0.12-2.09-0.35l0.4-0.87
			c0.54,0.21,1.12,0.31,1.72,0.31c0.84,0,1.39-0.24,1.64-0.73c0.17-0.33,0.25-0.86,0.25-1.6V28.53z M135.07,24.11
			c-0.44-0.19-0.88-0.28-1.3-0.28c-0.7,0-1.21,0.25-1.54,0.74c-0.32,0.49-0.48,1.11-0.48,1.87c0,1.35,0.51,2.03,1.53,2.03
			c0.62,0,1.1-0.23,1.46-0.7c0.13-0.16,0.22-0.33,0.26-0.49c0.05-0.16,0.07-0.38,0.07-0.66V24.11z"/>
		<path class="st0" d="M140.1,29.24l-2.52-6.14h1.37l1.85,4.79l2.08-4.79h1.25l-4.11,9.06l-1.18-0.39L140.1,29.24z"/>
	</g>
	<path class="st1" d="M26.02,16.09c-1.13,0-2.04-0.38-2.72-1.15c-0.68-0.77-1.02-1.71-1.02-2.82V1.85h3.09v10.37
		c0,0.71,0.33,1.07,0.98,1.07h9.47c0.64,0,0.96-0.36,0.96-1.07V1.85h3.09v10.27c0,1.11-0.34,2.05-1.02,2.82
		c-0.68,0.77-1.58,1.15-2.72,1.15H26.02z"/>
	<path class="st1" d="M39.27,16.09l9.46-14.24h2.39l9.47,14.24h-3.75l-2.11-3.16h-9.56l-2.11,3.16H39.27z M49.93,5.71l-2.93,4.4
		h5.87L49.93,5.71z"/>
	<path class="st1" d="M75.68,16.09H61.05V1.85h14.63c1.13,0,2.04,0.38,2.73,1.15c0.68,0.77,1.03,1.71,1.03,2.82v6.3
		c0,1.11-0.34,2.05-1.03,2.82C77.72,15.7,76.81,16.09,75.68,16.09z M64.12,13.29h11.24c0.65,0,0.98-0.36,0.98-1.07V5.69
		c0-0.7-0.33-1.05-0.98-1.05H64.12V13.29z"/>
	<path class="st1" d="M92.59,16.09c-1.13,0-2.04-0.38-2.72-1.15c-0.68-0.77-1.02-1.71-1.02-2.82v-6.3c0-1.11,0.34-2.05,1.02-2.82
		c0.68-0.77,1.58-1.15,2.72-1.15h10.91c1.13,0,2.04,0.38,2.73,1.15c0.68,0.77,1.03,1.71,1.03,2.82v6.3c0,1.11-0.34,2.05-1.03,2.82
		c-0.68,0.77-1.59,1.15-2.73,1.15H92.59z M91.95,12.22c0,0.71,0.33,1.07,0.98,1.07h10.29c0.64,0,0.96-0.36,0.96-1.07V5.69
		c0-0.7-0.32-1.05-0.96-1.05H92.92c-0.35,0-0.6,0.08-0.75,0.25c-0.15,0.16-0.22,0.43-0.22,0.8V12.22z"/>
	<path class="st1" d="M108.6,1.85h2.6l11.64,9.69V1.85h3.07v14.24h-2.58L111.69,6.4v9.69h-3.09V1.85z"/>
	<path class="st1" d="M144.13,16.09h-16.7V1.85h16.7v2.8H130.5v2.9h12.79v2.8H130.5v2.95h13.63V16.09z"/>
	<path class="st1" d="M20.37,12.76c0.04-0.21,0.06-0.43,0.06-0.64v-6.3c0-1.12-0.34-2.07-1.03-2.83c-0.68-0.76-1.59-1.14-2.73-1.14
		H5.76C4.63,1.85,3.72,2.24,3.05,3C2.37,3.77,2.03,4.71,2.03,5.82v6.3c0,1.11,0.34,2.05,1.02,2.82c0.68,0.77,1.58,1.15,2.72,1.15
		h10.91c0.91,0,1.72-0.29,2.42-0.88l1.6,1L22,13.76L20.37,12.76z M17.34,10.88l-3.41-2.12l-1.57,2.27l3.63,2.26H6.1
		c-0.65,0-0.98-0.36-0.98-1.07V5.67c0-0.68,0.33-1.02,0.98-1.02h10.29c0.64,0,0.96,0.34,0.96,1.02V10.88z"/>
</g>
</svg>
