<svg xmlns="http://www.w3.org/2000/svg" width="56" height="56" viewBox="0 0 56 56">
  <g id="rc-automation" transform="translate(-595 -691)">
    <rect id="Rectangle_41" data-name="Rectangle 41" width="56" height="56" rx="6" transform="translate(595 691)" fill="#fff" opacity="0"/>
    <g id="Automation" transform="translate(595.348 691.35)">
      <path id="Path_323" data-name="Path 323" d="M36.293,16.929a16.1,16.1,0,0,1,5.281,2.187l1.978-1.545h0a1.329,1.329,0,0,1,1.76.106l2.7,2.707a1.322,1.322,0,0,1,.034,1.683L46.5,24.045a16.094,16.094,0,0,1,2.188,5.28l2.494.309h0a1.339,1.339,0,0,1,1.171,1.323v3.716A1.339,1.339,0,0,1,51.187,36l-2.494.307h0a16.115,16.115,0,0,1-2.188,5.28l1.545,1.977a1.32,1.32,0,0,1-.106,1.758l-2.63,2.629a1.329,1.329,0,0,1-1.76.106l-1.978-1.545A16.11,16.11,0,0,1,36.291,48.7l-.3,2.494a1.339,1.339,0,0,1-1.323,1.173H30.947a1.339,1.339,0,0,1-1.323-1.173l-.3-2.494a16.1,16.1,0,0,1-5.281-2.187l-1.953,1.545a1.328,1.328,0,0,1-1.758-.094l-2.654-2.634v0a1.324,1.324,0,0,1-.109-1.763l1.545-1.977a16.042,16.042,0,0,1-2.188-5.28L14.429,36h0a1.339,1.339,0,0,1-1.171-1.323V30.955a1.341,1.341,0,0,1,1.171-1.323l2.494-.309h0a16.042,16.042,0,0,1,2.188-5.28l-1.545-1.977a1.328,1.328,0,0,1,.1-1.76l2.63-2.629a1.329,1.329,0,0,1,1.76-.106l1.978,1.545a16.178,16.178,0,0,1,5.283-2.185l.3-2.494a1.343,1.343,0,0,1,1.323-1.173h3.719a1.343,1.343,0,0,1,1.323,1.173ZM8.4,32.483a3.411,3.411,0,0,0-.676,6.758A25.917,25.917,0,0,0,26.968,58.035a.841.841,0,0,0,.377-1.639,24.25,24.25,0,0,1-17.9-17.251A3.411,3.411,0,0,0,8.4,32.483Zm1.224,2.19A1.727,1.727,0,1,1,7.745,34.3a1.73,1.73,0,0,1,1.881.372ZM32.611,26.01a2.066,2.066,0,0,1-3.953.843H25.411a9.5,9.5,0,0,0,0,11.92h3.248a2.065,2.065,0,1,1,0,1.688H27.171a9.5,9.5,0,1,0,0-15.293h1.487a2.067,2.067,0,0,1,3.953.843Zm-1.8.268v0a.383.383,0,0,0,0-.538.379.379,0,0,0-.538,0,.381.381,0,0,0,.538.538Zm6.124,3.136a2.066,2.066,0,0,0-3.953-.843H29.344a.844.844,0,0,0-.611,1.446.839.839,0,0,0,.611.239h3.641a2.067,2.067,0,0,0,3.953-.843Zm-1.8.268h0a.379.379,0,1,0-.531,0,.381.381,0,0,0,.531,0Zm6.121,3.131a2.067,2.067,0,0,0-3.953-.843H33.671a.841.841,0,0,0-.864.843.841.841,0,0,0,.864.843h3.641a2.067,2.067,0,0,0,3.95-.843Zm-1.8.268a.38.38,0,1,0-.526-.01A.38.38,0,0,0,39.467,33.081Zm-2.528,3.131a2.067,2.067,0,0,0-3.953-.843H29.344a.841.841,0,0,0-.864.843.841.841,0,0,0,.864.843h3.641a2.067,2.067,0,0,0,3.953-.843Zm-1.8.268h0a.379.379,0,1,0-.536,0,.376.376,0,0,0,.536,0ZM35.888,53.8a3.411,3.411,0,1,0,3.347,4.088,25.916,25.916,0,0,0,18.8-19.24.841.841,0,1,0-1.64-.377,24.256,24.256,0,0,1-17.258,17.9,3.407,3.407,0,0,0-3.25-2.373ZM37.11,56v0a1.729,1.729,0,1,1-1.881-.372,1.728,1.728,0,0,1,1.881.372Zm20.778-29.61a25.926,25.926,0,0,0-19.242-18.8.842.842,0,0,0-.377,1.642,24.25,24.25,0,0,1,17.9,17.251,3.411,3.411,0,1,0,1.714-.094Zm.543,2.125v0a1.726,1.726,0,1,1-1.881-.374,1.73,1.73,0,0,1,1.881.374ZM29.726,5a3.411,3.411,0,0,0-3.347,2.736,25.917,25.917,0,0,0-18.8,19.24.841.841,0,0,0,1.64.377,24.25,24.25,0,0,1,17.253-17.9A3.412,3.412,0,1,0,29.725,5Zm1.219,2.192a1.724,1.724,0,1,1-1.881-.377,1.723,1.723,0,0,1,1.881.377Zm-.133,32.7h0a.381.381,0,1,0-.538,0,.383.383,0,0,0,.538,0Zm-9.19-7.074A11.187,11.187,0,1,0,24.9,24.906,11.182,11.182,0,0,0,21.622,32.813ZM38.385,19.338a14.353,14.353,0,0,0-2.673-.814,1.331,1.331,0,0,1-1.06-1.142l-.3-2.431H31.261l-.3,2.431A1.337,1.337,0,0,1,29.9,18.525a14.526,14.526,0,0,0-5.146,2.134A1.324,1.324,0,0,1,23.2,20.6l-1.932-1.509L19.079,21.28l1.509,1.932v0a1.327,1.327,0,0,1,.063,1.555,14.567,14.567,0,0,0-2.135,5.145,1.331,1.331,0,0,1-1.142,1.06l-2.432.3v3.09l2.432.3a1.337,1.337,0,0,1,1.142,1.062,14.567,14.567,0,0,0,2.135,5.145,1.324,1.324,0,0,1-.063,1.552l-1.509,1.932,2.209,2.195,1.91-1.509a1.324,1.324,0,0,1,1.557-.065A14.57,14.57,0,0,0,29.9,47.1a1.331,1.331,0,0,1,1.06,1.142l.3,2.431h3.091l.3-2.431A1.337,1.337,0,0,1,35.711,47.1a14.57,14.57,0,0,0,5.146-2.134,1.324,1.324,0,0,1,1.553.063l1.932,1.509,2.193-2.192-1.509-1.932a1.324,1.324,0,0,1-.063-1.552A14.567,14.567,0,0,0,47.1,35.718a1.331,1.331,0,0,1,1.142-1.06l2.432-.3v-3.09l-2.432-.3A1.337,1.337,0,0,1,47.1,29.909a14.567,14.567,0,0,0-2.135-5.145,1.324,1.324,0,0,1,.063-1.552l1.509-1.932-2.193-2.192L42.41,20.6v0a1.324,1.324,0,0,1-1.553.06,14.555,14.555,0,0,0-2.473-1.321Z" transform="translate(-4.972 -4.999)" fill="#29abe2" fill-rule="evenodd"/>
    </g>
  </g>
</svg>
