<svg width="800" height="800" viewBox="0 0 800 800" fill="none" xmlns="http://www.w3.org/2000/svg">
<path d="M799.603 394.883C799.508 394.215 799.431 393.551 799.3 392.89C799.181 392.294 799.019 391.72 798.87 391.133C798.727 390.567 798.603 389.998 798.434 389.437C798.259 388.861 798.042 388.303 797.841 387.736C797.642 387.183 797.459 386.625 797.234 386.079C797.011 385.548 796.755 385.039 796.509 384.52C796.247 383.965 795.998 383.403 795.706 382.858C795.439 382.356 795.134 381.883 794.844 381.395C794.527 380.864 794.228 380.326 793.881 379.809C793.516 379.261 793.111 378.747 792.717 378.223C792.397 377.798 792.103 377.365 791.767 376.95C791.003 376.022 790.202 375.126 789.348 374.278L607.536 192.461C593.339 178.259 570.314 178.259 556.111 192.461C541.909 206.662 541.909 229.686 556.111 243.886L675.852 363.634H36.3641C16.2813 363.639 0 379.92 0 400.003C0 420.086 16.2813 436.367 36.3641 436.367H675.852L556.108 556.108C541.906 570.309 541.906 593.333 556.108 607.534C563.208 614.634 572.516 618.186 581.822 618.186C591.128 618.186 600.436 614.637 607.533 607.534L789.345 425.722C790.198 424.873 791.002 423.978 791.764 423.048C792.102 422.636 792.394 422.2 792.714 421.778C793.106 421.254 793.511 420.74 793.878 420.192C794.227 419.676 794.525 419.137 794.841 418.606C795.131 418.119 795.438 417.647 795.703 417.144C795.994 416.595 796.244 416.036 796.506 415.478C796.752 414.959 797.008 414.45 797.231 413.919C797.456 413.373 797.639 412.815 797.838 412.262C798.039 411.697 798.256 411.14 798.431 410.561C798.598 410.001 798.725 409.434 798.867 408.865C799.016 408.281 799.178 407.705 799.297 407.108C799.428 406.448 799.505 405.781 799.6 405.115C799.673 404.606 799.77 404.105 799.823 403.59C800.058 401.2 800.058 398.794 799.823 396.403C799.772 395.894 799.675 395.392 799.603 394.883Z" fill="white"/>
</svg>
