<svg xmlns="http://www.w3.org/2000/svg" xmlns:xlink="http://www.w3.org/1999/xlink" width="840" height="624" viewBox="0 0 840 624">
  <defs>
    <linearGradient id="linear-gradient" x1="0.468" y1="0.5" x2="-0.041" y2="0.5" gradientUnits="objectBoundingBox">
      <stop offset="0" stop-color="#d1deff"/>
      <stop offset="1" stop-color="#b2c7ff"/>
    </linearGradient>
    <linearGradient id="linear-gradient-2" y1="0.5" x2="1" y2="0.5" gradientUnits="objectBoundingBox">
      <stop offset="0" stop-color="#f34b6d"/>
      <stop offset="1" stop-color="#e24067"/>
    </linearGradient>
    <linearGradient id="linear-gradient-3" y1="0.5" x2="1" y2="0.5" gradientUnits="objectBoundingBox">
      <stop offset="0" stop-color="#fadf68"/>
      <stop offset="1" stop-color="#eac250"/>
    </linearGradient>
    <linearGradient id="linear-gradient-4" y1="0.5" x2="1" y2="0.5" gradientUnits="objectBoundingBox">
      <stop offset="0" stop-color="#3dcfa4"/>
      <stop offset="1" stop-color="#30bb93"/>
    </linearGradient>
    <linearGradient id="linear-gradient-5" x1="0.929" y1="0.5" x2="0.581" y2="0.5" gradientUnits="objectBoundingBox">
      <stop offset="0" stop-color="#909eff"/>
      <stop offset="1" stop-color="#6977e3"/>
    </linearGradient>
    <linearGradient id="linear-gradient-6" x1="0.354" y1="0.278" x2="0.638" y2="0.71" xlink:href="#linear-gradient-5"/>
    <linearGradient id="linear-gradient-7" x1="0" y1="0.5" x2="1" y2="0.5" xlink:href="#linear-gradient-5"/>
    <linearGradient id="linear-gradient-10" x1="0" y1="0.5" x2="1" y2="0.5" xlink:href="#linear-gradient-5"/>
    <linearGradient id="linear-gradient-14" x1="0" y1="0.5" x2="1" y2="0.5" xlink:href="#linear-gradient-5"/>
    <linearGradient id="linear-gradient-15" x1="0" y1="0.5" x2="1" y2="0.5" xlink:href="#linear-gradient-5"/>
    <linearGradient id="linear-gradient-17" x1="0" y1="0.5" x2="9.051" y2="0.5" xlink:href="#linear-gradient-5"/>
  </defs>
  <g id="saleforcehr" transform="translate(-1750 -1257)">
    <rect id="Rectangle_44" data-name="Rectangle 44" width="840" height="624" transform="translate(1750 1257)" fill="rgba(255,255,255,0)"/>
    <g id="Layer_1" data-name="Layer 1" transform="translate(1735.858 1323.757)">
      <g id="Software_Development" data-name="Software Development" transform="translate(30.142 36.243)">
        <g id="Group_64" data-name="Group 64" transform="translate(0 0)">
          <g id="Group_43" data-name="Group 43" transform="translate(0 137.246)">
            <path id="Path_327" data-name="Path 327" d="M265.742,1006.919H254.4v-1.89h11.339Zm-22.677,0H231.726v-1.89h11.339Zm-22.679,0H209.047v-1.89h11.339Zm-22.677,0H186.941c-.2,0-.405,0-.6-.011l.063-1.888.542.009h10.765Zm-22.279-4.381a17.319,17.319,0,0,1-5.61-10.326l1.868-.283a15.441,15.441,0,0,0,5,9.2Zm-6.028-21.77-.281-11.336,1.89-.047.281,11.336Zm-.56-22.67-.279-11.336,1.89-.047.279,11.336Zm-.556-22.67-.279-11.336,1.89-.047.279,11.336Zm1.474-22.587-1.879-.207a17.331,17.331,0,0,1,5.189-10.544l1.314,1.359A15.427,15.427,0,0,0,169.759,912.84Zm14.174-13.674-.14-1.886q.645-.047,1.3-.047H195.2v1.89H185.1C184.7,899.123,184.315,899.136,183.933,899.165Zm680.25-.043v-1.89c5.382-.135,7.527.378,10.974-.709l.569,1.8c-3.832,1.2-6.4.655-11.543.794Zm-11.339,0H841.505v-1.89h11.339Zm-22.677,0H818.828v-1.89h11.339Zm-22.677,0H796.151v-1.89H807.49Zm-22.677,0H773.474v-1.89h11.339Zm-22.677,0H750.8v-1.89h11.339Zm-22.677,0H728.12v-1.89h11.339Zm-22.677,0H705.443v-1.89h11.338Zm-22.679,0H682.763v-1.89H694.1Zm-22.677,0H660.086v-1.89h11.339Zm-22.677,0H637.409v-1.89h11.338Zm-22.677,0H614.732v-1.89h11.339Zm-22.677,0H592.055v-1.89h11.339Zm-22.677,0H569.378v-1.89h11.339Zm-22.677,0H546.7v-1.89h11.339Zm-22.677,0H524.024v-1.89h11.339Zm-22.679,0H501.344v-1.89h11.339Zm-22.677,0H478.667v-1.89h11.339Zm-22.677,0H455.99v-1.89h11.339Zm-22.677,0H433.313v-1.89h11.339Zm-22.677,0H410.636v-1.89h11.339Zm-22.677,0H387.959v-1.89H399.3Zm-22.677,0H365.282v-1.89H376.62Zm-22.677,0H342.6v-1.89h11.339Zm-22.679,0H319.925v-1.89h11.339Zm-22.677,0H297.248v-1.89h11.339Zm-22.677,0H274.571v-1.89H285.91Zm-22.677,0H251.894v-1.89h11.339Zm-22.677,0H229.217v-1.89h11.339Zm-22.677,0H206.54v-1.89h11.339Zm667.2-7.918-1.586-1.028c3.02-4.66,2.358-8.949,2.536-10.344l1.89.058c-.176,1.35.524,6.123-2.837,11.314Zm3.186-22.648-1.89-.058.349-11.334,1.89.058Zm.7-22.666-1.89-.059.349-11.334,1.89.058Zm.7-22.668-1.89-.058.349-11.334,1.89.058Z" transform="translate(-167.88 -811.83)" fill="#373a50"/>
          </g>
          <g id="Group_61" data-name="Group 61" transform="translate(54.272)">
            <g id="Group_56" data-name="Group 56">
              <g id="Group_51" data-name="Group 51" transform="translate(57.764)">
                <path id="Path_356" data-name="Path 356" d="M706.188,201.892V620.1H695.482a29.712,29.712,0,0,1-29.7-29.72V231.63a29.7,29.7,0,0,1,29.7-29.74h10.706Z" transform="translate(-665.78 -201.89)" fill="url(#linear-gradient)"/>
                <path id="Path_357" data-name="Path 357" d="M1177.1,231.64v358.74a29.745,29.745,0,0,1-29.74,29.74H741.523a29.72,29.72,0,0,1-29.693-29.74V231.64a29.706,29.706,0,0,1,29.693-29.74h405.838a29.73,29.73,0,0,1,29.74,29.74Z" transform="translate(-701.468 -201.898)" fill="#0742b6"/>
                <path id="Path_358" data-name="Path 358" d="M1884.988,359.64V566.715H1639.672a14.443,14.443,0,0,1-14.421-14.469V374.037a14.411,14.411,0,0,1,14.421-14.4Z" transform="translate(-1409.354 -324.144)" fill="#111228" opacity="0.03"/>
                <path id="Path_359" data-name="Path 359" d="M800.849,287.846a7.549,7.549,0,1,1-7.554-7.556,7.553,7.553,0,0,1,7.554,7.556Z" transform="translate(-758.755 -262.649)" fill="url(#linear-gradient-2)"/>
                <path id="Path_360" data-name="Path 360" d="M892.219,287.846a7.549,7.549,0,1,1-7.554-7.556A7.553,7.553,0,0,1,892.219,287.846Z" transform="translate(-829.565 -262.649)" fill="url(#linear-gradient-3)"/>
                <path id="Path_361" data-name="Path 361" d="M983.589,287.846a7.549,7.549,0,1,1-7.554-7.556A7.553,7.553,0,0,1,983.589,287.846Z" transform="translate(-900.376 -262.649)" fill="url(#linear-gradient-4)"/>
              </g>
              <path id="Path_362" data-name="Path 362" d="M422.566,488.97V672.959H414.99a5.923,5.923,0,0,1-5.92-5.92V494.89a5.923,5.923,0,0,1,5.92-5.92Z" transform="translate(-409.07 -424.372)" fill="url(#linear-gradient-5)"/>
              <path id="Path_363" data-name="Path 363" d="M891.413,532.148V704.3a5.922,5.922,0,0,1-5.92,5.92H711.83V526.23H885.493a5.923,5.923,0,0,1,5.92,5.92Z" transform="translate(-643.704 -453.249)" fill="#111228" opacity="0.03"/>
              <path id="Path_364" data-name="Path 364" d="M438.158,488.92H662.917a4.729,4.729,0,0,1,4.728,4.728V668.2a4.729,4.729,0,0,1-4.728,4.728H438.158a4.729,4.729,0,0,1-4.728-4.728V493.648A4.729,4.729,0,0,1,438.158,488.92Z" transform="translate(-427.949 -424.334)" fill="url(#linear-gradient-6)"/>
              <g id="Group_52" data-name="Group 52" transform="translate(20.071 103.784)">
                <path id="Path_365" data-name="Path 365" d="M562.264,739.118l14.518,22.846c-34.328,19.441-78.513-5.2-78.513-46.036,0-38.469,39.718-63.576,74.138-48.246l-12.333,24.146a25.75,25.75,0,1,0,2.187,47.289Z" transform="translate(-498.27 -663.119)" fill="#183dc4"/>
                <path id="Path_366" data-name="Path 366" d="M819.128,914.893,804.61,892a25.715,25.715,0,0,0,9.482-22.157l26.556-5.331C843.574,882.622,835.957,902.884,819.128,914.893Z" transform="translate(-735.679 -819.194)" fill="#fff"/>
                <path id="Path_367" data-name="Path 367" d="M796.192,719.414,808.5,695.29a52.724,52.724,0,0,1,24.515,32.3l-26.606,5.355a26.033,26.033,0,0,0-10.22-13.537Z" transform="translate(-729.153 -688.051)" fill="#0068ff"/>
              </g>
              <g id="Group_53" data-name="Group 53" transform="translate(140.984 106.075)">
                <path id="Path_368" data-name="Path 368" d="M1116.889,678.581V698.4a5.286,5.286,0,0,1-5.281,5.281H1040.9a5.27,5.27,0,0,1-5.281-5.281V678.581a5.27,5.27,0,0,1,5.281-5.281h70.707A5.286,5.286,0,0,1,1116.889,678.581Z" transform="translate(-1035.62 -673.3)" fill="#fff"/>
                <rect id="Rectangle_48" data-name="Rectangle 48" width="79.545" height="4.719" transform="translate(1.726 43.601)" fill="#fff"/>
                <rect id="Rectangle_49" data-name="Rectangle 49" width="79.545" height="4.719" transform="translate(1.726 57.341)" fill="#fff"/>
                <rect id="Rectangle_50" data-name="Rectangle 50" width="79.545" height="4.719" transform="translate(1.726 71.082)" fill="#fff"/>
                <rect id="Rectangle_51" data-name="Rectangle 51" width="79.545" height="4.719" transform="translate(1.726 84.822)" fill="#fff"/>
                <rect id="Rectangle_52" data-name="Rectangle 52" width="31.023" height="4.719" transform="translate(1.726 98.561)" fill="#fff"/>
                <rect id="Rectangle_53" data-name="Rectangle 53" width="14.48" height="4.719" transform="translate(41.659 98.561)" fill="#fff"/>
              </g>
              <g id="Group_55" data-name="Group 55" transform="translate(281.265 27)">
                <path id="Path_369" data-name="Path 369" d="M1958.822,470.78v159.1a14.442,14.442,0,0,1-14.426,14.46h-270.91a14.444,14.444,0,0,1-14.426-14.46V470.78h299.764Z" transform="translate(-1659.058 -437.275)" fill="#ebf2ff"/>
                <path id="Path_370" data-name="Path 370" d="M1958.814,336.274v19.111H1659.05V336.274a14.408,14.408,0,0,1,14.426-14.394h270.91a14.408,14.408,0,0,1,14.426,14.394Z" transform="translate(-1659.05 -321.88)" fill="#b2c7ff"/>
                <g id="Group_54" data-name="Group 54" transform="translate(60.259 52.658)">
                  <path id="Path_371" data-name="Path 371" d="M2562.668,744.16a2.546,2.546,0,1,1,0,5.092h-22.614a2.546,2.546,0,0,1,0-5.092Z" transform="translate(-2400.11 -701.799)" fill="#657bff"/>
                  <path id="Path_372" data-name="Path 372" d="M2429.875,838.254a2.543,2.543,0,0,1-2.534,2.558h-53.657a2.546,2.546,0,0,1,0-5.092h53.657A2.536,2.536,0,0,1,2429.875,838.254Z" transform="translate(-2271.175 -772.756)" fill="#140089"/>
                  <path id="Path_373" data-name="Path 373" d="M1929.408,749.252a2.546,2.546,0,1,1,0-5.092h38.03a2.546,2.546,0,1,1,0,5.092Z" transform="translate(-1926.85 -701.799)" fill="#b2c7ff"/>
                  <path id="Path_374" data-name="Path 374" d="M2145.145,838.254a2.548,2.548,0,0,1-2.559,2.558h-34.833a2.546,2.546,0,0,1,0-5.092h34.833A2.543,2.543,0,0,1,2145.145,838.254Z" transform="translate(-2065.084 -772.756)" fill="#b2c7ff"/>
                  <path id="Path_375" data-name="Path 375" d="M2256.926,749.252h-53.3a2.546,2.546,0,0,1,0-5.092h53.3a2.546,2.546,0,0,1,0,5.092Z" transform="translate(-2139.382 -701.799)" fill="#066fed"/>
                  <path id="Path_376" data-name="Path 376" d="M1994.248,1023.81h-54.2a2.545,2.545,0,1,1,0-5.09h54.2a2.545,2.545,0,1,1,0,5.09Z" transform="translate(-1935.096 -914.578)" fill="#140089"/>
                  <path id="Path_377" data-name="Path 377" d="M1926.85,652.529a2.563,2.563,0,0,1,2.558-2.558H1986a2.546,2.546,0,1,1,0,5.092h-56.594A2.544,2.544,0,0,1,1926.85,652.529Z" transform="translate(-1926.85 -628.803)" fill="#657bff"/>
                  <path id="Path_378" data-name="Path 378" d="M2171.618,932.252H2066.528a2.546,2.546,0,1,1,0-5.092h105.089a2.546,2.546,0,1,1,0,5.092Z" transform="translate(-2033.116 -843.621)" fill="#b2c7ff"/>
                  <path id="Path_379" data-name="Path 379" d="M2320.853,1018.72a2.545,2.545,0,0,1,0,5.09h-52.284a2.545,2.545,0,1,1,0-5.09Z" transform="translate(-2189.694 -914.578)" fill="#657bff"/>
                  <path id="Path_380" data-name="Path 380" d="M2208.959,1112.719a2.542,2.542,0,0,1-2.559,2.534h-98.647a2.546,2.546,0,0,1,0-5.092H2206.4A2.549,2.549,0,0,1,2208.959,1112.719Z" transform="translate(-2065.084 -985.443)" fill="#b2c7ff"/>
                  <path id="Path_381" data-name="Path 381" d="M2547.94,558.434a2.536,2.536,0,0,1,2.534-2.534h31.541a2.546,2.546,0,0,1,0,5.092h-31.541A2.556,2.556,0,0,1,2547.94,558.434Z" transform="translate(-2408.185 -555.9)" fill="#b2c7ff"/>
                  <path id="Path_382" data-name="Path 382" d="M1978.31,558.434a2.557,2.557,0,0,1,2.556-2.534h57.991a2.546,2.546,0,1,1,0,5.092h-57.991A2.575,2.575,0,0,1,1978.31,558.434Z" transform="translate(-1966.731 -555.9)" fill="#140089"/>
                  <path id="Path_383" data-name="Path 383" d="M2302.96,652.529a2.563,2.563,0,0,1,2.559-2.558h93.035a2.546,2.546,0,1,1,0,5.092h-93.035A2.545,2.545,0,0,1,2302.96,652.529Z" transform="translate(-2218.329 -628.803)" fill="#b2c7ff"/>
                  <path id="Path_384" data-name="Path 384" d="M2699.471,929.719a2.536,2.536,0,0,1-2.534,2.534h-56.569a2.546,2.546,0,1,1,0-5.092h56.569A2.543,2.543,0,0,1,2699.471,929.719Z" transform="translate(-2477.833 -843.621)" fill="#b2c7ff"/>
                  <path id="Path_385" data-name="Path 385" d="M2329.06,558.434a2.536,2.536,0,0,1,2.534-2.534h25.667a2.546,2.546,0,1,1,0,5.092h-25.667A2.556,2.556,0,0,1,2329.06,558.434Z" transform="translate(-2238.556 -555.9)" fill="#b2c7ff"/>
                </g>
                <circle id="Ellipse_61" data-name="Ellipse 61" cx="5.668" cy="5.668" r="5.668" transform="translate(30.719 49.526)" fill="url(#linear-gradient-7)"/>
                <circle id="Ellipse_62" data-name="Ellipse 62" cx="5.668" cy="5.668" r="5.668" transform="translate(30.719 70.716)" fill="url(#linear-gradient-7)"/>
                <circle id="Ellipse_63" data-name="Ellipse 63" cx="5.668" cy="5.668" r="5.668" transform="translate(30.719 91.903)" fill="url(#linear-gradient-7)"/>
                <circle id="Ellipse_64" data-name="Ellipse 64" cx="5.67" cy="5.67" r="5.67" transform="translate(29.9 123.46) rotate(-80.78)" fill="url(#linear-gradient-10)"/>
                <circle id="Ellipse_65" data-name="Ellipse 65" cx="5.668" cy="5.668" r="5.668" transform="translate(30.719 134.28)" fill="url(#linear-gradient-7)"/>
                <circle id="Ellipse_66" data-name="Ellipse 66" cx="5.67" cy="5.67" r="5.67" transform="translate(30.717 155.468)" fill="url(#linear-gradient-10)"/>
                <circle id="Ellipse_67" data-name="Ellipse 67" cx="5.67" cy="5.67" r="5.67" transform="translate(30.717 176.655)" fill="url(#linear-gradient-10)"/>
              </g>
            </g>
            <g id="Group_58" data-name="Group 58" transform="translate(292.329 264.119)">
              <g id="Group_57" data-name="Group 57" transform="translate(9.952 0)">
                <rect id="Rectangle_54" data-name="Rectangle 54" width="18.159" height="99.43" fill="url(#linear-gradient-14)"/>
                <rect id="Rectangle_55" data-name="Rectangle 55" width="18.159" height="81.206" transform="translate(34.805 18.224)" fill="#00e7ff"/>
                <rect id="Rectangle_56" data-name="Rectangle 56" width="18.159" height="52.199" transform="translate(69.613 47.229)" fill="#373a50"/>
                <rect id="Rectangle_57" data-name="Rectangle 57" width="18.159" height="82.525" transform="translate(104.419 16.905)" fill="#00e7ff"/>
                <rect id="Rectangle_58" data-name="Rectangle 58" width="18.159" height="54.31" transform="translate(139.224 45.12)" fill="url(#linear-gradient-15)"/>
                <rect id="Rectangle_59" data-name="Rectangle 59" width="18.159" height="70.394" transform="translate(174.032 29.036)" fill="#00e7ff"/>
                <rect id="Rectangle_60" data-name="Rectangle 60" width="18.159" height="52.199" transform="translate(69.613 47.229)" fill="url(#linear-gradient-14)"/>
              </g>
              <rect id="Rectangle_61" data-name="Rectangle 61" width="212.095" height="9.811" transform="translate(0 107.488)" fill="#b2c7ff"/>
            </g>
            <path id="Path_386" data-name="Path 386" d="M858.541,1469.67v77.178a13,13,0,0,1-13.01,13.008H665.77v-103.2H845.531A13.011,13.011,0,0,1,858.541,1469.67Z" transform="translate(-608.008 -1174.317)" fill="#111228" opacity="0.03"/>
            <rect id="Rectangle_62" data-name="Rectangle 62" width="225.041" height="108.615" rx="54.308" transform="translate(20.071 272.019)" fill="#ebf2ff"/>
            <g id="Group_60" data-name="Group 60" transform="translate(41.367 292.633)">
              <ellipse id="Ellipse_68" data-name="Ellipse 68" cx="31.423" cy="31.95" rx="31.423" ry="31.95" transform="translate(0 0)" fill="#fff"/>
              <g id="Group_59" data-name="Group 59" transform="translate(16.237 15.261)">
                <ellipse id="Ellipse_69" data-name="Ellipse 69" cx="5.994" cy="6.096" rx="5.994" ry="6.096" transform="translate(9.192)" fill="#3817c6"/>
                <path id="Path_387" data-name="Path 387" d="M695.443,1656.829a15.19,15.19,0,0,0-30.373,0h30.375Z" transform="translate(-665.07 -1625.831)" fill="#3817c6"/>
              </g>
            </g>
            <rect id="Rectangle_63" data-name="Rectangle 63" width="104.77" height="17.713" rx="7.7" transform="translate(121.11 296.121)" fill="#b2c7ff"/>
            <rect id="Rectangle_64" data-name="Rectangle 64" width="94.486" height="3.769" transform="translate(121.11 324.583)" fill="#b2c7ff"/>
            <rect id="Rectangle_65" data-name="Rectangle 65" width="94.486" height="3.769" transform="translate(121.11 337.008)" fill="#b2c7ff"/>
            <rect id="Rectangle_66" data-name="Rectangle 66" width="13.58" height="3.769" transform="translate(169.439 349.431)" fill="#b2c7ff"/>
            <rect id="Rectangle_67" data-name="Rectangle 67" width="36.644" height="3.769" transform="translate(121.11 349.431)" fill="#b2c7ff"/>
          </g>
          <path id="Path_388" data-name="Path 388" d="M1737.266,375.818a6.108,6.108,0,1,1-6.1-6.1A6.113,6.113,0,0,1,1737.266,375.818Z" transform="translate(-1374.662 -331.956)" fill="#fff"/>
          <path id="Path_389" data-name="Path 389" d="M1815.216,375.818a6.108,6.108,0,1,1-6.1-6.1A6.113,6.113,0,0,1,1815.216,375.818Z" transform="translate(-1435.073 -331.956)" fill="#fff"/>
          <path id="Path_390" data-name="Path 390" d="M1893.156,375.818a6.108,6.108,0,1,1-6.1-6.1A6.113,6.113,0,0,1,1893.156,375.818Z" transform="translate(-1495.475 -331.956)" fill="#fff"/>
          <g id="Group_62" data-name="Group 62" transform="translate(656.893 51.297)">
            <path id="Path_391" data-name="Path 391" d="M3103.431,429.86h-11.507a4.725,4.725,0,0,0-4.724,4.725v86.1a4.724,4.724,0,0,0,4.724,4.725h11.507V429.862Z" transform="translate(-3087.2 -429.86)" fill="url(#linear-gradient-17)"/>
            <path id="Path_392" data-name="Path 392" d="M3114.168,429.86h137.444a4.729,4.729,0,0,1,4.728,4.728v86.091a4.729,4.729,0,0,1-4.728,4.728H3114.168a4.729,4.729,0,0,1-4.728-4.728V434.588A4.729,4.729,0,0,1,3114.168,429.86Z" transform="translate(-3104.436 -429.86)" fill="#fff"/>
          </g>
          <g id="Group_63" data-name="Group 63" transform="translate(677.257 71.688)">
            <path id="Path_393" data-name="Path 393" d="M3208.036,747.8a2.048,2.048,0,0,1-2.05,2.034H3179.77a2.034,2.034,0,1,1,0-4.068h26.217A2.048,2.048,0,0,1,3208.036,747.8Z" transform="translate(-3177.715 -695.076)" fill="#b2c7ff"/>
            <path id="Path_394" data-name="Path 394" d="M3177.7,635.14a2.051,2.051,0,0,1,2.05-2.05h27.634a2.042,2.042,0,1,1,0,4.084H3179.75A2.038,2.038,0,0,1,3177.7,635.14Z" transform="translate(-3177.7 -607.751)" fill="#b2c7ff"/>
            <path id="Path_395" data-name="Path 395" d="M3177.7,578.854a2.038,2.038,0,0,1,2.05-2.034h81.85a2.034,2.034,0,1,1,0,4.068h-81.85A2.038,2.038,0,0,1,3177.7,578.854Z" transform="translate(-3177.7 -564.143)" fill="#b2c7ff"/>
            <path id="Path_396" data-name="Path 396" d="M3177.7,691.464a2.038,2.038,0,0,1,2.05-2.034h83.756a2.042,2.042,0,0,1,0,4.084H3179.75A2.041,2.041,0,0,1,3177.7,691.464Z" transform="translate(-3177.7 -651.414)" fill="#b2c7ff"/>
            <path id="Path_397" data-name="Path 397" d="M3411.64,747.8a2.035,2.035,0,0,1-2.034,2.034h-43.052a2.034,2.034,0,1,1,0-4.068h43.052A2.035,2.035,0,0,1,3411.64,747.8Z" transform="translate(-3322.482 -695.076)" fill="#b2c7ff"/>
            <path id="Path_398" data-name="Path 398" d="M3625.438,691.464a2.042,2.042,0,0,1-2.05,2.05h-19.644a2.042,2.042,0,0,1,0-4.084h19.644A2.039,2.039,0,0,1,3625.438,691.464Z" transform="translate(-3506.301 -651.414)" fill="#b2c7ff"/>
            <path id="Path_399" data-name="Path 399" d="M3447.509,635.14a2.039,2.039,0,0,1-2.05,2.034h-71.305a2.042,2.042,0,0,1,0-4.084h71.305A2.052,2.052,0,0,1,3447.509,635.14Z" transform="translate(-3328.372 -607.751)" fill="#b2c7ff"/>
            <path id="Path_400" data-name="Path 400" d="M3619.556,578.854a2.038,2.038,0,0,1-2.05,2.034h-21.352a2.034,2.034,0,0,1,0-4.068h21.352A2.038,2.038,0,0,1,3619.556,578.854Z" transform="translate(-3500.419 -564.143)" fill="#b2c7ff"/>
            <path id="Path_401" data-name="Path 401" d="M3177.7,522.514a2.038,2.038,0,0,1,2.05-2.034h115.032a2.042,2.042,0,1,1,0,4.084H3179.75A2.041,2.041,0,0,1,3177.7,522.514Z" transform="translate(-3177.7 -520.48)" fill="#b2c7ff"/>
          </g>
        </g>
      </g>
    </g>
  </g>
</svg>
