<svg xmlns="http://www.w3.org/2000/svg" width="56" height="56" viewBox="0 0 56 56">
  <g id="secure-icon" transform="translate(-463 -836)">
    <rect id="Rectangle_160" data-name="Rectangle 160" width="56" height="56" rx="6" transform="translate(463 836)" fill="#fff" opacity="0"/>
    <g id="noun-secure-6930933" transform="translate(482.81 741.5)">
      <path id="Path_567" data-name="Path 567" d="M27.478,0A4.479,4.479,0,0,0,23.06,3.823a21.331,21.331,0,0,0-8.107,3.605l0,0a.772.772,0,0,0,.334,1.387.782.782,0,0,0,.575-.139,19.694,19.694,0,0,1,7.251-3.285A4.465,4.465,0,1,0,27.478,0Zm0,1.543A2.921,2.921,0,1,1,24.557,4.5V4.431a2.91,2.91,0,0,1,2.92-2.888Zm8.373,3.592a.778.778,0,0,0-.3.052.772.772,0,0,0-.037,1.425A19.716,19.716,0,0,1,42,11.259a4.447,4.447,0,1,0,1.333-.83A21.335,21.335,0,0,0,36.144,5.2a.777.777,0,0,0-.293-.069ZM9.982,10.115a4.5,4.5,0,0,0-1.169.154A4.463,4.463,0,0,0,7.2,18.085a21.407,21.407,0,0,0-1.049,6.606,20.906,20.906,0,0,0,.118,2.226v0a.768.768,0,0,0,.849.687.768.768,0,0,0,.685-.849,19.748,19.748,0,0,1,.783-7.93A4.464,4.464,0,1,0,9.98,10.115Zm17.5,1.19a.777.777,0,0,0-.455.156,2.022,2.022,0,0,0-.249.073L17.488,15.07a1.986,1.986,0,0,0-1.279,1.85V26.7c0,3.725,2.967,6.371,5.466,8.178a31.013,31.013,0,0,0,5,2.916,1.974,1.974,0,0,0,1.613,0,31.043,31.043,0,0,0,4.994-2.916c2.5-1.807,5.468-4.456,5.468-8.178V16.92a1.986,1.986,0,0,0-1.279-1.85l-9.286-3.534a2.06,2.06,0,0,0-.235-.071.765.765,0,0,0-.469-.16ZM9.9,11.652a2.925,2.925,0,1,1-1.343,5.49v0a.656.656,0,0,0-.1-.06A2.924,2.924,0,0,1,9.9,11.651Zm35.011,0a2.952,2.952,0,0,1,.833.1,2.928,2.928,0,1,1-2.218.3,2.943,2.943,0,0,1,1.385-.4ZM26.706,13.215V36.1a29.885,29.885,0,0,1-4.126-2.473c-2.382-1.721-4.828-4.049-4.828-6.928V16.92a.436.436,0,0,1,.285-.409Zm1.543,0,8.669,3.3a.44.44,0,0,1,.285.409V26.7c0,2.882-2.446,5.208-4.826,6.928A30,30,0,0,1,28.251,36.1Zm19.68,8.562a.746.746,0,0,0-.093.006.772.772,0,0,0-.687.845,19.772,19.772,0,0,1-.783,7.928,4.462,4.462,0,1,0,1.387.741,21.3,21.3,0,0,0,.932-4.386,21.9,21.9,0,0,0,.118-2.222,20.861,20.861,0,0,0-.118-2.222v0a.776.776,0,0,0-.756-.692ZM9.953,30.34a4.424,4.424,0,0,0-2.218.6,4.466,4.466,0,0,0,3.889,8.015,21.253,21.253,0,0,0,7.185,5.227.772.772,0,0,0,.627-1.41,19.778,19.778,0,0,1-6.481-4.645,4.467,4.467,0,0,0-3-7.781Zm.079,1.535a2.984,2.984,0,0,1,.692.1,2.9,2.9,0,1,1-.691-.1Zm34.89,0a2.911,2.911,0,1,1-.691.1,2.9,2.9,0,0,1,.691-.1ZM27.477,40.449A4.465,4.465,0,1,0,31.9,45.557a21.318,21.318,0,0,0,8.115-3.613A.771.771,0,0,0,39.1,40.7a19.85,19.85,0,0,1-7.256,3.291,4.48,4.48,0,0,0-4.367-3.538Zm0,1.543a2.922,2.922,0,1,1-2.922,2.922A2.911,2.911,0,0,1,27.477,41.992Z" transform="translate(-19.537 97.5)" fill="#29abe2"/>
    </g>
  </g>
</svg>
