<svg width="508" height="511" viewBox="0 0 508 511" fill="none" xmlns="http://www.w3.org/2000/svg">
<g opacity="0.2">
<path d="M505.949 253.088C505.949 268.843 504.79 288.132 500.374 325.849C496.885 355.742 491.145 397.631 490.937 399.066L275.368 398.224L266.664 398.184L21.2398 399.066C4.51512 313.204 0.663086 276.804 0.663086 253.088C0.663086 226.482 4.77254 200.845 12.4069 176.763C13.3279 173.842 14.3082 170.931 15.338 168.059C34.3318 114.926 70.9167 69.3686 118.736 39.262C157.701 14.6849 203.855 0.465576 253.326 0.465576C257.802 0.465576 262.248 0.584258 266.664 0.812007C269.575 0.960715 272.477 1.16852 275.368 1.41609C359.919 8.71783 433.507 57.8655 473.747 129.569V129.579C495.009 167.557 505.949 209.706 505.949 253.088Z" fill="#9A9AE2"/>
</g>
<g opacity="0.4">
<path d="M12.5674 352.549C14.9784 366.22 17.8426 381.615 21.2414 399.064L266.666 398.183L275.37 398.223L490.939 399.064C491.208 397.21 494.654 371.802 497.104 352.549H12.5674Z" fill="#9A9AE2"/>
</g>
<g opacity="0.8">
<path d="M494.208 176.761H429.101V352.549H420.397V176.761H275.371V352.549H266.667V176.761H118.739V352.549H110.035V176.761H12.4097C13.3305 173.84 14.3108 170.929 15.3406 168.057H110.035V45.0033C112.896 43.0229 115.798 41.1122 118.738 39.2603V168.057H266.666V0.810303C269.578 0.958773 272.479 1.1667 275.37 1.41415V168.057H420.397V63.5896C423.358 66.2039 426.269 68.8873 429.101 71.6501V168.057H491.276C492.306 170.939 493.287 173.83 494.208 176.761Z" fill="white"/>
</g>
<g opacity="0.2">
<path d="M485.471 432.618C485.335 432.658 485.189 432.688 485.053 432.717C485.471 432.865 485.878 433.062 486.266 433.308C495.115 436.097 500.8 440.413 500.8 445.271C500.8 453.677 483.811 460.486 462.854 460.486C461.389 460.486 459.943 460.457 458.517 460.388C461.796 462.112 463.679 464.201 463.679 466.478C463.679 470.597 457.537 474.459 448.116 476.962C441.984 478.618 434.474 479.682 426.324 479.929C406.889 480.51 390.929 476.095 389.124 469.887C387.825 465.214 394.42 461.748 398.962 460.003C399.438 459.826 399.923 459.639 400.427 459.481C381.31 456.127 360.332 456.205 338.845 460.654C340.766 462.605 341.785 464.674 341.785 466.872C341.785 473.889 331.588 478.955 325.009 481.476C309.291 487.562 282.738 491.337 256.449 488.793C250.656 488.232 244.957 490.134 240.385 493.736C238.33 495.354 235.71 496.891 232.612 498.316C221.134 503.608 203.057 507.938 182.711 507.954C77.5245 508.038 58.6639 484.363 48.0008 478.243C43.7511 475.81 37.2213 470.064 41.9949 463.62C45.3034 459.166 51.7072 459.451 53.7544 453.273C55.1711 448.976 53.6672 442.344 51.1929 438.235C46.7006 439.487 41.7135 440.176 36.4548 440.176C16.8749 440.176 1.01123 430.638 1.01123 418.892C1.01123 408.899 2.81127 400.513 18.2868 398.227C37.9347 398.227 468.101 398.227 487.77 398.227C488.857 398.513 489.924 398.828 490.943 399.153C501.218 402.484 508 409.106 508 415.61C508 422.715 499.898 428.883 487.974 432.007C487.149 432.313 486.315 432.52 485.471 432.618Z" fill="#9A9AE2"/>
</g>
<path d="M294.065 72.8458V420.76C294.065 436.997 280.902 450.16 264.665 450.16H96.9838C80.7467 450.16 67.584 436.997 67.584 420.76V72.8458C67.584 56.6087 80.7468 43.446 96.9838 43.446H264.665C280.902 43.446 294.065 56.6088 294.065 72.8458Z" fill="#92DDFD"/>
<path d="M312.407 72.8461V420.76C312.407 436.997 299.244 450.16 283.007 450.16H115.326C99.0885 450.16 85.9258 436.997 85.9258 420.76V72.8461C85.9258 56.609 99.0886 43.4463 115.326 43.4463H283.007C299.244 43.4463 312.407 56.6091 312.407 72.8461Z" fill="#29ABE2"/>
<path d="M115.326 440.258C104.557 440.258 95.8281 431.529 95.8281 420.76V72.8464C95.8281 62.078 104.558 53.3484 115.326 53.3484H283.007C293.775 53.3484 302.505 62.078 302.505 72.8464V420.76C302.505 431.528 293.776 440.258 283.007 440.258L115.326 440.258Z" fill="white"/>
<path d="M224.441 70.8075C224.441 75.1848 220.898 78.7768 216.472 78.7768H181.877C177.465 78.7768 173.894 75.2191 173.894 70.8075C173.894 66.4386 177.442 62.8381 181.877 62.8381H216.472C220.869 62.8381 224.441 66.4101 224.441 70.8075Z" fill="#29ABE2"/>
<path d="M366.302 108.45V402.633C366.302 411.188 359.361 418.12 350.805 418.12H142.187C133.632 418.12 126.69 411.188 126.69 402.633V108.45C126.69 99.8948 133.632 92.9536 142.187 92.9536H350.805C351.399 92.9536 351.984 92.9832 352.558 93.0525C360.291 93.9241 366.302 100.489 366.302 108.45Z" fill="#6DB0F4"/>
<path d="M352.558 93.0525V374.946C352.558 389.542 340.725 401.375 326.129 401.375C114.789 401.344 128.229 401.462 126.69 401.276V108.45C126.69 99.8948 133.632 92.9536 142.187 92.9536H350.805C351.399 92.9536 351.983 92.9832 352.558 93.0525Z" fill="#9DD3F5"/>
<path d="M188.052 70.8017C188.052 73.183 186.125 75.1218 183.732 75.1218C181.35 75.1218 179.424 73.183 179.424 70.8017C179.424 68.4203 181.35 66.4939 183.732 66.4939C186.125 66.4938 188.052 68.4203 188.052 70.8017Z" fill="white"/>
<path d="M215.239 240.372V299.542C215.239 304.432 211.275 308.396 206.385 308.396H157.706C152.815 308.396 148.841 304.432 148.841 299.542V240.372C148.841 235.481 152.815 231.507 157.706 231.507H206.385C211.275 231.507 215.239 235.481 215.239 240.372Z" fill="#EDF1F5"/>
<path d="M222.188 133.458C222.096 193.635 222.409 190.778 221.941 192.852C220.964 197.107 217.158 200.273 212.612 200.273H159.953C154.654 200.273 150.355 195.984 150.355 190.686V133.458C150.355 128.159 154.654 123.86 159.953 123.86H212.612C217.899 123.86 222.188 128.159 222.188 133.458Z" fill="#EDF1F5"/>
<path d="M220.163 230.428V250.439C220.163 252.601 218.411 254.354 216.248 254.354H195.423C193.267 254.354 191.508 252.601 191.508 250.439V230.428C191.508 228.265 193.267 226.513 195.423 226.513H216.248C218.411 226.513 220.163 228.265 220.163 230.428Z" fill="#EF4441"/>
<path d="M207.727 276.979H156.354C155.773 276.979 155.302 276.508 155.302 275.928C155.302 275.347 155.773 274.876 156.354 274.876H207.727C208.307 274.876 208.779 275.347 208.779 275.928C208.779 276.508 208.307 276.979 207.727 276.979Z" fill="#BFC9D1"/>
<path d="M207.727 287.707H156.354C155.773 287.707 155.302 287.236 155.302 286.655C155.302 286.074 155.773 285.603 156.354 285.603H207.727C208.307 285.603 208.779 286.074 208.779 286.655C208.779 287.236 208.307 287.707 207.727 287.707Z" fill="#BFC9D1"/>
<path d="M186.934 298.433H156.354C155.773 298.433 155.302 297.962 155.302 297.382C155.302 296.801 155.773 296.33 156.354 296.33H186.934C187.514 296.33 187.985 296.801 187.985 297.382C187.985 297.962 187.514 298.433 186.934 298.433Z" fill="#BFC9D1"/>
<path d="M207.727 266.253H156.354C155.773 266.253 155.302 265.782 155.302 265.201C155.302 264.621 155.773 264.15 156.354 264.15H207.727C208.307 264.15 208.779 264.621 208.779 265.201C208.779 265.782 208.307 266.253 207.727 266.253Z" fill="#BFC9D1"/>
<path d="M213.785 240.702L205.835 248.651L197.886 240.702C195.945 238.761 195.945 235.613 197.886 233.671C200.285 231.274 204.318 231.94 205.835 234.938C207.356 231.934 211.39 231.278 213.785 233.671C215.726 235.613 215.726 238.761 213.785 240.702Z" fill="white"/>
<path d="M184.866 347.138C184.866 355.665 177.944 362.588 169.416 362.588C160.897 362.588 153.957 355.677 153.957 347.138C153.957 338.61 160.879 331.688 169.416 331.688C172.578 331.688 175.517 332.635 177.973 334.269C182.121 337.044 184.866 341.772 184.866 347.138Z" fill="#232B41"/>
<path d="M180.516 342.768C180.516 351.305 173.593 358.218 165.065 358.218C161.904 358.218 158.955 357.261 156.499 355.627C154.894 353.19 153.957 350.27 153.957 347.138C153.957 338.61 160.879 331.688 169.416 331.688C172.578 331.688 175.517 332.635 177.973 334.269C179.578 336.706 180.516 339.635 180.516 342.768Z" fill="#232B41"/>
<path d="M165.529 353.568L160.442 348.481C159.839 347.878 159.839 346.899 160.442 346.296C161.046 345.693 162.024 345.693 162.627 346.296L166.621 350.291L176.201 340.711C176.804 340.108 177.783 340.108 178.386 340.711C178.989 341.314 178.989 342.292 178.386 342.896L167.714 353.568C167.11 354.171 166.133 354.171 165.529 353.568Z" fill="white"/>
<path d="M252.307 340.348H201.174C199.963 340.348 198.981 339.366 198.981 338.155C198.981 336.944 199.963 335.962 201.174 335.962H252.307C253.518 335.962 254.5 336.944 254.5 338.155C254.5 339.366 253.518 340.348 252.307 340.348Z" fill="white"/>
<path d="M281.563 340.348H264.661C263.45 340.348 262.468 339.366 262.468 338.155C262.468 336.944 263.45 335.962 264.661 335.962H281.563C282.774 335.962 283.756 336.944 283.756 338.155C283.756 339.366 282.774 340.348 281.563 340.348Z" fill="white"/>
<path d="M336.629 340.347H294.349C293.138 340.347 292.156 339.365 292.156 338.154C292.156 336.943 293.138 335.961 294.349 335.961H336.629C337.84 335.961 338.822 336.943 338.822 338.154C338.822 339.365 337.84 340.347 336.629 340.347Z" fill="white"/>
<path d="M275.932 193.746H241.243C240.032 193.746 239.05 192.764 239.05 191.553C239.05 190.342 240.032 189.36 241.243 189.36H275.932C277.143 189.36 278.125 190.342 278.125 191.553C278.125 192.764 277.143 193.746 275.932 193.746Z" fill="white"/>
<path d="M336.044 193.746H289.548C288.338 193.746 287.355 192.764 287.355 191.553C287.355 190.342 288.338 189.36 289.548 189.36H336.044C337.255 189.36 338.237 190.342 338.237 191.553C338.237 192.764 337.255 193.746 336.044 193.746Z" fill="white"/>
<path d="M296.355 174.088H241.243C240.032 174.088 239.05 173.106 239.05 171.895C239.05 170.684 240.032 169.702 241.243 169.702H296.355C297.566 169.702 298.548 170.684 298.548 171.895C298.548 173.106 297.566 174.088 296.355 174.088Z" fill="white"/>
<path d="M336.044 174.088H307.249C306.038 174.088 305.056 173.106 305.056 171.895C305.056 170.684 306.038 169.702 307.249 169.702H336.044C337.255 169.702 338.237 170.684 338.237 171.895C338.237 173.106 337.255 174.088 336.044 174.088Z" fill="white"/>
<path d="M288.681 154.43H241.243C240.032 154.43 239.05 153.448 239.05 152.237C239.05 151.026 240.032 150.044 241.243 150.044H288.681C289.892 150.044 290.874 151.026 290.874 152.237C290.874 153.448 289.892 154.43 288.681 154.43Z" fill="white"/>
<path d="M288.681 134.772H241.243C240.032 134.772 239.05 133.79 239.05 132.579C239.05 131.369 240.032 130.386 241.243 130.386H288.681C289.892 130.386 290.874 131.369 290.874 132.579C290.874 133.79 289.892 134.772 288.681 134.772Z" fill="white"/>
<path d="M228.884 358.574H201.174C199.963 358.574 198.981 357.592 198.981 356.381C198.981 355.17 199.963 354.188 201.174 354.188H228.884C230.095 354.188 231.077 355.17 231.077 356.381C231.077 357.592 230.095 358.574 228.884 358.574Z" fill="white"/>
<path d="M306.972 358.574H241.151C239.94 358.574 238.958 357.592 238.958 356.381C238.958 355.17 239.94 354.188 241.151 354.188H306.972C308.182 354.188 309.165 355.17 309.165 356.381C309.165 357.592 308.182 358.574 306.972 358.574Z" fill="white"/>
<path d="M167.679 410.057V468.694C167.679 472.621 164.508 475.792 160.58 475.792H31.9503C27.9752 475.792 24.8042 472.621 24.8042 468.694V410.057H167.679Z" fill="#63BADF"/>
<path d="M153.056 443.137V475.792H31.9503C27.9752 475.792 24.8042 472.621 24.8042 468.694V421.132H131.049C143.212 421.131 153.056 430.976 153.056 443.137Z" fill="#29ABE2"/>
<path d="M173.026 404.71C173.026 407.691 170.66 410.057 167.679 410.057H24.8037C22.343 410.057 20.2608 408.401 19.6455 406.13C20.5512 406.277 117.346 406.209 163.467 406.224C166.401 406.224 168.815 403.858 168.815 400.923C168.815 400.45 168.768 399.93 168.625 399.503C171.134 399.93 173.026 402.107 173.026 404.71Z" fill="#E3DFD6"/>
<path d="M168.816 400.924C168.816 403.859 166.402 406.225 163.468 406.225C117.347 406.209 20.5522 406.278 19.6466 406.13C19.5044 405.704 19.457 405.183 19.457 404.71C19.457 401.775 21.8706 399.409 24.8048 399.409C69.8303 399.424 167.743 399.356 168.626 399.504C168.769 399.93 168.816 400.45 168.816 400.924Z" fill="#FFF5D2"/>
<path d="M167.679 394.913V399.409H24.8042V394.866C24.8516 387.625 30.6725 381.851 37.866 381.851H154.617C161.858 381.851 167.679 387.672 167.679 394.913Z" fill="#41535B"/>
<path d="M157.41 390.37C157.41 392.879 155.375 394.866 152.914 394.866H24.8042C24.8516 387.625 30.6725 381.852 37.866 381.852H154.239C156.227 384.123 157.41 387.105 157.41 390.37Z" fill="#8DB7C9"/>
<path d="M129.439 381.852H121.725L118.838 374.658C118.554 373.901 117.703 373.38 116.803 373.38H75.6777C74.7785 373.38 73.9267 373.901 73.6428 374.658L70.756 381.852H63.042L66.7806 371.393C67.1593 370.257 68.2477 369.499 69.4782 369.499H123.003C124.234 369.499 125.322 370.257 125.701 371.393L129.439 381.852Z" fill="#27254C"/>
<path d="M116.641 445.92C116.641 457.195 107.521 466.35 96.2457 466.35C84.9688 466.35 75.8389 457.203 75.8389 445.92C75.8389 434.68 84.9595 425.513 96.2457 425.513C107.506 425.513 116.641 434.686 116.641 445.92Z" fill="#BFC9D1"/>
<path d="M111.508 441.337C111.508 452.623 102.387 461.778 91.101 461.778C87.1251 461.778 83.4241 460.644 80.2961 458.673C77.5118 455.178 75.8389 450.744 75.8389 445.92C75.8389 434.68 84.9595 425.513 96.2457 425.513C100.222 425.513 103.923 426.648 107.051 428.63C109.846 432.113 111.508 436.536 111.508 441.337Z" fill="#EDF1F5"/>
<path d="M96.2373 456.499C95.4114 456.499 94.7422 455.83 94.7422 455.004V436.868C94.7422 436.042 95.4114 435.373 96.2373 435.373C97.0632 435.373 97.7325 436.042 97.7325 436.868V455.004C97.7325 455.83 97.0632 456.499 96.2373 456.499Z" fill="#27254C"/>
<path d="M87.1215 451.262C86.705 450.55 86.9448 449.634 87.6579 449.217L103.313 440.07C104.025 439.653 104.942 439.892 105.358 440.606C105.775 441.319 105.535 442.234 104.822 442.651L89.1666 451.799C88.4539 452.216 87.538 451.976 87.1215 451.262Z" fill="#27254C"/>
<path d="M103.313 451.799L87.6579 442.651C86.9448 442.234 86.705 441.319 87.1215 440.606C87.5376 439.893 88.4536 439.652 89.1666 440.069L104.822 449.217C105.535 449.634 105.775 450.549 105.358 451.262C104.944 451.972 104.03 452.218 103.313 451.799Z" fill="#27254C"/>
<path d="M501.8 493.941C476.396 495.686 485.158 495.084 483.262 495.215L482.399 482.596L481.92 477.054L500.457 475.793L501.8 493.941Z" fill="#FCA987"/>
<g opacity="0.4">
<path d="M501.8 493.941C501.751 493.984 501.703 494.004 501.654 494.036C500.168 494.865 498.185 494.665 496.599 494.156C492.687 493.008 494.678 490.59 494.695 488.59C494.707 487.178 493.76 485.9 492.572 485.128C491.372 484.354 489.971 484.008 488.591 483.686C486.551 483.193 484.477 482.698 482.399 482.596L481.92 477.054L500.457 475.793L501.8 493.941Z" fill="#D37652"/>
</g>
<path d="M504.953 498.378L505.16 501.421C505.202 502.045 504.88 502.635 504.331 502.934C502.711 503.817 498.962 505.544 493.632 506.077C486.365 506.805 485.951 509.233 474.339 510.41C463.115 511.548 458.454 509.828 457.84 509.521C457.226 509.214 457.621 505.191 457.621 505.191L504.953 498.378Z" fill="#27254C"/>
<path d="M504.952 498.376C504.952 498.376 500.85 501.781 495.519 501.536C490.548 501.214 482.948 505.655 477.762 506.405C472.417 507.173 459.812 508.844 457.84 506.28C455.868 503.715 465.385 499.816 467.774 499.969C467.961 499.98 468.158 499.938 468.365 499.85C470.83 498.79 474.735 491.055 477.885 488.541C481.299 485.81 487.503 485.243 488.43 489.914C493.353 492.166 497.822 492.372 501.375 488.479C501.426 488.579 505.693 492.786 504.952 498.376Z" fill="#DF2715"/>
<path d="M504.95 498.376C504.95 498.376 500.848 501.782 495.517 501.536C495.447 501.532 495.373 501.528 495.299 501.533C492.114 494.387 504.004 492.458 504.004 492.458C504.729 494.095 505.248 496.131 504.95 498.376Z" fill="#B72214"/>
<path d="M488.428 489.914C488.428 489.914 478.949 501.614 472.746 501.391C470.865 501.324 469.416 500.717 468.363 499.85C470.827 498.79 474.733 491.055 477.883 488.541C481.297 485.81 487.501 485.243 488.428 489.914Z" fill="#B72214"/>
<path d="M443.986 494.827C418.548 493.677 427.321 494.074 425.423 493.988L425.998 481.353L426.151 475.792L444.712 476.643L443.986 494.827Z" fill="#FCA987"/>
<g opacity="0.4">
<path d="M443.988 494.827C443.934 494.864 443.884 494.879 443.832 494.904C442.261 495.559 440.314 495.136 438.796 494.449C435.04 492.865 437.292 490.689 437.536 488.703C437.708 487.302 436.912 485.925 435.819 485.023C434.716 484.118 433.363 483.615 432.028 483.138C430.057 482.417 428.052 481.69 426 481.353L426.153 475.792L444.713 476.643L443.988 494.827Z" fill="#D37652"/>
</g>
<path d="M446.613 499.592L446.473 502.639C446.444 503.264 446.058 503.814 445.478 504.049C443.769 504.742 439.847 506.032 434.491 505.957C427.189 505.855 426.502 508.221 414.832 508.072C403.55 507.929 399.115 505.69 398.54 505.316C397.964 504.942 398.814 500.989 398.814 500.989L446.613 499.592Z" fill="#27254C"/>
<path d="M446.613 499.59C446.613 499.59 442.151 502.508 436.883 501.659C431.98 500.775 423.926 504.325 418.688 504.481C413.29 504.638 400.577 504.867 398.909 502.096C397.241 499.324 407.139 496.53 409.495 496.953C411.864 497.359 417.156 489.054 420.838 486.747C424.54 484.42 430.768 484.562 431.159 489.307C435.795 492.103 440.211 492.816 444.184 489.351C444.22 489.451 447.985 494.118 446.613 499.59Z" fill="#DF2715"/>
<path d="M446.613 499.59C446.613 499.59 442.151 502.508 436.882 501.659C436.813 501.647 436.739 501.634 436.665 501.63C434.312 494.169 446.344 493.603 446.344 493.603C446.879 495.311 447.163 497.393 446.613 499.59Z" fill="#B72214"/>
<path d="M431.156 489.307C431.156 489.307 420.41 499.857 414.273 498.931C412.412 498.651 411.042 497.883 410.094 496.902C412.662 496.129 417.42 488.887 420.835 486.747C424.538 484.421 430.766 484.562 431.156 489.307Z" fill="#B72214"/>
<path d="M372.65 225.123L369.815 231.686L363.276 233.604C365.35 227.425 368.505 224.902 371.424 223.239L372.65 225.123Z" fill="#27254C"/>
<path d="M346.238 209.977L346.341 210.08L351.777 214.22L352.959 215.309C352.959 215.309 350.046 215.513 350.934 217.928C350.934 217.928 348.592 218.845 350.123 220.738C346.856 223.59 354.764 228.569 361.599 228.923C361.711 229.05 365.343 233.163 365.114 232.903C365.425 232.742 365.969 232.849 366.276 232.659C366.954 232.25 367.527 231.676 368.123 231.171C370.64 228.983 371.04 226.39 371.101 225.009C365.16 217.013 354.991 209.756 346.053 206.777C344.832 206.742 345.077 208.905 346.238 209.977Z" fill="#FCA987"/>
<path d="M355.327 218.563C354.345 217.693 352.813 215.551 352.748 215.46C352.666 215.345 352.692 215.185 352.808 215.102C352.923 215.021 353.083 215.047 353.165 215.162C353.181 215.184 354.729 217.348 355.667 218.179C355.773 218.273 355.783 218.435 355.689 218.541C355.595 218.647 355.433 218.657 355.327 218.563Z" fill="#B55C38"/>
<path d="M349.931 220.687C349.829 220.589 349.826 220.427 349.924 220.324C350.022 220.222 350.185 220.219 350.287 220.317C351.917 221.881 353.898 223.427 354.426 223.329C354.712 223.27 354.891 223.146 354.975 222.951C355.204 222.415 354.724 221.447 354.52 221.12C354.445 220.999 354.482 220.841 354.602 220.766C354.722 220.692 354.88 220.727 354.956 220.848C355.697 222.041 355.929 223.541 354.53 223.831C353.521 224.038 350.667 221.393 349.931 220.687Z" fill="#B55C38"/>
<path d="M351.314 225.508C351.206 225.418 351.19 225.256 351.28 225.147C351.371 225.037 351.533 225.023 351.642 225.113C352.496 225.821 352.781 225.807 352.83 225.796C353.081 225.743 353.247 225.625 353.337 225.434C353.633 224.802 353.098 223.535 352.866 223.1C352.799 222.975 352.847 222.82 352.972 222.753C353.096 222.687 353.251 222.733 353.319 222.859C354.015 224.169 354.395 225.995 352.934 226.298C352.434 226.402 351.711 225.837 351.314 225.508Z" fill="#B55C38"/>
<path d="M350.69 218.075C350.588 217.977 350.585 217.815 350.683 217.712C350.78 217.61 350.943 217.607 351.045 217.705C352.676 219.269 354.656 220.812 355.185 220.717C355.47 220.658 355.649 220.534 355.733 220.34C355.963 219.803 355.483 218.835 355.279 218.507C355.1 218.219 355.533 217.948 355.714 218.236C356.456 219.429 356.687 220.929 355.289 221.22C354.28 221.427 351.426 218.781 350.69 218.075Z" fill="#B55C38"/>
<path d="M503.564 479.369C503.564 481.906 478.587 481.9 478.587 479.369L463.006 362.416C462.813 364.042 464.908 346.375 449.132 479.369C449.132 483.127 422.63 482.547 422.63 478.789C422.668 477.448 427.398 314.554 427.687 304.591H496.971L503.564 479.369Z" fill="#27254C"/>
<path d="M503.564 479.369C503.564 481.828 480.048 481.903 478.662 479.583C484.472 476.706 488.466 470.756 490.313 464.496C492.311 457.72 492.182 456.901 491.924 449.846C491.097 426.566 485.567 403.339 486.297 380.059C486.673 367.742 487.06 355.34 485.159 343.162C484.772 340.725 484.214 338.137 482.431 336.429C480.681 334.743 478.039 334.271 475.613 334.561C473.197 334.851 470.92 335.796 468.622 336.612C459.076 339.984 448.746 341.122 438.684 339.93C434.102 339.386 429.33 338.196 426.754 334.379L427.688 304.591H496.971L503.564 479.369Z" fill="#18142E"/>
<path d="M427.198 307.255C446.612 310.343 467.42 309.974 481.279 306.315L427.198 307.255Z" fill="white"/>
<path d="M453.6 309.704C445.015 309.704 435.948 309.01 427.142 307.61C426.946 307.579 426.812 307.394 426.843 307.199C426.875 307.003 427.064 306.873 427.255 306.901C446.655 309.986 467.32 309.628 481.187 305.968C481.38 305.917 481.576 306.032 481.626 306.224C481.676 306.415 481.562 306.611 481.37 306.662C473.719 308.682 464.016 309.704 453.6 309.704Z" fill="#3C4150"/>
<path d="M498.846 314.9C499.115 326.315 426.535 328.022 426.256 316.597C426.32 315.512 427.298 273.891 428.017 254.702C422.025 260.371 414.884 265.955 409.408 266.761C404.458 267.48 396.458 262.702 388.49 256.549C388.009 256.388 378.182 248.474 367.421 237.811C364.833 235.255 363.266 233.601 363.266 233.601C367.991 232.087 371.373 228.801 371.427 223.239C417.355 247.917 401.514 239.405 404.941 241.247C405.875 241.505 406.895 241.193 407.529 240.442L431.926 211.685V211.706C434.396 208.517 441.386 206.24 449.891 205.07C456.989 204.093 465.15 203.878 472.635 204.533C482.922 205.424 491.942 207.948 495.206 212.372C498.245 216.914 499.512 222.058 499.19 227.738C500.525 249.269 499.064 285.642 498.846 314.9Z" fill="#CECEF6"/>
<path d="M498.847 305.385V314.899C499.116 326.314 426.536 328.021 426.257 316.596C426.26 316.496 426.532 306.383 426.515 307.028C426.792 318.414 498.847 316.768 498.847 305.385Z" fill="#CECEF6"/>
<path d="M473.045 204.57L473.024 205.15L472.938 205.461C471.069 212.613 467.064 217.434 460.696 220.194L459.332 220.785L458.151 219.893C453.566 216.468 450.248 211.024 449.518 205.676L449.432 205.128L449.84 205.075C457.099 204.076 465.217 203.883 472.669 204.538L473.045 204.57Z" fill="#EDF1F5"/>
<path d="M499.622 266.771C499.234 293.313 499.324 287.156 499.31 288.103C456.733 300.216 438.51 292.435 426.892 292.478C434.739 289.91 481.445 274.622 493.426 270.701C494.274 269.863 499.622 266.771 499.622 266.771Z" fill="#BBBACC"/>
<path d="M449.611 475.03L449.128 479.369C449.128 483.127 422.626 482.547 422.626 478.789C422.665 477.448 422.153 495.31 426.922 328.838C431.271 330.008 433.73 332.006 434.03 336.752C434.471 343.592 433.375 350.744 433.085 357.584C432.441 372.918 432.205 388.274 432.377 403.63C432.559 420.703 433.118 437.831 434.46 454.851C435.083 463.753 436.618 467.578 444.199 472.282C445.896 473.334 447.861 474.075 449.611 475.03Z" fill="#18142E"/>
<path d="M483.63 255.066C479.951 256.334 489.467 253.055 427.383 274.449C496.228 240.386 470.926 252.905 476.714 250.041L480.709 227.211L483.63 255.066Z" fill="#FAB01B"/>
<path d="M428.018 237.756V254.701C423.574 258.903 415.485 265.917 409.408 266.76C404.458 267.479 396.458 262.701 388.49 256.548C389.435 256.977 403.427 265.997 410.6 262.754C422.692 257.278 428.018 237.756 428.018 237.756Z" fill="#FAB01B"/>
<path d="M366.377 236.776C363.789 234.22 363.267 233.6 363.267 233.6C367.992 232.086 371.374 228.8 371.428 223.238L374.928 225.117C374.928 225.117 374.936 233.604 366.377 236.776Z" fill="#EDF1F5"/>
<path d="M463.002 362.416L460.21 387.275L460.768 348.317L463.002 362.416Z" fill="#18142E"/>
<path d="M361.051 222.387C357.179 219.373 359.504 216.514 359.504 216.514C359.504 216.514 357.536 214.662 356.97 213.964C355.884 212.624 355.933 210.561 356.456 210.137C358.337 208.614 368.501 221.815 368.501 221.815" fill="#FCA987"/>
<path d="M360.895 222.589C358.287 220.559 358.089 218.227 359.168 216.549C358.682 216.087 357.252 214.718 356.772 214.126C356.683 214.015 356.7 213.854 356.81 213.764C356.92 213.676 357.081 213.692 357.171 213.802C357.719 214.48 359.662 216.309 359.681 216.328C359.779 216.42 359.789 216.572 359.705 216.676C359.697 216.685 358.934 217.652 359.091 219C359.221 220.12 359.934 221.192 361.21 222.185C361.322 222.272 361.342 222.433 361.255 222.545C361.168 222.656 361.007 222.677 360.895 222.589Z" fill="#B55C38"/>
<path d="M423.86 275.574C420.915 275.788 422.036 293.494 424.982 293.28C426.374 291.564 427.079 285.668 427.785 280.942L423.86 275.574Z" fill="#27254C"/>
<path d="M409.505 259.75L424.781 308.471C425.326 310.21 424.359 312.061 422.62 312.606L388.087 323.434C386.349 323.979 384.497 323.011 383.952 321.273L368.677 272.556C368.132 270.818 369.1 268.966 370.838 268.421L405.376 257.592C407.112 257.048 408.961 258.014 409.505 259.75Z" fill="#C86150"/>
<path d="M395.523 259.12L396.209 261.308C396.336 261.714 396.11 262.146 395.705 262.273L381.45 266.742C381.044 266.87 380.607 266.641 380.48 266.235L379.796 264.056C379.669 263.648 379.895 263.214 380.303 263.086L394.558 258.616C394.964 258.489 395.396 258.715 395.523 259.12Z" fill="#8D3826"/>
<path d="M427.753 289.461C427.099 289.758 417.692 292.957 412.464 293.372C400.869 294.303 399.542 290.6 403.235 290.947C403.285 290.976 403.374 290.976 403.423 290.996C403.374 290.976 403.314 290.947 403.265 290.937C403.235 290.947 403.235 290.947 403.235 290.947C399.968 290.263 399.146 287.847 400.829 287.659C396.967 286.887 396.848 284.114 399.522 284.53C400.869 284.678 403.037 284.451 405.315 284.015C399.165 284.153 398.413 280.222 401.591 280.708C405.542 281.232 415.594 279.722 415.594 279.722L414.112 274.445C414.627 274.356 415.405 274.42 416.059 274.459C418.158 274.608 424.713 277.984 424.98 278.103C424.98 278.103 425.02 278.093 425.03 278.123C426.387 279.855 428.043 285.688 427.753 289.461Z" fill="#FCA987"/>
<path d="M404.904 284.259C404.572 284.246 404.574 283.743 404.923 283.746C404.938 283.748 406.306 283.794 407.955 283.604C408.095 283.584 408.223 283.689 408.239 283.829C408.255 283.97 408.154 284.097 408.013 284.113C406.968 284.234 405.847 284.283 404.904 284.259Z" fill="#B55C38"/>
<path d="M400.769 287.854C400.628 287.837 400.528 287.709 400.545 287.569C400.561 287.427 400.698 287.324 400.83 287.345C400.855 287.348 403.298 287.632 405.734 286.991C406.071 286.912 406.188 287.402 405.865 287.488C404.518 287.841 402.09 288.014 400.769 287.854Z" fill="#B55C38"/>
<path d="M403.146 291.178C402.815 291.129 402.878 290.626 403.218 290.67C403.237 290.672 404.954 290.905 407.385 290.265C407.72 290.185 407.839 290.676 407.515 290.762C405.708 291.236 404.004 291.298 403.146 291.178Z" fill="#B55C38"/>
<path d="M418.987 280.404L415.549 279.781C415.41 279.756 415.318 279.622 415.343 279.483C415.368 279.343 415.506 279.253 415.641 279.277L419.079 279.899C419.218 279.924 419.311 280.058 419.285 280.197C419.26 280.338 419.125 280.43 418.987 280.404Z" fill="#B55C38"/>
<path d="M490.111 276.639C478.203 281.675 445.752 289.321 430.622 291.898C429.859 292.027 429.118 292.209 428.431 292.403V292.413C427.078 292.779 425.886 293.186 424.984 293.273C427.024 287.152 426.885 280.344 423.867 275.576C500.364 249.329 483.112 255.248 485.709 254.357L493.139 210.374C498.237 214.676 500.671 221.603 501.462 228.253C503.459 245.176 505.521 270.11 490.111 276.639Z" fill="#CECEF6"/>
<path d="M428.431 292.403V292.414C427.078 292.779 425.886 293.187 424.984 293.273C427.024 287.152 426.885 280.344 423.867 275.576L427.679 274.266L427.787 274.309C427.787 274.309 432.018 282.588 428.431 292.403Z" fill="#EDF1F5"/>
<path d="M475.745 186.597C475.541 190.302 474.156 192.331 471.536 194.779C471.106 195.177 470.644 195.585 470.14 196.025L470.473 204.411C468.937 210.275 465.683 214.838 459.67 217.448C455.621 214.42 452.658 209.523 452.035 204.927L452.518 201.963C452.207 201.909 451.885 201.845 451.562 201.791C436.422 198.86 447.901 157.335 447.901 157.335L447.772 156.755C483.348 153.298 476.379 174.484 475.745 186.597Z" fill="#FCA987"/>
<path d="M443.22 165.868C444.919 165.632 447.051 164.155 448.695 164.413C450.612 164.686 450.55 164.615 452.359 164.227C452.951 164.117 454.539 165.919 455.043 165.967C455.548 166.016 456.436 166.335 456.999 166.563C458.677 167.324 458.973 166.453 460.898 166.574C462.56 166.656 465.021 167.723 466.639 168.313C469.412 169.223 470.924 171.975 471.087 174.696C470.667 178.675 470.478 180.489 470.226 182.768C469.657 187.896 468.077 197.829 463.363 202.284C458.758 206.627 452.289 207.066 448.207 206.638C444.137 206.212 442.368 205.39 439.433 199.797C438.079 197.21 437.085 194.561 436.699 191.416C436.148 186.977 436.443 182.287 436.729 179.282C436.947 176.999 437.121 175.347 437.858 171.412C438.362 168.743 440.314 166.196 443.22 165.868Z" fill="#F7B68D"/>
<path d="M446.424 194.431C445.652 194.294 444.841 193.953 444.201 193.499C443.192 192.777 443.45 191.365 443.713 190.325C444.264 188.141 445.379 185.942 446.767 184.186C446.158 186.084 445.404 187.934 444.812 189.855C444.624 190.532 444.053 191.944 444.461 192.645C444.903 193.369 445.784 193.888 446.424 194.431Z" fill="#DCA57C"/>
<path d="M438.599 183.654C438.599 183.654 438.668 183.611 438.787 183.529C438.903 183.468 439.056 183.321 439.269 183.249C439.366 183.206 439.472 183.163 439.584 183.109C439.693 183.053 439.838 183.064 439.964 183.025C440.222 182.932 440.512 182.976 440.796 182.976C441.065 183.037 441.357 183.053 441.597 183.201C441.714 183.26 441.854 183.278 441.945 183.359C442.049 183.436 442.144 183.501 442.24 183.567C442.431 183.688 442.538 183.839 442.642 183.934L442.8 184.087C442.8 184.087 442.758 184.021 442.696 183.895C442.613 183.785 442.556 183.556 442.378 183.392L442.094 183.119C441.997 183.004 441.856 182.954 441.724 182.877C441.47 182.708 441.147 182.658 440.832 182.576C440.508 182.598 440.187 182.583 439.9 182.691C439.753 182.735 439.613 182.759 439.488 182.844C439.371 182.927 439.251 182.998 439.151 183.064C438.939 183.189 438.851 183.386 438.748 183.48C438.65 183.589 438.599 183.654 438.599 183.654Z" fill="#401F15"/>
<path d="M453.526 178.471C454.433 177.765 455.752 178.024 456.717 178.576C458.331 179.5 459.431 181.077 459.917 182.86C459.981 183.102 459.686 183.353 459.526 183.092C459.341 183.037 458.946 182.253 458.838 182.112C458.286 181.394 457.414 180.272 456.494 180.015C455.763 179.703 455.079 179.474 454.303 179.549C453.403 179.632 452.692 179.124 453.526 178.471Z" fill="#401F15"/>
<path d="M454.508 185.499C454.423 186.28 454.998 186.977 455.777 187.054C456.554 187.129 457.252 186.571 457.333 185.788C457.414 185.007 456.842 184.306 456.064 184.235C455.285 184.152 454.586 184.721 454.508 185.499Z" fill="#401F15"/>
<path d="M439.192 184.175C439.109 184.957 439.677 185.651 440.455 185.728C441.237 185.81 441.932 185.242 442.009 184.465C442.087 183.688 441.518 182.992 440.741 182.91C439.964 182.828 439.269 183.398 439.192 184.175Z" fill="#401F15"/>
<path d="M450.529 197.024C450.529 197.024 445.329 198.972 442.534 196.264C442.534 196.264 442.718 199.931 445.322 200.128C447.931 200.324 449.194 199.432 450.529 197.024Z" fill="white"/>
<path d="M476.114 197.098C472.133 198.558 470.215 195.88 470.215 195.88C470.215 195.88 480.276 184.093 472.543 181.174C469.105 179.871 467.368 185.698 467.332 185.915C467.078 187.616 462.94 188.062 463.929 183.683C465.208 178.025 464.665 172.065 464.665 172.065C420.583 177.325 440.742 147.986 444.241 152.075C447.727 156.177 460.141 151.677 460.141 151.677C476.536 150.217 477.851 163.331 477.851 163.331C489.819 162.981 480.095 195.626 476.114 197.098Z" fill="#27254C"/>
<path d="M196.775 171.389H176.468V185.947H196.775V171.389Z" fill="#F69E7C"/>
<path d="M202.506 156.852C202.506 167.758 195.553 176.596 186.979 176.596C178.396 176.596 171.442 167.758 171.442 156.852C171.442 145.946 178.396 137.108 186.979 137.108C195.552 137.108 202.506 145.946 202.506 156.852Z" fill="#FCA987"/>
<path d="M197.268 157.634C197.268 157.634 197.205 157.594 197.093 157.518C196.985 157.461 196.843 157.324 196.644 157.257C196.555 157.218 196.455 157.177 196.351 157.126C196.25 157.075 196.115 157.085 195.997 157.049C195.758 156.962 195.487 157.003 195.222 157.003C194.973 157.06 194.701 157.075 194.477 157.213C194.368 157.268 194.238 157.284 194.153 157.359C194.056 157.431 193.967 157.492 193.878 157.553C193.7 157.666 193.6 157.807 193.504 157.895L193.357 158.038C193.357 158.038 193.396 157.976 193.454 157.859C193.531 157.756 193.584 157.543 193.749 157.391L194.014 157.136C194.104 157.029 194.236 156.982 194.359 156.911C194.596 156.753 194.896 156.707 195.189 156.63C195.49 156.651 195.789 156.637 196.057 156.737C196.194 156.778 196.324 156.801 196.44 156.88C196.55 156.957 196.662 157.023 196.754 157.085C196.951 157.201 197.034 157.385 197.129 157.472C197.221 157.574 197.268 157.634 197.268 157.634Z" fill="#401F15"/>
<path d="M183.368 152.809C182.524 152.151 181.296 152.392 180.397 152.906C178.894 153.767 177.87 155.235 177.417 156.895C177.358 157.121 177.632 157.354 177.782 157.111C177.954 157.06 178.322 156.33 178.422 156.199C178.936 155.53 179.748 154.485 180.605 154.246C181.286 153.955 181.922 153.742 182.645 153.812C183.483 153.889 184.144 153.416 183.368 152.809Z" fill="#401F15"/>
<path d="M182.454 159.353C182.533 160.08 181.998 160.729 181.273 160.801C180.549 160.871 179.899 160.351 179.823 159.622C179.748 158.895 180.281 158.242 181.006 158.176C181.731 158.099 182.381 158.629 182.454 159.353Z" fill="#401F15"/>
<path d="M196.716 158.12C196.793 158.848 196.264 159.494 195.539 159.566C194.811 159.642 194.165 159.113 194.092 158.39C194.02 157.666 194.55 157.018 195.274 156.942C195.997 156.866 196.644 157.396 196.716 158.12Z" fill="#401F15"/>
<path d="M172.517 156.345C172.517 156.345 174.167 144.294 179.277 142.386C179.277 142.386 187.308 145.404 196.215 143.407C196.215 143.407 202.073 147.734 201.821 151.03C201.568 154.327 201.4 157.594 201.4 157.594L202.931 157.735C202.931 157.735 207.847 148.512 204.489 143.406C204.489 143.406 207.421 141.942 207.859 139.744C208.297 137.547 204.902 137.547 204.902 137.547C204.902 137.547 206.91 134.883 205.523 134.051C204.136 133.219 200.85 133.352 200.85 133.352C200.85 133.352 201.617 130.156 199.098 129.989C196.58 129.823 194.901 130.356 194.901 130.356C194.901 130.356 196.397 127.859 193.404 127.692C190.411 127.526 186.688 129.656 186.688 129.656L186.724 127.492C186.724 127.492 173.766 129.324 173.62 138.779C173.62 138.779 169.349 141.875 169.239 145.804C169.13 149.732 170.846 156.391 170.846 156.391L172.517 156.345Z" fill="#27254C"/>
<path d="M221.938 192.852C220.961 197.107 217.156 200.272 212.61 200.272H159.95C154.652 200.272 150.353 195.984 150.353 190.686V188.463C151.419 186.263 153.417 184.568 155.898 183.917C162.083 182.311 170.132 181.806 170.132 181.806C170.324 180.268 173.132 177.934 174.353 176.968C174.892 176.553 175.644 176.553 176.183 176.968C189.002 186.951 185.954 184.578 186.432 184.949L196.77 177.271C196.926 177.168 197.104 176.98 197.444 176.89C197.859 176.766 198.331 176.822 198.701 177.058C198.78 177.114 198.858 177.17 198.926 177.238C198.937 177.26 198.948 177.271 198.971 177.283C200.294 178.606 201.277 180.794 201.901 182.559L215.809 186.914C218.492 188.227 220.602 190.338 221.938 192.852Z" fill="#C86150"/>
<path d="M205.7 160.54C204.608 162.741 202.637 164.079 201.299 163.525C199.952 162.97 199.749 160.734 200.841 158.533C201.932 156.342 203.904 155.004 205.251 155.558C206.589 156.113 206.791 158.34 205.7 160.54Z" fill="#FCA987"/>
<path d="M172.727 156.729C173.819 158.93 173.616 161.165 172.269 161.72C170.931 162.275 168.959 160.937 167.868 158.736C166.776 156.535 166.979 154.308 168.317 153.754C169.664 153.199 171.635 154.537 172.727 156.729Z" fill="#FCA987"/>
<path d="M201.909 182.56C201.909 182.56 191.267 191.574 186.628 191.574C181.628 191.583 170.132 181.803 170.132 181.803C170.292 180.307 173.169 177.912 174.357 176.971C174.894 176.548 175.651 176.548 176.188 176.971L186.434 184.954L196.988 177.111C197.516 176.716 198.382 176.704 198.969 177.287C200.228 178.538 201.134 180.439 201.909 182.56Z" fill="#FCCF36"/>
<path d="M201.909 182.56C201.909 182.56 191.267 191.574 186.628 191.574C181.628 191.583 170.132 181.803 170.132 181.803C170.185 181.31 170.537 180.703 171.047 180.078C172.899 181.16 173.809 182.901 175.281 184.4C177.235 186.363 179.912 187.516 182.649 187.903C187.053 188.526 192.346 187.166 194.62 185.667C195.501 184.796 196.434 184.189 197.138 183.106C198.256 181.381 198.81 179.33 198.969 177.287C200.228 178.537 201.134 180.439 201.909 182.56Z" fill="#FBC52D"/>
<g opacity="0.2">
<path d="M392.155 440.262C392.155 444.421 377.173 447.798 358.686 447.798C340.209 447.798 325.217 444.421 325.217 440.262C325.217 436.094 340.209 432.717 358.686 432.717C377.173 432.717 392.155 436.094 392.155 440.262Z" fill="#9A9AE2"/>
</g>
<g opacity="0.2">
<path d="M266.103 471.458C266.103 475.617 251.121 478.994 232.634 478.994C214.157 478.994 199.165 475.617 199.165 471.458C199.165 467.289 214.157 463.913 232.634 463.913C251.121 463.913 266.103 467.289 266.103 471.458Z" fill="#9A9AE2"/>
</g>
<g opacity="0.2">
<path d="M183.577 498.993C183.577 503.152 168.595 506.529 150.108 506.529C131.63 506.529 116.639 503.152 116.639 498.993C116.639 494.824 131.63 491.448 150.108 491.448C168.595 491.448 183.577 494.824 183.577 498.993Z" fill="#9A9AE2"/>
</g>
<g opacity="0.2">
<path d="M380.768 493.608C380.768 497.93 365.198 501.44 345.985 501.44C326.782 501.44 311.201 497.93 311.201 493.608C311.201 489.275 326.782 485.766 345.985 485.766C365.198 485.766 380.768 489.276 380.768 493.608Z" fill="#9A9AE2"/>
</g>
<path d="M336.886 144.268C336.886 154.328 328.748 162.496 318.688 162.496C308.627 162.496 300.48 154.336 300.48 144.268C300.48 134.239 308.618 126.061 318.688 126.061C328.735 126.061 336.886 134.245 336.886 144.268Z" fill="#FAB01B"/>
<path d="M332.306 140.179C332.306 150.249 324.168 158.417 314.098 158.417C310.55 158.417 307.248 157.405 304.457 155.647C301.973 152.529 300.48 148.572 300.48 144.268C300.48 134.239 308.618 126.061 318.688 126.061C322.236 126.061 325.538 127.073 328.329 128.841C330.823 131.949 332.306 135.895 332.306 140.179Z" fill="#FCCF36"/>
<path d="M318.683 153.868C317.857 153.868 317.188 153.199 317.188 152.373V136.192C317.188 135.366 317.857 134.697 318.683 134.697C319.509 134.697 320.178 135.366 320.178 136.192V152.373C320.178 153.199 319.509 153.868 318.683 153.868Z" fill="#27254C"/>
<path d="M311.7 149.857C310.177 149.857 309.632 147.837 310.944 147.071L324.912 138.909C325.624 138.491 326.54 138.733 326.957 139.445C327.373 140.158 327.133 141.073 326.42 141.49L312.452 149.652C312.215 149.791 311.956 149.857 311.7 149.857Z" fill="#27254C"/>
<path d="M324.911 149.652L310.943 141.49C310.23 141.073 309.99 140.158 310.407 139.445C310.823 138.733 311.739 138.491 312.452 138.909L326.42 147.071C327.133 147.487 327.373 148.403 326.956 149.116C326.542 149.825 325.627 150.072 324.911 149.652Z" fill="#27254C"/>
<path d="M329.311 240.372V299.542C329.311 304.432 325.348 308.396 320.457 308.396H271.778C266.887 308.396 262.913 304.432 262.913 299.542V240.372C262.913 235.481 266.887 231.507 271.778 231.507H320.457C325.348 231.507 329.311 235.481 329.311 240.372Z" fill="#EDF1F5"/>
<path d="M334.232 230.428V250.439C334.232 252.602 332.48 254.354 330.317 254.354H309.492C307.336 254.354 305.577 252.602 305.577 250.439V230.428C305.577 228.265 307.336 226.513 309.492 226.513H330.317C332.48 226.513 334.232 228.265 334.232 230.428Z" fill="#27254C"/>
<path d="M321.796 276.98H270.423C269.842 276.98 269.371 276.509 269.371 275.928C269.371 275.348 269.842 274.876 270.423 274.876H321.796C322.377 274.876 322.848 275.348 322.848 275.928C322.848 276.509 322.377 276.98 321.796 276.98Z" fill="#BFC9D1"/>
<path d="M321.797 287.707H270.424C269.843 287.707 269.372 287.236 269.372 286.655C269.372 286.074 269.843 285.603 270.424 285.603H321.797C322.378 285.603 322.849 286.074 322.849 286.655C322.849 287.236 322.378 287.707 321.797 287.707Z" fill="#BFC9D1"/>
<path d="M301.003 298.434H270.424C269.843 298.434 269.372 297.962 269.372 297.382C269.372 296.801 269.843 296.33 270.424 296.33H301.003C301.584 296.33 302.055 296.801 302.055 297.382C302.055 297.963 301.584 298.434 301.003 298.434Z" fill="#BFC9D1"/>
<path d="M321.797 266.253H270.424C269.843 266.253 269.372 265.782 269.372 265.201C269.372 264.621 269.843 264.15 270.424 264.15H321.797C322.378 264.15 322.849 264.621 322.849 265.201C322.849 265.782 322.378 266.253 321.797 266.253Z" fill="#BFC9D1"/>
<path d="M328.912 241.997C328.714 244.994 326.248 249.187 322.876 249.562C319.505 249.936 317.08 246.565 315.498 246.44C313.906 246.315 313.344 250.706 313.344 250.706H310.837C310.837 250.706 310.597 243.869 314.062 244.015C317.517 244.161 320.369 243.516 320.837 241.424C321.243 239.645 320.504 238.375 318.922 236.783C318.329 236.179 317.975 235.316 317.944 234.4L317.829 230.165H320.119V233.151C320.119 233.151 320.067 235.357 321.264 235.024C322.471 234.702 324.011 232.006 326.529 233.755C329.037 235.503 329.099 239 328.912 241.997Z" fill="white"/>
</svg>
