<svg width="35" height="44" viewBox="0 0 35 44" fill="none" xmlns="http://www.w3.org/2000/svg">
<path d="M17.2688 32.4891C16.062 32.4894 14.8995 32.0351 14.0126 31.2167C13.1258 30.3984 12.5797 29.276 12.4831 28.0731C9.282 26.94 6.58407 24.7124 4.86561 21.7836C3.14714 18.8547 2.51864 15.4129 3.09105 12.0658C3.66346 8.71857 5.39997 5.68122 7.99405 3.48987C10.5881 1.29851 13.873 0.0940564 17.2688 0.0891115C20.8805 0.088588 24.3606 1.44532 27.0189 3.89029C29.6773 6.33526 31.3198 9.68993 31.6208 13.2891C31.6308 13.4452 31.6082 13.6017 31.5545 13.7487C31.5008 13.8956 31.4171 14.0297 31.3088 14.1426C31.2005 14.2554 31.0698 14.3445 30.9252 14.4042C30.7806 14.4638 30.6251 14.4928 30.4688 14.4891C30.1473 14.4811 29.8403 14.3538 29.6074 14.132C29.3746 13.9102 29.2325 13.6098 29.2088 13.2891C28.995 11.1671 28.2196 9.14043 26.9623 7.41769C25.705 5.69494 24.0114 4.33841 22.0556 3.48772C20.0999 2.63703 17.9528 2.32294 15.8353 2.57778C13.7179 2.83261 11.7066 3.64717 10.0085 4.93759C8.31048 6.22801 6.98702 7.94766 6.17439 9.91951C5.36177 11.8914 5.08935 14.0442 5.38517 16.1563C5.68099 18.2684 6.53437 20.2635 7.85746 21.9362C9.18054 23.609 10.9255 24.8989 12.9128 25.6731C13.2743 24.8918 13.8394 24.2221 14.5488 23.7342C15.2581 23.2464 16.0856 22.9582 16.9446 22.9001C17.8036 22.8419 18.6624 23.0158 19.431 23.4036C20.1996 23.7914 20.8498 24.3788 21.3134 25.1043C21.7771 25.8297 22.037 26.6665 22.0661 27.5269C22.0952 28.3874 21.8923 29.2398 21.4788 29.9949C21.0652 30.75 20.4562 31.38 19.7155 31.8188C18.9748 32.2576 18.1297 32.4891 17.2688 32.4891ZM5.29035 26.4891H5.50875C6.44475 27.4035 7.48395 28.2099 8.60955 28.8891H5.29035C3.94395 28.8891 2.86875 29.9619 2.86875 31.2891C2.86875 34.4307 4.36155 36.7707 6.88395 38.3763C9.45195 40.0155 13.1048 40.8891 17.2688 40.8891C21.4328 40.8891 25.0856 40.0155 27.6536 38.3763C30.1736 36.7683 31.6688 34.4331 31.6688 31.2891C31.6688 30.6526 31.4159 30.0421 30.9658 29.5921C30.5157 29.142 29.9053 28.8891 29.2688 28.8891H24.3703C24.5046 28.0947 24.5046 27.2835 24.3703 26.4891H29.2688C30.5418 26.4891 31.7627 26.9948 32.6629 27.895C33.563 28.7952 34.0688 30.0161 34.0688 31.2891C34.0688 35.3475 32.0696 38.4075 28.9447 40.4019C25.8679 42.3627 21.7208 43.2891 17.2688 43.2891C12.8168 43.2891 8.66955 42.3627 5.59275 40.4019C2.46795 38.4099 0.46875 35.3451 0.46875 31.2891C0.46875 28.6179 2.63595 26.4891 5.29035 26.4891ZM26.8688 14.4891C26.8693 16.113 26.4578 17.7106 25.6729 19.1322C24.888 20.5539 23.7553 21.7532 22.3808 22.6179C21.74 21.9719 20.9827 21.4531 20.1488 21.0891C21.6648 20.4275 22.9068 19.264 23.6659 17.7943C24.4249 16.3246 24.6548 14.6384 24.3169 13.0192C23.9789 11.3999 23.0937 9.94644 21.8101 8.9031C20.5266 7.85976 18.9229 7.2902 17.2688 7.2902C15.6146 7.2902 14.0109 7.85976 12.7274 8.9031C11.4438 9.94644 10.5586 11.3999 10.2206 13.0192C9.88267 14.6384 10.1126 16.3246 10.8716 17.7943C11.6307 19.264 12.8727 20.4275 14.3888 21.0891C13.5488 21.4563 12.7927 21.9771 12.1567 22.6179C10.3338 21.4715 8.94918 19.7454 8.22555 17.7171C7.85639 16.681 7.66805 15.5891 7.66875 14.4891C7.66875 11.943 8.68018 9.50124 10.4805 7.70089C12.2809 5.90054 14.7227 4.88911 17.2688 4.88911C19.8148 4.88911 22.2566 5.90054 24.057 7.70089C25.8573 9.50124 26.8688 11.943 26.8688 14.4891Z" fill="#0D99FF"/>
</svg>
