<svg width="52" height="52" viewBox="0 0 52 52" fill="none" xmlns="http://www.w3.org/2000/svg">
<path d="M26 0C32.8956 0 39.5088 2.73928 44.3848 7.61522C49.2607 12.4912 52 19.1044 52 26C52 32.8956 49.2607 39.5088 44.3848 44.3848C39.5088 49.2607 32.8956 52 26 52C19.1044 52 12.4912 49.2607 7.61522 44.3848C2.73928 39.5088 0 32.8956 0 26C0 19.1044 2.73928 12.4912 7.61522 7.61522C12.4912 2.73928 19.1044 0 26 0ZM26 48.2857C31.9105 48.2857 37.579 45.9378 41.7584 41.7584C45.9378 37.579 48.2857 31.9105 48.2857 26C48.2857 20.0895 45.9378 14.421 41.7584 10.2416C37.579 6.06224 31.9105 3.71429 26 3.71429C20.0895 3.71429 14.421 6.06224 10.2416 10.2416C6.06224 14.421 3.71429 20.0895 3.71429 26C3.71429 31.9105 6.06224 37.579 10.2416 41.7584C14.421 45.9378 20.0895 48.2857 26 48.2857ZM23.2143 33.9151L35.0889 26L23.2143 18.0849V33.9151ZM23.8309 14.0289L38.3091 23.6823C38.6907 23.9367 39.0035 24.2813 39.2198 24.6857C39.4362 25.09 39.5494 25.5414 39.5494 26C39.5494 26.4586 39.4362 26.91 39.2198 27.3144C39.0035 27.7187 38.6907 28.0633 38.3091 28.3177L23.8309 37.9711C23.4113 38.2508 22.9238 38.4114 22.4202 38.4357C21.9166 38.46 21.4158 38.3472 20.9713 38.1093C20.5268 37.8714 20.1551 37.5174 19.896 37.0848C19.6369 36.6523 19.5 36.1576 19.5 35.6534V16.3429C19.5 15.8387 19.6369 15.3439 19.896 14.9114C20.1551 14.4789 20.5268 14.1248 20.9713 13.8869C21.4158 13.649 21.9166 13.5363 22.4202 13.5606C22.9238 13.5849 23.4113 13.7455 23.8309 14.0251V14.0289Z" fill="black"/>
</svg>
